<?xml version="1.0" encoding="utf-8"?>
<!-- Svg Vector Icons : http://www.onlinewebfonts.com/icon -->
<!DOCTYPE svg PUBLIC "-//W3C//DTD SVG 1.1//EN" "http://www.w3.org/Graphics/SVG/1.1/DTD/svg11.dtd">
<svg version="1.1" xmlns="http://www.w3.org/2000/svg" xmlns:xlink="http://www.w3.org/1999/xlink" x="0px" y="0px" viewBox="0 0 1000 1000" enable-background="new 0 0 1000 1000" xml:space="preserve">
<metadata> Svg Vector Icons : http://www.onlinewebfonts.com/icon </metadata>
<g><g transform="translate(0.000000,512.000000) scale(0.100000,-0.100000)"><path d="M4689.7,5016.6c-759.2-65.2-1353.5-232-1968.9-554.1c-893.4-465.9-1652.6-1236.6-2105-2137.6C264.9,1625.1,100,923.4,100,120.1c0-801.4,164.9-1506.9,513.8-2202.8c400.7-795.6,1071.7-1522.2,1842.4-1991.9c1608.5-981.6,3671.4-937.5,5249.1,111.2C9743.3-2608,10471.8,18.5,9423.1,2229c-245.4,511.9-540.6,927.9-964.3,1353.5c-784.1,784.1-1704.4,1240.4-2810.5,1397.6C5448.9,5008.9,4854.5,5031.9,4689.7,5016.6z M6175.5,3331.4c632.7-375.8,1169.5-703.6,1194.4-730.4c23-26.8,42.2-69,42.2-93.9c0-24.9-19.2-67.1-42.2-93.9c-47.9-53.7-2325.5-1411-2367.7-1411c-15.3,0-53.7,13.4-88.2,30.7c-172.5,90.1-2289.1,1357.3-2308.3,1384.2c-40.3,49.8-30.7,145.7,19.2,191.7c38.3,36.4,594.3,370,1880.7,1131.1c253.1,149.5,473.5,272.2,488.9,272.2C5011.7,4012,5542.8,3705.2,6175.5,3331.4z M5109.5,875.5c28.8-36.4,40.3-78.6,40.3-143.8c0-84.4,3.8-93.9,44.1-95.9c23,0,402.6-1.9,843.5-3.8l803.3-3.8l46-55.6l47.9-53.7l-5.8-412.2l-5.7-412.2l-53.7-46c-72.8-61.4-138-59.4-207,9.6l-55.6,55.6V12.8v299.1H4996.4H3386V12.8v-299.1l-55.6-55.6c-69-69-134.2-70.9-207.1-9.6l-53.7,46l-5.7,391.1c-3.8,241.6,1.9,410.3,13.4,442.9c38.3,99.7,84.4,105.4,807.1,105.4c364.3,0,728.5,1.9,811,1.9l147.6,1.9v99.7c0,126.5,49.8,187.9,155.3,187.9C5053.9,925.4,5078.8,913.8,5109.5,875.5z M3491.4-533.6c772.6-93.9,1317.1-582.8,1221.2-1096.6c-74.8-396.9-433.3-701.7-995-841.6c-143.8-36.4-218.6-42.2-504.2-42.2c-297.2,1.9-356.6,7.7-519.6,49.8c-1113.9,299.1-1311.3,1273-356.6,1752.3C2657.5-548.9,3085-483.8,3491.4-533.6z M8211.5-558.5l53.7-46V-1519v-914.5l-53.7-46l-53.7-46H6767.9H5376l-55.6,55.6l-55.6,55.6v895.3v895.3l55.6,55.6l55.6,55.6h1391.9h1389.9L8211.5-558.5z"/><path d="M4037.8,3099.4c-521.5-310.6-960.5-571.3-972-579c-15.3-9.6,352.8-237.7,950.9-594.3l975.8-580.9l975.8,579c534.9,318.2,975.8,579,977.8,580.9c3.8,1.9-1928.7,1150.3-1947.8,1156C4992.6,3663,4559.3,3410,4037.8,3099.4z"/><path d="M2849.2-867.2C2356.5-976.5,2044-1229.5,2044-1519c0-494.6,885.7-832,1658.3-632.7c166.8,42.2,408.3,164.9,513.8,258.8c186,164.9,235.8,373.8,136.1,571.3c-88.2,176.4-308.7,325.9-611.6,418c-147.6,44.1-214.7,51.7-469.7,57.5C3060.1-840.4,2937.4-848,2849.2-867.2z"/><path d="M5590.7-1528.6v-690.2h1179.1h1179v690.2v690.2h-1179H5590.7V-1528.6z"/></g></g>
</svg>