<svg id="Layer_1_1_" enable-background="new 0 0 64 64" height="512" viewBox="0 0 64 64" width="512" xmlns="http://www.w3.org/2000/svg"><path d="m18 27.75c.965 0 1.75-.785 1.75-1.75s-.785-1.75-1.75-1.75-1.75.785-1.75 1.75.785 1.75 1.75 1.75zm0-2c.138 0 .25.112.25.25 0 .275-.5.275-.5 0 0-.138.112-.25.25-.25z"/><path d="m28 27.75c.965 0 1.75-.785 1.75-1.75s-.785-1.75-1.75-1.75-1.75.785-1.75 1.75.785 1.75 1.75 1.75zm0-2c.138 0 .25.112.25.25 0 .275-.5.275-.5 0 0-.138.112-.25.25-.25z"/><path d="m61 40v-2c0-.528-.41-.965-.938-.998l-16-1c-.273-.019-.546.081-.747.269-.201.189-.315.453-.315.729v3c-.553 0-1 .448-1 1v3c0 .552.447 1 1 1h.111l.582 4.948c-.868-2.827-3.482-4.897-6.579-4.947l-8.114-1.803v-2.702l3.321-1.82c.057-.031.11-.067.16-.109 1.601-1.334 2.519-3.294 2.519-5.377v-4.19h.5c1.93 0 3.5-1.57 3.5-3.5 0-1.391-.822-2.585-2-3.149v-3.351c0-5.349-3.018-10.003-7.439-12.359-.99-2.749-3.61-4.641-6.561-4.641s-5.571 1.892-6.561 4.641c-4.421 2.356-7.439 7.01-7.439 12.359v3.351c-1.178.564-2 1.758-2 3.149 0 1.93 1.57 3.5 3.5 3.5h.5v4.19c0 2.083.918 4.043 2.519 5.377.05.042.104.078.16.109l3.321 1.82v2.702l-8.114 1.803c-3.808.061-6.886 3.177-6.886 6.999v9c0 .552.447 1 1 1h40c.553 0 1-.448 1-1v-8.441l1.007 8.558c.059.504.486.883.993.883h12c.507 0 .934-.379.993-.883l1.896-16.117h.111c.553 0 1-.448 1-1v-3c0-.552-.447-1-1-1zm-49 16h-2v-9.198l2-.444zm-2 2h3 20 3v2h-26zm26-2h-2v-9.642l2 .444zm-17-14.457c.727.298 1.509.457 2.298.457h3.404c.789 0 1.571-.159 2.298-.457v4.288c-1.038 1.098-2.478 1.721-4 1.721s-2.962-.623-4-1.721zm4-37.543c1.347 0 2.599.555 3.515 1.465-1.125-.293-2.299-.465-3.515-.465s-2.39.172-3.515.465c.916-.91 2.168-1.465 3.515-1.465zm-12 15c0-6.617 5.383-12 12-12s12 5.383 12 12v3h-.229l-1.709-6.47c-.011-.04-.023-.078-.038-.116-.623-1.558-1.904-2.721-3.514-3.193-1.607-.471-3.316-.183-4.681.792-1.134.81-2.63.855-3.811.117l-.437-.272c-1.47-.918-3.237-1.084-4.854-.452-1.615.632-2.803 1.954-3.272 3.681l-1.264 5.913h-.191zm-.5 8c-.827 0-1.5-.673-1.5-1.5s.673-1.5 1.5-1.5h1.5c.472 0 .879-.33.978-.791l1.42-6.651c.288-1.057 1.039-1.892 2.059-2.291 1.021-.399 2.137-.295 3.066.286l.437.272c1.869 1.169 4.236 1.096 6.032-.186.862-.615 1.938-.798 2.956-.5.998.292 1.796 1.006 2.197 1.963l1.889 7.152c.115.44.512.746.966.746h1.5c.827 0 1.5.673 1.5 1.5s-.673 1.5-1.5 1.5h-.5v-2h-2v2.649l-3.48 4.351h-13.04l-3.48-4.351v-2.649h-2v2zm14.505 7c-.37.738-1.125 1.25-2.005 1.25s-1.635-.512-2.005-1.25zm-12.005-.81v-2.339l2.219 2.774c.19.237.477.375.781.375h3.403c.441 1.581 1.878 2.75 3.597 2.75s3.156-1.169 3.597-2.75h3.403c.304 0 .591-.138.781-.375l2.219-2.774v2.339c0 1.457-.629 2.83-1.729 3.781l-4.614 2.529c-.598.328-1.273.5-1.955.5h-3.404c-.682 0-1.357-.173-1.955-.5l-4.614-2.528c-1.1-.952-1.729-2.325-1.729-3.782zm4.231 13.661c1.432 1.717 3.534 2.702 5.769 2.702s4.337-.984 5.769-2.702c.149-.18.231-.407.231-.641v-.964l3 .667v10.087h-18v-10.087l3-.667v.964c0 .234.082.461.231.641zm-13.231 5.149c0-2.414 1.721-4.434 4-4.899v12.899h-4zm38 8h-4v-12.899c2.279.465 4 2.484 4 4.899zm3-21.936 14 .875v1.061h-14zm15 4.936h-16v-1h16zm-2.621 14.718c-1.98-.679-3.379-2.554-3.379-4.718 0-2.591 1.989-4.704 4.517-4.951zm1.377-11.706c-3.746.13-6.756 3.21-6.756 6.988 0 3.178 2.152 5.914 5.141 6.737l-.031.263h-10.22l-1.765-15h13.751z"/><path d="m41.387 33.293 1.414 1.414 1.059-1.058c.693-.694 1.052-1.653.981-2.632-.069-.979-.56-1.877-1.344-2.465-.587-.44-.728-1.263-.321-1.873l.75-1.125-1.664-1.109-.75 1.125c-.995 1.492-.65 3.504.785 4.582.325.244.521.602.549 1.007.029.406-.113.788-.4 1.075z"/><path d="m45.537 27.293 1.414 1.414 1.059-1.058c.693-.694 1.052-1.653.981-2.632-.069-.979-.56-1.877-1.344-2.465-.587-.44-.728-1.263-.321-1.873l.75-1.125-1.664-1.109-.75 1.125c-.995 1.492-.65 3.504.785 4.582.325.244.521.602.549 1.007.029.406-.113.788-.4 1.075z"/><path d="m45 2c-3.309 0-6 3.14-6 7s2.691 7 6 7 6-3.14 6-7-2.691-7-6-7zm-4 7c0-2.433 1.399-4.461 3.243-4.904l.311 1.246c.208.833-.04 1.729-.647 2.337-1.265 1.264-1.652 3.153-.988 4.812l.417 1.042c-1.375-.793-2.336-2.52-2.336-4.533zm4.645 4.919-.868-2.171c-.366-.915-.152-1.957.545-2.655 1.102-1.102 1.551-2.726 1.173-4.237l-.135-.539c1.535.699 2.64 2.525 2.64 4.683 0 2.481-1.457 4.53-3.355 4.919z"/><path d="m56.31 12.272c-.001 0-.003 0-.004 0-3.309.003-5.997 3.145-5.994 7.005.003 3.858 2.695 6.995 6.001 6.995h.005c1.638-.001 3.165-.754 4.302-2.121 1.093-1.313 1.694-3.048 1.692-4.884-.003-3.857-2.696-6.995-6.002-6.995zm-3.998 7.003c-.002-2.433 1.395-4.461 3.239-4.907l.312 1.245c.209.834-.038 1.73-.646 2.338-1.263 1.265-1.648 3.154-.982 4.813l.418 1.042c-1.377-.789-2.34-2.517-2.341-4.531zm6.77 3.598c-.591.711-1.329 1.159-2.121 1.322l-.871-2.174c-.367-.916-.154-1.958.542-2.656 1.102-1.103 1.55-2.726 1.171-4.238l-.135-.538c1.535.698 2.642 2.523 2.644 4.68.001 1.37-.436 2.649-1.23 3.604z"/></svg>