<?xml version="1.0" encoding="UTF-8" standalone="no"?>
<!-- Generator: Adobe Illustrator 19.0.0, SVG Export Plug-In . SVG Version: 6.00 Build 0)  -->

<svg
   xmlns:dc="http://purl.org/dc/elements/1.1/"
   xmlns:cc="http://creativecommons.org/ns#"
   xmlns:rdf="http://www.w3.org/1999/02/22-rdf-syntax-ns#"
   xmlns:svg="http://www.w3.org/2000/svg"
   xmlns="http://www.w3.org/2000/svg"
   xmlns:sodipodi="http://sodipodi.sourceforge.net/DTD/sodipodi-0.dtd"
   xmlns:inkscape="http://www.inkscape.org/namespaces/inkscape"
   version="1.1"
   id="Capa_1"
   x="0px"
   y="0px"
   viewBox="0 0 512 512"
   style="enable-background:new 0 0 512 512;"
   xml:space="preserve"
   sodipodi:docname="box.svg"
   inkscape:version="0.92.4 (5da689c313, 2019-01-14)"><metadata
   id="metadata55"><rdf:RDF><cc:Work
       rdf:about=""><dc:format>image/svg+xml</dc:format><dc:type
         rdf:resource="http://purl.org/dc/dcmitype/StillImage" /></cc:Work></rdf:RDF></metadata><defs
   id="defs53" /><sodipodi:namedview
   pagecolor="#ffffff"
   bordercolor="#666666"
   borderopacity="1"
   objecttolerance="10"
   gridtolerance="10"
   guidetolerance="10"
   inkscape:pageopacity="0"
   inkscape:pageshadow="2"
   inkscape:window-width="1363"
   inkscape:window-height="948"
   id="namedview51"
   showgrid="false"
   inkscape:zoom="0.4609375"
   inkscape:cx="-96.542373"
   inkscape:cy="256"
   inkscape:window-x="0"
   inkscape:window-y="0"
   inkscape:window-maximized="0"
   inkscape:current-layer="Capa_1" />
<g
   id="g6"
   style="fill:#0088aa;stroke:#000000;stroke-opacity:0"
   transform="matrix(0.85001045,0,0,0.85001045,39.210994,42.157783)">
	<g
   id="g4"
   style="fill:#0088aa;stroke:#000000;stroke-opacity:0">
		<path
   d="M 491.729,112.971 259.261,0.745 c -2.061,-0.994 -4.461,-0.994 -6.521,0 L 20.271,112.971 c -2.592,1.251 -4.239,3.876 -4.239,6.754 v 272.549 c 0,2.878 1.647,5.503 4.239,6.754 l 232.468,112.226 c 1.03,0.497 2.146,0.746 3.261,0.746 1.115,0 2.23,-0.249 3.261,-0.746 L 491.729,399.028 c 2.592,-1.251 4.239,-3.876 4.239,-6.754 V 119.726 c 0,-2.88 -1.648,-5.503 -4.239,-6.755 z M 256,15.828 471.217,119.725 408.83,149.843 c -0.395,-0.301 -0.812,-0.579 -1.27,-0.8 L 193.805,45.853 Z M 176.867,54.333 391.771,158.079 347.756,179.328 132.941,75.624 Z m 219.932,117.974 v 78.546 l -41.113,19.848 V 192.155 Z M 480.968,387.568 263.5,492.55 V 236.658 l 51.873,-25.042 c 3.73,-1.801 5.294,-6.284 3.493,-10.015 -1.801,-3.729 -6.284,-5.295 -10.015,-3.493 L 256,223.623 235.204,213.583 c -3.731,-1.803 -8.214,-0.237 -10.015,3.493 -1.801,3.73 -0.237,8.214 3.493,10.015 l 19.818,9.567 V 492.55 L 31.032,387.566 V 131.674 l 165.6,79.945 c 1.051,0.508 2.162,0.748 3.255,0.748 2.788,0 5.466,-1.562 6.759,-4.241 1.801,-3.73 0.237,-8.214 -3.493,-10.015 L 40.783,119.725 115.288,83.757 340.582,192.52 c 0.033,0.046 0.07,0.087 0.104,0.132 v 89.999 c 0,2.581 1.327,4.98 3.513,6.353 1.214,0.762 2.599,1.147 3.988,1.147 1.112,0 2.227,-0.247 3.26,-0.746 l 56.113,-27.089 c 2.592,-1.251 4.239,-3.875 4.239,-6.754 v -90.495 l 69.169,-33.392 z"
   id="path2"
   style="fill:#0088aa;stroke:#000000;stroke-opacity:0"
   inkscape:connector-curvature="0" />
	</g>
</g>
<g
   id="g12"
   style="fill:#0088aa;stroke:#000000;stroke-opacity:0"
   transform="matrix(0.85001045,0,0,0.85001045,39.210994,42.157783)">
	<g
   id="g10"
   style="fill:#0088aa;stroke:#000000;stroke-opacity:0">
		<path
   d="M 92.926,358.479 58.811,342.01 c -3.732,-1.803 -8.214,-0.237 -10.015,3.493 -1.801,3.73 -0.237,8.214 3.493,10.015 l 34.115,16.469 c 1.051,0.508 2.162,0.748 3.255,0.748 2.788,0 5.466,-1.562 6.759,-4.241 1.802,-3.731 0.238,-8.213 -3.492,-10.015 z"
   id="path8"
   style="fill:#0088aa;stroke:#000000;stroke-opacity:0"
   inkscape:connector-curvature="0" />
	</g>
</g>
<g
   id="g18"
   style="fill:#0088aa;stroke:#000000;stroke-opacity:0"
   transform="matrix(0.85001045,0,0,0.85001045,39.210994,42.157783)">
	<g
   id="g16"
   style="fill:#0088aa;stroke:#000000;stroke-opacity:0">
		<path
   d="M 124.323,338.042 58.858,306.438 c -3.731,-1.801 -8.214,-0.237 -10.015,3.494 -1.8,3.73 -0.236,8.214 3.494,10.015 l 65.465,31.604 c 1.051,0.507 2.162,0.748 3.255,0.748 2.788,0 5.466,-1.562 6.759,-4.241 1.801,-3.732 0.237,-8.216 -3.493,-10.016 z"
   id="path14"
   style="fill:#0088aa;stroke:#000000;stroke-opacity:0"
   inkscape:connector-curvature="0" />
	</g>
</g>
<g
   id="g20"
   style="stroke:#000000;stroke-opacity:1;fill:#0088aa">
</g>
<g
   id="g22"
   style="stroke:#000000;stroke-opacity:1;fill:#0088aa">
</g>
<g
   id="g24"
   style="stroke:#000000;stroke-opacity:1;fill:#0088aa">
</g>
<g
   id="g26"
   style="stroke:#000000;stroke-opacity:1;fill:#0088aa">
</g>
<g
   id="g28"
   style="stroke:#000000;stroke-opacity:1;fill:#0088aa">
</g>
<g
   id="g30"
   style="stroke:#000000;stroke-opacity:1;fill:#0088aa">
</g>
<g
   id="g32"
   style="stroke:#000000;stroke-opacity:1;fill:#0088aa">
</g>
<g
   id="g34"
   style="stroke:#000000;stroke-opacity:1;fill:#0088aa">
</g>
<g
   id="g36"
   style="stroke:#000000;stroke-opacity:1;fill:#0088aa">
</g>
<g
   id="g38"
   style="stroke:#000000;stroke-opacity:1;fill:#0088aa">
</g>
<g
   id="g40"
   style="stroke:#000000;stroke-opacity:1;fill:#0088aa">
</g>
<g
   id="g42"
   style="stroke:#000000;stroke-opacity:1;fill:#0088aa">
</g>
<g
   id="g44"
   style="stroke:#000000;stroke-opacity:1;fill:#0088aa">
</g>
<g
   id="g46"
   style="stroke:#000000;stroke-opacity:1;fill:#0088aa">
</g>
<g
   id="g48"
   style="stroke:#000000;stroke-opacity:1;fill:#0088aa">
</g>
</svg>