<?xml version="1.0" encoding="UTF-8" standalone="no"?>
<!-- Generator: Adobe Illustrator 19.0.0, SVG Export Plug-In . SVG Version: 6.00 Build 0)  -->

<svg
   xmlns:dc="http://purl.org/dc/elements/1.1/"
   xmlns:cc="http://creativecommons.org/ns#"
   xmlns:rdf="http://www.w3.org/1999/02/22-rdf-syntax-ns#"
   xmlns:svg="http://www.w3.org/2000/svg"
   xmlns="http://www.w3.org/2000/svg"
   xmlns:sodipodi="http://sodipodi.sourceforge.net/DTD/sodipodi-0.dtd"
   xmlns:inkscape="http://www.inkscape.org/namespaces/inkscape"
   version="1.1"
   id="Capa_1"
   x="0px"
   y="0px"
   viewBox="0 0 512 512"
   style="enable-background:new 0 0 512 512;"
   xml:space="preserve"
   sodipodi:docname="box.svg"
   inkscape:version="0.92.4 (5da689c313, 2019-01-14)"><metadata
   id="metadata55"><rdf:RDF><cc:Work
       rdf:about=""><dc:format>image/svg+xml</dc:format><dc:type
         rdf:resource="http://purl.org/dc/dcmitype/StillImage" /></cc:Work></rdf:RDF></metadata><defs
   id="defs53" /><sodipodi:namedview
   pagecolor="#ffffff"
   bordercolor="#666666"
   borderopacity="1"
   objecttolerance="10"
   gridtolerance="10"
   guidetolerance="10"
   inkscape:pageopacity="0"
   inkscape:pageshadow="2"
   inkscape:window-width="1363"
   inkscape:window-height="948"
   id="namedview51"
   showgrid="false"
   inkscape:zoom="0.4609375"
   inkscape:cx="256"
   inkscape:cy="256"
   inkscape:window-x="0"
   inkscape:window-y="0"
   inkscape:window-maximized="0"
   inkscape:current-layer="Capa_1" />
<g
   id="g6"
   style="stroke:#000000;stroke-opacity:0;fill:#0088aa">
	<g
   id="g4"
   style="stroke:#000000;stroke-opacity:0;fill:#0088aa">
		<path
   d="M491.729,112.971L259.261,0.745c-2.061-0.994-4.461-0.994-6.521,0L20.271,112.971c-2.592,1.251-4.239,3.876-4.239,6.754    v272.549c0,2.878,1.647,5.503,4.239,6.754l232.468,112.226c1.03,0.497,2.146,0.746,3.261,0.746s2.23-0.249,3.261-0.746    l232.468-112.226c2.592-1.251,4.239-3.876,4.239-6.754V119.726C495.968,116.846,494.32,114.223,491.729,112.971z M256,15.828    l215.217,103.897l-62.387,30.118c-0.395-0.301-0.812-0.579-1.27-0.8L193.805,45.853L256,15.828z M176.867,54.333l214.904,103.746    l-44.015,21.249L132.941,75.624L176.867,54.333z M396.799,172.307v78.546l-41.113,19.848v-78.546L396.799,172.307z     M480.968,387.568L263.5,492.55V236.658l51.873-25.042c3.73-1.801,5.294-6.284,3.493-10.015    c-1.801-3.729-6.284-5.295-10.015-3.493L256,223.623l-20.796-10.04c-3.731-1.803-8.214-0.237-10.015,3.493    c-1.801,3.73-0.237,8.214,3.493,10.015l19.818,9.567V492.55L31.032,387.566V131.674l165.6,79.945    c1.051,0.508,2.162,0.748,3.255,0.748c2.788,0,5.466-1.562,6.759-4.241c1.801-3.73,0.237-8.214-3.493-10.015l-162.37-78.386    l74.505-35.968L340.582,192.52c0.033,0.046,0.07,0.087,0.104,0.132v89.999c0,2.581,1.327,4.98,3.513,6.353    c1.214,0.762,2.599,1.147,3.988,1.147c1.112,0,2.227-0.247,3.26-0.746l56.113-27.089c2.592-1.251,4.239-3.875,4.239-6.754v-90.495    l69.169-33.392V387.568z"
   id="path2"
   style="stroke:#000000;stroke-opacity:0;fill:#0088aa" />
	</g>
</g>
<g
   id="g12"
   style="stroke:#000000;stroke-opacity:0;fill:#0088aa">
	<g
   id="g10"
   style="stroke:#000000;stroke-opacity:0;fill:#0088aa">
		<path
   d="M92.926,358.479L58.811,342.01c-3.732-1.803-8.214-0.237-10.015,3.493c-1.801,3.73-0.237,8.214,3.493,10.015    l34.115,16.469c1.051,0.508,2.162,0.748,3.255,0.748c2.788,0,5.466-1.562,6.759-4.241    C98.22,364.763,96.656,360.281,92.926,358.479z"
   id="path8"
   style="stroke:#000000;stroke-opacity:0;fill:#0088aa" />
	</g>
</g>
<g
   id="g18"
   style="stroke:#000000;stroke-opacity:0;fill:#0088aa">
	<g
   id="g16"
   style="stroke:#000000;stroke-opacity:0;fill:#0088aa">
		<path
   d="M124.323,338.042l-65.465-31.604c-3.731-1.801-8.214-0.237-10.015,3.494c-1.8,3.73-0.236,8.214,3.494,10.015    l65.465,31.604c1.051,0.507,2.162,0.748,3.255,0.748c2.788,0,5.466-1.562,6.759-4.241    C129.617,344.326,128.053,339.842,124.323,338.042z"
   id="path14"
   style="stroke:#000000;stroke-opacity:0;fill:#0088aa" />
	</g>
</g>
<g
   id="g20"
   style="stroke:#000000;stroke-opacity:1;fill:#0088aa">
</g>
<g
   id="g22"
   style="stroke:#000000;stroke-opacity:1;fill:#0088aa">
</g>
<g
   id="g24"
   style="stroke:#000000;stroke-opacity:1;fill:#0088aa">
</g>
<g
   id="g26"
   style="stroke:#000000;stroke-opacity:1;fill:#0088aa">
</g>
<g
   id="g28"
   style="stroke:#000000;stroke-opacity:1;fill:#0088aa">
</g>
<g
   id="g30"
   style="stroke:#000000;stroke-opacity:1;fill:#0088aa">
</g>
<g
   id="g32"
   style="stroke:#000000;stroke-opacity:1;fill:#0088aa">
</g>
<g
   id="g34"
   style="stroke:#000000;stroke-opacity:1;fill:#0088aa">
</g>
<g
   id="g36"
   style="stroke:#000000;stroke-opacity:1;fill:#0088aa">
</g>
<g
   id="g38"
   style="stroke:#000000;stroke-opacity:1;fill:#0088aa">
</g>
<g
   id="g40"
   style="stroke:#000000;stroke-opacity:1;fill:#0088aa">
</g>
<g
   id="g42"
   style="stroke:#000000;stroke-opacity:1;fill:#0088aa">
</g>
<g
   id="g44"
   style="stroke:#000000;stroke-opacity:1;fill:#0088aa">
</g>
<g
   id="g46"
   style="stroke:#000000;stroke-opacity:1;fill:#0088aa">
</g>
<g
   id="g48"
   style="stroke:#000000;stroke-opacity:1;fill:#0088aa">
</g>
</svg>