<?xml version="1.0" encoding="UTF-8" standalone="no"?>
<svg
   xmlns:dc="http://purl.org/dc/elements/1.1/"
   xmlns:cc="http://creativecommons.org/ns#"
   xmlns:rdf="http://www.w3.org/1999/02/22-rdf-syntax-ns#"
   xmlns:svg="http://www.w3.org/2000/svg"
   xmlns="http://www.w3.org/2000/svg"
   xmlns:xlink="http://www.w3.org/1999/xlink"
   xmlns:sodipodi="http://sodipodi.sourceforge.net/DTD/sodipodi-0.dtd"
   xmlns:inkscape="http://www.inkscape.org/namespaces/inkscape"
   id="b86c1a25-be3a-4728-a0a8-9021f461e354"
   data-name="Layer 1"
   width="1000"
   height="700"
   viewBox="0 0 1000 699.99999"
   version="1.1"
   sodipodi:docname="chart.svg"
   inkscape:version="0.92.4 (5da689c313, 2019-01-14)">
  <metadata
     id="metadata319">
    <rdf:RDF>
      <cc:Work
         rdf:about="">
        <dc:format>image/svg+xml</dc:format>
        <dc:type
           rdf:resource="http://purl.org/dc/dcmitype/StillImage" />
        <dc:title>dark analytics</dc:title>
      </cc:Work>
    </rdf:RDF>
  </metadata>
  <sodipodi:namedview
     pagecolor="#ffffff"
     bordercolor="#666666"
     borderopacity="1"
     objecttolerance="10"
     gridtolerance="10"
     guidetolerance="10"
     inkscape:pageopacity="0"
     inkscape:pageshadow="2"
     inkscape:window-width="2308"
     inkscape:window-height="1249"
     id="namedview317"
     showgrid="false"
     inkscape:zoom="0.68791071"
     inkscape:cx="426.79716"
     inkscape:cy="184.35918"
     inkscape:window-x="551"
     inkscape:window-y="304"
     inkscape:window-maximized="0"
     inkscape:current-layer="b86c1a25-be3a-4728-a0a8-9021f461e354" />
  <defs
     id="defs10">
    <linearGradient
       id="f67634cf-02d9-42c2-81fe-a2403926694d"
       x1="151.23"
       y1="806.75"
       x2="151.23"
       y2="333"
       gradientUnits="userSpaceOnUse">
      <stop
         offset="0"
         stop-color="gray"
         stop-opacity="0.25"
         id="stop2" />
      <stop
         offset="0.54"
         stop-color="gray"
         stop-opacity="0.12"
         id="stop4" />
      <stop
         offset="1"
         stop-color="gray"
         stop-opacity="0.1"
         id="stop6" />
    </linearGradient>
    <linearGradient
       id="bcdb2a22-93f8-4c81-b6d3-8137c026104f"
       x1="198.16"
       y1="493.79001"
       x2="225.47"
       y2="493.79001"
       xlink:href="#f67634cf-02d9-42c2-81fe-a2403926694d" />
    <linearGradient
       id="bc1a224a-83fb-4b70-ac4d-cec0fa303af2-4-6-4-0-8"
       x1="772.14685"
       y1="89.70636"
       x2="772.14685"
       y2="43.674358"
       xlink:href="#a603c90c-4166-43d9-ad0b-6e5c73653a55"
       gradientTransform="matrix(0.46078147,0,0,0.34650565,406.69593,354.69378)" />
    <linearGradient
       id="a603c90c-4166-43d9-ad0b-6e5c73653a55"
       x1="132.79343"
       y1="581.52191"
       x2="132.79343"
       y2="535.48993"
       gradientUnits="userSpaceOnUse">
      <stop
         offset="0"
         stop-color="gray"
         stop-opacity="0.25"
         id="stop2-6" />
      <stop
         offset="0.53514"
         stop-color="gray"
         stop-opacity="0.12"
         id="stop4-9" />
      <stop
         offset="1"
         stop-color="gray"
         stop-opacity="0.1"
         id="stop6-3" />
    </linearGradient>
    <linearGradient
       id="bc1a224a-83fb-4b70-ac4d-cec0fa303af2-4-6-4-0"
       x1="772.14685"
       y1="89.70636"
       x2="772.14685"
       y2="43.674358"
       xlink:href="#a603c90c-4166-43d9-ad0b-6e5c73653a55"
       gradientTransform="matrix(0.46078147,0,0,0.34650565,305.16342,460.61978)" />
    <linearGradient
       id="bc1a224a-83fb-4b70-ac4d-cec0fa303af2-4-6-4-6"
       x1="772.14685"
       y1="89.70636"
       x2="772.14685"
       y2="43.674358"
       xlink:href="#a603c90c-4166-43d9-ad0b-6e5c73653a55"
       gradientTransform="matrix(0.46078147,0,0,0.34650565,138.8734,203.17546)" />
    <linearGradient
       id="bc1a224a-83fb-4b70-ac4d-cec0fa303af2-4-6-4"
       x1="772.14685"
       y1="89.70636"
       x2="772.14685"
       y2="43.674358"
       xlink:href="#a603c90c-4166-43d9-ad0b-6e5c73653a55"
       gradientTransform="matrix(0.46078147,0,0,0.34650565,82.397158,203.69341)" />
    <linearGradient
       id="bc1a224a-83fb-4b70-ac4d-cec0fa303af2-4-6"
       x1="772.14685"
       y1="89.70636"
       x2="772.14685"
       y2="43.674358"
       xlink:href="#a603c90c-4166-43d9-ad0b-6e5c73653a55"
       gradientTransform="matrix(0.46078147,0,0,0.34650565,-88.04106,497.7965)" />
    <linearGradient
       id="bc1a224a-83fb-4b70-ac4d-cec0fa303af2-4"
       x1="772.14685"
       y1="89.70636"
       x2="772.14685"
       y2="43.674358"
       xlink:href="#a603c90c-4166-43d9-ad0b-6e5c73653a55"
       gradientTransform="matrix(0.46078147,0,0,0.34650565,-198.97148,499.76349)" />
    <linearGradient
       id="bc1a224a-83fb-4b70-ac4d-cec0fa303af2"
       x1="772.14685"
       y1="89.70636"
       x2="772.14685"
       y2="43.674358"
       xlink:href="#a603c90c-4166-43d9-ad0b-6e5c73653a55"
       gradientTransform="matrix(0.46078147,0,0,0.34650565,-267.88606,500.15582)" />
  </defs>
  <title
     id="title12">dark analytics</title>
  <rect
     style="fill:#ff2a2a;fill-opacity:0.160804;stroke-width:10.07593727"
     x="351.85861"
     y="92.768463"
     width="210.78935"
     height="599.91736"
     id="rect82-3" />
  <polygon
     transform="matrix(1.921382,0,0,3.0469255,-815.53846,-621.48263)"
     style="opacity:0.5;fill:#009688"
     points="427.18,352.98 474.51,376.3 523.48,382.94 566.45,369.99 618.29,329.78 644.37,314.72 663.43,311.05 681.67,312.03 711.67,326.84 752.44,352.81 784.43,356.93 809.81,348.18 863.58,304.13 891.04,294.35 919.77,298.79 943.16,312.3 943.16,431.6 427.18,431.6 "
     id="polygon108-3" />
  <path
     inkscape:connector-curvature="0"
     style="fill:#009688;stroke-width:2.42440081"
     d="M 177.74107,545.33752 C 88.097341,545.33752 5.2825198,458.74389 4.240827,457.647 l 2.4692864,-5.81963 c 1.2731133,1.34065 128.7843966,134.58267 237.1014566,67.82456 39.488,-24.37541 67.63299,-62.15727 94.83281,-98.78132 28.39589,-38.20845 55.22919,-74.31452 91.78496,-89.97571 41.95719,-17.9464 87.79177,-1.70628 122.61139,43.51008 29.76553,38.63503 89.06497,100.54856 151.68245,82.267 31.94534,-9.47593 58.85578,-46.31326 87.34811,-85.31391 54.53473,-74.89343 111.0949,-152.19394 208.85991,-41.28585 l -2.62351,5.72822 c -94.87144,-107.70881 -150.02337,-32.23646 -203.34275,40.76787 -28.93597,39.61003 -56.30945,77.05674 -89.4122,86.86785 -64.43087,19.10422 -124.96496,-44.18042 -155.32843,-83.60765 -33.72007,-43.75384 -78.06929,-59.50645 -118.61827,-42.13897 -35.61051,15.23463 -62.07729,50.85319 -90.08729,88.54365 -27.4892,36.98969 -55.94295,75.2286 -96.08684,99.96963 a 185.19032,292.50486 0 0 1 -67.69084,19.1347 z"
     id="path110-1" />
  <polygon
     points="686.018,187.972 772.328,81.371 772.328,660.405 130.535,660.405 130.535,573.187 215.738,485.968 292.09,430.245 371.761,346.661 465.816,309.108 586.429,309.108 "
     id="polygon23"
     transform="matrix(1.5433658,0,0,0.34449443,-196.22582,466.06461)"
     style="opacity:0.2;fill:#f2f2f2" />
  <ellipse
     cx="87.904839"
     cy="523.2644"
     id="circle105"
     style="fill:url(#bc1a224a-83fb-4b70-ac4d-cec0fa303af2);stroke-width:0.39957905"
     rx="10.605347"
     ry="7.9751749" />
  <ellipse
     cx="87.904839"
     cy="523.2644"
     id="circle121"
     style="fill:#ff6600;stroke-width:0.39957905"
     rx="8.3726435"
     ry="6.2961917" />
  <ellipse
     cx="156.81946"
     cy="522.87207"
     id="circle105-5"
     style="fill:url(#bc1a224a-83fb-4b70-ac4d-cec0fa303af2-4);stroke-width:0.39957905"
     rx="10.605347"
     ry="7.9751749" />
  <ellipse
     cx="156.81946"
     cy="522.87207"
     id="circle121-6"
     style="fill:#ff6600;stroke-width:0.39957905"
     rx="8.3726435"
     ry="6.2961917" />
  <ellipse
     cx="267.74994"
     cy="520.90509"
     id="circle105-5-5"
     style="fill:url(#bc1a224a-83fb-4b70-ac4d-cec0fa303af2-4-6);stroke-width:0.39957905"
     rx="10.605347"
     ry="7.9751749" />
  <ellipse
     cx="267.74994"
     cy="520.90509"
     id="circle121-6-9"
     style="fill:#ff6600;stroke-width:0.39957905"
     rx="8.3726435"
     ry="6.2961917" />
  <ellipse
     cx="438.18817"
     cy="226.80202"
     id="circle105-5-5-9"
     style="fill:url(#bc1a224a-83fb-4b70-ac4d-cec0fa303af2-4-6-4);stroke-width:0.39957905"
     rx="10.605347"
     ry="7.9751749" />
  <ellipse
     cx="438.18817"
     cy="226.80202"
     id="circle121-6-9-1"
     style="fill:#ff6600;stroke-width:0.39957905"
     rx="8.3726435"
     ry="6.2961917" />
  <ellipse
     cx="494.66434"
     cy="226.28409"
     id="circle105-5-5-9-9"
     style="fill:url(#bc1a224a-83fb-4b70-ac4d-cec0fa303af2-4-6-4-6);stroke-width:0.39957905"
     rx="10.605347"
     ry="7.9751749" />
  <ellipse
     cx="494.66434"
     cy="226.28409"
     id="circle121-6-9-1-5"
     style="fill:#ff6600;stroke-width:0.39957905"
     rx="8.3726435"
     ry="6.2961917" />
  <ellipse
     cx="660.95441"
     cy="483.72839"
     id="circle105-5-5-9-95"
     style="fill:url(#bc1a224a-83fb-4b70-ac4d-cec0fa303af2-4-6-4-0);stroke-width:0.39957905"
     rx="10.605347"
     ry="7.9751749" />
  <ellipse
     cx="660.95441"
     cy="483.72839"
     id="circle121-6-9-1-3"
     style="fill:#ff6600;stroke-width:0.39957905"
     rx="8.3726435"
     ry="6.2961917" />
  <ellipse
     cx="762.48676"
     cy="377.80231"
     id="circle105-5-5-9-95-5"
     style="fill:url(#bc1a224a-83fb-4b70-ac4d-cec0fa303af2-4-6-4-0-8);stroke-width:0.39957905"
     rx="10.605347"
     ry="7.9751749" />
  <ellipse
     cx="762.48676"
     cy="377.80231"
     id="circle121-6-9-1-3-4"
     style="fill:#ff6600;stroke-width:0.39957905"
     rx="8.3726435"
     ry="6.2961917" />
</svg>
