<svg height="512" viewBox="0 0 60 60" width="512" xmlns="http://www.w3.org/2000/svg"><g id="Page-1" fill="none" fill-rule="evenodd"><g id="003---Schedule" fill="rgb(0,0,0)" fill-rule="nonzero"><path id="Shape" d="m30 0c-16.5685425 0-30 13.4314575-30 30s13.4314575 30 30 30 30-13.4314575 30-30c-.018737-16.5607751-13.4392249-29.98126296-30-30zm0 58c-15.463973 0-28-12.536027-28-28s12.536027-28 28-28 28 12.536027 28 28c-.0176345 15.4566626-12.5433374 27.9823655-28 28z"/><path id="Shape" d="m24 25c0-.5522847-.4477153-1-1-1h-4c-.5441799.0190933-.9809067.4558201-1 1v4c0 .5522847.4477153 1 1 1s1-.4477153 1-1v-1.408c1.4662459 1.2482943 3.1806619 2.171284 5.03 2.708.146671 2.6318238 2.3198683 4.6928822 4.9557661 4.7000442 2.6358978.0071621 4.8202633-2.0420563 4.9812339-4.6730442 3.421-.843 7.4-2.633 9.739-6.378l.324 1.295c.1118468.444534.5116114.756103.97.756.0822727.0003241.1642562-.0097558.244-.03.5357071-.1342174.8611901-.677286.727-1.213l-1-4c-.1398441-.5315081-.6783365-.8542484-1.213-.727l-4 1c-.348821.0847423-.6254598.3499483-.7248402.6948844-.0993804.344936-.0062538.7166761.2440075.9740215.2502612.2573454.6192576.3608098.9668327.2710941l2.025-.506c-1.916 3.421-5.476 5.065-8.577 5.862-.6973403-1.9864184-2.57015-3.3183286-4.6754044-3.3250676s-3.9865526 1.3131543-4.6965956 3.2950676c-1.5129348-.4726464-2.9111547-1.2545053-4.106-2.296h1.786c.5522847 0 1-.4477153 1-1zm6 2c1.6568542 0 3 1.3431458 3 3s-1.3431458 3-3 3-3-1.3431458-3-3 1.3431458-3 3-3z"/><path id="Shape" d="m20.926 39.623c-.2068307-.5122441-.7897559-.7598306-1.302-.5529999-.5122441.2068306-.7598306.7897558-.553 1.3019999.093.228 2.35 5.628 10.929 5.628.5522847 0 1-.4477153 1-1s-.4477153-1-1-1c-7.148 0-8.994-4.186-9.074-4.377z"/><path id="Shape" d="m28 19v-4c0-.5522847-.4477153-1-1-1s-1 .4477153-1 1v4c0 .5522847.4477153 1 1 1s1-.4477153 1-1z"/><path id="Shape" d="m34 19v-4c0-.5522847-.4477153-1-1-1s-1 .4477153-1 1v4c0 .5522847.4477153 1 1 1s1-.4477153 1-1z"/><path id="Shape" d="m51.61 17.454c-2.1887202-3.7527426-5.3112574-6.8752798-9.064-9.064-.017-.012-.027-.03-.046-.041s-.04-.01-.059-.02c-7.6858967-4.43289753-17.1508241-4.43746977-24.841-.012-.0339277.00871156-.0673178.01939641-.1.032-.0302544.02347786-.0589794.0488628-.086.076-.9260248.53735973-1.8168331 1.13323599-2.667 1.784-.4368572.3385506-.5165506.9671428-.178 1.404s.9671428.5165506 1.404.178c.544-.422 1.1-.813 1.678-1.181l.983 1.7c.1773616.3119508.5082732.5049532.8671183.5057421s.6906021-.1907567.8693336-.5019247c.1787314-.3111679.1770325-.694247-.0044519-1.0038174l-.986-1.704c2.976732-1.55806501 6.2627357-2.43456039 9.62-2.566v1.96c0 .55228475.4477153 1 1 1s1-.44771525 1-1v-1.975c3.3570512.14250644 6.6412263 1.02450106 9.618 2.583l-.984 1.705c-.1814844.3095704-.1831833.6926495-.0044519 1.0038174.1787315.311168.5104885.5027136.8693336.5019247s.6897567-.1937913.8671183-.5057421l.983-1.7c2.8289556 1.8089591 5.2310409 4.2110444 7.04 7.04l-1.7.983c-.3119508.1773616-.5049532.5082732-.5057421.8671183s.1907567.6906021.5019247.8693336c.3111679.1787314.694247.1770325 1.0038174-.0044519l1.705-.984c1.55752 2.97633 2.4388211 6.2597828 2.581 9.616h-1.975c-.5522847 0-1 .4477153-1 1s.4477153 1 1 1h1.975c-.1425064 3.3570512-1.0245011 6.6412263-2.583 9.618l-1.705-.984c-.3095704-.1814844-.6926495-.1831833-1.0038174-.0044519-.311168.1787315-.5027136.5104885-.5019247.8693336s.1937913.6897567.5057421.8671183l1.7.983c-1.8089591 2.8289556-4.2110444 5.2310409-7.04 7.04l-.983-1.7c-.1773616-.3119508-.5082732-.5049532-.8671183-.5057421s-.6906021.1907567-.8693336.5019247c-.1787314.3111679-.1770325.694247.0044519 1.0038174l.984 1.705c-2.97633 1.55752-6.2597828 2.4388211-9.616 2.581v-1.975c0-.5522847-.4477153-1-1-1s-1 .4477153-1 1v1.975c-3.3570512-.1425064-6.6412263-1.0245011-9.618-2.583l.984-1.705c.1814844-.3095704.1831833-.6926495.0044519-1.0038174-.1787315-.311168-.5104885-.5027136-.8693336-.5019247s-.6897567.1937913-.8671183.5057421l-.983 1.7c-2.8289556-1.8089591-5.2310409-4.2110444-7.04-7.04l1.7-.983c.3119508-.1773616.5049532-.5082732.5057421-.8671183s-.1907567-.6906021-.5019247-.8693336c-.3111679-.1787314-.694247-.1770325-1.0038174.0044519l-1.7.984c-1.55925805-2.9759262-2.44227207-6.2593998-2.586-9.616h1.975c.55228475 0 1-.4477153 1-1s-.44771525-1-1-1h-1.957c.1493532-3.3528857 1.0302725-6.6325267 2.581-9.609l1.689.975c.3095704.1814844.6926495.1831833 1.0038174.0044519.311168-.1787315.5027136-.5104885.5019247-.8693336s-.1937913-.6897567-.5057421-.8671183l-1.689-.976c.4408417-.7032874.9202404-1.3816565 1.436-2.032.2236483-.2786672.2816406-.6554812.1521319-.9884998-.1295087-.3330187-.426843-.5716485-.78-.626s-.7084836.0838326-.9321319.3624998c-.75798001.9539693-1.4448297 1.9623516-2.055 3.017-.03622663.0335688-.0696697.0700217-.1.109-.01393957.0349845-.02595748.0707044-.036.107-4.42298185 7.6887232-4.41688553 17.1509825.016 24.834.01.019.009.04.02.059s.038.047.055.072c2.1886724 3.7412391 5.3058602 6.8542935 9.05 9.038.017.012.027.03.046.041s.058.022.087.036c7.6858599 4.4172794 17.1401401 4.4172794 24.826 0 .029-.014.059-.02.087-.036s.029-.029.046-.041c3.7441398-2.1837065 6.8613276-5.2967609 9.05-9.038.017-.025.039-.045.055-.072s.01-.04.02-.059c4.4387681-7.700117 4.4387681-17.181883 0-24.882-.01-.019-.009-.04-.02-.059s-.025-.029-.037-.046z"/></g></g></svg>