<?xml version="1.0" encoding="utf-8"?>
<!-- Svg Vector Icons : http://www.onlinewebfonts.com/icon -->
<!DOCTYPE svg PUBLIC "-//W3C//DTD SVG 1.1//EN" "http://www.w3.org/Graphics/SVG/1.1/DTD/svg11.dtd">
<svg version="1.1" xmlns="http://www.w3.org/2000/svg" xmlns:xlink="http://www.w3.org/1999/xlink" x="0px" y="0px" viewBox="0 0 1000 1000" enable-background="new 0 0 1000 1000" xml:space="preserve">
<metadata> Svg Vector Icons : http://www.onlinewebfonts.com/icon </metadata>
<g><path d="M754.2,949.2c-130.2,0-235.7-68.4-235.7-134.4c0,0,0-63.2,0-68.1c0-4.9,3.2-10.1,9.2-0.3c28.4,46.5,119.1,80.4,226.5,80.4c107.5,0,198.1-33.9,226.6-80.4c5.9-9.8,9.2-4.5,9.2,0.3c0,4.9,0,68.1,0,68.1C990,880.8,884.5,949.2,754.2,949.2z M754.2,761.1c-130.2,0-235.7-48.6-235.7-108.6c0,0,0-76.3,0-80.2s3-8.5,8.9,0c27.9,41,118.9,71.1,226.9,71.1c108,0,199-30.1,226.9-71.1c5.7-8.5,8.9-3.9,8.9,0s0,80.2,0,80.2C990,712.5,884.5,761.1,754.2,761.1z M754.2,577.7c-130.2,0-235.7-42.6-235.7-95v-42.9c0-49.5,105.5-89.6,235.7-89.6c130.2,0,235.8,40.1,235.8,89.6v42.8C990,535.2,884.5,577.7,754.2,577.7z M245.8,649.8C115.6,649.8,10,581.3,10,515.3c0,0,0-63.2,0-68.1c0-4.9,3.2-10.1,9.2-0.3c28.4,46.4,119.1,80.4,226.5,80.4c107.5,0,198.1-33.9,226.6-80.4c6-9.9,9.2-4.5,9.2,0.3c0,4.9,0,68.1,0,68.1C481.5,581.3,376,649.8,245.8,649.8z M245.8,461.6C115.6,461.6,10,413,10,353c0,0,0-76.3,0-80.2c0-3.8,3.1-8.4,8.9,0c27.9,41,119,71.1,226.9,71.1c107.9,0,199-30.1,226.9-71.1c5.8-8.5,8.9-3.9,8.9,0c0,3.9,0,80.2,0,80.2C481.5,413,376,461.6,245.8,461.6z M245.8,278.2c-130.2,0-235.8-42.5-235.8-95v-42.9c0-49.4,105.6-89.6,235.8-89.6c130.2,0,235.8,40.1,235.8,89.6v42.8C481.5,235.7,376,278.2,245.8,278.2z"/></g>
</svg>