<?xml version="1.0" encoding="utf-8"?>
<!-- Svg Vector Icons : http://www.onlinewebfonts.com/icon -->
<!DOCTYPE svg PUBLIC "-//W3C//DTD SVG 1.1//EN" "http://www.w3.org/Graphics/SVG/1.1/DTD/svg11.dtd">
<svg version="1.1" xmlns="http://www.w3.org/2000/svg" xmlns:xlink="http://www.w3.org/1999/xlink" x="0px" y="0px" viewBox="0 0 1000 1000" enable-background="new 0 0 1000 1000" xml:space="preserve">
<metadata> Svg Vector Icons : http://www.onlinewebfonts.com/icon </metadata>
<g><path d="M515,67.8L872,246.5c6.4,3.1,10.9,8.1,14.3,13.8l0,0l99.4,177.5c9,16.2,3.3,36.4-12.8,45.7c-1.4,0.2-2.4,1-3.3,1.4l-79,39.3v199.6c0,13.8-8.6,26.6-20.9,30.9L515,932c-9.8,5-21.2,4.5-30,0L127.9,753.4c-11.9-5.7-18.6-17.6-18.6-29.7h-0.2V524.1l-80.9-40.4c-16.4-8.3-23.1-28.5-14.5-44.7l0.5-1.2l0,0l99.2-177.5c4-6.7,9.8-11.9,16.4-14.7L485,67.8C494.7,63,505.7,63.5,515,67.8L515,67.8z M479.7,854.7L479.7,854.7V531.9l-54.9,99c-5.2,9.5-17.6,12.8-27.1,7.4h-0.5l-221-110.1v174.8L479.7,854.7L479.7,854.7z M479.7,422.5L479.7,422.5V145.6L202.6,283.8L479.7,422.5L479.7,422.5z M519.9,145.6L519.9,145.6v276.7l277.4-138.4L519.9,145.6L519.9,145.6z M519.9,532.4L519.9,532.4v322.3l304-151.8V527.6L602.7,638.2h-0.5c-9.5,5.5-21.9,2.1-27.1-7.4L519.9,532.4L519.9,532.4z M836.8,309L836.8,309L527.6,463.4l73,131.1l310-155.1L836.8,309L836.8,309z M160.5,474.8L160.5,474.8l238.6,119.7l73.3-131.1L163.1,309L89.9,439.6l64.9,32.6C156.9,472.9,158.8,474.1,160.5,474.8L160.5,474.8z"/></g>
</svg>