<?xml version="1.0" encoding="UTF-8" standalone="no"?>
<svg
   xmlns:dc="http://purl.org/dc/elements/1.1/"
   xmlns:cc="http://creativecommons.org/ns#"
   xmlns:rdf="http://www.w3.org/1999/02/22-rdf-syntax-ns#"
   xmlns:svg="http://www.w3.org/2000/svg"
   xmlns="http://www.w3.org/2000/svg"
   xmlns:sodipodi="http://sodipodi.sourceforge.net/DTD/sodipodi-0.dtd"
   xmlns:inkscape="http://www.inkscape.org/namespaces/inkscape"
   height="512pt"
   viewBox="0 0 512.00034 512"
   width="512pt"
   version="1.1"
   id="svg18"
   sodipodi:docname="rocket.svg"
   inkscape:version="0.92.4 (5da689c313, 2019-01-14)">
  <metadata
     id="metadata24">
    <rdf:RDF>
      <cc:Work
         rdf:about="">
        <dc:format>image/svg+xml</dc:format>
        <dc:type
           rdf:resource="http://purl.org/dc/dcmitype/StillImage" />
      </cc:Work>
    </rdf:RDF>
  </metadata>
  <defs
     id="defs22" />
  <sodipodi:namedview
     pagecolor="#ffffff"
     bordercolor="#666666"
     borderopacity="1"
     objecttolerance="10"
     gridtolerance="10"
     guidetolerance="10"
     inkscape:pageopacity="0"
     inkscape:pageshadow="2"
     inkscape:window-width="640"
     inkscape:window-height="480"
     id="namedview20"
     showgrid="false"
     inkscape:zoom="0.34570313"
     inkscape:cx="341.33333"
     inkscape:cy="341.33333"
     inkscape:window-x="681"
     inkscape:window-y="40"
     inkscape:window-maximized="0"
     inkscape:current-layer="svg18" />
  <path
     d="m 104.46646,330.16346 c -2.28436,4.55641 -1.39463,10.06413 2.20432,13.66615 l 2.89085,2.89086 c 8.35239,-9.89788 18.08709,-20.6393 29.89373,-32.44286 0.83431,-0.83431 1.69325,-1.23761 2.53065,-2.00728 L 123.38786,293.6691 c -10.81222,19.55562 -17.11731,32.91697 -18.9214,36.49436 z m 0,0"
     id="path2"
     inkscape:connector-curvature="0"
     style="stroke-width:0.78813529;fill:#0088aa" />
  <path
     d="m 206.32986,381.15213 c -11.83435,11.83433 -22.54805,21.58751 -32.39051,29.94605 l 3.91604,3.91605 c 3.63282,3.63281 9.19287,4.50715 13.76467,2.15506 6.12344,-3.15562 15.75346,-7.6874 36.19572,-19.07225 l -19.47556,-19.47557 c -0.76966,0.84047 -1.17296,1.69634 -2.01036,2.53066 z m 0,0"
     id="path4"
     inkscape:connector-curvature="0"
     style="stroke-width:0.78813529;fill:#0088aa" />
  <path
     d="m 200.02786,320.59501 c -8.54327,-8.54326 -32.56907,-0.88357 -43.85543,10.39969 -37.7566,37.7566 -54.80925,64.5255 -62.465864,80.3313 -2.195079,4.52871 -1.280719,9.95022 2.278204,13.50913 3.56508,3.56816 8.99583,4.47329 13.5276,2.27821 15.45177,-7.50267 41.89432,-24.4753 80.1004,-62.6783 12.41006,-12.41622 18.5335,-35.71854 10.42432,-43.83079 z m 0,0"
     id="path6"
     inkscape:connector-curvature="0"
     style="stroke-width:0.78813529;fill:#0088aa" />
  <path
     d="m 82.460245,228.99275 -33.437256,33.43726 c -3.780587,3.78058 -4.556407,9.6331 -1.877978,14.26956 2.613776,4.57487 8.087622,6.90541 13.296704,5.51078 18.071696,-4.84579 33.972942,-6.8931 44.680495,-4.14694 15.23318,-27.08291 31.60238,-52.01385 48.93827,-74.66042 -10.02717,-6.42824 -43.16272,-2.84776 -71.600235,25.58976 z m 0,0"
     id="path8"
     inkscape:connector-curvature="0"
     style="stroke-width:0.78813529;fill:#0088aa" />
  <path
     d="m 245.66274,473.85038 c 4.55332,2.30283 10.0672,1.4131 13.6723,-2.19508 l 33.44033,-33.43725 c 25.8884,-25.89456 30.44481,-59.3041 24.57073,-69.89775 -25.25726,19.03531 -50.84395,35.10896 -74.71583,48.56576 1.64708,9.30061 0.55107,18.32413 -3.34342,44.67742 -0.76043,5.10132 1.8749,10.0364 6.37589,12.2869 z m 0,0"
     id="path10"
     inkscape:connector-curvature="0"
     style="stroke-width:0.78813529;fill:#0088aa" />
  <path
     d="m 280.2668,190.18324 c -13.82623,13.82932 -13.82623,36.32504 0,50.15435 13.82932,13.82931 36.32812,13.82931 50.15743,0 13.82931,-13.82931 13.82931,-36.32503 0,-50.15435 -13.82931,-13.82931 -36.32811,-13.82931 -50.15743,0 z m 0,0"
     id="path12"
     inkscape:connector-curvature="0"
     style="stroke-width:0.78813529;fill:#0088aa" />
  <path
     d="m 448.389,83.126147 c -0.42486,-5.846357 -5.07979,-10.467417 -10.90767,-10.904585 -29.03478,-2.185844 -57.95566,1.385394 -86.3039,10.054885 2.13351,19.475553 12.20686,40.552013 29.40422,57.749383 17.40363,17.40054 39.05272,27.47082 58.87617,29.35495 7.63506,-26.75657 11.25556,-55.41268 8.93118,-86.254633 z m 0,0"
     id="path14"
     inkscape:connector-curvature="0"
     style="stroke-width:0.78813529;fill:#0088aa" />
  <path
     d="M 363.86457,156.74599 C 344.19197,137.0734 332.17906,113.47859 328.32459,90.505687 257.33392,119.62051 189.37572,183.20086 135.67477,272.51876 l 26.67961,26.67961 c 18.2287,-7.40108 40.35806,-9.35603 54.39365,4.67647 14.05405,14.05713 12.06216,36.17726 4.66415,54.38134 l 27.55703,27.55703 c 68.7217,-41.41713 148.72975,-106.66919 182.75195,-193.48415 -23.53322,-3.55583 -47.86382,-15.59029 -67.85659,-35.58307 z m -16.72325,100.31177 c -23.04373,23.04372 -60.5448,23.04372 -83.5916,0 -23.04681,-23.04681 -23.04681,-60.55096 0,-83.59468 23.0468,-23.04372 60.54787,-23.04372 83.5916,0 23.04679,23.0468 23.04679,60.54787 0,83.59468 z m 0,0"
     id="path16"
     inkscape:connector-curvature="0"
     style="stroke-width:0.78813529;fill:#0088aa" />
</svg>
