<?xml version="1.0" encoding="UTF-8" standalone="no"?>
<svg
   xmlns:dc="http://purl.org/dc/elements/1.1/"
   xmlns:cc="http://creativecommons.org/ns#"
   xmlns:rdf="http://www.w3.org/1999/02/22-rdf-syntax-ns#"
   xmlns:svg="http://www.w3.org/2000/svg"
   xmlns="http://www.w3.org/2000/svg"
   xmlns:sodipodi="http://sodipodi.sourceforge.net/DTD/sodipodi-0.dtd"
   xmlns:inkscape="http://www.inkscape.org/namespaces/inkscape"
   id="Bold"
   enable-background="new 0 0 24 24"
   height="512"
   viewBox="0 0 24 24"
   width="512"
   version="1.1"
   sodipodi:docname="slack.svg"
   inkscape:version="0.92.4 (5da689c313, 2019-01-14)">
  <metadata
     id="metadata9">
    <rdf:RDF>
      <cc:Work
         rdf:about="">
        <dc:format>image/svg+xml</dc:format>
        <dc:type
           rdf:resource="http://purl.org/dc/dcmitype/StillImage" />
      </cc:Work>
    </rdf:RDF>
  </metadata>
  <defs
     id="defs7" />
  <sodipodi:namedview
     pagecolor="#ffffff"
     bordercolor="#666666"
     borderopacity="1"
     objecttolerance="10"
     gridtolerance="10"
     guidetolerance="10"
     inkscape:pageopacity="0"
     inkscape:pageshadow="2"
     inkscape:window-width="716"
     inkscape:window-height="480"
     id="namedview5"
     showgrid="false"
     inkscape:zoom="0.4609375"
     inkscape:cx="256"
     inkscape:cy="256"
     inkscape:window-x="0"
     inkscape:window-y="0"
     inkscape:window-maximized="0"
     inkscape:current-layer="Bold" />
  <path
     d="m 3.4288292,11.679733 c 0.2025148,0.589341 0.7759273,0.975408 1.3652679,0.999679 0.276846,0.04096 0.487704,-0.06523 2.3452269,-0.682633 l 1.2310165,3.657401 -1.8446286,0.613612 c -0.7721349,0.252574 -1.1824737,1.092972 -0.93445,1.865866 0.2025147,0.58934 0.7759272,0.975408 1.3652679,0.999679 0.2768459,0.04096 0.487704,-0.06523 2.3452268,-0.683392 l 0.6378835,1.909858 c 0.2404389,0.686426 1.0034719,1.177923 1.8688999,0.929899 0.775927,-0.252575 1.182474,-1.08918 0.93445,-1.865866 l -0.637883,-1.909858 3.803029,-1.271975 0.637884,1.909858 c 0.240438,0.686427 1.003471,1.177923 1.8689,0.929899 0.775927,-0.252574 1.182473,-1.08918 0.93445,-1.865866 l -0.637884,-1.909858 1.844629,-0.613612 c 0.772135,-0.243473 1.182473,-1.085388 0.929899,-1.856764 l -7.59e-4,-7.59e-4 c -0.252574,-0.772135 -1.092972,-1.182473 -1.8689,-0.929899 L 17.771727,12.518614 16.54071,8.8612132 18.385339,8.2476012 C 19.161266,7.9950272 19.567812,7.158421 19.319789,6.3817353 19.067214,5.6096004 18.226816,5.1992616 17.450889,5.4518362 L 15.605502,6.0662067 14.967618,4.1563486 C 14.715044,3.3842138 13.874645,2.9738749 13.098718,3.2264495 12.322791,3.479024 11.916245,4.3156299 12.164268,5.0923156 L 12.802152,7.0021737 9.006707,8.2695972 8.3688235,6.3597393 C 8.116249,5.586846 7.2758507,5.1772656 6.4999235,5.4290817 5.7239962,5.6816562 5.3174498,6.5182621 5.5654735,7.2949478 L 6.203357,9.2048062 4.3632792,9.8138672 C 3.587352,10.066441 3.1808056,10.903047 3.4288292,11.679733 Z M 13.7275,9.8176592 14.958516,13.483404 11.159279,14.755378 9.9282631,11.090392 Z"
     id="path2"
     style="fill:#0088aa;stroke-width:0.75848216"
     inkscape:connector-curvature="0" />
</svg>
