<?xml version="1.0" encoding="UTF-8" standalone="no"?>
<svg
   xmlns:dc="http://purl.org/dc/elements/1.1/"
   xmlns:cc="http://creativecommons.org/ns#"
   xmlns:rdf="http://www.w3.org/1999/02/22-rdf-syntax-ns#"
   xmlns:svg="http://www.w3.org/2000/svg"
   xmlns="http://www.w3.org/2000/svg"
   xmlns:sodipodi="http://sodipodi.sourceforge.net/DTD/sodipodi-0.dtd"
   xmlns:inkscape="http://www.inkscape.org/namespaces/inkscape"
   id="Bold"
   enable-background="new 0 0 24 24"
   height="512"
   viewBox="0 0 24 24"
   width="512"
   version="1.1"
   sodipodi:docname="slack.svg"
   inkscape:version="0.92.4 (5da689c313, 2019-01-14)">
  <metadata
     id="metadata9">
    <rdf:RDF>
      <cc:Work
         rdf:about="">
        <dc:format>image/svg+xml</dc:format>
        <dc:type
           rdf:resource="http://purl.org/dc/dcmitype/StillImage" />
      </cc:Work>
    </rdf:RDF>
  </metadata>
  <defs
     id="defs7" />
  <sodipodi:namedview
     pagecolor="#ffffff"
     bordercolor="#666666"
     borderopacity="1"
     objecttolerance="10"
     gridtolerance="10"
     guidetolerance="10"
     inkscape:pageopacity="0"
     inkscape:pageshadow="2"
     inkscape:window-width="716"
     inkscape:window-height="480"
     id="namedview5"
     showgrid="false"
     inkscape:zoom="0.4609375"
     inkscape:cx="256"
     inkscape:cy="256"
     inkscape:window-x="0"
     inkscape:window-y="0"
     inkscape:window-maximized="0"
     inkscape:current-layer="Bold" />
  <path
     d="m.096 11.243c.267.777 1.023 1.286 1.8 1.318.365.054.643-.086 3.092-.9l1.623 4.822-2.432.809c-1.018.333-1.559 1.441-1.232 2.46.267.777 1.023 1.286 1.8 1.318.365.054.643-.086 3.092-.901l.841 2.518c.317.905 1.323 1.553 2.464 1.226 1.023-.333 1.559-1.436 1.232-2.46l-.841-2.518 5.014-1.677.841 2.518c.317.905 1.323 1.553 2.464 1.226 1.023-.333 1.559-1.436 1.232-2.46l-.841-2.518 2.432-.809c1.018-.321 1.559-1.431 1.226-2.448l-.001-.001c-.333-1.018-1.441-1.559-2.464-1.226l-2.432.809-1.623-4.822 2.432-.809c1.023-.333 1.559-1.436 1.232-2.46-.333-1.018-1.441-1.559-2.464-1.226l-2.433.81-.841-2.518c-.333-1.018-1.441-1.559-2.464-1.226s-1.559 1.436-1.232 2.46l.841 2.518-5.004 1.671-.841-2.518c-.333-1.019-1.441-1.559-2.464-1.227-1.023.333-1.559 1.436-1.232 2.46l.841 2.518-2.426.803c-1.023.333-1.559 1.436-1.232 2.46zm13.578-2.455 1.623 4.833-5.009 1.677-1.623-4.832z"
     id="path2"
     style="fill:#0088aa" />
</svg>
