<?xml version="1.0" encoding="UTF-8" standalone="no"?>
<svg
   xmlns:dc="http://purl.org/dc/elements/1.1/"
   xmlns:cc="http://creativecommons.org/ns#"
   xmlns:rdf="http://www.w3.org/1999/02/22-rdf-syntax-ns#"
   xmlns:svg="http://www.w3.org/2000/svg"
   xmlns="http://www.w3.org/2000/svg"
   xmlns:sodipodi="http://sodipodi.sourceforge.net/DTD/sodipodi-0.dtd"
   xmlns:inkscape="http://www.inkscape.org/namespaces/inkscape"
   id="e9543dae-de41-418f-9290-24abb7460ee9"
   data-name="Layer 1"
   width="1000"
   height="700"
   viewBox="0 0 1000 700"
   version="1.1"
   sodipodi:docname="speed.svg"
   inkscape:version="0.92.4 (5da689c313, 2019-01-14)">
  <metadata
     id="metadata3980">
    <rdf:RDF>
      <cc:Work
         rdf:about="">
        <dc:format>image/svg+xml</dc:format>
        <dc:type
           rdf:resource="http://purl.org/dc/dcmitype/StillImage" />
        <dc:title>speed test</dc:title>
      </cc:Work>
    </rdf:RDF>
  </metadata>
  <defs
     id="defs3978" />
  <sodipodi:namedview
     pagecolor="#ffffff"
     bordercolor="#666666"
     borderopacity="1"
     objecttolerance="10"
     gridtolerance="10"
     guidetolerance="10"
     inkscape:pageopacity="0"
     inkscape:pageshadow="2"
     inkscape:window-width="5160"
     inkscape:window-height="2081"
     id="namedview3976"
     showgrid="false"
     inkscape:zoom="0.96473552"
     inkscape:cx="-294.38105"
     inkscape:cy="422.56963"
     inkscape:window-x="-11"
     inkscape:window-y="-11"
     inkscape:window-maximized="1"
     inkscape:current-layer="e9543dae-de41-418f-9290-24abb7460ee9" />
  <title
     id="title3899">speed test</title>
  <path
     d="m 837.97669,681.3879 a 389.19668,376.95777 0 0 0 55.36949,-194.35763 c 0,-209.17699 -175.07697,-378.74823 -391.04524,-378.74823 -215.9683,0 -391.04526,169.57124 -391.04526,378.74823 a 389.19668,376.95777 0 0 0 55.36949,194.35763 z"
     id="path3947-7"
     inkscape:connector-curvature="0"
     style="fill:#3f3d56;fill-opacity:0.14925376;stroke-width:1.68792808" />
  <path
     d="m 827.21783,699.17609 a 375.28632,375.28632 0 0 0 53.39052,-193.49585 c 0,-208.24949 -168.81951,-377.06883 -377.06883,-377.06883 -208.24932,0 -377.06882,168.81934 -377.06882,377.06883 a 375.28632,375.28632 0 0 0 53.39052,193.49585 z"
     id="path3947"
     inkscape:connector-curvature="0"
     style="fill:#3f3d56;stroke-width:1.65381062" />
  <circle
     cx="503.53949"
     cy="480.87305"
     id="circle3949"
     style="fill:#e68200;stroke-width:1.65381062"
     r="36.383835" />
  <circle
     cx="214.12263"
     cy="540.41028"
     id="circle3951"
     style="fill:#d5ffd5;stroke-width:1.65381062;fill-opacity:1;opacity:1"
     r="18.191917" />
  <circle
     cx="224.79689"
     cy="382.84579"
     id="circle3953"
     style="fill:#aaffaa;stroke-width:1.65381062;fill-opacity:1"
     r="18.191917" />
  <circle
     cx="315.0983"
     cy="253.28418"
     id="circle3955"
     style="fill:#80ff80;stroke-width:1.65381062;fill-opacity:1"
     r="18.191917" />
  <circle
     cx="459.2308"
     cy="188.73694"
     id="circle3957"
     style="fill:#55ff55;stroke-width:1.65381062;fill-opacity:1"
     r="18.191917" />
  <circle
     cx="616.02075"
     cy="207.64285"
     id="circle3959"
     style="fill:#2aff2a;stroke-width:1.65381062;fill-opacity:1"
     r="18.191917" />
  <circle
     cx="740.67877"
     cy="304.60126"
     id="circle3961"
     style="fill:#00d400;stroke-width:1.65381062;fill-opacity:1;opacity:0.7"
     r="18.191917" />
  <circle
     cx="797.59424"
     cy="451.91431"
     id="circle3963"
     style="fill:#00d400;stroke-width:1.65381062;fill-opacity:1;opacity:0.8"
     r="18.191917" />
  <circle
     cx="770.50848"
     cy="607.49994"
     id="circle3965"
     style="fill:#338000;stroke-width:1.65381062;fill-opacity:1"
     r="18.191917" />
  <line
     x1="503.53949"
     y1="480.87305"
     x2="690.4201"
     y2="338.64539"
     stroke-miterlimit="10"
     id="line3967"
     style="fill:none;stroke:#e68200;stroke-width:6.61524248;stroke-miterlimit:10" />
  <path
     style="fill:#005522;fill-opacity:0;stroke-width:1.0365535"
     d="m 206.46418,556.15398 c -5.7111,-2.59367 -8.97367,-7.39919 -9.52331,-14.0271 -0.87782,-10.58545 5.4437,-18.162 15.87532,-19.02707 16.65358,-1.38105 25.52074,18.62609 13.31358,30.03968 -5.67362,5.30479 -12.36421,6.33038 -19.66559,3.01449 z"
     id="path7316"
     inkscape:connector-curvature="0" />
  <path
     style="fill:#005522;fill-opacity:0;stroke-width:1.0365535"
     d="m 174.13163,687.95903 c -23.50088,-42.33985 -37.65637,-85.66301 -44.45299,-136.04929 -2.37645,-17.61769 -2.67569,-70.78345 -0.49882,-88.62532 12.30252,-100.83265 61.68113,-189.89738 139.75664,-252.08048 55.64528,-44.31861 119.96011,-71.02257 192.10416,-79.763 18.51864,-2.24358 63.04405,-2.52709 80.85117,-0.51481 56.99197,6.44034 108.57125,23.61615 155.02506,51.62309 104.89634,63.24185 171.26662,169.98539 181.94869,292.62868 1.53696,17.64616 0.63836,61.46782 -1.5947,77.7684 -6.51213,47.53626 -20.49698,91.08746 -42.0075,130.81839 l -8.0222,14.81738 -323.46183,0.26077 -323.46183,0.26078 z m 605.26658,-64.11012 c 3.46314,-1.75131 7.96557,-7.06842 8.79973,-10.392 1.18779,-4.73252 -0.15591,-13.37996 -2.61589,-16.83467 -7.39316,-10.38276 -24.66037,-9.58069 -30.89947,1.43526 -9.17674,16.20277 8.07575,34.20618 24.71563,25.79141 z M 219.61144,558.12187 c 8.0067,-2.22416 14.5456,-12.82382 12.87972,-20.87823 -1.76556,-8.53639 -10.01517,-15.39395 -18.51884,-15.39395 -13.03206,0 -22.32331,14.98267 -16.43995,26.51035 2.49426,4.88719 4.79497,7.08724 9.58348,9.16423 4.2596,1.84756 7.44713,2 12.49559,0.5976 z m 299.89564,-44.43861 c 8.22524,-4.04928 15.24267,-11.5331 18.18278,-19.39126 2.90205,-7.75641 2.87895,-19.07767 -0.0549,-26.91916 -1.20107,-3.21012 -1.78413,-6.21205 -1.29569,-6.67094 0.48843,-0.4589 35.63851,-27.26392 78.11129,-59.56673 42.47278,-32.30282 77.38772,-59.19812 77.58875,-59.76735 0.5374,-1.52167 -3.13311,-5.21539 -4.61684,-4.64603 -1.00406,0.3853 -84.77263,63.87835 -146.74929,111.2298 l -10.02934,7.66262 -4.67567,-3.56902 c -7.08118,-5.40519 -13.31574,-7.41874 -22.97071,-7.41874 -7.30373,0 -9.15664,0.41394 -15.2216,3.40049 -13.32298,6.5606 -20.51589,18.088 -20.51589,32.87889 0,9.65085 2.69,17.23001 8.42951,23.75044 11.33389,12.87598 28.72255,16.45827 43.81763,9.02699 z m 286.01014,-45.07514 c 9.3809,-3.91958 13.30753,-16.03056 8.34612,-25.74206 -4.22055,-8.26132 -16.7791,-11.69893 -25.28161,-6.92026 -12.15467,6.83132 -12.43302,24.94014 -0.48735,31.70579 4.78151,2.70809 12.2495,3.1181 17.42284,0.95653 z M 235.1723,398.03817 c 7.73273,-5.11728 10.17404,-14.87036 5.85983,-23.41022 -6.87173,-13.60243 -25.77969,-13.60243 -32.65143,0 -3.79526,7.51262 -2.53921,15.30338 3.42956,21.27214 6.34894,6.34895 15.70509,7.20521 23.36204,2.13808 z m 516.49824,-78.67034 c 8.65149,-6.59881 10.01373,-18.349 3.08227,-26.58657 -3.70148,-4.39896 -8.13992,-6.46842 -13.873,-6.46842 -6.40049,0 -12.0031,2.78088 -15.13386,7.51177 -6.33295,9.56976 -3.71439,20.83216 6.30924,27.13593 4.79201,3.01365 14.62261,2.21545 19.61535,-1.59271 z m -429.79188,-48.9219 c 4.97614,-2.07916 7.27959,-4.2406 9.81643,-9.21121 4.43745,-8.69462 0.55746,-19.80827 -8.53484,-24.44682 -13.92596,-7.10449 -30.10183,6.23394 -25.87373,21.33518 3.00634,10.73764 14.5464,16.52023 24.59214,12.32285 z m 300.62431,-45.6183 c 7.84448,-3.27762 11.64209,-8.86218 11.64209,-17.12019 0,-15.76078 -18.01807,-24.42412 -29.61689,-14.24022 -4.94944,4.34567 -6.66249,8.02419 -6.66249,14.30675 0,8.0847 3.76022,13.6896 11.40949,17.00675 4.6744,2.02708 8.4565,2.0405 13.2278,0.0469 z M 463.632,206.614 c 5.74213,-1.59043 9.53373,-4.52737 11.94384,-9.25156 3.59413,-7.04508 2.43227,-15.35879 -2.93994,-21.03675 -3.99328,-4.22056 -7.69892,-5.86764 -13.20112,-5.86764 -18.35755,0 -25.54484,22.44871 -10.70551,33.43749 2.21683,1.6416 5.49955,2.84929 10.23824,3.76655 0.28505,0.0552 2.38407,-0.41646 4.66449,-1.04809 z"
     id="path7360"
     inkscape:connector-curvature="0" />
  <path
     style="fill:#005522;fill-opacity:0;stroke-width:1.0365535"
     d="m 174.13163,687.95903 c -23.50088,-42.33985 -37.65637,-85.66301 -44.45299,-136.04929 -2.37645,-17.61769 -2.67569,-70.78345 -0.49882,-88.62532 12.30252,-100.83265 61.68113,-189.89738 139.75664,-252.08048 55.64528,-44.31861 119.96011,-71.02257 192.10416,-79.763 18.51864,-2.24358 63.04405,-2.52709 80.85117,-0.51481 56.99197,6.44034 108.57125,23.61615 155.02506,51.62309 104.89634,63.24185 171.26662,169.98539 181.94869,292.62868 1.53696,17.64616 0.63836,61.46782 -1.5947,77.7684 -6.51213,47.53626 -20.49698,91.08746 -42.0075,130.81839 l -8.0222,14.81738 -323.46183,0.26077 -323.46183,0.26078 z m 605.26658,-64.11012 c 3.46314,-1.75131 7.96557,-7.06842 8.79973,-10.392 1.18779,-4.73252 -0.15591,-13.37996 -2.61589,-16.83467 -7.39316,-10.38276 -24.66037,-9.58069 -30.89947,1.43526 -9.17674,16.20277 8.07575,34.20618 24.71563,25.79141 z M 219.61144,558.12187 c 8.0067,-2.22416 14.5456,-12.82382 12.87972,-20.87823 -1.76556,-8.53639 -10.01517,-15.39395 -18.51884,-15.39395 -13.03206,0 -22.32331,14.98267 -16.43995,26.51035 2.49426,4.88719 4.79497,7.08724 9.58348,9.16423 4.2596,1.84756 7.44713,2 12.49559,0.5976 z m 299.89564,-44.43861 c 8.22524,-4.04928 15.24267,-11.5331 18.18278,-19.39126 2.90205,-7.75641 2.87895,-19.07767 -0.0549,-26.91916 -1.20107,-3.21012 -1.78413,-6.21205 -1.29569,-6.67094 0.48843,-0.4589 35.63851,-27.26392 78.11129,-59.56673 42.47278,-32.30282 77.38772,-59.19812 77.58875,-59.76735 0.5374,-1.52167 -3.13311,-5.21539 -4.61684,-4.64603 -1.00406,0.3853 -84.77263,63.87835 -146.74929,111.2298 l -10.02934,7.66262 -4.67567,-3.56902 c -7.08118,-5.40519 -13.31574,-7.41874 -22.97071,-7.41874 -7.30373,0 -9.15664,0.41394 -15.2216,3.40049 -13.32298,6.5606 -20.51589,18.088 -20.51589,32.87889 0,9.65085 2.69,17.23001 8.42951,23.75044 11.33389,12.87598 28.72255,16.45827 43.81763,9.02699 z m 286.01014,-45.07514 c 9.3809,-3.91958 13.30753,-16.03056 8.34612,-25.74206 -4.22055,-8.26132 -16.7791,-11.69893 -25.28161,-6.92026 -12.15467,6.83132 -12.43302,24.94014 -0.48735,31.70579 4.78151,2.70809 12.2495,3.1181 17.42284,0.95653 z M 235.1723,398.03817 c 7.73273,-5.11728 10.17404,-14.87036 5.85983,-23.41022 -6.87173,-13.60243 -25.77969,-13.60243 -32.65143,0 -3.79526,7.51262 -2.53921,15.30338 3.42956,21.27214 6.34894,6.34895 15.70509,7.20521 23.36204,2.13808 z m 516.49824,-78.67034 c 8.65149,-6.59881 10.01373,-18.349 3.08227,-26.58657 -3.70148,-4.39896 -8.13992,-6.46842 -13.873,-6.46842 -6.40049,0 -12.0031,2.78088 -15.13386,7.51177 -6.33295,9.56976 -3.71439,20.83216 6.30924,27.13593 4.79201,3.01365 14.62261,2.21545 19.61535,-1.59271 z m -429.79188,-48.9219 c 4.97614,-2.07916 7.27959,-4.2406 9.81643,-9.21121 4.43745,-8.69462 0.55746,-19.80827 -8.53484,-24.44682 -13.92596,-7.10449 -30.10183,6.23394 -25.87373,21.33518 3.00634,10.73764 14.5464,16.52023 24.59214,12.32285 z m 300.62431,-45.6183 c 7.84448,-3.27762 11.64209,-8.86218 11.64209,-17.12019 0,-15.76078 -18.01807,-24.42412 -29.61689,-14.24022 -4.94944,4.34567 -6.66249,8.02419 -6.66249,14.30675 0,8.0847 3.76022,13.6896 11.40949,17.00675 4.6744,2.02708 8.4565,2.0405 13.2278,0.0469 z M 463.632,206.614 c 5.74213,-1.59043 9.53373,-4.52737 11.94384,-9.25156 3.59413,-7.04508 2.43227,-15.35879 -2.93994,-21.03675 -3.99328,-4.22056 -7.69892,-5.86764 -13.20112,-5.86764 -18.35755,0 -25.54484,22.44871 -10.70551,33.43749 2.21683,1.6416 5.49955,2.84929 10.23824,3.76655 0.28505,0.0552 2.38407,-0.41646 4.66449,-1.04809 z"
     id="path7362"
     inkscape:connector-curvature="0" />
  <path
     style="fill:#00ff66;fill-opacity:0;stroke-width:1.0365535"
     d="m 765.69777,624.51438 c -12.78313,-3.87393 -17.06036,-19.68713 -7.86815,-29.08914 3.91962,-4.00909 7.07125,-5.32113 12.80182,-5.32948 11.5388,-0.0168 19.94165,10.72567 16.98333,21.71203 -2.66064,9.88086 -12.47179,15.56897 -21.917,12.70659 z"
     id="path7364"
     inkscape:connector-curvature="0" />
  <path
     style="fill:#00ff66;fill-opacity:0;stroke-width:1.0365535"
     d="m 174.13163,687.95903 c -23.50088,-42.33985 -37.65637,-85.66301 -44.45299,-136.04929 -2.37645,-17.61769 -2.67569,-70.78345 -0.49882,-88.62532 12.30252,-100.83265 61.68113,-189.89738 139.75664,-252.08048 55.64528,-44.31861 119.96011,-71.02257 192.10416,-79.763 18.51864,-2.24358 63.04405,-2.52709 80.85117,-0.51481 56.99197,6.44034 108.57125,23.61615 155.02506,51.62309 104.89634,63.24185 171.26662,169.98539 181.94869,292.62868 1.53696,17.64616 0.63836,61.46782 -1.5947,77.7684 -6.51213,47.53626 -20.49698,91.08746 -42.0075,130.81839 l -8.0222,14.81738 -323.46183,0.26077 -323.46183,0.26078 z m 605.26658,-64.11012 c 3.46314,-1.75131 7.96557,-7.06842 8.79973,-10.392 1.18779,-4.73252 -0.15591,-13.37996 -2.61589,-16.83467 -7.39316,-10.38276 -24.66037,-9.58069 -30.89947,1.43526 -9.17674,16.20277 8.07575,34.20618 24.71563,25.79141 z M 219.61144,558.12187 c 8.0067,-2.22416 14.5456,-12.82382 12.87972,-20.87823 -1.76556,-8.53639 -10.01517,-15.39395 -18.51884,-15.39395 -13.03206,0 -22.32331,14.98267 -16.43995,26.51035 2.49426,4.88719 4.79497,7.08724 9.58348,9.16423 4.2596,1.84756 7.44713,2 12.49559,0.5976 z m 299.89564,-44.43861 c 8.22524,-4.04928 15.24267,-11.5331 18.18278,-19.39126 2.90205,-7.75641 2.87895,-19.07767 -0.0549,-26.91916 -1.20107,-3.21012 -1.78413,-6.21205 -1.29569,-6.67094 0.48843,-0.4589 35.63851,-27.26392 78.11129,-59.56673 42.47278,-32.30282 77.38772,-59.19812 77.58875,-59.76735 0.5374,-1.52167 -3.13311,-5.21539 -4.61684,-4.64603 -1.00406,0.3853 -84.77263,63.87835 -146.74929,111.2298 l -10.02934,7.66262 -4.67567,-3.56902 c -7.08118,-5.40519 -13.31574,-7.41874 -22.97071,-7.41874 -7.30373,0 -9.15664,0.41394 -15.2216,3.40049 -13.32298,6.5606 -20.51589,18.088 -20.51589,32.87889 0,9.65085 2.69,17.23001 8.42951,23.75044 11.33389,12.87598 28.72255,16.45827 43.81763,9.02699 z m 286.01014,-45.07514 c 9.3809,-3.91958 13.30753,-16.03056 8.34612,-25.74206 -4.22055,-8.26132 -16.7791,-11.69893 -25.28161,-6.92026 -12.15467,6.83132 -12.43302,24.94014 -0.48735,31.70579 4.78151,2.70809 12.2495,3.1181 17.42284,0.95653 z M 235.1723,398.03817 c 7.73273,-5.11728 10.17404,-14.87036 5.85983,-23.41022 -6.87173,-13.60243 -25.77969,-13.60243 -32.65143,0 -3.79526,7.51262 -2.53921,15.30338 3.42956,21.27214 6.34894,6.34895 15.70509,7.20521 23.36204,2.13808 z m 516.49824,-78.67034 c 8.65149,-6.59881 10.01373,-18.349 3.08227,-26.58657 -3.70148,-4.39896 -8.13992,-6.46842 -13.873,-6.46842 -6.40049,0 -12.0031,2.78088 -15.13386,7.51177 -6.33295,9.56976 -3.71439,20.83216 6.30924,27.13593 4.79201,3.01365 14.62261,2.21545 19.61535,-1.59271 z m -429.79188,-48.9219 c 4.97614,-2.07916 7.27959,-4.2406 9.81643,-9.21121 4.43745,-8.69462 0.55746,-19.80827 -8.53484,-24.44682 -13.92596,-7.10449 -30.10183,6.23394 -25.87373,21.33518 3.00634,10.73764 14.5464,16.52023 24.59214,12.32285 z m 300.62431,-45.6183 c 7.84448,-3.27762 11.64209,-8.86218 11.64209,-17.12019 0,-15.76078 -18.01807,-24.42412 -29.61689,-14.24022 -4.94944,4.34567 -6.66249,8.02419 -6.66249,14.30675 0,8.0847 3.76022,13.6896 11.40949,17.00675 4.6744,2.02708 8.4565,2.0405 13.2278,0.0469 z M 463.632,206.614 c 5.74213,-1.59043 9.53373,-4.52737 11.94384,-9.25156 3.59413,-7.04508 2.43227,-15.35879 -2.93994,-21.03675 -3.99328,-4.22056 -7.69892,-5.86764 -13.20112,-5.86764 -18.35755,0 -25.54484,22.44871 -10.70551,33.43749 2.21683,1.6416 5.49955,2.84929 10.23824,3.76655 0.28505,0.0552 2.38407,-0.41646 4.66449,-1.04809 z"
     id="path7366"
     inkscape:connector-curvature="0" />
  <path
     style="fill:#00ff66;fill-opacity:0;stroke-width:1.0365535"
     d=""
     id="path7368"
     inkscape:connector-curvature="0" />
  <path
     style="fill:#00ff66;fill-opacity:0;stroke-width:1.0365535"
     d="m 206.46418,556.15398 c -5.7111,-2.59367 -8.97367,-7.39919 -9.52331,-14.0271 -0.87782,-10.58545 5.4437,-18.162 15.87532,-19.02707 16.65358,-1.38105 25.52074,18.62609 13.31358,30.03968 -5.67362,5.30479 -12.36421,6.33038 -19.66559,3.01449 z"
     id="path7370"
     inkscape:connector-curvature="0" />
  <path
     style="fill:#00ff66;fill-opacity:0;stroke-width:1.0365535"
     d="m 206.46418,556.15398 c -5.7111,-2.59367 -8.97367,-7.39919 -9.52331,-14.0271 -0.87782,-10.58545 5.4437,-18.162 15.87532,-19.02707 16.65358,-1.38105 25.52074,18.62609 13.31358,30.03968 -5.67362,5.30479 -12.36421,6.33038 -19.66559,3.01449 z"
     id="path7372"
     inkscape:connector-curvature="0" />
  <path
     style="fill:#00ff66;fill-opacity:0;stroke-width:1.0365535"
     d="m 493.01227,515.2836 c -6.21777,-2.32161 -12.8208,-6.59232 -16.27482,-10.52624 -15.96057,-18.17809 -10.0596,-45.78656 12.12183,-56.71362 4.01334,-1.97707 6.50245,-2.38073 14.68003,-2.38073 8.76515,0 10.47375,0.32141 15.54831,2.92485 3.13557,1.60867 6.96691,4.12863 8.51408,5.59993 2.04479,1.9445 3.17715,2.38442 4.14622,1.61082 15.95934,-12.74016 155.10311,-117.75628 156.12347,-117.83123 1.45692,-0.10701 4.13871,3.06579 3.24745,3.84202 -0.26489,0.2307 -35.58191,27.11437 -78.48227,59.74147 -42.90036,32.62711 -78.00065,59.77116 -78.00065,60.32012 0,0.54895 0.65443,2.26363 1.45429,3.81038 2.87401,5.55773 4.04389,14.92212 2.69235,21.55113 -2.42413,11.88981 -8.87651,20.29578 -19.91687,25.94711 -6.61185,3.38447 -19.59439,4.441 -25.85342,2.10399 z"
     id="path7374"
     inkscape:connector-curvature="0" />
  <path
     style="fill:#00ff66;fill-opacity:0;stroke-width:1.0365535"
     d="m 493.01227,515.2836 c -6.21777,-2.32161 -12.8208,-6.59232 -16.27482,-10.52624 -15.96057,-18.17809 -10.0596,-45.78656 12.12183,-56.71362 4.01334,-1.97707 6.50245,-2.38073 14.68003,-2.38073 8.76515,0 10.47375,0.32141 15.54831,2.92485 3.13557,1.60867 6.96691,4.12863 8.51408,5.59993 2.04479,1.9445 3.17715,2.38442 4.14622,1.61082 15.95934,-12.74016 155.10311,-117.75628 156.12347,-117.83123 1.45692,-0.10701 4.13871,3.06579 3.24745,3.84202 -0.26489,0.2307 -35.58191,27.11437 -78.48227,59.74147 -42.90036,32.62711 -78.00065,59.77116 -78.00065,60.32012 0,0.54895 0.65443,2.26363 1.45429,3.81038 2.87401,5.55773 4.04389,14.92212 2.69235,21.55113 -2.42413,11.88981 -8.87651,20.29578 -19.91687,25.94711 -6.61185,3.38447 -19.59439,4.441 -25.85342,2.10399 z"
     id="path7376"
     inkscape:connector-curvature="0" />
  <path
     style="fill:#00ff66;fill-opacity:0;stroke-width:1.0365535"
     d="m 308.14897,269.53457 c -3.86293,-1.72425 -8.32462,-6.40408 -9.78131,-10.25954 -2.88524,-7.63643 0.51754,-16.76352 7.85241,-21.06203 8.89941,-5.21541 21.1187,-1.41514 24.95247,7.76036 2.14954,5.14457 1.3374,13.40464 -1.74334,17.73114 -4.43142,6.22335 -14.32601,8.93414 -21.28023,5.83007 z"
     id="path7378"
     inkscape:connector-curvature="0" />
  <path
     style="fill:#00ff66;fill-opacity:0;stroke-width:1.0365535"
     d="m 308.14897,269.53457 c -3.86293,-1.72425 -8.32462,-6.40408 -9.78131,-10.25954 -2.88524,-7.63643 0.51754,-16.76352 7.85241,-21.06203 8.89941,-5.21541 21.1187,-1.41514 24.95247,7.76036 2.14954,5.14457 1.3374,13.40464 -1.74334,17.73114 -4.43142,6.22335 -14.32601,8.93414 -21.28023,5.83007 z"
     id="path7380"
     inkscape:connector-curvature="0" />
  <path
     style="fill:#00ff66;fill-opacity:0;stroke-width:1.0365535"
     d="m 174.13163,687.95903 c -23.50088,-42.33985 -37.65637,-85.66301 -44.45299,-136.04929 -2.37645,-17.61769 -2.67569,-70.78345 -0.49882,-88.62532 12.30252,-100.83265 61.68113,-189.89738 139.75664,-252.08048 55.64528,-44.31861 119.96011,-71.02257 192.10416,-79.763 18.51864,-2.24358 63.04405,-2.52709 80.85117,-0.51481 56.99197,6.44034 108.57125,23.61615 155.02506,51.62309 104.89634,63.24185 171.26662,169.98539 181.94869,292.62868 1.53696,17.64616 0.63836,61.46782 -1.5947,77.7684 -6.51213,47.53626 -20.49698,91.08746 -42.0075,130.81839 l -8.0222,14.81738 -323.46183,0.26077 -323.46183,0.26078 z m 605.26658,-64.11012 c 3.46314,-1.75131 7.96557,-7.06842 8.79973,-10.392 1.18779,-4.73252 -0.15591,-13.37996 -2.61589,-16.83467 -7.39316,-10.38276 -24.66037,-9.58069 -30.89947,1.43526 -9.17674,16.20277 8.07575,34.20618 24.71563,25.79141 z M 219.61144,558.12187 c 8.0067,-2.22416 14.5456,-12.82382 12.87972,-20.87823 -1.76556,-8.53639 -10.01517,-15.39395 -18.51884,-15.39395 -13.03206,0 -22.32331,14.98267 -16.43995,26.51035 2.49426,4.88719 4.79497,7.08724 9.58348,9.16423 4.2596,1.84756 7.44713,2 12.49559,0.5976 z m 299.89564,-44.43861 c 8.22524,-4.04928 15.24267,-11.5331 18.18278,-19.39126 2.90205,-7.75641 2.87895,-19.07767 -0.0549,-26.91916 -1.20107,-3.21012 -1.78413,-6.21205 -1.29569,-6.67094 0.48843,-0.4589 35.63851,-27.26392 78.11129,-59.56673 42.47278,-32.30282 77.38772,-59.19812 77.58875,-59.76735 0.5374,-1.52167 -3.13311,-5.21539 -4.61684,-4.64603 -1.00406,0.3853 -84.77263,63.87835 -146.74929,111.2298 l -10.02934,7.66262 -4.67567,-3.56902 c -7.08118,-5.40519 -13.31574,-7.41874 -22.97071,-7.41874 -7.30373,0 -9.15664,0.41394 -15.2216,3.40049 -13.32298,6.5606 -20.51589,18.088 -20.51589,32.87889 0,9.65085 2.69,17.23001 8.42951,23.75044 11.33389,12.87598 28.72255,16.45827 43.81763,9.02699 z m 286.01014,-45.07514 c 9.3809,-3.91958 13.30753,-16.03056 8.34612,-25.74206 -4.22055,-8.26132 -16.7791,-11.69893 -25.28161,-6.92026 -12.15467,6.83132 -12.43302,24.94014 -0.48735,31.70579 4.78151,2.70809 12.2495,3.1181 17.42284,0.95653 z M 235.1723,398.03817 c 7.73273,-5.11728 10.17404,-14.87036 5.85983,-23.41022 -6.87173,-13.60243 -25.77969,-13.60243 -32.65143,0 -3.79526,7.51262 -2.53921,15.30338 3.42956,21.27214 6.34894,6.34895 15.70509,7.20521 23.36204,2.13808 z m 516.49824,-78.67034 c 8.65149,-6.59881 10.01373,-18.349 3.08227,-26.58657 -3.70148,-4.39896 -8.13992,-6.46842 -13.873,-6.46842 -6.40049,0 -12.0031,2.78088 -15.13386,7.51177 -6.33295,9.56976 -3.71439,20.83216 6.30924,27.13593 4.79201,3.01365 14.62261,2.21545 19.61535,-1.59271 z m -429.79188,-48.9219 c 4.97614,-2.07916 7.27959,-4.2406 9.81643,-9.21121 4.43745,-8.69462 0.55746,-19.80827 -8.53484,-24.44682 -13.92596,-7.10449 -30.10183,6.23394 -25.87373,21.33518 3.00634,10.73764 14.5464,16.52023 24.59214,12.32285 z m 300.62431,-45.6183 c 7.84448,-3.27762 11.64209,-8.86218 11.64209,-17.12019 0,-15.76078 -18.01807,-24.42412 -29.61689,-14.24022 -4.94944,4.34567 -6.66249,8.02419 -6.66249,14.30675 0,8.0847 3.76022,13.6896 11.40949,17.00675 4.6744,2.02708 8.4565,2.0405 13.2278,0.0469 z M 463.632,206.614 c 5.74213,-1.59043 9.53373,-4.52737 11.94384,-9.25156 3.59413,-7.04508 2.43227,-15.35879 -2.93994,-21.03675 -3.99328,-4.22056 -7.69892,-5.86764 -13.20112,-5.86764 -18.35755,0 -25.54484,22.44871 -10.70551,33.43749 2.21683,1.6416 5.49955,2.84929 10.23824,3.76655 0.28505,0.0552 2.38407,-0.41646 4.66449,-1.04809 z"
     id="path7382"
     inkscape:connector-curvature="0" />
  <path
     style="fill:#00ff66;fill-opacity:0;stroke-width:1.0365535"
     d="m 162.89681,675.00047 c -2.12406,-3.56315 -7.4743,-13.59301 -11.88944,-22.28858 -34.08629,-67.13266 -46.39832,-143.0436 -35.59877,-219.48753 15.32526,-108.47893 81.41361,-206.84203 179.35191,-266.93979 13.59381,-8.34155 39.28671,-21.46127 53.81405,-27.47938 106.72982,-44.21402 230.11526,-39.74251 333.50736,12.08637 56.6261,28.38579 107.07801,71.58579 142.4794,121.99955 36.6608,52.20725 58.63223,109.31667 66.27028,172.25362 2.21654,18.26416 2.53241,62.12054 0.57111,79.29634 -5.31145,46.51434 -17.8241,88.85974 -38.2604,129.48107 -3.17935,6.31961 -5.9706,10.942 -6.20278,10.27195 -0.23217,-0.67004 0.47861,-3.00228 1.57952,-5.18277 3.6712,-7.2712 13.46681,-33.87014 17.11106,-46.4632 11.42668,-39.48616 15.90875,-74.3933 14.90646,-116.09399 -0.64851,-26.98111 -2.3176,-42.01252 -7.48147,-67.37598 -11.94282,-58.65973 -37.53925,-112.69658 -76.56673,-161.64068 -11.48634,-14.40495 -41.01897,-43.67466 -56.6873,-56.18264 -23.73922,-18.95094 -52.39573,-36.6797 -78.62182,-48.64052 -87.6931,-39.99381 -185.60861,-45.26579 -277.04231,-14.91652 -95.89025,31.8285 -174.00343,100.02936 -218.98929,191.2002 -19.15627,38.82317 -30.84569,77.63296 -36.37216,120.75849 -2.26631,17.68505 -3.10484,57.04644 -1.60095,75.15013 3.92186,47.21089 15.6531,91.22621 35.47307,133.09402 6.703,14.15945 6.48481,13.5783 5.09802,13.5783 -0.5428,0 -2.72477,-2.9153 -4.84882,-6.47846 z"
     id="path7384"
     inkscape:connector-curvature="0" />
  <path
     style="fill:#00ff66;fill-opacity:0;stroke-width:1.0365535"
     d="m 162.89681,675.00047 c -2.12406,-3.56315 -7.4743,-13.59301 -11.88944,-22.28858 -34.08629,-67.13266 -46.39832,-143.0436 -35.59877,-219.48753 15.32526,-108.47893 81.41361,-206.84203 179.35191,-266.93979 13.59381,-8.34155 39.28671,-21.46127 53.81405,-27.47938 106.72982,-44.21402 230.11526,-39.74251 333.50736,12.08637 56.6261,28.38579 107.07801,71.58579 142.4794,121.99955 36.6608,52.20725 58.63223,109.31667 66.27028,172.25362 2.21654,18.26416 2.53241,62.12054 0.57111,79.29634 -5.31145,46.51434 -17.8241,88.85974 -38.2604,129.48107 -3.17935,6.31961 -5.9706,10.942 -6.20278,10.27195 -0.23217,-0.67004 0.47861,-3.00228 1.57952,-5.18277 3.6712,-7.2712 13.46681,-33.87014 17.11106,-46.4632 11.42668,-39.48616 15.90875,-74.3933 14.90646,-116.09399 -0.64851,-26.98111 -2.3176,-42.01252 -7.48147,-67.37598 -11.94282,-58.65973 -37.53925,-112.69658 -76.56673,-161.64068 -11.48634,-14.40495 -41.01897,-43.67466 -56.6873,-56.18264 -23.73922,-18.95094 -52.39573,-36.6797 -78.62182,-48.64052 -87.6931,-39.99381 -185.60861,-45.26579 -277.04231,-14.91652 -95.89025,31.8285 -174.00343,100.02936 -218.98929,191.2002 -19.15627,38.82317 -30.84569,77.63296 -36.37216,120.75849 -2.26631,17.68505 -3.10484,57.04644 -1.60095,75.15013 3.92186,47.21089 15.6531,91.22621 35.47307,133.09402 6.703,14.15945 6.48481,13.5783 5.09802,13.5783 -0.5428,0 -2.72477,-2.9153 -4.84882,-6.47846 z"
     id="path7386"
     inkscape:connector-curvature="0" />
  <path
     style="fill:#00ff66;fill-opacity:0;stroke-width:1.0365535"
     d="m 162.89681,675.00047 c -2.12406,-3.56315 -7.4743,-13.59301 -11.88944,-22.28858 -34.08629,-67.13266 -46.39832,-143.0436 -35.59877,-219.48753 15.32526,-108.47893 81.41361,-206.84203 179.35191,-266.93979 13.59381,-8.34155 39.28671,-21.46127 53.81405,-27.47938 106.72982,-44.21402 230.11526,-39.74251 333.50736,12.08637 56.6261,28.38579 107.07801,71.58579 142.4794,121.99955 36.6608,52.20725 58.63223,109.31667 66.27028,172.25362 2.21654,18.26416 2.53241,62.12054 0.57111,79.29634 -5.31145,46.51434 -17.8241,88.85974 -38.2604,129.48107 -3.17935,6.31961 -5.9706,10.942 -6.20278,10.27195 -0.23217,-0.67004 0.47861,-3.00228 1.57952,-5.18277 3.6712,-7.2712 13.46681,-33.87014 17.11106,-46.4632 11.42668,-39.48616 15.90875,-74.3933 14.90646,-116.09399 -0.64851,-26.98111 -2.3176,-42.01252 -7.48147,-67.37598 -11.94282,-58.65973 -37.53925,-112.69658 -76.56673,-161.64068 -11.48634,-14.40495 -41.01897,-43.67466 -56.6873,-56.18264 -23.73922,-18.95094 -52.39573,-36.6797 -78.62182,-48.64052 -87.6931,-39.99381 -185.60861,-45.26579 -277.04231,-14.91652 -95.89025,31.8285 -174.00343,100.02936 -218.98929,191.2002 -19.15627,38.82317 -30.84569,77.63296 -36.37216,120.75849 -2.26631,17.68505 -3.10484,57.04644 -1.60095,75.15013 3.92186,47.21089 15.6531,91.22621 35.47307,133.09402 6.703,14.15945 6.48481,13.5783 5.09802,13.5783 -0.5428,0 -2.72477,-2.9153 -4.84882,-6.47846 z"
     id="path7388"
     inkscape:connector-curvature="0" />
  <path
     style="fill:#00ff66;fill-opacity:0;stroke-width:1.0365535"
     d="m 162.89681,675.00047 c -2.12406,-3.56315 -7.4743,-13.59301 -11.88944,-22.28858 -34.08629,-67.13266 -46.39832,-143.0436 -35.59877,-219.48753 15.32526,-108.47893 81.41361,-206.84203 179.35191,-266.93979 13.59381,-8.34155 39.28671,-21.46127 53.81405,-27.47938 106.72982,-44.21402 230.11526,-39.74251 333.50736,12.08637 56.6261,28.38579 107.07801,71.58579 142.4794,121.99955 36.6608,52.20725 58.63223,109.31667 66.27028,172.25362 2.21654,18.26416 2.53241,62.12054 0.57111,79.29634 -5.31145,46.51434 -17.8241,88.85974 -38.2604,129.48107 -3.17935,6.31961 -5.9706,10.942 -6.20278,10.27195 -0.23217,-0.67004 0.47861,-3.00228 1.57952,-5.18277 3.6712,-7.2712 13.46681,-33.87014 17.11106,-46.4632 11.42668,-39.48616 15.90875,-74.3933 14.90646,-116.09399 -0.64851,-26.98111 -2.3176,-42.01252 -7.48147,-67.37598 -11.94282,-58.65973 -37.53925,-112.69658 -76.56673,-161.64068 -11.48634,-14.40495 -41.01897,-43.67466 -56.6873,-56.18264 -23.73922,-18.95094 -52.39573,-36.6797 -78.62182,-48.64052 -87.6931,-39.99381 -185.60861,-45.26579 -277.04231,-14.91652 -95.89025,31.8285 -174.00343,100.02936 -218.98929,191.2002 -19.15627,38.82317 -30.84569,77.63296 -36.37216,120.75849 -2.26631,17.68505 -3.10484,57.04644 -1.60095,75.15013 3.92186,47.21089 15.6531,91.22621 35.47307,133.09402 6.703,14.15945 6.48481,13.5783 5.09802,13.5783 -0.5428,0 -2.72477,-2.9153 -4.84882,-6.47846 z"
     id="path7390"
     inkscape:connector-curvature="0" />
</svg>
