<?xml version="1.0" encoding="utf-8"?>
<!-- Svg Vector Icons : http://www.onlinewebfonts.com/icon -->
<!DOCTYPE svg PUBLIC "-//W3C//DTD SVG 1.1//EN" "http://www.w3.org/Graphics/SVG/1.1/DTD/svg11.dtd">
<svg version="1.1" xmlns="http://www.w3.org/2000/svg" xmlns:xlink="http://www.w3.org/1999/xlink" x="0px" y="0px" viewBox="0 0 1000 1000" enable-background="new 0 0 1000 1000" xml:space="preserve">
<metadata> Svg Vector Icons : http://www.onlinewebfonts.com/icon </metadata>
<g><g transform="translate(0.000000,511.000000) scale(0.100000,-0.100000)"><path d="M4574.9,3899.5C2292.9,3698.2,461.7,1954.9,138.5-321.4C73.3-780.7,93.1-1534.7,181-1954.2c79.4-377,252.3-887.3,396.9-1179.3c153.1-306.1,309-564.1,340.2-564.1c25.5,0,989.3,555.6,1026.2,592.4c17,14.2-221.1,476.3-277.8,538.6c-8.5,8.5-141.7-62.3-374.2-201.3l-90.7-56.7l-59.5,138.9C988.9-2328.4,864.2-1869.2,818.8-1478L799-1316.4h258h258v326v326h-255.1c-294.8,0-277.8-28.3-212.6,357.2C920.9,106.6,1108,699.1,1198.7,789.8c17,17,99.2-14.2,232.5-90.7c113.4-68,218.3-121.9,229.6-124.7c11.3-2.9,90.7,116.2,175.7,263.6l155.9,269.3l-223.9,127.6c-124.7,70.9-226.8,141.7-226.8,158.7c0,17,99.2,150.2,221.1,297.6c221.1,263.6,498.9,527.3,739.9,703l124.7,87.9l130.4-226.8c68-124.7,136.1-226.8,147.4-226.8c17,0,507.4,275,530.1,297.6c5.7,5.7-51,113.4-124.7,238.1c-73.7,127.6-127.6,235.3-121.9,241c28.3,25.5,371.4,158.8,586.8,226.8c255.1,79.4,660.5,158.8,816.4,158.8h96.4v-269.3v-269.3h311.8h311.8v269.3v269.3h96.4c155.9,0,561.3-79.4,816.4-158.8c212.6-65.2,558.4-201.3,586.8-226.8c5.6-2.8-51-113.4-124.7-238.1c-70.9-127.6-127.6-235.3-121.9-241c22.7-22.7,513.1-297.6,530.1-297.6c11.3,0,79.4,102,150.2,226.8l127.6,229.6l181.4-133.2c300.5-221.1,907.1-870.2,904.3-966.6c0-11.3-102-79.4-226.8-150.2l-224-127.6L8163.7,838c85-147.4,164.4-266.5,175.8-263.6c11.3,2.8,116.2,56.7,229.6,124.7c133.2,76.5,215.4,107.7,232.4,90.7c90.7-90.7,277.8-683.2,351.5-1097.1c65.2-388.4,85-357.2-226.8-357.2h-269.3v-326v-326H8929h272.1l-19.8-161.6c-45.3-391.2-170.1-850.4-323.2-1207.6l-59.5-138.9l-90.7,56.7c-232.5,138.9-365.7,209.8-374.2,201.3c-56.7-62.3-294.8-524.4-277.8-538.6c36.8-36.8,1000.7-592.4,1026.2-592.4c68,0,447.9,754,575.4,1148.1c195.6,592.5,260.8,1080,238.1,1737.7c-45.4,1278.5-530.1,2389.7-1434.4,3294C7440.8,3499.8,6000.8,4024.2,4574.9,3899.5z"/><path d="M4745-483c-445.1-192.8-473.4-822.1-48.2-1060.2c150.2-87.9,379.9-93.5,541.4-14.2c113.4,53.8,116.2,53.8,1326.7-53.9c669-62.4,1218.9-104.9,1224.6-99.2c5.6,5.7-501.8,221.1-1125.4,476.2C5592.5-797.7,5518.8-763.7,5450.8-664.4C5306.2-463.2,4983.1-378.1,4745-483z"/></g></g>
</svg>