<?xml version="1.0" encoding="utf-8"?>
<!-- Svg Vector Icons : http://www.onlinewebfonts.com/icon -->
<!DOCTYPE svg PUBLIC "-//W3C//DTD SVG 1.1//EN" "http://www.w3.org/Graphics/SVG/1.1/DTD/svg11.dtd">
<svg version="1.1" xmlns="http://www.w3.org/2000/svg" xmlns:xlink="http://www.w3.org/1999/xlink" x="0px" y="0px" viewBox="0 0 1000 1000" enable-background="new 0 0 1000 1000" xml:space="preserve">
<metadata> Svg Vector Icons : http://www.onlinewebfonts.com/icon </metadata>
<g><path d="M360.1,600.3c0,40.9-16.9,74.4-50.7,100.6c-33.8,26.2-80,39.3-138.6,39.3c-33.1,0-63.5-4-91.2-11.9C52,720.5,28.7,711.8,10,702.5v-84.6h4c23.7,17.9,50.2,32.2,79.4,42.7c29.2,10.5,57.1,15.8,83.8,15.8c33.1,0,59.1-5.4,77.9-16.1c18.7-10.7,28-27.5,28-50.5c0-17.6-5-31.1-15.2-40.1s-29.7-16.8-58.6-23.2c-10.7-2.4-24.6-5.2-41.9-8.4s-32.9-6.6-47.1-10.5c-39.3-10.5-67.2-25.8-83.6-45.9C20.2,461.6,12,436.8,12,407.4c0-18.4,3.9-35.8,11.4-52.1c7.7-16.3,19.2-30.9,34.7-43.7c14.9-12.5,34-22.5,57.2-29.9c23.1-7.3,49-11,77.6-11c26.7,0,53.8,3.3,81.2,9.9c27.4,6.5,50.2,14.5,68.3,23.8V385h-4c-19.3-14.2-42.6-26.1-70.2-35.9c-27.5-9.7-54.5-14.6-81-14.6c-27.5,0-50.8,5.3-69.8,15.8c-19,10.5-28.5,26.2-28.5,47c0,18.4,5.7,32.3,17.2,41.7c11.2,9.3,29.4,17,54.5,22.8c14,3.2,29.5,6.4,46.7,9.6c17.2,3.2,31.6,6.2,43.1,8.8c35.1,8,62.1,21.8,81.1,41.3C350.6,541.4,360.1,567.6,360.1,600.3z"/><path d="M798.4,894.6H723V678.8c-23.2,20.1-46.4,34.9-69.4,44.7c-22.9,9.8-47.8,14.6-74.5,14.6c-53.2,0-95.6-20.5-127.3-61.5c-31.7-41.1-47.6-97.6-47.6-169.8c0-38.5,5.5-72.5,16.6-102.1c11-29.6,25.8-54.3,43.9-74.4c17.6-19.4,38.4-34.6,62.1-45.2c23.7-10.7,48.9-16.1,75.4-16.1c24,0,45.3,2.7,63.9,8s37.5,13.2,56.7,23.7l4.8-19.3h70.5L798.4,894.6L798.4,894.6z M723,615.5V362c-20.8-9.3-39.2-15.9-55.2-19.6c-16-3.7-33.4-5.6-52.2-5.6c-43.5,0-76.7,14.8-99.4,44.3c-22.7,29.6-34,70.3-34,122.1c0,52.4,9.2,92.7,27.5,120.9c18.3,28.2,47.1,42.3,86.4,42.3c21.9,0,43.8-4.7,65.8-14.3C683.6,642.7,704,630.5,723,615.5z"/><path d="M990,729.3h-75.4V105.4H990V729.3z"/></g>
</svg>