<?xml version="1.0" encoding="UTF-8" standalone="no"?>
<!-- Generator: Adobe Illustrator 19.0.0, SVG Export Plug-In . SVG Version: 6.00 Build 0)  -->

<svg
   xmlns:dc="http://purl.org/dc/elements/1.1/"
   xmlns:cc="http://creativecommons.org/ns#"
   xmlns:rdf="http://www.w3.org/1999/02/22-rdf-syntax-ns#"
   xmlns:svg="http://www.w3.org/2000/svg"
   xmlns="http://www.w3.org/2000/svg"
   xmlns:sodipodi="http://sodipodi.sourceforge.net/DTD/sodipodi-0.dtd"
   xmlns:inkscape="http://www.inkscape.org/namespaces/inkscape"
   version="1.1"
   id="Capa_1"
   x="0px"
   y="0px"
   viewBox="0 0 511.999 511.999"
   style="enable-background:new 0 0 511.999 511.999;"
   xml:space="preserve"
   sodipodi:docname="tire.svg"
   inkscape:version="0.92.4 (5da689c313, 2019-01-14)"><metadata
   id="metadata49"><rdf:RDF><cc:Work
       rdf:about=""><dc:format>image/svg+xml</dc:format><dc:type
         rdf:resource="http://purl.org/dc/dcmitype/StillImage" /></cc:Work></rdf:RDF></metadata><defs
   id="defs47" /><sodipodi:namedview
   pagecolor="#ffffff"
   bordercolor="#666666"
   borderopacity="1"
   objecttolerance="10"
   gridtolerance="10"
   guidetolerance="10"
   inkscape:pageopacity="0"
   inkscape:pageshadow="2"
   inkscape:window-width="640"
   inkscape:window-height="480"
   id="namedview45"
   showgrid="false"
   inkscape:zoom="0.46093841"
   inkscape:cx="255.9995"
   inkscape:cy="233.78524"
   inkscape:window-x="273"
   inkscape:window-y="33"
   inkscape:window-maximized="0"
   inkscape:current-layer="Capa_1" />
<g
   id="g6"
   style="fill:#0088aa"
   transform="matrix(0.83112849,0,0,0.83112849,49.898207,58.417263)">
	<g
   id="g4"
   style="fill:#0088aa">
		<path
   d="M 293.6,37.6 H 91.789 c -9.161,0 -16.588,7.427 -16.588,16.588 0,9.161 7.427,16.588 16.588,16.588 h 86.226 c -18.192,11.393 -34.595,25.385 -48.68,41.46 H 16.588 C 7.427,112.237 0,119.665 0,128.826 c 0,9.161 7.427,16.588 16.588,16.588 h 88.75 C 86.2,177.87 75.2,215.672 75.2,255.999 c 0,46.924 14.879,90.438 40.161,126.077 H 68.295 c -9.161,0 -16.588,7.427 -16.588,16.588 0,9.161 7.427,16.588 16.588,16.588 h 76.019 c 10.343,9.702 21.628,18.408 33.701,25.969 H 18.299 c -9.161,0 -16.588,7.427 -16.588,16.588 0,9.161 7.427,16.588 16.588,16.588 H 293.6 c 120.427,0 218.399,-97.974 218.399,-218.399 C 511.999,135.573 414.026,37.6 293.6,37.6 Z m 0,403.623 c -102.132,0 -185.222,-83.09 -185.222,-185.223 0,-102.133 83.09,-185.223 185.222,-185.223 102.132,0 185.222,83.09 185.222,185.222 0,102.132 -83.089,185.224 -185.222,185.224 z"
   id="path2"
   style="fill:#0088aa"
   inkscape:connector-curvature="0" />
	</g>
</g>
<g
   id="g12"
   style="fill:#0088aa"
   transform="matrix(0.83112849,0,0,0.83112849,49.898207,58.417263)">
	<g
   id="g10"
   style="fill:#0088aa">
		<path
   d="m 293.6,120.507 c -74.711,0 -135.493,60.782 -135.493,135.493 0,44.553 21.619,84.15 54.915,108.86 0.305,0.258 0.608,0.518 0.937,0.755 0.37,0.269 0.749,0.52 1.132,0.754 22.164,15.811 49.269,25.123 78.509,25.123 29.24,0 56.344,-9.312 78.509,-25.123 0.384,-0.234 0.762,-0.485 1.132,-0.754 0.328,-0.239 0.632,-0.499 0.937,-0.755 33.295,-24.71 54.915,-64.306 54.915,-108.86 0,-74.71 -60.782,-135.493 -135.493,-135.493 z m 16.588,34.529 c 32.372,5.301 59.681,25.841 74.29,53.994 l -42.956,13.958 C 334.061,212.189 323.05,204.03 310.189,200.199 v -45.163 z m 8.457,100.963 c 0,13.81 -11.235,25.045 -25.045,25.045 -13.81,0 -25.045,-11.234 -25.045,-25.045 0,-13.81 11.235,-25.045 25.045,-25.045 13.81,0 25.045,11.235 25.045,25.045 z M 277.011,155.036 v 45.163 c -12.863,3.831 -23.872,11.99 -31.334,22.789 L 202.722,209.03 c 14.61,-28.153 41.919,-48.694 74.289,-53.994 z m -56.144,172.85 c -18.278,-18.492 -29.583,-43.893 -29.583,-71.887 0,-5.242 0.398,-10.393 1.162,-15.425 l 42.969,13.962 c -0.012,0.488 -0.038,0.972 -0.038,1.463 0,13.296 4.49,25.558 12.02,35.371 z m 72.733,30.429 c -16.501,0 -32.099,-3.93 -45.915,-10.899 l 26.536,-36.522 c 6.066,2.148 12.586,3.329 19.379,3.329 6.793,0 13.313,-1.181 19.379,-3.329 l 26.536,36.522 c -13.816,6.967 -29.414,10.899 -45.915,10.899 z m 72.732,-30.429 -26.53,-36.515 c 7.53,-9.813 12.02,-22.075 12.02,-35.371 0,-0.491 -0.024,-0.975 -0.038,-1.463 l 42.969,-13.962 c 0.764,5.032 1.162,10.183 1.162,15.425 10e-4,27.993 -11.303,53.393 -29.583,71.886 z"
   id="path8"
   style="fill:#0088aa"
   inkscape:connector-curvature="0" />
	</g>
</g>
<g
   id="g14">
</g>
<g
   id="g16">
</g>
<g
   id="g18">
</g>
<g
   id="g20">
</g>
<g
   id="g22">
</g>
<g
   id="g24">
</g>
<g
   id="g26">
</g>
<g
   id="g28">
</g>
<g
   id="g30">
</g>
<g
   id="g32">
</g>
<g
   id="g34">
</g>
<g
   id="g36">
</g>
<g
   id="g38">
</g>
<g
   id="g40">
</g>
<g
   id="g42">
</g>
</svg>