<?xml version="1.0" encoding="UTF-8" standalone="no"?>
<svg
   xmlns:dc="http://purl.org/dc/elements/1.1/"
   xmlns:cc="http://creativecommons.org/ns#"
   xmlns:rdf="http://www.w3.org/1999/02/22-rdf-syntax-ns#"
   xmlns:svg="http://www.w3.org/2000/svg"
   xmlns="http://www.w3.org/2000/svg"
   xmlns:sodipodi="http://sodipodi.sourceforge.net/DTD/sodipodi-0.dtd"
   xmlns:inkscape="http://www.inkscape.org/namespaces/inkscape"
   id="a3a44bd2-1d5c-46a0-ab88-fbd2ff893ca0"
   data-name="Layer 1"
   width="1000"
   height="700"
   viewBox="0 0 1000 699.99997"
   version="1.1"
   sodipodi:docname="transactional.svg"
   inkscape:version="0.92.4 (5da689c313, 2019-01-14)">
  <metadata
     id="metadata103">
    <rdf:RDF>
      <cc:Work
         rdf:about="">
        <dc:format>image/svg+xml</dc:format>
        <dc:type
           rdf:resource="http://purl.org/dc/dcmitype/StillImage" />
        <dc:title>two_factor_authentication</dc:title>
      </cc:Work>
    </rdf:RDF>
  </metadata>
  <defs
     id="defs101" />
  <sodipodi:namedview
     pagecolor="#ffffff"
     bordercolor="#666666"
     borderopacity="1"
     objecttolerance="10"
     gridtolerance="10"
     guidetolerance="10"
     inkscape:pageopacity="0"
     inkscape:pageshadow="2"
     inkscape:window-width="1670"
     inkscape:window-height="897"
     id="namedview99"
     showgrid="false"
     inkscape:zoom="0.72991627"
     inkscape:cx="307.47037"
     inkscape:cy="288.54956"
     inkscape:window-x="1187"
     inkscape:window-y="240"
     inkscape:window-maximized="0"
     inkscape:current-layer="a3a44bd2-1d5c-46a0-ab88-fbd2ff893ca0" />
  <title
     id="title2">two_factor_authentication</title>
  <rect
     x="353.44992"
     y="598.51892"
     width="208.65974"
     height="2.7377539"
     id="rect28"
     style="fill:#3f3d56;stroke-width:0.6242373" />
  <rect
     x="383.31943"
     y="246.54445"
     width="136.88771"
     height="95.821388"
     id="rect44"
     style="fill:#009688;stroke-width:1.36887693" />
  <path
     d="M 519.50999,343.82823 H 388.0978 a 5.4813528,5.4813528 0 0 1 -5.47551,-5.47551 v -90.34588 a 5.4813528,5.4813528 0 0 1 5.47551,-5.4755 h 131.41219 a 5.4813392,5.4813392 0 0 1 5.4755,5.4755 v 90.34588 a 5.4813392,5.4813392 0 0 1 -5.4755,5.47551 z M 388.0978,248.00684 v 90.34588 h 131.41616 l -0.004,-90.34588 z"
     id="path46"
     inkscape:connector-curvature="0"
     style="fill:#3f3d56;stroke-width:1.36887693" />
  <path
     d="m 504.45235,244.58466 h -5.47552 a 45.172939,45.172939 0 1 0 -90.34587,0 h -5.47551 a 50.64845,50.64845 0 1 1 101.2969,0 z"
     id="path48"
     inkscape:connector-curvature="0"
     style="fill:#3f3d56;stroke-width:1.36887693" />
  <path
     d="m 467.49267,282.22877 a 13.689085,13.689085 0 1 0 -20.93578,11.59792 v 14.69257 a 7.2469851,7.2469851 0 0 0 7.24701,7.24699 v 0 a 7.2469851,7.2469851 0 0 0 7.24698,-7.24699 V 293.8267 a 13.665868,13.665868 0 0 0 6.44179,-11.59793 z"
     id="path50"
     inkscape:connector-curvature="0"
     style="fill:#3f3d56;stroke-width:1.36887693" />
  <circle
     cx="474.96732"
     cy="517.14966"
     r="60.588409"
     id="circle72"
     style="fill:#009688;stroke-width:3.36602259" />
  <path
     d="m 474.22284,582.09225 a 63.95443,63.95443 0 1 1 63.95444,-63.95444 64.027202,64.027202 0 0 1 -63.95444,63.95444 z m 0,-121.17682 a 57.222385,57.222385 0 1 0 57.22239,57.22238 57.286339,57.286339 0 0 0 -57.22239,-57.22238 z"
     id="path74"
     inkscape:connector-curvature="0"
     style="fill:#3f3d56;stroke-width:3.36602259" />
  <polygon
     points="437.265,551.293 443.584,557.611 461.216,532.555 464.487,534.858 444.118,563.803 434.437,554.121 "
     id="polygon76"
     transform="matrix(3.3660227,0,0,3.3660227,-1019.7907,-1355.7499)"
     style="fill:#3f3d56" />
  <rect
     x="294.31229"
     y="358.81955"
     width="279.32626"
     height="2.7377539"
     id="rect88"
     style="fill:#3f3d56;stroke-width:0.7222479" />
  <circle
     cx="294.31229"
     cy="358.81955"
     r="19.164278"
     id="circle90"
     style="fill:#3f3d56;stroke-width:1.36887693" />
  <circle
     cx="583.0163"
     cy="362.78912"
     id="circle92"
     style="fill:#3f3d56;stroke-width:1.36887693"
     r="15.057646" />
  <circle
     cx="571.4873"
     cy="602.48853"
     r="15.057646"
     id="circle94"
     style="fill:#3f3d56;stroke-width:1.36887693" />
  <circle
     cx="357.55652"
     cy="601.25671"
     r="15.057646"
     id="circle96"
     style="fill:#3f3d56;stroke-width:1.36887693" />
  <g
     id="g1176"
     transform="matrix(22.871098,0,0,23.177795,-1129.0498,-58.701611)">
    <g
       id="g1110" />
    <g
       id="g1112" />
    <g
       id="g1114" />
    <g
       id="g1116" />
    <g
       id="g1118" />
    <g
       id="g1120" />
    <g
       id="g1122" />
    <g
       id="g1124" />
    <g
       id="g1126" />
    <g
       id="g1128" />
    <g
       id="g1130" />
    <g
       id="g1132" />
    <g
       id="g1134" />
    <g
       id="g1136" />
    <g
       id="g1138" />
    <path
       inkscape:connector-curvature="0"
       d="m 91.590093,17.030445 c -0.335942,-1.244549 -2.836353,-2.468791 -7.21026,-2.468791 -4.373908,0 -6.874609,1.224242 -7.210261,2.468791 -0.02437,0.04265 -0.04236,0.08935 -0.04236,0.142151 v 0.145052 3.336203 0.145053 0.145052 3.191151 0.145052 0.145052 3.481256 c 0,0.047 0.01247,0.09138 0.03394,0.130837 0.342614,1.420062 3.407859,2.480104 7.218674,2.480104 3.802111,0 6.862424,-1.055691 7.216352,-2.470531 0.02321,-0.04149 0.03626,-0.08935 0.03626,-0.14041 v -3.481256 -0.145052 -0.145052 -3.191151 -0.145052 -0.145053 -3.336203 -0.145052 c 0,-0.0528 -0.01799,-0.09951 -0.04236,-0.142151 z M 91.02932,24.42086 c -0.0081,0.0351 -0.01944,0.06992 -0.03365,0.105308 -0.0116,0.02872 -0.02582,0.05744 -0.04149,0.08616 -0.01944,0.03568 -0.0412,0.07137 -0.06701,0.107048 -0.01915,0.02698 -0.0409,0.05367 -0.06353,0.08036 -0.0322,0.038 -0.06643,0.07601 -0.105308,0.113721 -0.0235,0.02292 -0.04932,0.04555 -0.07543,0.06847 -0.04758,0.04148 -0.09719,0.08268 -0.152595,0.123585 -0.02379,0.0177 -0.04932,0.03481 -0.07456,0.05222 -0.06556,0.04526 -0.134028,0.09022 -0.209165,0.134319 -0.01973,0.01189 -0.0409,0.02321 -0.0615,0.03481 -0.08645,0.04874 -0.176673,0.09718 -0.274148,0.144182 -0.01248,0.0061 -0.02553,0.01189 -0.03829,0.0177 -0.108789,0.05135 -0.22251,0.101826 -0.344064,0.150564 -0.0035,0.0015 -0.007,0.0026 -0.01044,0.0041 -0.658828,0.263124 -1.501581,0.484474 -2.483586,0.629527 -0.0049,5.8e-4 -0.0099,0.0012 -0.01479,0.002 -0.190889,0.02814 -0.386709,0.05309 -0.587752,0.07514 -0.03278,0.0035 -0.0673,0.0058 -0.100376,0.0093 -0.175513,0.01828 -0.353057,0.0351 -0.535823,0.04845 -0.08355,0.0061 -0.171162,0.009 -0.256163,0.01422 -0.137509,0.0081 -0.273568,0.01712 -0.414559,0.02205 -0.230343,0.0073 -0.465328,0.01189 -0.705244,0.01189 -0.239917,0 -0.474902,-0.0046 -0.705535,-0.01277 -0.140991,-0.0049 -0.27705,-0.01421 -0.414559,-0.02205 -0.085,-0.0049 -0.172613,-0.0081 -0.256163,-0.01421 -0.182766,-0.01335 -0.36031,-0.03017 -0.535823,-0.04845 -0.03307,-0.0035 -0.06759,-0.0058 -0.100376,-0.0093 -0.201043,-0.02205 -0.396863,-0.04729 -0.587752,-0.07514 -0.0049,-5.8e-4 -0.0099,-0.0012 -0.01479,-0.002 -0.982005,-0.145052 -1.824758,-0.366402 -2.483586,-0.629527 -0.0035,-0.0012 -0.007,-0.0026 -0.01044,-0.0041 -0.121554,-0.04874 -0.235565,-0.09922 -0.344064,-0.150565 -0.01247,-0.0061 -0.02582,-0.01189 -0.03829,-0.0177 -0.09747,-0.047 -0.187697,-0.09515 -0.274149,-0.144182 -0.02031,-0.0116 -0.04178,-0.02292 -0.0615,-0.03481 -0.07514,-0.0441 -0.143602,-0.08906 -0.209165,-0.134319 -0.02495,-0.01741 -0.05077,-0.03452 -0.07456,-0.05222 -0.05541,-0.04091 -0.105018,-0.0821 -0.152595,-0.123584 -0.02582,-0.02263 -0.05193,-0.04526 -0.07543,-0.06847 -0.03887,-0.03771 -0.07311,-0.07543 -0.105308,-0.113721 -0.02263,-0.02669 -0.04439,-0.05338 -0.06353,-0.08036 -0.02553,-0.03568 -0.04729,-0.07137 -0.06701,-0.107049 -0.01567,-0.02872 -0.02959,-0.05744 -0.04149,-0.08616 -0.01421,-0.0351 -0.02553,-0.07021 -0.03365,-0.105308 -0.01073,-0.04613 -0.02263,-0.09312 -0.02263,-0.13983 0,-0.03278 0.0038,-0.06556 0.009,-0.09806 0.0073,-0.04381 0.0032,-0.08761 -0.009,-0.129097 v -2.153737 c 0.0081,0.0075 0.01828,0.0148 0.02669,0.02234 0.06324,0.0557 0.127646,0.11111 0.200172,0.16449 1.092824,0.826508 3.278182,1.468799 6.445545,1.468799 3.154017,0 5.333863,-0.637069 6.431329,-1.458646 0.08761,-0.06382 0.16652,-0.129676 0.240787,-0.196691 l 2.9e-4,-2.9e-4 v 2.153737 c -0.01218,0.04148 -0.01625,0.08529 -0.009,0.129097 0.0055,0.03249 0.009,0.06527 0.009,0.09806 0,0.04671 -0.01189,0.0937 -0.02292,0.140701 z m 0.02292,-6.002845 v 2.153737 c -0.01218,0.04149 -0.01625,0.08529 -0.009,0.129096 0.0055,0.03249 0.009,0.06527 0.009,0.09806 0,0.04671 -0.01189,0.0937 -0.02292,0.1407 -0.0081,0.0351 -0.01944,0.06992 -0.03365,0.105308 -0.0116,0.02872 -0.02582,0.05744 -0.04149,0.08616 -0.01944,0.03568 -0.0412,0.07137 -0.06701,0.107049 -0.01915,0.02698 -0.0409,0.05367 -0.06353,0.08036 -0.0322,0.038 -0.06643,0.07601 -0.105308,0.113721 -0.0235,0.02292 -0.04932,0.04555 -0.07543,0.06847 -0.04758,0.04148 -0.09719,0.08268 -0.152595,0.123584 -0.02379,0.0177 -0.04932,0.03481 -0.07456,0.05222 -0.06556,0.04526 -0.134028,0.09022 -0.209165,0.134318 -0.01973,0.0119 -0.0409,0.02321 -0.0615,0.03481 -0.08645,0.04874 -0.176673,0.09719 -0.274148,0.144182 -0.01248,0.0061 -0.02553,0.01189 -0.03829,0.0177 -0.108789,0.05135 -0.22251,0.101827 -0.344064,0.150565 -0.0035,0.0015 -0.007,0.0026 -0.01044,0.0041 -0.658828,0.263125 -1.501581,0.484475 -2.483586,0.629527 -0.0049,5.8e-4 -0.0099,0.0012 -0.01479,0.002 -0.190889,0.02814 -0.386709,0.05309 -0.587752,0.07514 -0.03278,0.0035 -0.0673,0.0058 -0.100376,0.0093 -0.175513,0.01828 -0.353057,0.0351 -0.535823,0.04845 -0.08355,0.0061 -0.171162,0.009 -0.256163,0.01421 -0.137509,0.0081 -0.273568,0.01712 -0.414559,0.02205 -0.230343,0.0073 -0.465328,0.01189 -0.705244,0.01189 -0.239917,0 -0.474902,-0.0046 -0.705535,-0.01276 -0.140991,-0.0049 -0.27705,-0.01422 -0.414559,-0.02205 -0.085,-0.0049 -0.172613,-0.0081 -0.256163,-0.01422 -0.182766,-0.01334 -0.36031,-0.03017 -0.535823,-0.04845 -0.03307,-0.0035 -0.06759,-0.0058 -0.100376,-0.0093 -0.201043,-0.02205 -0.396863,-0.04729 -0.587752,-0.07514 -0.0049,-5.81e-4 -0.0099,-0.0012 -0.01479,-0.002 -0.982005,-0.145052 -1.824758,-0.366402 -2.483586,-0.629527 -0.0035,-0.0012 -0.007,-0.0026 -0.01044,-0.0041 -0.121554,-0.04874 -0.235565,-0.09921 -0.344064,-0.150564 -0.01247,-0.0061 -0.02582,-0.01189 -0.03829,-0.0177 -0.09747,-0.047 -0.187697,-0.09516 -0.274149,-0.144182 -0.02031,-0.0116 -0.04178,-0.02292 -0.0615,-0.03481 -0.07514,-0.0441 -0.143602,-0.08906 -0.209165,-0.134318 -0.02495,-0.01741 -0.05077,-0.03452 -0.07456,-0.05222 -0.05541,-0.04091 -0.105018,-0.0821 -0.152595,-0.123585 -0.02582,-0.02263 -0.05193,-0.04526 -0.07543,-0.06846 -0.03887,-0.03771 -0.07311,-0.07543 -0.105308,-0.113721 -0.02263,-0.02669 -0.04439,-0.05338 -0.06353,-0.08036 -0.02553,-0.03568 -0.04729,-0.07137 -0.06701,-0.107049 -0.01567,-0.02872 -0.02959,-0.05744 -0.04149,-0.08616 -0.01421,-0.0351 -0.02553,-0.07021 -0.03365,-0.105308 -0.01073,-0.04613 -0.02263,-0.09312 -0.02263,-0.13983 0,-0.03278 0.0038,-0.06556 0.009,-0.09806 0.0073,-0.04381 0.0032,-0.08761 -0.009,-0.129096 v -2.153737 c 0.03481,0.03162 0.07456,0.06266 0.112271,0.09399 0.02089,0.01741 0.04032,0.03481 0.06237,0.05222 0.08703,0.06846 0.181026,0.136059 0.282852,0.201913 0.02118,0.01363 0.04497,0.02698 0.06701,0.04061 0.08529,0.05309 0.175513,0.105018 0.270377,0.156076 0.0351,0.01886 0.07021,0.03742 0.106468,0.05599 0.105889,0.05396 0.216999,0.106468 0.333911,0.157236 0.01915,0.0084 0.03655,0.01712 0.05599,0.02524 0.136059,0.05773 0.280531,0.112851 0.430805,0.16623 0.04149,0.0148 0.085,0.02872 0.127646,0.04323 0.119524,0.04033 0.243108,0.07891 0.371044,0.116332 0.04613,0.01335 0.09138,0.02727 0.13867,0.04003 0.169711,0.047 0.344935,0.09167 0.528861,0.132868 0.02524,0.0058 0.05251,0.01044 0.07804,0.01596 0.162169,0.03539 0.330429,0.06817 0.503332,0.09893 0.0586,0.01044 0.118072,0.02031 0.177834,0.03017 0.164489,0.02698 0.33391,0.05164 0.507683,0.07427 0.04468,0.0058 0.08732,0.01247 0.132578,0.01799 0.215837,0.02611 0.439218,0.04845 0.668691,0.06759 0.05657,0.0046 0.115461,0.0081 0.172902,0.01219 0.183636,0.01334 0.371334,0.02437 0.563383,0.03307 0.06991,0.0032 0.139541,0.0064 0.210906,0.009 0.25007,0.0084 0.504782,0.0145 0.768778,0.0145 0.263995,0 0.518707,-0.0061 0.768777,-0.0145 0.07108,-0.0026 0.1407,-0.0058 0.210906,-0.009 0.192049,-0.0087 0.379747,-0.01973 0.563383,-0.03307 0.05744,-0.0044 0.116042,-0.0075 0.172902,-0.01219 0.229473,-0.01886 0.452854,-0.04149 0.668691,-0.06759 0.04526,-0.0055 0.0879,-0.01219 0.132578,-0.01799 0.173773,-0.02263 0.342904,-0.04729 0.507683,-0.07427 0.05976,-0.0099 0.119233,-0.01973 0.177834,-0.03017 0.172903,-0.03075 0.341163,-0.06353 0.503332,-0.09893 0.02553,-0.0055 0.0528,-0.01044 0.07804,-0.01596 0.183926,-0.0412 0.35915,-0.08616 0.528861,-0.132868 0.04729,-0.01305 0.09254,-0.02669 0.13867,-0.04003 0.127936,-0.03742 0.251521,-0.07601 0.371044,-0.116332 0.04265,-0.0145 0.08616,-0.02843 0.127646,-0.04323 0.150274,-0.05338 0.295036,-0.108499 0.430805,-0.16623 0.01944,-0.0081 0.03684,-0.01683 0.05599,-0.02524 0.116912,-0.05106 0.228022,-0.103277 0.333911,-0.157236 0.03626,-0.01857 0.07165,-0.03713 0.106468,-0.05599 0.09486,-0.05077 0.185087,-0.102697 0.270377,-0.156076 0.02205,-0.01364 0.04584,-0.02698 0.06701,-0.04061 0.101826,-0.06585 0.19582,-0.133158 0.282852,-0.201913 0.02176,-0.01741 0.04119,-0.03481 0.06237,-0.05222 0.03771,-0.03133 0.07746,-0.06237 0.112271,-0.09399 z m -6.672406,-3.276151 c 3.932368,0 6.672406,1.146493 6.672406,2.175784 0,1.029291 -2.740038,2.175785 -6.672406,2.175785 -3.932369,0 -6.672407,-1.146494 -6.672407,-2.175785 0,-1.029291 2.740038,-2.175784 6.672407,-2.175784 z m 6.672406,12.678442 c -0.0041,0.01276 -0.007,0.02582 -0.0093,0.03916 -0.164489,1.003471 -2.881319,2.077729 -6.663122,2.077729 -3.781804,0 -6.498634,-1.074258 -6.663123,-2.077729 -0.0023,-0.01305 -0.0055,-0.02582 -0.0093,-0.038 v -2.44094 c 0.0081,0.0075 0.01828,0.0148 0.02669,0.02234 0.06324,0.0557 0.127646,0.11111 0.200172,0.164489 1.092824,0.826508 3.278182,1.4688 6.445545,1.4688 3.154017,0 5.333863,-0.63707 6.431329,-1.458646 0.08761,-0.06382 0.16652,-0.129677 0.240787,-0.196691 l 2.9e-4,-2.9e-4 z"
       id="path2"
       style="stroke-width:0.29010463" />
    <g
       transform="matrix(0.29010461,0,0,0.29010461,76.401956,14.561654)"
       id="g4" />
    <g
       transform="matrix(0.29010461,0,0,0.29010461,76.401956,14.561654)"
       id="g6" />
    <g
       transform="matrix(0.29010461,0,0,0.29010461,76.401956,14.561654)"
       id="g8" />
    <g
       transform="matrix(0.29010461,0,0,0.29010461,76.401956,14.561654)"
       id="g10" />
    <g
       transform="matrix(0.29010461,0,0,0.29010461,76.401956,14.561654)"
       id="g12" />
    <g
       transform="matrix(0.29010461,0,0,0.29010461,76.401956,14.561654)"
       id="g14" />
    <g
       transform="matrix(0.29010461,0,0,0.29010461,76.401956,14.561654)"
       id="g16" />
    <g
       transform="matrix(0.29010461,0,0,0.29010461,76.401956,14.561654)"
       id="g18" />
    <g
       transform="matrix(0.29010461,0,0,0.29010461,76.401956,14.561654)"
       id="g20" />
    <g
       transform="matrix(0.29010461,0,0,0.29010461,76.401956,14.561654)"
       id="g22" />
    <g
       transform="matrix(0.29010461,0,0,0.29010461,76.401956,14.561654)"
       id="g24" />
    <g
       transform="matrix(0.29010461,0,0,0.29010461,76.401956,14.561654)"
       id="g26" />
    <g
       transform="matrix(0.29010461,0,0,0.29010461,76.401956,14.561654)"
       id="g28" />
    <g
       transform="matrix(0.29010461,0,0,0.29010461,76.401956,14.561654)"
       id="g30" />
    <g
       transform="matrix(0.29010461,0,0,0.29010461,76.401956,14.561654)"
       id="g32" />
  </g>
  <path
     style="fill:#a29fbc;fill-opacity:1;stroke-width:0.64744896"
     d="m 772.49123,634.0758 c -61.05397,-4.25243 -111.43242,-21.1136 -126.36267,-42.29241 -1.52608,-2.16495 -3.08012,-5.26139 -3.45541,-6.88564 -0.48184,-2.08475 -0.68217,-11.73846 -0.68217,-32.87216 v -29.92058 l 3.26966,2.81525 c 32.60112,28.07045 109.33782,42.91862 190.63253,36.88648 50.5172,-3.74837 93.01656,-16.30215 116.44305,-34.39569 3.04029,-2.34818 5.71967,-4.38004 5.95434,-4.51519 0.23467,-0.13525 0.42645,13.39383 0.42645,30.0644 0,34.18118 0.14054,32.92426 -4.37278,39.18775 -3.66607,5.08781 -8.07905,8.86552 -16.32893,13.97794 -21.65199,13.41781 -56.56468,22.89403 -100.41614,27.25563 -10.28603,1.02306 -53.73522,1.48638 -65.10793,0.69422 z"
     id="path1311"
     inkscape:connector-curvature="0" />
  <path
     style="fill:#7a779f;fill-opacity:1;stroke-width:0.65034842"
     d="m 775.31996,562.50274 c -48.943,-3.26136 -88.75112,-13.46944 -113.02459,-28.98308 -10.69315,-6.83415 -16.05002,-14.24469 -18.40535,-21.39055 -0.93689,-2.84247 4.61689,-13.86174 4.57436,-41.87514 -0.0279,-16.88104 0.0485,-30.69287 0.16328,-30.69287 0.11554,0 2.5847,1.92149 5.48707,4.26996 17.66565,14.29392 48.04576,26.0087 81.62576,31.47557 4.01394,0.65347 8.30859,1.35737 9.54362,1.56424 7.64792,1.28098 24.43405,2.72626 40.74572,3.50828 34.65462,1.66133 71.7661,-1.16896 101.55569,-7.74513 30.69858,-6.77686 56.4734,-18.07509 70.56532,-30.93188 1.29059,-1.17754 2.49065,-2.14104 2.66652,-2.14104 0.17596,0 0.32009,13.91131 0.32009,30.91394 0,34.85894 0.13945,33.56963 -4.31722,40.00984 -13.72714,19.83882 -55.59029,35.57126 -111.0477,41.73259 -10.01729,1.11287 -41.83617,6.92171 -63.99806,1.41059 z"
     id="path1313"
     inkscape:connector-curvature="0"
     sodipodi:nodetypes="csccsccccscsscccc" />
  <path
     style="fill:#545173;fill-opacity:1;stroke-width:0.66851503"
     d="m 776.6921,480.14234 c -22.82606,-1.79497 -37.45017,-3.7295 -52.9858,-7.00919 -44.06968,-9.30361 -75.60417,-26.38497 -81.32654,-44.05239 -1.08883,-3.36158 -1.15258,-5.2611 -1.18288,-35.2944 -0.0171,-17.45789 0.11904,-31.74164 0.3039,-31.74164 0.18486,0 1.41387,0.99743 2.73108,2.21653 33.42148,30.92958 116.89278,46.75479 202.07681,38.3116 47.35265,-4.69348 88.55548,-18.64758 109.59922,-37.11787 2.13703,-1.87564 4.00639,-3.41026 4.15403,-3.41026 0.14781,0 0.26866,14.45547 0.26866,32.12317 0,37.2827 0.2575,35.43053 -6.03544,43.44381 -15.27399,19.45031 -57.55828,35.08328 -111.13789,41.08874 -10.13857,1.13639 -57.33062,2.16017 -66.46506,1.4419 z"
     id="path1315"
     inkscape:connector-curvature="0" />
  <path
     style="fill:#3f3d56;fill-opacity:1;stroke-width:0.63604909"
     d="m 773.62727,393.74047 c -60.22031,-3.96591 -110.30492,-19.55048 -126.35458,-39.31706 -6.66599,-8.20976 -6.92881,-14.82674 -0.91108,-22.93469 14.30672,-19.27632 57.86344,-34.08105 117.31464,-39.87482 12.56431,-1.22449 60.78937,-1.22449 73.35377,0 37.55932,3.66032 64.90393,9.7532 87.5695,19.51213 21.88855,9.42436 34.0559,20.60709 34.10536,31.34538 0.0243,5.23303 -3.50334,11.25446 -9.74989,16.64261 -19.13607,16.50636 -57.94346,28.49626 -109.08195,33.70186 -7.40085,0.75332 -58.10118,1.461 -66.24577,0.92459 z"
     id="path1317"
     inkscape:connector-curvature="0" />
  <path
     style="fill:#2b2b2b;fill-opacity:1;stroke-width:0.61174077"
     d="m 778.88128,647.74383 c -73.95869,-3.59192 -131.05276,-25.1645 -141.9064,-53.6183 l -1.6551,-4.33916 V 463.86243 337.93848 l 1.98481,-4.88823 c 8.75069,-21.55157 42.18727,-39.27437 90.34966,-47.88932 42.6781,-7.63397 96.93221,-8.03203 140.41907,-1.03024 51.15297,8.23607 86.66131,26.22355 96.0715,48.66685 l 2.05036,4.88994 -4.5e-4,126.14728 -5.4e-4,126.14728 -1.55359,4.1056 c -9.59443,25.35345 -55.79241,45.39165 -119.85765,51.98791 -21.36283,2.19952 -43.45027,2.75869 -65.90167,1.66828 z m 57.15134,-13.62679 c 60.08546,-5.34981 108.21035,-23.26425 116.16766,-43.24328 l 1.41611,-3.55536 v -28.947 c 0,-15.92087 -0.11491,-28.94703 -0.25616,-28.94703 -0.14098,0 -1.92528,1.3469 -3.96503,2.99314 -17.7668,14.33905 -48.56762,25.45427 -85.47042,30.84394 -46.53479,6.79648 -104.13479,5.42747 -145.46134,-3.45725 -28.38857,-6.10318 -52.124,-15.86941 -66.14102,-27.21444 -2.15097,-1.74098 -4.02626,-3.16539 -4.16734,-3.16539 -0.14098,0 -0.24537,12.85569 -0.23242,28.56817 0.0261,30.83989 0.0584,31.23625 3.00999,36.07695 5.6739,9.3073 23.51892,19.83485 45.83393,27.03941 23.30772,7.52513 46.96358,11.48345 83.48226,13.96903 6.99957,0.47643 47.47087,-0.22068 55.78396,-0.96089 z m 3.80607,-81.05313 c 41.25624,-4.13758 73.64258,-12.90723 94.90957,-25.69989 10.01161,-6.02225 16.91299,-13.45063 18.29944,-19.69703 0.52239,-2.35324 0.86558,-58.98616 0.35749,-58.98616 -0.11635,0 -1.65411,1.20165 -3.41819,2.67035 -7.19845,5.99406 -20.06172,13.10315 -31.7466,17.54533 -29.42614,11.18681 -62.78255,16.71744 -107.63886,17.84698 -68.58267,1.72702 -129.63233,-11.78219 -158.48169,-35.06908 -2.03966,-1.64648 -3.82981,-2.99358 -3.97807,-2.99358 -0.58128,0 -0.1765,56.82998 0.42034,59.02835 5.82909,21.46816 55.45811,40.66853 118.01389,45.65698 4.96314,0.39573 10.62365,0.82937 12.57878,0.96357 8.84286,0.60697 50.71976,-0.26665 60.6839,-1.26582 z m 0.56905,-80.72226 c 11.97062,-1.23614 17.75323,-2.02476 28.43883,-3.87862 44.90048,-7.78968 77.93417,-23.56819 83.74357,-39.9999 0.97374,-2.75449 1.0294,-4.71449 0.89552,-31.63887 l -0.14278,-28.7025 -5.7425,4.33052 c -19.77706,14.9143 -52.8397,25.79855 -93.24674,30.69677 -47.32512,5.73689 -104.78827,3.12824 -144.10844,-6.54204 -7.83574,-1.92712 -21.96785,-6.3782 -28.36159,-8.93283 -11.08732,-4.43003 -23.82966,-11.62627 -30.26358,-17.09126 -1.7131,-1.4551 -3.25707,-2.64566 -3.43123,-2.64566 -0.65699,0 -0.24977,56.73477 0.42448,59.14982 3.93221,14.08292 27.21431,27.80673 62.17355,36.6488 20.06703,5.07545 40.15302,8.01757 67.27409,9.85413 8.98698,0.60856 52.87414,-0.27009 62.34682,-1.24836 z m -2.46107,-80.39542 c 34.51436,-3.50081 63.12188,-10.00212 83.59351,-18.99746 6.71876,-2.95227 17.86049,-9.48452 21.49473,-12.60195 6.65403,-5.70821 10.56413,-12.2757 10.57618,-17.76415 0.027,-12.55809 -17.98565,-26.23173 -47.23782,-35.85766 -40.60062,-13.36034 -99.32335,-18.12127 -151.5556,-12.28728 -64.13922,7.16395 -109.93853,28.85709 -106.6883,50.53361 0.90443,6.03152 7.1721,13.57046 16.20278,19.48915 22.13087,14.50433 61.00677,24.6574 107.527,28.08233 10.40211,0.76587 56.78333,0.34717 66.08752,-0.59659 z"
     id="path1319"
     inkscape:connector-curvature="0" />
  <rect
     y="270.6427"
     x="9.5099192"
     style="fill:#009688;stroke-width:1.36887693"
     width="237.03275"
     height="164.71768"
     id="rect62" />
  <path
     inkscape:connector-curvature="0"
     style="fill:#ffffff;stroke-width:1.36887693"
     d="m 128.02635,302.78274 a 50.218812,50.218812 0 1 0 50.2188,50.2188 50.366458,50.366458 0 0 0 -50.2188,-50.2188 z m 0,15.06564 a 15.065641,15.065641 0 1 1 -15.06565,15.06564 15.116179,15.116179 0 0 1 15.06565,-15.06564 z m 0,72.52754 A 36.584002,36.584002 0 0 1 97.895058,374.29631 c 0.24144,-10.04376 20.087522,-15.57266 30.131292,-15.57266 10.04376,0 29.88983,5.5289 30.13127,15.57266 a 36.644973,36.644973 0 0 1 -30.13127,16.07968 z"
     id="path64" />
  <rect
     y="517.63892"
     style="fill:#e6e6e6;stroke-width:1.36887693"
     x="54.958729"
     width="237.03275"
     height="164.71768"
     id="rect74" />
  <path
     inkscape:connector-curvature="0"
     style="fill:#ffffff;stroke-width:1.36887693"
     d="m 173.47508,549.77892 a 50.218812,50.218812 0 1 0 50.21879,50.2188 50.366458,50.366458 0 0 0 -50.21879,-50.2188 z m 0,15.06563 a 15.065641,15.065641 0 1 1 -15.06564,15.06565 15.116179,15.116179 0 0 1 15.06564,-15.06565 z m 0,72.52755 A 36.583989,36.583989 0 0 1 143.3438,621.29249 c 0.24142,-10.04377 20.08751,-15.57266 30.13128,-15.57266 10.04376,0 29.88984,5.52889 30.13128,15.57266 a 36.644973,36.644973 0 0 1 -30.13128,16.07968 z"
     id="path76" />
</svg>
