<?xml version="1.0" encoding="utf-8"?>
<!-- Svg Vector Icons : http://www.onlinewebfonts.com/icon -->
<!DOCTYPE svg PUBLIC "-//W3C//DTD SVG 1.1//EN" "http://www.w3.org/Graphics/SVG/1.1/DTD/svg11.dtd">
<svg version="1.1" xmlns="http://www.w3.org/2000/svg" xmlns:xlink="http://www.w3.org/1999/xlink" x="0px" y="0px" viewBox="0 0 1000 1000" enable-background="new 0 0 1000 1000" xml:space="preserve">
<metadata> Svg Vector Icons : http://www.onlinewebfonts.com/icon </metadata>
<g><path d="M279,176.5c0-69.4,56.2-125.6,125.6-125.6c69.4,0,125.6,56.2,125.6,125.6c0,69.4-56.2,125.6-125.6,125.6C335.2,302.1,279,245.9,279,176.5z M465,387.7c1.3-27.4,10.7-52.7,25.8-73.6c-10.6-2.2-21.6-3.4-32.9-3.4H351.3c-11.2,0-22.2,1.2-32.8,3.4c16.1,22.4,25.8,49.7,25.9,79.2c19.6-10.8,42.1-16.9,66-16.9C429.8,376.4,448.2,380.4,465,387.7z M486.2,399c36.5,22.9,62.1,61.6,66.8,106.5c14.9,6.9,31.4,11,48.9,11c63.9,0,115.7-51.8,115.7-115.7c0-63.9-51.8-115.7-115.7-115.7C538.6,285,487.2,335.9,486.2,399z M410.4,636c63.9,0,115.7-51.8,115.7-115.7c0-63.9-51.8-115.7-115.7-115.7c-63.9,0-115.8,51.8-115.8,115.7C294.6,584.1,346.5,636,410.4,636z M459.5,643.8h-98.2c-81.7,0-148.2,66.5-148.2,148.2v120.1l0.3,1.9l8.3,2.6c78,24.4,145.7,32.5,201.5,32.5c108.9,0,172.1-31.1,175.9-33l7.7-3.9h0.8V792C607.7,710.3,541.2,643.8,459.5,643.8z M651,524.4h-97.5c-1.1,39-17.7,74.1-44,99.4c72.6,21.6,125.8,89,125.8,168.5v37c96.2-3.5,151.7-30.8,155.3-32.6l7.7-3.9h0.8V672.5C799.2,590.8,732.7,524.4,651,524.4z M677.1,282.5c36.5,22.9,62.1,61.6,66.7,106.5c14.9,6.9,31.4,11,48.9,11c63.9,0,115.8-51.8,115.8-115.7c0-63.9-51.8-115.7-115.8-115.7C729.4,168.5,678,219.4,677.1,282.5z M841.8,407.9h-97.4c-1.1,39-17.7,74.1-44,99.4c72.6,21.6,125.8,89,125.8,168.5v37c96.2-3.5,151.7-30.8,155.3-32.6l7.7-3.9h0.8V556.1C990,474.4,923.5,407.9,841.8,407.9z M207.3,516.5c22.6,0,43.7-6.6,61.6-17.9c5.7-37,25.5-69.3,53.8-91.4c0.1-2.2,0.3-4.3,0.3-6.5c0-63.9-51.8-115.7-115.7-115.7c-63.9,0-115.8,51.8-115.8,115.7S143.4,516.5,207.3,516.5z M311.3,623.7c-26.2-25.1-42.8-60-44-98.8c-3.6-0.3-7.2-0.5-10.9-0.5h-98.2C76.5,524.4,10,590.8,10,672.6v120.1l0.3,1.9l8.3,2.6c62.5,19.6,118.4,28.5,166.9,31.4v-36.3C185.5,712.7,238.6,645.3,311.3,623.7z"/></g>
</svg>