<svg xmlns="http://www.w3.org/2000/svg" width="309" height="37">
    <defs>
        <style type="text/css">
            @namespace "http://www.w3.org/2000/svg";
            .line                 {fill: none; stroke: #002233;}
            .bold-line            {stroke: #000E14; shape-rendering: crispEdges; stroke-width: 2; }
            .thin-line            {stroke: #00141F; shape-rendering: crispEdges}
            .filled               {fill: #002233; stroke: none;}
            text.terminal         {font-family: Verdana, Sans-serif;
            font-size: 12px;
            fill: #000E14;
            font-weight: bold;
            }
            text.nonterminal      {font-family: Verdana, Sans-serif;
            font-size: 12px;
            fill: #00111A;
            font-weight: normal;
            }
            text.regexp           {font-family: Verdana, Sans-serif;
            font-size: 12px;
            fill: #00141F;
            font-weight: normal;
            }
            rect, circle, polygon {fill: #002233; stroke: #002233;}
            rect.terminal         {fill: #4DC3FF; stroke: #002233;}
            rect.nonterminal      {fill: #9EDFFF; stroke: #002233;}
            rect.text             {fill: none; stroke: none;}
            polygon.regexp        {fill: #C7ECFF; stroke: #002233;}
        </style>
    </defs>
    <polygon points="9 17 1 13 1 21"/>
    <polygon points="17 17 9 13 9 21"/><a xmlns:xlink="http://www.w3.org/1999/xlink" xlink:href="#copy" xlink:title="copy">
    <rect x="31" y="3" width="48" height="32"/>
    <rect x="29" y="1" width="48" height="32" class="nonterminal"/>
    <text class="nonterminal" x="39" y="21">copy</text></a><rect x="99" y="3" width="54" height="32" rx="10"/>
    <rect x="97" y="1" width="54" height="32" class="terminal" rx="10"/>
    <text class="terminal" x="107" y="21">table</text><a xmlns:xlink="http://www.w3.org/1999/xlink" xlink:href="#from" xlink:title="from">
    <rect x="173" y="3" width="48" height="32"/>
    <rect x="171" y="1" width="48" height="32" class="nonterminal"/>
    <text class="nonterminal" x="181" y="21">from</text></a><rect x="241" y="3" width="40" height="32" rx="10"/>
    <rect x="239" y="1" width="40" height="32" class="terminal" rx="10"/>
    <text class="terminal" x="249" y="21">file</text>
    <path xmlns:svg="http://www.w3.org/2000/svg" class="line" d="m17 17 h2 m0 0 h10 m48 0 h10 m0 0 h10 m54 0 h10 m0 0 h10 m48 0 h10 m0 0 h10 m40 0 h10 m3 0 h-3"/>
    <polygon points="299 17 307 13 307 21"/>
    <polygon points="299 17 291 13 291 21"/></svg>