<svg xmlns="http://www.w3.org/2000/svg" width="503" height="81">
    <defs>
        <style type="text/css">
            @namespace "http://www.w3.org/2000/svg";
            .line                 {fill: none; stroke: #002233; stroke-width: 1;}
            .bold-line            {stroke: #000E14; shape-rendering: crispEdges; stroke-width: 2;}
            .thin-line            {stroke: #00141F; shape-rendering: crispEdges}
            .filled               {fill: #002233; stroke: none;}
            text.terminal         {font-family: Verdana, Sans-serif;
            font-size: 12px;
            fill: #000E14;
            font-weight: bold;
            }
            text.nonterminal      {font-family: Verdana, Sans-serif;
            font-size: 12px;
            fill: #00111A;
            font-weight: normal;
            }
            text.regexp           {font-family: Verdana, Sans-serif;
            font-size: 12px;
            fill: #00141F;
            font-weight: normal;
            }
            rect, circle, polygon {fill: #002233; stroke: #002233;}
            rect.terminal         {fill: #4DC3FF; stroke: #002233; stroke-width: 1;}
            rect.nonterminal      {fill: #9EDFFF; stroke: #002233; stroke-width: 1;}
            rect.text             {fill: none; stroke: none;}
            polygon.regexp        {fill: #C7ECFF; stroke: #002233; stroke-width: 1;}
        </style>
    </defs>
    <polygon points="9 17 1 13 1 21"/>
    <polygon points="17 17 9 13 9 21"/>
    <rect x="31" y="3" width="64" height="32" rx="10"/>
    <rect x="29" y="1" width="64" height="32" class="terminal" rx="10"/>
    <text class="terminal" x="39" y="21">SHOW</text>
    <rect x="135" y="3" width="72" height="32" rx="10"/>
    <rect x="133" y="1" width="72" height="32" class="terminal" rx="10"/>
    <text class="terminal" x="143" y="21">TABLES</text>
    <rect x="135" y="47" width="88" height="32" rx="10"/>
    <rect x="133" y="45" width="88" height="32" class="terminal" rx="10"/>
    <text class="terminal" x="143" y="65">COLUMNS</text>
    <rect x="243" y="47" width="60" height="32" rx="10"/>
    <rect x="241" y="45" width="60" height="32" class="terminal" rx="10"/>
    <text class="terminal" x="251" y="65">FROM</text><a xmlns:xlink="http://www.w3.org/1999/xlink" xlink:href="#tableName" xlink:title="tableName">
    <rect x="323" y="47" width="88" height="32"/>
    <rect x="321" y="45" width="88" height="32" class="nonterminal"/>
    <text class="nonterminal" x="331" y="65">tableName</text></a><rect x="451" y="3" width="24" height="32" rx="10"/>
    <rect x="449" y="1" width="24" height="32" class="terminal" rx="10"/>
    <text class="terminal" x="459" y="21">;</text>
    <path xmlns:svg="http://www.w3.org/2000/svg" class="line" d="m17 17 h2 m0 0 h10 m64 0 h10 m20 0 h10 m72 0 h10 m0 0 h204 m-316 0 h20 m296 0 h20 m-336 0 q10 0 10 10 m316 0 q0 -10 10 -10 m-326 10 v24 m316 0 v-24 m-316 24 q0 10 10 10 m296 0 q10 0 10 -10 m-306 10 h10 m88 0 h10 m0 0 h10 m60 0 h10 m0 0 h10 m88 0 h10 m20 -44 h10 m24 0 h10 m3 0 h-3"/>
    <polygon points="493 17 501 13 501 21"/>
    <polygon points="493 17 485 13 485 21"/></svg>