<svg xmlns="http://www.w3.org/2000/svg" viewBox="0 0 1000 1000"><path d="M468.97 10.34c-75.92 6.52-135.35 23.2-196.89 55.41-89.34 46.59-165.26 123.66-210.5 213.76C26.49 349.49 10 419.66 10 499.99c0 80.14 16.49 150.69 51.38 220.28 40.07 79.56 107.17 152.22 184.24 199.19 160.85 98.16 367.14 93.75 524.91-11.12 203.8-135.54 276.65-398.19 171.78-619.24-24.54-51.19-54.06-92.79-96.43-135.35C767.47 75.34 675.44 29.71 564.83 13.99c-19.94-2.88-79.38-5.18-95.86-3.65zm148.58 168.52c63.27 37.58 116.95 70.36 119.44 73.04 2.3 2.68 4.22 6.9 4.22 9.39s-1.92 6.71-4.22 9.39c-4.79 5.37-232.55 141.1-236.77 141.1-1.53 0-5.37-1.34-8.82-3.07-17.25-9.01-228.91-135.73-230.83-138.42-4.03-4.98-3.07-14.57 1.92-19.17 3.83-3.64 59.43-37 188.07-113.11 25.31-14.95 47.35-27.22 48.89-27.22 1.72.01 54.83 30.69 118.1 68.07zm-106.6 245.59c2.88 3.64 4.03 7.86 4.03 14.38 0 8.44.38 9.39 4.41 9.59 2.3 0 40.26.19 84.35.38l80.33.38 4.6 5.56 4.79 5.37-.58 41.22-.57 41.22-5.37 4.6c-7.28 6.14-13.8 5.94-20.7-.96l-5.56-5.56v-59.82H338.6v59.82l-5.56 5.56c-6.9 6.9-13.42 7.09-20.71.96l-5.37-4.6-.57-39.11c-.38-24.16.19-41.03 1.34-44.29 3.83-9.97 8.44-10.54 80.71-10.54 36.43 0 72.85-.19 81.1-.19l14.76-.19v-9.97c0-12.65 4.98-18.79 15.53-18.79 5.56-.01 8.05 1.15 11.12 4.98zM349.14 565.36c77.26 9.39 131.71 58.28 122.12 109.66-7.48 39.69-43.33 70.17-99.5 84.16-14.38 3.64-21.86 4.22-50.42 4.22-29.72-.19-35.66-.77-51.96-4.98-111.39-29.91-131.13-127.3-35.66-175.23 32.03-16.3 74.78-22.81 115.42-17.83zm472.01 2.49l5.37 4.6v182.9l-5.37 4.6-5.37 4.6H537.6l-5.56-5.56-5.56-5.56V574.37l5.56-5.56 5.56-5.56h278.18l5.37 4.6z"/><path d="M403.78 202.06c-52.15 31.06-96.05 57.13-97.2 57.9-1.53.96 35.28 23.77 95.09 59.43l97.58 58.09 97.58-57.9c53.49-31.82 97.58-57.9 97.78-58.09.38-.19-192.87-115.03-194.78-115.6-.57-.19-43.9 25.11-96.05 56.17zM284.92 598.72c-49.27 10.93-80.52 36.23-80.52 65.18 0 49.46 88.57 83.2 165.83 63.27 16.68-4.22 40.83-16.49 51.38-25.88 18.6-16.49 23.58-37.38 13.61-57.13-8.82-17.64-30.87-32.59-61.16-41.8-14.76-4.41-21.47-5.17-46.97-5.75-21.08-.57-33.35.19-42.17 2.11zm274.15 66.14v69.02h235.81V595.84H559.07v69.02z"/></svg>