<svg height="512" viewBox="0 0 64 64" width="512" xmlns="http://www.w3.org/2000/svg"><path d="M18 27.75c.965 0 1.75-.785 1.75-1.75s-.785-1.75-1.75-1.75-1.75.785-1.75 1.75.785 1.75 1.75 1.75zm0-2a.25.25 0 01.25.25c0 .275-.5.275-.5 0a.25.25 0 01.25-.25zm10 2c.965 0 1.75-.785 1.75-1.75s-.785-1.75-1.75-1.75-1.75.785-1.75 1.75.785 1.75 1.75 1.75zm0-2a.25.25 0 01.25.25c0 .275-.5.275-.5 0a.25.25 0 01.25-.25z"/><path d="M61 40v-2a1 1 0 00-.938-.998l-16-1A1 1 0 0043 37v3a1 1 0 00-1 1v3a1 1 0 001 1h.111l.582 4.948a7.013 7.013 0 00-6.579-4.947L29 43.198v-2.702l3.321-1.82a.961.961 0 00.16-.109A6.98 6.98 0 0035 33.19V29h.5c1.93 0 3.5-1.57 3.5-3.5a3.495 3.495 0 00-2-3.149V19c0-5.349-3.018-10.003-7.439-12.359C28.571 3.892 25.951 2 23 2s-5.571 1.892-6.561 4.641C12.018 8.997 9 13.651 9 19v3.351A3.495 3.495 0 007 25.5c0 1.93 1.57 3.5 3.5 3.5h.5v4.19a6.98 6.98 0 002.519 5.377c.05.042.104.078.16.109L17 40.496v2.702l-8.114 1.803A7.007 7.007 0 002 52v9a1 1 0 001 1h40a1 1 0 001-1v-8.441l1.007 8.558A1 1 0 0046 62h12a1 1 0 00.993-.883L60.889 45H61a1 1 0 001-1v-3a1 1 0 00-1-1zM12 56h-2v-9.198l2-.444zm-2 2h26v2H10zm26-2h-2v-9.642l2 .444zM19 41.543a6.07 6.07 0 002.298.457h3.404A6.07 6.07 0 0027 41.543v4.288c-1.038 1.098-2.478 1.721-4 1.721s-2.962-.623-4-1.721zM23 4c1.347 0 2.599.555 3.515 1.465C25.39 5.172 24.216 5 23 5s-2.39.172-3.515.465A4.994 4.994 0 0123 4zM11 19c0-6.617 5.383-12 12-12s12 5.383 12 12v3h-.229l-1.709-6.47a1.124 1.124 0 00-.038-.116 5.396 5.396 0 00-3.514-3.193 5.4 5.4 0 00-4.681.792 3.42 3.42 0 01-3.811.117l-.437-.272a5.38 5.38 0 00-4.854-.452c-1.615.632-2.803 1.954-3.272 3.681L11.191 22H11zm-.5 8c-.827 0-1.5-.673-1.5-1.5s.673-1.5 1.5-1.5H12a1 1 0 00.978-.791l1.42-6.651a3.398 3.398 0 012.059-2.291 3.396 3.396 0 013.066.286l.437.272a5.41 5.41 0 006.032-.186 3.408 3.408 0 012.956-.5 3.405 3.405 0 012.197 1.963l1.889 7.152c.115.44.512.746.966.746h1.5c.827 0 1.5.673 1.5 1.5s-.673 1.5-1.5 1.5H35v-2h-2v2.649L29.52 32H16.48L13 27.649V25h-2v2zm14.505 7c-.37.738-1.125 1.25-2.005 1.25s-1.635-.512-2.005-1.25zM13 33.19v-2.339l2.219 2.774A1 1 0 0016 34h3.403c.441 1.581 1.878 2.75 3.597 2.75s3.156-1.169 3.597-2.75H30a1 1 0 00.781-.375L33 30.851v2.339c0 1.457-.629 2.83-1.729 3.781L26.657 39.5c-.598.328-1.273.5-1.955.5h-3.404a4.084 4.084 0 01-1.955-.5l-4.614-2.528A4.99 4.99 0 0113 33.19zm4.231 13.661c1.432 1.717 3.534 2.702 5.769 2.702s4.337-.984 5.769-2.702c.149-.18.231-.407.231-.641v-.964l3 .667V56H14V45.913l3-.667v.964c0 .234.082.461.231.641zM4 52a5.01 5.01 0 014-4.899V60H4zm38 8h-4V47.101c2.279.465 4 2.484 4 4.899zm3-21.936l14 .875V40H45zM60 43H44v-1h16zm-2.621 14.718A5 5 0 0154 53c0-2.591 1.989-4.704 4.517-4.951zm1.377-11.706C55.01 46.142 52 49.222 52 53c0 3.178 2.152 5.914 5.141 6.737L57.11 60H46.89l-1.765-15h13.751z"/><path d="M41.387 33.293l1.414 1.414 1.059-1.058a3.378 3.378 0 00.981-2.632 3.377 3.377 0 00-1.344-2.465 1.383 1.383 0 01-.321-1.873l.75-1.125-1.664-1.109-.75 1.125a3.385 3.385 0 00.785 4.582c.325.244.521.602.549 1.007.029.406-.113.788-.4 1.075zm4.15-6l1.414 1.414 1.059-1.058a3.378 3.378 0 00.981-2.632 3.377 3.377 0 00-1.344-2.465 1.383 1.383 0 01-.321-1.873l.75-1.125-1.664-1.109-.75 1.125a3.385 3.385 0 00.785 4.582c.325.244.521.602.549 1.007.029.406-.113.788-.4 1.075zM45 2c-3.309 0-6 3.14-6 7s2.691 7 6 7 6-3.14 6-7-2.691-7-6-7zm-4 7c0-2.433 1.399-4.461 3.243-4.904l.311 1.246a2.477 2.477 0 01-.647 2.337 4.454 4.454 0 00-.988 4.812l.417 1.042C41.961 12.74 41 11.013 41 9zm4.645 4.919l-.868-2.171a2.46 2.46 0 01.545-2.655 4.484 4.484 0 001.173-4.237l-.135-.539C47.895 5.016 49 6.842 49 9c0 2.481-1.457 4.53-3.355 4.919zm10.665-1.647h-.004c-3.309.003-5.997 3.145-5.994 7.005.003 3.858 2.695 6.995 6.001 6.995h.005c1.638-.001 3.165-.754 4.302-2.121 1.093-1.313 1.694-3.048 1.692-4.884-.003-3.857-2.696-6.995-6.002-6.995zm-3.998 7.003c-.002-2.433 1.395-4.461 3.239-4.907l.312 1.245a2.473 2.473 0 01-.646 2.338 4.454 4.454 0 00-.982 4.813l.418 1.042c-1.377-.789-2.34-2.517-2.341-4.531zm6.77 3.598c-.591.711-1.329 1.159-2.121 1.322l-.871-2.174a2.46 2.46 0 01.542-2.656 4.482 4.482 0 001.171-4.238l-.135-.538c1.535.698 2.642 2.523 2.644 4.68.001 1.37-.436 2.649-1.23 3.604z"/></svg>