<svg xmlns="http://www.w3.org/2000/svg" viewBox="0 0 512 512"><path d="M457.186 138.184l-197.6-95.393a6.377 6.377 0 00-5.543 0L56.442 138.184a6.375 6.375 0 00-3.604 5.741v231.67c0 2.446 1.4 4.677 3.604 5.74l197.6 95.394a6.378 6.378 0 005.544 0l197.6-95.393a6.375 6.375 0 003.603-5.741V143.926c0-2.448-1.4-4.677-3.603-5.742zM256.814 55.612l182.936 88.313-53.03 25.6a6.32 6.32 0 00-1.079-.68L203.947 81.134zm-67.264 32.73l182.67 88.185-37.413 18.061-182.595-88.149zM376.494 188.62v66.764l-34.946 16.871v-66.764zm71.545 182.974l-184.85 89.235V243.32l44.092-21.286a6.375 6.375 0 10-5.543-11.482l-44.924 21.688-17.677-8.534a6.375 6.375 0 00-5.544 11.482l16.846 8.132v217.51l-184.85-89.237v-217.51l140.761 67.953a6.375 6.375 0 008.512-2.97 6.375 6.375 0 00-2.969-8.512L73.877 143.925l63.33-30.573 191.502 92.45c.028.039.06.074.089.112v76.5a6.377 6.377 0 009.147 5.741l47.696-23.026a6.374 6.374 0 003.603-5.74v-76.923l58.795-28.383z" fill="#08a"/><path d="M118.2 346.869l-28.999-14a6.375 6.375 0 00-5.544 11.482l28.998 14a6.375 6.375 0 008.512-2.97 6.374 6.374 0 00-2.968-8.512zm26.687-17.372L89.24 302.633a6.375 6.375 0 10-5.543 11.483l55.646 26.864a6.375 6.375 0 008.512-2.97 6.375 6.375 0 00-2.97-8.513z" fill="#08a"/></svg>