<svg xmlns="http://www.w3.org/2000/svg" viewBox="0 0 1000 1000"><path d="M974.7 928.8H95.5l107.1-97.4c6.5 3.5 13.9 5.5 21.7 5.5 15.6 0 29.4-7.8 37.7-19.8l84.9 23.2c1.7 23.8 21.6 42.6 45.8 42.6 25.3 0 45.9-20.6 45.9-45.9 0-8-2.1-15.5-5.7-22.1L536 699.6l19.8 32c-6.3 7.9-10.1 17.9-10.1 28.7 0 25.3 20.6 45.9 45.9 45.9 16 0 30-8.2 38.3-20.6l222.2 55.6c2.2 23.3 21.9 41.6 45.7 41.6 25.3 0 45.9-20.6 45.9-45.9S923.1 791 897.8 791c-16 0-30 8.2-38.3 20.6L637.6 756c-2.2-23.3-21.9-41.6-45.7-41.6-3.4 0-6.6.4-9.8 1.1l-24.6-39.7 78.1-87.3c5.4 2.2 11.3 3.5 17.5 3.5 25.3 0 45.9-20.6 45.9-45.9 0-13.8-6.2-26.2-15.9-34.7L820 163.1h1.6c25.3 0 45.9-20.6 45.9-45.9s-20.6-45.9-45.9-45.9-45.9 20.6-45.9 45.9c0 13.8 6.2 26.2 15.9 34.7L654.7 500h-1.6c-25.3 0-45.9 20.6-45.9 45.9 0 8 2.1 15.5 5.7 22.1L410.3 794.4c-5.4-2.2-11.3-3.5-17.5-3.5-15.6 0-29.4 7.8-37.7 19.8l-84.9-23.2c-1.7-23.8-21.6-42.6-45.8-42.6-25.3 0-45.9 20.6-45.9 45.9 0 6.3 1.3 12.3 3.6 17.8L71.3 909.4V507l137.8 53v1.3c0 25.3 20.6 45.9 45.9 45.9s45.9-20.6 45.9-45.9c0-6.1-1.2-12-3.4-17.3l73.1-65c6.6 3.6 14.1 5.7 22.2 5.7 3.4 0 6.6-.4 9.8-1.1l91 146.9c2.9 4.7 7.9 7.3 13 7.3 2.8 0 5.5-.7 8-2.3 7.2-4.5 9.4-13.9 5-21.1l-91-146.9c6.3-7.9 10.1-17.9 10.1-28.7 0-25.3-20.6-45.9-45.9-45.9s-45.9 20.6-45.9 45.9c0 6.1 1.2 12 3.4 17.3l-73.1 65c-6.6-3.6-14.1-5.7-22.2-5.7-14 0-26.5 6.3-34.9 16.1L71.3 474.2V25.3C71.3 16.8 64.4 10 56 10s-15.3 6.9-15.3 15.3v76.6H25.3c-8.5 0-15.3 6.9-15.3 15.3 0 8.5 6.9 15.3 15.3 15.3h15.3v61.3H25.3c-8.5 0-15.3 6.9-15.3 15.3 0 8.5 6.9 15.3 15.3 15.3h15.3v61.3H25.3c-8.5 0-15.3 6.9-15.3 15.3 0 8.5 6.9 15.3 15.3 15.3h15.3v61.3H25.3c-8.5 0-15.3 6.9-15.3 15.3 0 8.5 6.9 15.3 15.3 15.3h15.3v61.3H25.3c-8.5 0-15.3 6.9-15.3 15.3S16.9 500 25.3 500h15.3v61.3H25.3c-8.5 0-15.3 6.9-15.3 15.3s6.9 15.3 15.3 15.3h15.3v61.3H25.3c-8.5 0-15.3 6.9-15.3 15.3s6.9 15.3 15.3 15.3h15.3V745H25.3c-8.5 0-15.3 6.9-15.3 15.3s6.9 15.3 15.3 15.3h15.3v61.3H25.3c-8.5 0-15.3 6.9-15.3 15.3s6.9 15.3 15.3 15.3h15.3v61.3H25.3c-8.5 0-15.3 6.9-15.3 15.3s6.9 15.3 15.3 15.3h15.3v15.3c0 8.5 6.9 15.3 15.3 15.3s15.3-6.9 15.3-15.3v-15.3h61.3v15.3c0 8.5 6.9 15.3 15.3 15.3s15.3-6.9 15.3-15.3v-15.3h61.3v15.3c0 8.5 6.9 15.3 15.3 15.3s15.3-6.9 15.3-15.3v-15.3h61.3v15.3c0 8.5 6.9 15.3 15.3 15.3s15.3-6.9 15.3-15.3v-15.3h61.3v15.3c0 8.5 6.9 15.3 15.3 15.3s15.3-6.9 15.3-15.3v-15.3H500v15.3c0 8.5 6.9 15.3 15.3 15.3s15.3-6.9 15.3-15.3v-15.3h61.3v15.3c0 8.5 6.9 15.3 15.3 15.3s15.3-6.9 15.3-15.3v-15.3h61.3v15.3c0 8.5 6.9 15.3 15.3 15.3s15.3-6.9 15.3-15.3v-15.3h61.3v15.3c0 8.5 6.9 15.3 15.3 15.3s15.3-6.9 15.3-15.3v-15.3h61.3v15.3c0 8.5 6.9 15.3 15.3 15.3s15.3-6.9 15.3-15.3v-15.3h76.6c8.5 0 15.3-6.9 15.3-15.3s-7-15.3-15.4-15.3zm-76.6-107.2c8.4 0 15.3 6.9 15.3 15.3s-6.9 15.3-15.3 15.3-15.3-6.9-15.3-15.3 6.9-15.3 15.3-15.3zm-290.9-61.3c0 8.4-6.9 15.3-15.3 15.3s-15.3-6.9-15.3-15.3 6.9-15.3 15.3-15.3 15.3 6.9 15.3 15.3zm214.4-658.4c8.4 0 15.3 6.9 15.3 15.3s-6.9 15.3-15.3 15.3-15.3-6.9-15.3-15.3 6.8-15.3 15.3-15.3zM392.8 423.4c8.4 0 15.3 6.9 15.3 15.3s-6.9 15.3-15.3 15.3-15.3-6.9-15.3-15.3 6.9-15.3 15.3-15.3zM255 545.9c8.4 0 15.3 6.9 15.3 15.3s-6.9 15.3-15.3 15.3-15.3-6.9-15.3-15.3 6.9-15.3 15.3-15.3zm398.1-15.3c8.4 0 15.3 6.9 15.3 15.3s-6.9 15.3-15.3 15.3-15.3-6.9-15.3-15.3 6.9-15.3 15.3-15.3zm-260.3 291c8.4 0 15.3 6.9 15.3 15.3s-6.9 15.3-15.3 15.3-15.3-6.9-15.3-15.3 6.9-15.3 15.3-15.3zm-168.4-46c8.4 0 15.3 6.9 15.3 15.3s-6.9 15.3-15.3 15.3-15.3-6.9-15.3-15.3 6.8-15.3 15.3-15.3z"/></svg>