<svg xmlns="http://www.w3.org/2000/svg" xmlns:xlink="http://www.w3.org/1999/xlink" data-name="Layer 1" width="1000" height="700" viewBox="0 0 1000 700"><defs><linearGradient id="h" x1="772.147" y1="89.706" x2="772.147" y2="43.674" xlink:href="#a" gradientTransform="matrix(.46078 0 0 .3465 406.696 354.694)"/><linearGradient id="a" x1="132.793" y1="581.522" x2="132.793" y2="535.49" gradientUnits="userSpaceOnUse"><stop offset="0" stop-color="gray" stop-opacity=".25"/><stop offset=".535" stop-color="gray" stop-opacity=".12"/><stop offset="1" stop-color="gray" stop-opacity=".1"/></linearGradient><linearGradient id="g" x1="772.147" y1="89.706" x2="772.147" y2="43.674" xlink:href="#a" gradientTransform="matrix(.46078 0 0 .3465 305.163 460.62)"/><linearGradient id="f" x1="772.147" y1="89.706" x2="772.147" y2="43.674" xlink:href="#a" gradientTransform="matrix(.46078 0 0 .3465 138.873 203.175)"/><linearGradient id="e" x1="772.147" y1="89.706" x2="772.147" y2="43.674" xlink:href="#a" gradientTransform="matrix(.46078 0 0 .3465 82.397 203.693)"/><linearGradient id="d" x1="772.147" y1="89.706" x2="772.147" y2="43.674" xlink:href="#a" gradientTransform="matrix(.46078 0 0 .3465 -88.041 497.796)"/><linearGradient id="c" x1="772.147" y1="89.706" x2="772.147" y2="43.674" xlink:href="#a" gradientTransform="matrix(.46078 0 0 .3465 -198.971 499.763)"/><linearGradient id="b" x1="772.147" y1="89.706" x2="772.147" y2="43.674" xlink:href="#a" gradientTransform="matrix(.46078 0 0 .3465 -267.886 500.156)"/></defs><path fill="#ff2a2a" fill-opacity=".161" d="M351.859 92.768h210.789v599.917H351.859z"/><path opacity=".5" fill="#009688" d="M5.238 454.021l90.939 71.054 94.09 20.232 82.561-39.458 99.605-122.517 50.11-45.886 36.621-11.182 35.046 2.986 57.641 45.125 78.335 79.128 61.465 12.553 48.765-26.66 103.313-134.217 52.76-29.8 55.202 13.53 44.941 41.163V693.57H5.238z"/><path d="M177.741 545.338c-89.644 0-172.458-86.594-173.5-87.691l2.47-5.82c1.272 1.341 128.784 134.583 237.1 67.825 39.489-24.375 67.634-62.157 94.833-98.781 28.396-38.209 55.23-74.315 91.785-89.976 41.958-17.946 87.792-1.706 122.612 43.51 29.765 38.635 89.065 100.549 151.682 82.267 31.946-9.476 58.856-46.313 87.348-85.314 54.535-74.893 111.095-152.194 208.86-41.286l-2.623 5.728c-94.872-107.708-150.024-32.236-203.343 40.768-28.936 39.61-56.31 77.057-89.412 86.868-64.431 19.104-124.965-44.18-155.329-83.607-33.72-43.754-78.069-59.507-118.618-42.14-35.61 15.235-62.077 50.854-90.087 88.544-27.49 36.99-55.943 75.229-96.087 99.97a185.19 292.505 0 01-67.69 19.135z" fill="#009688"/><path opacity=".2" fill="#f2f2f2" d="M862.55 530.82l133.209-36.724V693.57H5.237v-30.046l131.5-30.046 117.839-19.196 122.961-28.795L522.7 572.551h186.15z"/><ellipse cx="87.905" cy="523.264" rx="10.605" ry="7.975" fill="url(#b)"/><ellipse cx="87.905" cy="523.264" rx="8.373" ry="6.296" fill="#f60"/><ellipse cx="156.819" cy="522.872" rx="10.605" ry="7.975" fill="url(#c)"/><ellipse cx="156.819" cy="522.872" rx="8.373" ry="6.296" fill="#f60"/><ellipse cx="267.75" cy="520.905" rx="10.605" ry="7.975" fill="url(#d)"/><ellipse cx="267.75" cy="520.905" rx="8.373" ry="6.296" fill="#f60"/><ellipse cx="438.188" cy="226.802" rx="10.605" ry="7.975" fill="url(#e)"/><ellipse cx="438.188" cy="226.802" rx="8.373" ry="6.296" fill="#f60"/><ellipse cx="494.664" cy="226.284" rx="10.605" ry="7.975" fill="url(#f)"/><ellipse cx="494.664" cy="226.284" rx="8.373" ry="6.296" fill="#f60"/><ellipse cx="660.954" cy="483.728" rx="10.605" ry="7.975" fill="url(#g)"/><ellipse cx="660.954" cy="483.728" rx="8.373" ry="6.296" fill="#f60"/><ellipse cx="762.487" cy="377.802" rx="10.605" ry="7.975" fill="url(#h)"/><ellipse cx="762.487" cy="377.802" rx="8.373" ry="6.296" fill="#f60"/></svg>