<svg xmlns="http://www.w3.org/2000/svg" xmlns:xlink="http://www.w3.org/1999/xlink" data-name="Layer 1" width="869" height="634.74" viewBox="0 0 869 634.74"><defs><linearGradient id="a" x1="762.35" y1="767.37" x2="762.35" y2="290.82" gradientUnits="userSpaceOnUse"><stop offset=".01" stop-color="gray" stop-opacity=".25"/><stop offset=".54" stop-color="gray" stop-opacity=".12"/><stop offset="1" stop-color="gray" stop-opacity=".1"/></linearGradient><linearGradient id="c" x1="436.09" y1="608.57" x2="436.09" y2="132.63" xlink:href="#a" gradientTransform="translate(-62.668 -25.855) scale(.84092)"/><linearGradient xlink:href="#a" id="b" gradientUnits="userSpaceOnUse" x1="762.35" y1="767.37" x2="762.35" y2="290.82" gradientTransform="translate(-62.668 -25.855) scale(.84092)"/></defs><path d="M776.914 218.701H414.09c-35.638 0-64.532 29.171-64.532 65.154v225.518a30.492 30.492 0 0030.349 30.643H610.32c7.669 26.54 26.909 63.12 75.38 79.425l-13.682-79.425h104.896a30.492 30.492 0 0030.349-30.643V249.344a30.492 30.492 0 00-30.35-30.643z" fill="url(#b)"/><path d="M770.809 226.303H418.632a62.64 62.64 0 00-62.64 62.64v216.806a29.432 29.432 0 0029.432 29.432h223.66c7.441 25.513 26.144 60.68 73.16 76.355l-13.312-76.33h101.835a29.432 29.432 0 0029.432-29.432V255.76a29.432 29.432 0 00-29.39-29.457z" fill="#37abc8"/><path fill="#d5f6ff" d="M497.611 282.586h182.034v22.755H497.611zm112.742 42.012h68.266v22.755h-68.266zm-67.391 42.004h134.614v22.755H542.962zm-31.501 42.012H676.55v22.755H511.461zm77.011 42.004h87.043v22.755h-87.043z"/><path d="M106.677 85.676h394.735c16.667 0 30.172 13.699 30.172 30.601v259.701c0 16.902-13.505 30.601-30.172 30.601H272.338c-7.628 26.506-26.784 63.069-74.952 79.324l13.607-79.324H106.719c-16.667 0-30.173-13.699-30.173-30.601V116.26c-.042-16.885 13.464-30.584 30.13-30.584z" fill="url(#c)"/><path d="M111.21 93.64h385.333a29.432 29.432 0 0129.432 29.432v250.013a29.432 29.432 0 01-29.432 29.432H272.935c-7.443 25.514-26.145 60.681-73.16 76.356l13.278-76.356H111.209a29.432 29.432 0 01-29.432-29.432V123.097a29.432 29.432 0 0129.432-29.457z" fill="#08a"/><path fill="#00aad4" d="M212.868 141.69h182.034v22.755H212.868zm1.034 42.004h68.266v22.755h-68.266zm1.034 42.003H349.55v22.755H214.936zm1.035 42.013H381.06v22.755H215.971zm1.034 42.004h87.043v22.755h-87.043z"/></svg>