<svg xmlns="http://www.w3.org/2000/svg" height="512pt" viewBox="-47 0 512 512" width="512pt"><path d="M383.064 413.166l-2.255-6.76a6.29 6.29 0 00-5.973-4.304h-18.954v-6.171a5.599 5.599 0 00-5.591-5.594h-17.357a5.6 5.6 0 00-5.591 5.594v6.17H308.39a6.29 6.29 0 00-5.974 4.305l-2.255 6.76a5.072 5.072 0 00.695 4.56 5.072 5.072 0 004.105 2.102h2.357l5.189 64.157c.385 4.76 4.425 8.49 9.198 8.49h40.868c4.772 0 8.812-3.73 9.197-8.491l5.188-64.156h1.306a5.074 5.074 0 004.105-2.102 5.074 5.074 0 00.695-4.56zm-49.737-16.845h16.57v5.78h-16.57zm32.478 87.18a3.264 3.264 0 01-3.232 2.989h-40.868a3.264 3.264 0 01-3.232-2.989l-5.15-63.673h57.631zm-59.56-69.658l1.849-5.543a.311.311 0 01.296-.214h66.446c.135 0 .253.086.296.214l1.85 5.543zm0 0" fill="#006680"/><path d="M356.26 483.29a2.991 2.991 0 003.144-2.832l2.81-53.942a2.993 2.993 0 00-5.977-.312l-2.809 53.941a2.993 2.993 0 002.833 3.145zm-32.306-2.826a2.992 2.992 0 105.976-.326l-2.943-53.941a2.991 2.991 0 10-5.976.325zm17.692 2.829a2.992 2.992 0 002.992-2.992V426.36a2.992 2.992 0 10-5.984 0v53.94a2.992 2.992 0 002.992 2.992zm0 0" fill="#006680"/><g fill="#006680"><path d="M381.472 193.276c-.104 0-.104-.104-.208-.208s-.104-.208-.208-.312l-17.895-20.08c-.104-.104-.312-.208-.416-.312-.104 0-.104-.104-.208-.104a1.96 1.96 0 00-.832-.208H317.8c-6.45 0-11.757 5.306-11.757 11.757v72.1c0 6.45 5.306 11.756 11.757 11.756h52.02c6.45 0 11.756-5.306 11.756-11.757v-61.903c0-.208-.104-.52-.104-.729zm-17.79-14.15l11.548 13.006h-11.55zm13.94 76.678c0 4.37-3.433 7.907-7.802 7.907H317.8c-4.37 0-7.803-3.537-7.803-7.803v-72.203c0-4.37 3.537-7.803 7.803-7.803h41.928v18.103c0 1.04.832 1.976 1.977 1.976h15.918z"/><path d="M320.089 195.981h17.374c1.04 0 1.977-.832 1.977-1.976 0-1.145-.832-1.977-1.977-1.977H320.09c-1.04 0-1.977.832-1.977 1.977 0 1.144.936 1.976 1.977 1.976zm17.374 47.755H320.09c-1.04 0-1.977.832-1.977 1.976 0 1.04.832 1.977 1.977 1.977h17.374c1.04 0 1.977-.832 1.977-1.977 0-1.04-.936-1.976-1.977-1.976zm-19.351-36.622c0 1.04.832 1.976 1.977 1.976h46.401c1.04 0 1.977-.832 1.977-1.976 0-1.04-.832-1.977-1.977-1.977h-46.4c-1.04 0-1.977.832-1.977 1.977zm48.378 7.803h-46.4c-1.04 0-1.977.832-1.977 1.976 0 1.04.832 1.977 1.977 1.977h46.401c1.04 0 1.977-.832 1.977-1.977 0-1.144-.832-1.976-1.977-1.976zm0 9.675h-46.4c-1.04 0-1.977.833-1.977 1.977 0 1.04.832 1.977 1.977 1.977h46.401c1.04 0 1.977-.833 1.977-1.977 0-1.144-.832-1.977-1.977-1.977zm0 9.676h-46.4c-1.04 0-1.977.832-1.977 1.977 0 1.04.832 1.976 1.977 1.976h46.401c1.04 0 1.977-.832 1.977-1.976 0-1.04-.832-1.977-1.977-1.977z"/></g><path d="M311.386 331.246a34.637 34.637 0 01-.255-4.037c0-18.365 15.149-33.514 33.514-33.514 8.566 0 16.586 3.454 22.485 8.84l-2.958 3.01c-.667.666-.924 1.641-.667 2.565a2.684 2.684 0 001.949 1.744c.516.103 17.478 5.569 16.398 5.352 1.374.457 3.405-1.008 3.027-3.027-.104-.517-3.86-19.358-3.643-18.279-.205-.923-.872-1.692-1.795-1.949-.872-.256-1.847 0-2.513.667l-2.514 2.462c-7.746-7.233-18.382-11.644-29.77-11.644-24.058 0-43.773 19.715-43.773 43.773v.102c0 1.446.066 2.564.143 3.419a2.565 2.565 0 002.053 2.284l5.269 1.053c1.715.344 3.257-1.094 3.05-2.82zm74.852-9.846l-5.285-1.077a2.567 2.567 0 00-3.059 2.824c.183 1.497.265 2.953.265 4.062 0 18.364-15.15 33.514-33.514 33.514-8.567 0-16.586-3.454-22.486-8.891l2.959-2.958a2.624 2.624 0 00.666-2.565 2.683 2.683 0 00-1.949-1.744c-.516-.104-17.477-5.57-16.397-5.352-.873-.154-1.745.102-2.309.718-.616.564-.872 1.487-.718 2.308l3.642 18.107c.205.924.872 1.694 1.795 1.95 1.07.268 1.965-.057 2.514-.667l2.462-2.462c7.746 7.233 18.382 11.816 29.82 11.816 24.059 0 43.774-19.716 43.774-43.774v-.154a39.38 39.38 0 00-.136-3.362 2.564 2.564 0 00-2.044-2.293zm0 0" fill="#006680"/><g fill="#006680"><path d="M344.728 68.667c-25.295 0-45.873 20.581-45.873 45.875 0 25.293 20.578 45.875 45.873 45.875 25.292 0 45.872-20.582 45.872-45.875 0-25.294-20.58-45.875-45.872-45.875zm0 83.235c-20.605 0-37.364-16.758-37.364-37.36 0-20.606 16.76-37.364 37.364-37.364 20.604 0 37.364 16.758 37.364 37.364 0 20.602-16.761 37.36-37.364 37.36z"/><path d="M365.782 110.643h-17.157V93.487a3.898 3.898 0 10-7.796 0v17.156h-17.157a3.896 3.896 0 00-3.897 3.9 3.896 3.896 0 003.897 3.897h17.155v17.158a3.897 3.897 0 003.9 3.898 3.898 3.898 0 003.899-3.898V118.44h17.155a3.898 3.898 0 003.899-3.898 3.896 3.896 0 00-3.898-3.899z"/></g><path d="M121.847 289.58c-15.674-1.233-25.717-2.563-36.385-4.817-30.262-6.395-51.916-18.136-55.846-30.28-.747-2.31-.79-3.616-.812-24.259-.012-12 .082-21.817.209-21.817s.97.685 1.875 1.523c22.95 21.26 80.269 32.137 138.764 26.333 32.516-3.226 60.81-12.817 75.26-25.512 1.467-1.29 2.75-2.344 2.852-2.344.102 0 .185 9.936.185 22.08 0 25.625.177 24.352-4.145 29.86-10.488 13.37-39.524 24.115-76.316 28.242-6.963.781-39.369 1.485-45.641.991z" fill="#006680"/><path d="M119.742 230.193c-41.352-2.726-75.745-13.438-86.766-27.025-4.577-5.643-4.758-10.19-.625-15.764 9.824-13.25 39.734-23.425 80.558-27.408 8.628-.841 41.743-.841 50.371 0 25.791 2.516 44.569 6.704 60.133 13.412 15.03 6.478 23.385 14.164 23.42 21.545.017 3.597-2.406 7.736-6.696 11.44-13.14 11.345-39.789 19.586-74.905 23.164-5.082.518-39.897 1.004-45.49.636zm2.904 120.184c-15.674-1.234-25.717-2.563-36.385-4.818C56 339.164 34.345 327.424 30.416 315.28c-.748-2.31-.792-3.616-.813-24.26-.012-11.999.082-21.817.21-21.817.126 0 .97.686 1.874 1.524 22.95 21.259 80.269 32.136 138.764 26.333 32.516-3.226 60.81-12.817 75.26-25.513 1.467-1.289 2.751-2.344 2.852-2.344.102 0 .185 9.936.185 22.08 0 25.626.177 24.353-4.145 29.86-10.488 13.37-39.524 24.115-76.316 28.243-6.962.781-39.368 1.485-45.64.991z" fill="#006680"/><path d="M124.433 411.381c-15.674-1.234-25.717-2.563-36.385-4.818-30.262-6.395-51.916-18.135-55.846-30.279-.747-2.31-.79-3.616-.812-24.26-.012-11.999.082-21.817.209-21.817s.97.686 1.875 1.524c22.95 21.259 80.269 32.136 138.764 26.333 32.516-3.226 60.81-12.817 75.26-25.513 1.467-1.289 2.75-2.344 2.852-2.344.102 0 .185 9.936.185 22.08 0 25.626.177 24.353-4.145 29.86-10.488 13.37-39.524 24.115-76.316 28.243-6.962.78-39.369 1.485-45.641.991z" fill="#006680"/></svg>