<svg xmlns="http://www.w3.org/2000/svg" data-name="Layer 1" width="1167.7" height="718.39" viewBox="0 0 1167.7 718.39"><path d="M1059.366 461.235s43.09 3.516 62.97-17.717m14.617-76.566s-10.384 38.613-39.195 49.068m-64.311 4.554s30.519 10.118 56.748-15.67m12.839-71.068s-2.821 32.792-21.544 48.125m-46.815-11.345s25.312.162 31.238-7.72" stroke-miterlimit="10" fill="none" stroke="#444053" stroke-width="1.379"/><path d="M1165.863 33.391v650.455a31.605 30.18 0 01-31.59 30.193H34.506a31.59 30.166 0 01-31.45-27.417 28.219 26.946 0 01-.14-2.776V33.391c0-.66 0-1.347.07-1.94h1162.778c.042.593.099 1.253.099 1.94z" fill="#4c4c78"/><path d="M1134.273 4.546H34.506a31.59 30.166 0 00-27.372 15.09 31.238 29.829 0 00-4.148 13.15h1162.778a31.59 30.166 0 00-31.493-28.24z" fill="#009688"/><ellipse cx="34.437" cy="19.636" rx="7.901" ry="7.545" fill="#ededf4"/><ellipse cx="58.126" cy="19.636" rx="7.901" ry="7.545" fill="#ededf4"/><ellipse cx="81.83" cy="19.636" rx="7.901" ry="7.545" fill="#ededf4"/><path fill="#009688" d="M43.678 56.834h164.091v14.429H43.678z"/><path opacity=".5" fill="#009688" d="M43.678 127.203h164.091v14.429H43.678zm0 49.728h164.091v14.429H43.678zm0 49.742h164.091v14.429H43.678zm0 49.741h164.091v14.429H43.678zm0 49.742h164.091v14.429H43.678zm0 49.742h164.091v14.429H43.678zm0 49.741h164.091v14.429H43.678z"/><path opacity=".5" fill="#dce0ed" d="M382.965 109.89h727.11v2.317h-727.11zm0 53.865h727.11v2.317h-727.11zm0 53.864h727.11v2.317h-727.11zm0 53.864h727.11v2.317h-727.11zm0 53.865h727.11v2.317h-727.11z"/><path opacity=".5" fill="#009688" d="M517.935 262.08l60.628-17.448 73.142-54.174 36.798-20.29 26.892-4.945 25.735 1.32 42.328 19.954 57.524 34.989 45.136 5.55 35.81-11.788 75.865-59.348 38.744-13.177 40.536 5.982 33.002 18.202v160.731H382.062V221.715l66.78 31.418z"/><path d="M508.962 262.12c-65.567 0-126.138-38.29-126.9-38.775l1.806-2.573c.931.592 94.194 59.51 173.418 29.99 28.882-10.778 49.467-27.484 69.361-43.679 20.77-16.895 40.395-32.86 67.133-39.785 30.687-7.936 64.211-.755 89.678 19.24 21.771 17.083 65.143 44.46 110.942 36.376 23.365-4.19 43.047-20.479 63.887-37.724 39.887-33.116 81.256-67.297 152.762-18.256l-1.92 2.533c-69.389-47.626-109.727-14.254-148.726 18.027-21.164 17.514-41.185 34.072-65.396 38.41-47.126 8.448-91.4-19.535-113.609-36.969-24.663-19.347-57.1-26.312-86.758-18.633-26.046 6.737-45.404 22.487-65.89 39.152-20.106 16.356-40.917 33.265-70.279 44.205a135.45 129.34 0 01-49.51 8.46z" fill="#009688"/><ellipse cx="732.834" cy="164.913" rx="18.018" ry="17.205" fill="#009688"/><path d="M447.22 448.314h106.877v21.651H447.22zm245.417 0h106.878v21.651H692.637zm245.403 0h106.878v21.651H938.04z" opacity=".5" fill="#dce0ed"/><path d="M439.657 599.506c0-31.607 26.934-55.885 60.035-55.885h.423v-14.43h-.48c-41.41 0-75.09 30.732-75.09 70.275a74.963 71.581 0 0025.722 53.972l10.666-10.199a59.894 57.192 0 01-21.276-43.733z" fill="#009688"/><path d="M501.667 529.192v14.389A60.035 57.327 0 11462.5 644.627l-10.667 10.185a75.062 71.675 0 1049.834-125.62zm492.274 13.715c33.1 0 58.526 25.706 58.526 57.313v.459h15.054v-.459c0-39.529-32.183-71.702-73.594-71.702a74.906 71.527 0 00-56.437 24.561l10.666 10.199a59.894 57.192 0 0145.785-20.371z" opacity=".5" fill="#009688"/><path d="M1067.535 602.12h-15.054a60.035 57.327 0 11-105.82-37.414l-10.667-10.185a75.076 71.689 0 10131.598 47.6z" fill="#009688"/><path d="M775.74 533.463l-2.99 14.308c22.038 8.501 36.12 29.128 36.12 53.177a60.035 57.327 0 11-84.092-52.544l-6.745-12.867a75.09 71.702 0 10105.905 65.37c0-30.987-19.245-57.475-48.197-67.444z" opacity=".5" fill="#009688"/><path d="M750.725 542.786a52.204 49.85 0 0120.896 4.15l2.99-14.309a66.314 63.322 0 00-23.886-4.23 74.61 71.244 0 00-30.8 6.332l6.73 12.88a59.598 56.91 0 0124.07-4.823z" fill="#009688"/></svg>