<svg xmlns="http://www.w3.org/2000/svg" xmlns:xlink="http://www.w3.org/1999/xlink" data-name="Layer 1" width="1130" height="868.1" viewBox="0 0 1130 868.1"><defs><linearGradient xlink:href="#b" id="n" x1="38.1" y1="794.284" x2="452.882" y2="794.284" gradientUnits="userSpaceOnUse"/><linearGradient id="d"><stop offset="0" stop-color="#fff"/><stop offset="1" stop-color="#fff" stop-opacity="0"/></linearGradient><linearGradient id="b"><stop offset="0" stop-color="#fff"/><stop offset="1" stop-color="#fff" stop-opacity="0"/></linearGradient><linearGradient id="a"><stop offset="0" stop-color="#fff"/><stop offset="1" stop-color="#fff" stop-opacity="0"/></linearGradient><linearGradient xlink:href="#a" id="w" x1="1054.949" y1="811.037" x2="1264.675" y2="811.037" gradientUnits="userSpaceOnUse" gradientTransform="translate(-1175.575 -665.519) scale(1.51843)"/><linearGradient xlink:href="#a" id="u" x1="1054.949" y1="747.037" x2="1264.675" y2="747.037" gradientUnits="userSpaceOnUse" gradientTransform="translate(-1175.575 -665.519) scale(1.51843)"/><linearGradient xlink:href="#a" id="f" x1="1055.52" y1="623.243" x2="1263.597" y2="623.243" gradientUnits="userSpaceOnUse" gradientTransform="translate(-1175.575 -665.519) scale(1.51843)"/><linearGradient xlink:href="#a" id="s" x1="1054.949" y1="685.037" x2="1264.675" y2="685.037" gradientUnits="userSpaceOnUse" gradientTransform="translate(-1175.575 -665.519) scale(1.51843)"/><linearGradient xlink:href="#a" id="v" x1="1054.949" y1="811.037" x2="1264.675" y2="811.037" gradientUnits="userSpaceOnUse" gradientTransform="translate(-1175.575 -665.519) scale(1.51843)"/><linearGradient xlink:href="#a" id="t" x1="1054.949" y1="747.037" x2="1264.675" y2="747.037" gradientUnits="userSpaceOnUse" gradientTransform="translate(-1175.575 -665.519) scale(1.51843)"/><linearGradient xlink:href="#a" id="e" x1="1055.52" y1="623.243" x2="1263.597" y2="623.243" gradientUnits="userSpaceOnUse" gradientTransform="translate(-1175.575 -665.519) scale(1.51843)"/><linearGradient xlink:href="#a" id="r" x1="1054.949" y1="685.037" x2="1264.675" y2="685.037" gradientUnits="userSpaceOnUse" gradientTransform="translate(-1175.575 -665.519) scale(1.51843)"/><linearGradient xlink:href="#b" id="l" x1="38.1" y1="735.716" x2="452.906" y2="735.716" gradientUnits="userSpaceOnUse"/><linearGradient xlink:href="#b" id="m" x1="38.116" y1="766.709" x2="452.906" y2="766.709" gradientUnits="userSpaceOnUse"/><linearGradient id="c"><stop offset="0" stop-color="#fdffff"/><stop offset="1" stop-color="#fdffff" stop-opacity="0"/></linearGradient><linearGradient xlink:href="#c" id="j" x1="476.869" y1="757.17" x2="556.154" y2="757.17" gradientUnits="userSpaceOnUse"/><linearGradient xlink:href="#c" id="i" x1="574.442" y1="696.435" x2="576.442" y2="696.435" gradientUnits="userSpaceOnUse"/><linearGradient xlink:href="#c" id="p" x1="763.533" y1="565.706" x2="855.171" y2="565.706" gradientUnits="userSpaceOnUse"/><linearGradient xlink:href="#c" id="o" x1="767.72" y1="430.424" x2="879.495" y2="430.424" gradientUnits="userSpaceOnUse"/><linearGradient xlink:href="#c" id="k" x1="773.443" y1="287.115" x2="906.443" y2="287.115" gradientUnits="userSpaceOnUse"/><linearGradient xlink:href="#c" id="h" x1="174.422" y1="564.442" x2="397.363" y2="564.442" gradientUnits="userSpaceOnUse"/><linearGradient xlink:href="#c" id="g" x1="267.003" y1="433.659" x2="378.673" y2="433.659" gradientUnits="userSpaceOnUse" gradientTransform="matrix(.8753 0 0 1 -34.785 -686.768)"/><linearGradient gradientTransform="matrix(.70106 0 0 1 147.227 -133.024)" xlink:href="#c" id="x" x1="174.422" y1="564.442" x2="397.363" y2="564.442" gradientUnits="userSpaceOnUse"/><linearGradient xlink:href="#c" id="y" x1="267.003" y1="433.659" x2="378.673" y2="433.659" gradientUnits="userSpaceOnUse" gradientTransform="matrix(.7773 0 0 1 122.71 -685.82)"/><linearGradient xlink:href="#c" id="z" x1="267.003" y1="433.659" x2="378.673" y2="433.659" gradientUnits="userSpaceOnUse" gradientTransform="matrix(.7773 0 0 1 179.48 -697.26)"/><linearGradient xlink:href="#c" id="A" x1="267.003" y1="433.659" x2="378.673" y2="433.659" gradientUnits="userSpaceOnUse" gradientTransform="matrix(.66151 0 0 1 21.899 -1356.758)"/><linearGradient xlink:href="#c" id="B" x1="267.003" y1="433.659" x2="378.673" y2="433.659" gradientUnits="userSpaceOnUse" gradientTransform="matrix(.66151 0 0 1 -829.087 436.884)"/><linearGradient xlink:href="#d" id="q" x1="789.652" y1="720.008" x2="946.985" y2="720.008" gradientUnits="userSpaceOnUse"/></defs><path d="M2718.431-49.92a70.124 81.031 0 00-70.142-80.93H1444.052a70.124 81.031 0 00-70.195 80.93V951.353h1344.574z" fill="#474157"/><path d="M558.492 332.09c-59.966-3.953-109.839-19.486-125.82-39.188-6.638-8.183-6.9-14.778-.908-22.86 14.247-19.213 57.619-33.97 116.819-39.744 12.51-1.22 60.532-1.22 73.043 0 37.4 3.648 64.63 9.721 87.2 19.448 21.795 9.394 33.911 20.54 33.96 31.243.026 5.216-3.488 11.218-9.708 16.588-19.055 16.452-57.699 28.403-108.62 33.591-7.37.751-57.856 1.457-65.966.922z" opacity=".58" fill="url(#e)" stroke="url(#f)" stroke-width=".634"/><path transform="rotate(90)" opacity=".58" fill="url(#g)" d="M198.921-254.058h97.744v1.897h-97.744z"/><path opacity=".58" fill="url(#h)" d="M174.422 563.494h222.941v1.897H174.422z"/><path d="M253.11 330.253a16.128 16.128 0 1116.127-16.128 16.146 16.146 0 01-16.127 16.128zm0-30.358a14.23 14.23 0 1014.23 14.23 14.246 14.246 0 00-14.23-14.23zM159.243 580.57a16.128 16.128 0 1116.128-16.128 16.146 16.146 0 01-16.128 16.128zm0-30.358a14.23 14.23 0 1014.23 14.23 14.246 14.246 0 00-14.23-14.23z" opacity=".58" fill="#fdffff"/><circle cx="254.058" cy="433.659" r="15.179" opacity=".58" fill="#fff"/><path d="M159.243 421.191a18.974 18.974 0 1018.974 18.974 19.03 19.03 0 00-18.974-18.974zm0 5.692a5.692 5.692 0 11-5.692 5.693 5.711 5.711 0 015.692-5.693zm0 27.403a13.822 13.822 0 01-11.384-6.075c.091-3.795 7.59-5.884 11.384-5.884 3.795 0 11.293 2.089 11.384 5.884a13.845 13.845 0 01-11.384 6.075zM254.058 151.9a18.974 18.974 0 1018.974 18.974 19.03 19.03 0 00-18.974-18.974zm0 5.693a5.692 5.692 0 11-5.692 5.692 5.711 5.711 0 015.692-5.692zm0 27.402a13.822 13.822 0 01-11.384-6.075c.091-3.795 7.59-5.884 11.384-5.884 3.795 0 11.293 2.089 11.384 5.884a13.845 13.845 0 01-11.384 6.075z" fill="#fff" stroke="#fff" stroke-width=".949" opacity=".58"/><rect x="454.713" y="166.54" width="25.095" height="24.149" rx="3.164" ry="3.044" opacity=".58" fill="#d5f6ff" fill-opacity=".144"/><rect x="547.037" y="189.629" width="25.095" height="24.149" rx="3.164" ry="3.044" opacity=".58" fill="#d5f6ff" fill-opacity=".144"/><rect x="590.73" y="179.078" width="25.095" height="24.149" rx="3.164" ry="3.044" opacity=".58" fill="#d5f6ff" fill-opacity=".144"/><rect x="656.389" y="175.613" width="25.095" height="24.149" rx="3.164" ry="3.044" opacity=".58" fill="#d5f6ff" fill-opacity=".144"/><rect x="393.04" y="130.455" width="25.095" height="24.149" rx="3.164" ry="3.044" opacity=".58" fill="#d5f6ff" fill-opacity=".144"/><rect x="709.616" y="145.154" width="25.095" height="24.149" rx="3.164" ry="3.044" opacity=".58" fill="#d5f6ff" fill-opacity=".144"/><rect x="657.093" y="140.985" width="25.095" height="24.149" rx="3.164" ry="3.044" opacity=".58" fill="#d5f6ff" fill-opacity=".144"/><rect x="521.942" y="165.48" width="25.095" height="24.149" rx="3.164" ry="3.044" opacity=".58" fill="#d5f6ff" fill-opacity=".144"/><rect x="561.104" y="145.154" width="25.095" height="24.149" rx="3.164" ry="3.044" opacity=".58" fill="#d5f6ff" fill-opacity=".144"/><rect x="609.018" y="138.823" width="25.095" height="24.149" rx="3.164" ry="3.044" opacity=".58" fill="#d5f6ff" fill-opacity=".144"/><rect x="483.787" y="132.444" width="25.095" height="24.149" rx="3.164" ry="3.044" opacity=".58" fill="#d5f6ff" fill-opacity=".144"/><rect x="545.912" y="107.648" width="25.095" height="24.149" rx="3.164" ry="3.044" opacity=".58" fill="#d5f6ff" fill-opacity=".144"/><rect x="466.227" y="90.871" width="25.095" height="24.149" rx="3.164" ry="3.044" opacity=".58" fill="#d5f6ff" fill-opacity=".144"/><rect x="758.972" y="115.386" width="25.095" height="24.149" rx="3.164" ry="3.044" opacity=".58" fill="#d5f6ff" fill-opacity=".144"/><rect x="609.715" y="106.242" width="25.095" height="24.149" rx="3.164" ry="3.044" opacity=".58" fill="#d5f6ff" fill-opacity=".144"/><rect x="672.249" y="97.061" width="25.095" height="24.149" rx="3.164" ry="3.044" opacity=".58" fill="#d5f6ff" fill-opacity=".144"/><rect x="524.658" y="69.395" width="25.095" height="24.149" rx="3.164" ry="3.044" opacity=".58" fill="#d5f6ff" fill-opacity=".144"/><rect x="407.179" y="83.463" width="25.095" height="24.149" rx="3.164" ry="3.044" opacity=".58" fill="#d5f6ff" fill-opacity=".144"/><rect x="452.44" y="49.752" width="25.095" height="24.149" rx="3.164" ry="3.044" opacity=".58" fill="#d5f6ff" fill-opacity=".144"/><rect x="672.953" y="47.591" width="25.095" height="24.149" rx="3.164" ry="3.044" opacity=".58" fill="#d5f6ff" fill-opacity=".144"/><rect x="776.212" y="73.616" width="25.095" height="24.149" rx="3.164" ry="3.044" opacity=".58" fill="#d5f6ff" fill-opacity=".144"/><rect x="733.877" y="91.237" width="25.095" height="24.149" rx="3.164" ry="3.044" opacity=".58" fill="#d5f6ff" fill-opacity=".144"/><rect x="621.68" y="69.447" width="25.095" height="24.149" rx="3.164" ry="3.044" opacity=".58" fill="#d5f6ff" fill-opacity=".144"/><rect x="505.87" y="23.221" width="25.095" height="24.149" rx="3.164" ry="3.044" opacity=".58" fill="#d5f6ff" fill-opacity=".144"/><rect x="380.996" y="18.56" width="25.095" height="24.149" rx="3.164" ry="3.044" opacity=".58" fill="#d5f6ff" fill-opacity=".144"/><rect x="722.952" y="32.628" width="25.095" height="24.149" rx="3.164" ry="3.044" opacity=".58" fill="#d5f6ff" fill-opacity=".144"/><rect x="815.892" y="17.154" width="25.095" height="24.149" rx="3.164" ry="3.044" opacity=".58" fill="#d5f6ff" fill-opacity=".144"/><rect x="571.803" y="31.221" width="25.095" height="24.149" rx="3.164" ry="3.044" opacity=".58" fill="#d5f6ff" fill-opacity=".144"/><rect x="621.941" y="31.221" width="25.095" height="24.149" rx="3.164" ry="3.044" opacity=".58" fill="#d5f6ff" fill-opacity=".144"/><path fill="url(#i)" opacity=".58" d="M574.442 649.36h2v94.149h-2z"/><path fill="url(#j)" opacity=".58" d="M476.869 756.17h79.285v2h-79.285z"/><circle cx="923.5" cy="288.101" r="16" fill="#fff" opacity=".58"/><path d="M574.442 775.51a17 17 0 1117-17 17.019 17.019 0 01-17 17zm0-32a15 15 0 1015 15 15.017 15.017 0 00-15-15z" fill="#fdffff" opacity=".58"/><path fill="url(#k)" opacity=".58" d="M773.443 286.115h133v2h-133z"/><path opacity=".58" fill="#fff" d="M14.379 702.052H31.3v5.136H14.379zm451.512.152h16.921v5.136h-16.921zm-451.36 35.955h16.921v5.136H14.531zm.152 36.106h16.921v5.136H14.683zm.152 36.099h16.921v5.136H14.835z"/><g opacity=".58" fill="#fff"><path d="M31.3 704.524h4.8v.2h-4.8zm420.054.2h-9.433v-.2h9.433zm-18.874 0h-9.432v-.2h9.432zm-18.873 0h-9.44v-.2h9.44zm-18.873 0h-9.44v-.2h9.44zm-18.874 0h-9.44v-.2h9.44zm-18.88 0h-9.434v-.2h9.433zm-18.874 0h-9.44v-.2h9.44zm-18.874 0h-9.44v-.2h9.44zm-18.873 0h-9.44v-.2h9.44zm-18.881 0h-9.433v-.2h9.433zm-18.874 0h-9.44v-.2h9.44zm-18.873 0h-9.44v-.2h9.44zm-18.873 0h-9.441v-.2h9.44zm-18.882 0h-9.432v-.2h9.432zm-18.873 0h-9.433v-.2h9.433zm-18.873 0h-9.41v-.2h9.442zm-18.874 0h-9.44v-.2h9.44zm-18.881 0h-9.433v-.2h9.433zm-18.873 0h-9.433v-.2h9.449zm-18.874 0h-9.44v-.2h9.44zm-18.873 0h-9.44v-.2h9.44zm-18.882 0h-9.432v-.2h9.432zm405.822-.2h4.8v.2h-4.8z"/><path d="M31.3 704.524h4.8v.2h-4.8zm420.054.2h-9.433v-.2h9.433zm-18.874 0h-9.432v-.2h9.432zm-18.873 0h-9.44v-.2h9.44zm-18.873 0h-9.44v-.2h9.44zm-18.874 0h-9.44v-.2h9.44zm-18.88 0h-9.434v-.2h9.433zm-18.874 0h-9.44v-.2h9.44zm-18.874 0h-9.44v-.2h9.44zm-18.873 0h-9.44v-.2h9.44zm-18.881 0h-9.433v-.2h9.433zm-18.874 0h-9.44v-.2h9.44zm-18.873 0h-9.44v-.2h9.44zm-18.873 0h-9.441v-.2h9.44zm-18.882 0h-9.432v-.2h9.432zm-18.873 0h-9.433v-.2h9.433zm-18.873 0h-9.41v-.2h9.442zm-18.874 0h-9.44v-.2h9.44zm-18.881 0h-9.433v-.2h9.433zm-18.873 0h-9.433v-.2h9.449zm-18.874 0h-9.44v-.2h9.44zm-18.873 0h-9.44v-.2h9.44zm-18.882 0h-9.432v-.2h9.432zm405.822-.2h4.8v.2h-4.8z"/></g><path opacity=".58" fill="#fff" d="M14.379 666.049H31.3v5.136H14.379zm451.512.152h16.921v5.136h-16.921zM31.3 668.522h4.8v.2h-4.8zm420.054.2h-9.433v-.2h9.433zm-18.874 0h-9.432v-.2h9.432zm-18.873 0h-9.44v-.2h9.44zm-18.873 0h-9.44v-.2h9.44zm-18.874 0h-9.44v-.2h9.44zm-18.88 0h-9.434v-.2h9.433zm-18.874 0h-9.44v-.2h9.44zm-18.874 0h-9.44v-.2h9.44zm-18.873 0h-9.44v-.2h9.44zm-18.881 0h-9.433v-.2h9.433zm-18.874 0h-9.44v-.2h9.44zm-18.873 0h-9.44v-.2h9.44zm-18.873 0h-9.441v-.2h9.44zm-18.882 0h-9.432v-.2h9.432zm-18.873 0h-9.433v-.2h9.433zm-18.873 0h-9.41v-.2h9.442zm-18.874 0h-9.44v-.2h9.44zm-18.881 0h-9.433v-.2h9.433zm-18.873 0h-9.433v-.2h9.449zm-18.874 0h-9.44v-.2h9.44zm-18.873 0h-9.44v-.2h9.44zm-18.882 0h-9.432v-.2h9.432zm405.822-.2h4.8v.2h-4.8zm5.096 69.637h16.921v5.136h-16.921z"/><g opacity=".58" fill="#fff"><path d="M31.3 740.479h4.8v.2h-4.8zm420.054.191h-9.433v-.2h9.433zm-18.874 0h-9.432v-.2h9.432zm-18.873 0h-9.44v-.2h9.44zm-18.873 0h-9.44v-.2h9.44zm-18.874 0h-9.44v-.2h9.44zm-18.88 0h-9.434v-.2h9.433zm-18.874 0h-9.44v-.2h9.44zm-18.874 0h-9.44v-.2h9.44zm-18.873 0h-9.44v-.2h9.44zm-18.881 0h-9.433v-.2h9.433zm-18.874 0h-9.44v-.2h9.44zm-18.873 0h-9.44v-.2h9.44zm-18.873 0h-9.441v-.2h9.44zm-18.882 0h-9.432v-.2h9.432zm-18.873 0h-9.433v-.2h9.433zm-18.873 0h-9.41v-.2h9.442zm-18.874 0h-9.44v-.2h9.44zm-18.881 0h-9.433v-.2h9.433zm-18.873 0h-9.433v-.2h9.449zm-18.874 0h-9.44v-.2h9.44zm-18.873 0h-9.44v-.2h9.44zm-18.882 0h-9.432v-.2h9.432zm405.822-.191h4.8v.2h-4.8z"/><path d="M31.3 740.479h4.8v.2h-4.8zm420.054.191h-9.433v-.2h9.433zm-18.874 0h-9.432v-.2h9.432zm-18.873 0h-9.44v-.2h9.44zm-18.873 0h-9.44v-.2h9.44zm-18.874 0h-9.44v-.2h9.44zm-18.88 0h-9.434v-.2h9.433zm-18.874 0h-9.44v-.2h9.44zm-18.874 0h-9.44v-.2h9.44zm-18.873 0h-9.44v-.2h9.44zm-18.881 0h-9.433v-.2h9.433zm-18.874 0h-9.44v-.2h9.44zm-18.873 0h-9.44v-.2h9.44zm-18.873 0h-9.441v-.2h9.44zm-18.882 0h-9.432v-.2h9.432zm-18.873 0h-9.433v-.2h9.433zm-18.873 0h-9.41v-.2h9.442zm-18.874 0h-9.44v-.2h9.44zm-18.881 0h-9.433v-.2h9.433zm-18.873 0h-9.433v-.2h9.449zm-18.874 0h-9.44v-.2h9.44zm-18.873 0h-9.44v-.2h9.44zm-18.882 0h-9.432v-.2h9.432zm405.822-.191h4.8v.2h-4.8z"/></g><path opacity=".58" fill="#fff" d="M465.891 774.113h16.921v5.136h-16.921z"/><g opacity=".58" fill="#fff"><path d="M31.3 776.425h4.8v.2h-4.8zm420.054.2h-9.433v-.2h9.433zm-18.874 0h-9.432v-.2h9.432zm-18.873 0h-9.44v-.2h9.44zm-18.873 0h-9.44v-.2h9.44zm-18.874 0h-9.44v-.2h9.44zm-18.88 0h-9.434v-.2h9.433zm-18.874 0h-9.44v-.2h9.44zm-18.874 0h-9.44v-.2h9.44zm-18.873 0h-9.44v-.2h9.44zm-18.881 0h-9.433v-.2h9.433zm-18.874 0h-9.44v-.2h9.44zm-18.873 0h-9.44v-.2h9.44zm-18.873 0h-9.441v-.2h9.44zm-18.882 0h-9.432v-.2h9.432zm-18.873 0h-9.433v-.2h9.433zm-18.873 0h-9.41v-.2h9.442zm-18.874 0h-9.44v-.2h9.44zm-18.881 0h-9.433v-.2h9.433zm-18.873 0h-9.433v-.2h9.449zm-18.874 0h-9.44v-.2h9.44zm-18.873 0h-9.44v-.2h9.44zm-18.882 0h-9.432v-.2h9.432zm405.822-.2h4.8v.2h-4.8z"/><path d="M31.3 776.425h4.8v.2h-4.8zm420.054.2h-9.433v-.2h9.433zm-18.874 0h-9.432v-.2h9.432zm-18.873 0h-9.44v-.2h9.44zm-18.873 0h-9.44v-.2h9.44zm-18.874 0h-9.44v-.2h9.44zm-18.88 0h-9.434v-.2h9.433zm-18.874 0h-9.44v-.2h9.44zm-18.874 0h-9.44v-.2h9.44zm-18.873 0h-9.44v-.2h9.44zm-18.881 0h-9.433v-.2h9.433zm-18.874 0h-9.44v-.2h9.44zm-18.873 0h-9.44v-.2h9.44zm-18.873 0h-9.441v-.2h9.44zm-18.882 0h-9.432v-.2h9.432zm-18.873 0h-9.433v-.2h9.433zm-18.873 0h-9.41v-.2h9.442zm-18.874 0h-9.44v-.2h9.44zm-18.881 0h-9.433v-.2h9.433zm-18.873 0h-9.433v-.2h9.449zm-18.874 0h-9.44v-.2h9.44zm-18.873 0h-9.44v-.2h9.44zm-18.882 0h-9.432v-.2h9.432zm405.822-.2h4.8v.2h-4.8z"/></g><path opacity=".58" fill="#fff" d="M465.891 810.06h16.921v5.136h-16.921z"/><g opacity=".58" fill="#fff"><path d="M31.3 812.38h4.8v.2h-4.8zm420.054.2h-9.433v-.2h9.433zm-18.874 0h-9.432v-.2h9.432zm-18.873 0h-9.44v-.2h9.44zm-18.873 0h-9.44v-.2h9.44zm-18.874 0h-9.44v-.2h9.44zm-18.88 0h-9.434v-.2h9.433zm-18.874 0h-9.44v-.2h9.44zm-18.874 0h-9.44v-.2h9.44zm-18.873 0h-9.44v-.2h9.44zm-18.881 0h-9.433v-.2h9.433zm-18.874 0h-9.44v-.2h9.44zm-18.873 0h-9.44v-.2h9.44zm-18.873 0h-9.441v-.2h9.44zm-18.882 0h-9.432v-.2h9.432zm-18.873 0h-9.433v-.2h9.433zm-18.873 0h-9.41v-.2h9.442zm-18.874 0h-9.44v-.2h9.44zm-18.881 0h-9.433v-.2h9.433zm-18.873 0h-9.433v-.2h9.449zm-18.874 0h-9.44v-.2h9.44zm-18.873 0h-9.44v-.2h9.44zm-18.882 0h-9.432v-.2h9.432zm405.822-.2h4.8v.2h-4.8z"/><path d="M31.3 812.38h4.8v.2h-4.8zm420.054.2h-9.433v-.2h9.433zm-18.874 0h-9.432v-.2h9.432zm-18.873 0h-9.44v-.2h9.44zm-18.873 0h-9.44v-.2h9.44zm-18.874 0h-9.44v-.2h9.44zm-18.88 0h-9.434v-.2h9.433zm-18.874 0h-9.44v-.2h9.44zm-18.874 0h-9.44v-.2h9.44zm-18.873 0h-9.44v-.2h9.44zm-18.881 0h-9.433v-.2h9.433zm-18.874 0h-9.44v-.2h9.44zm-18.873 0h-9.44v-.2h9.44zm-18.873 0h-9.441v-.2h9.44zm-18.882 0h-9.432v-.2h9.432zm-18.873 0h-9.433v-.2h9.433zm-18.873 0h-9.41v-.2h9.442zm-18.874 0h-9.44v-.2h9.44zm-18.881 0h-9.433v-.2h9.433zm-18.873 0h-9.433v-.2h9.449zm-18.874 0h-9.44v-.2h9.44zm-18.873 0h-9.44v-.2h9.44zm-18.882 0h-9.432v-.2h9.432zm405.822-.2h4.8v.2h-4.8z"/></g><path stroke-miterlimit="10" fill="#fff" stroke="#f2f2f2" stroke-width=".08" opacity=".58" d="M86.464 668.77v144.162m58.404-144.162v144.162m58.404-144.162v144.162m58.404-144.162v144.162M320.08 668.77v144.162m58.405-144.162v144.162m58.404-144.162v144.162"/><path d="M449.522 659.04l-6.68 6.961a2.04 2.04 0 00-.337.488l-4.144 8.537a1.888 1.888 0 01-1.848 1.064l-1.328-.104a1.888 1.888 0 01-1.68-1.36l-1.28-4.432a1.896 1.896 0 00-3.617-.088l-2.152 6.304a1.896 1.896 0 01-1.8 1.288h-8.217a1.904 1.904 0 01-1.872-1.6l-2.32-14.52a1.896 1.896 0 00-3.568-.561l-11.897 23.482a1.896 1.896 0 01-2.784.696l-7.073-4.993a1.912 1.912 0 00-2.536.304l-2.68 3.097a1.808 1.808 0 00-.208.296l-7.153 12.377a1.88 1.88 0 01-1.832.936l-4.36-.432a1.912 1.912 0 00-.896.128l-3.904 1.56a1.896 1.896 0 01-2.4-1l-.857-1.96a1.904 1.904 0 00-1.824-1.137l-4.464.208a1.872 1.872 0 00-1.416.744l-1.264 1.649a1.896 1.896 0 01-3.297-.528l-1.6-4.52a1.896 1.896 0 00-2.928-.889l-7.6 5.697-8.401 6.776a1.904 1.904 0 01-2.064.208l-6.52-3.384a1.912 1.912 0 00-1.137-.192l-13.209 1.848a1.904 1.904 0 00-1.6 1.456l-2.344 10.185a1.896 1.896 0 01-3.08 1.016 1.904 1.904 0 00-2.936.592l-1.8 3.608a1.92 1.92 0 01-1.385 1.024l-4.088.68a1.904 1.904 0 00-.736.296l-6.44 4.289a1.88 1.88 0 01-1.048.32H275.9a1.896 1.896 0 01-1.744-1.144l-.8-1.913a1.896 1.896 0 00-2.544-.952l-6.993 3.273a1.904 1.904 0 01-1.784-.088l-3.2-1.929a1.912 1.912 0 00-.976-.272h-7.065a1.896 1.896 0 00-1.048.32l-7.048 4.68a1.896 1.896 0 01-1.856.137l-3.2-1.512a1.896 1.896 0 00-2.233.472l-1.52 1.736a1.888 1.888 0 01-3.08-.32l-.456-.8a1.896 1.896 0 00-2.624-.704l-5.545 3.288a1.896 1.896 0 01-1.888 0l-2.288-1.272a1.88 1.88 0 00-1.704-.072l-2.176.992a1.912 1.912 0 01-2.6-1.152l-1.408-4.192a1.88 1.88 0 00-1.809-1.32h-2.048a1.856 1.856 0 01-.92-.24l-7.864-4.313a1.904 1.904 0 00-2.048.152l-5.769 4.32a1.88 1.88 0 01-1.136.376h-7.256a1.88 1.88 0 00-1.049.32l-1.36.905a1.896 1.896 0 01-2.752-.729l-.328-.648a1.888 1.888 0 00-1.696-1.056h-3.64a1.896 1.896 0 00-1.496.736l-2.257 2.889a1.896 1.896 0 01-3.096-.152l-.64-1a1.888 1.888 0 00-2.576-.608l-1.872 1.12a1.904 1.904 0 01-2.088-.088l-7.545-5.465a2.288 2.288 0 00-.432-.24l-5.896-2.264a1.896 1.896 0 00-2.4 1.056l-4.105 10a1.712 1.712 0 00-.12.44l-1.328 9.01a1.904 1.904 0 01-.496 1.016l-2.808 3.016a1.912 1.912 0 01-2.312.36l-4.873-2.704a1.896 1.896 0 00-2.72 1.04l-3.088 9.032a1.816 1.816 0 00-.104.616v5.697a1.896 1.896 0 01-1.144 1.736l-4.952 2.192a1.896 1.896 0 01-1.72-.112l-3.729-2.192a1.896 1.896 0 00-1.232-.24l-6.536.936a1.888 1.888 0 01-1.904-.928l-1.105-1.888a1.88 1.88 0 00-1.072-.848l-2.968-.928a1.888 1.888 0 00-1.976.536l-4.12 4.576a1.92 1.92 0 01-1.256.624l-6.08.512a1.792 1.792 0 00-.8.24l-10.602 6.097a1.904 1.904 0 01-2.128-.169l-3.008-2.4a1.92 1.92 0 00-1.184-.416H49.285a1.88 1.88 0 01-1.48-.712l-2.872-3.584a1.896 1.896 0 00-2.888-.08l-3.457 3.84a1.896 1.896 0 00-.488 1.264v47.716a1.896 1.896 0 001.896 1.896H451.01a1.896 1.896 0 001.896-1.904l-.112-150.675a1.904 1.904 0 00-3.272-1.352z" opacity=".391" fill="url(#l)"/><path d="M449.154 720.83l-6.193 4.128a2.4 2.4 0 00-.568.536l-3.848 5.08a2.4 2.4 0 01-1.984.928l-1.256-.064a2.352 2.352 0 01-2.024-1.376l-.8-1.704a2.336 2.336 0 00-4.2-.136l-1.6 3.064a2.336 2.336 0 01-2.073 1.24h-7.937a2.328 2.328 0 01-2.272-1.776l-1.904-7.625a2.344 2.344 0 00-4.112-.888l-11.441 14.465a2.328 2.328 0 01-2.8.68l-7.353-3.32a2.344 2.344 0 00-2.4.248l-2.632 1.944a2.176 2.176 0 00-.344.32l-6.945 7.689a2.344 2.344 0 01-1.888.8l-4.536-.288a2.528 2.528 0 00-.736.064l-4.088 1.048a2.336 2.336 0 01-2.52-.944l-.465-.688a2.344 2.344 0 00-2-1.016l-4.56.136a2.256 2.256 0 00-1.432.544l-1.12.936a2.344 2.344 0 01-3.56-.664l-1.185-2.144a2.344 2.344 0 00-3.064-.984l-7.672 3.688-8.49 4.384a2.328 2.328 0 01-1.807.136l-6.76-2.24a2.4 2.4 0 00-.945-.112l-13.089 1.112a2.4 2.4 0 00-2 1.544l-1.896 5.297a2.344 2.344 0 01-3.328 1.264l-.08-.04a2.328 2.328 0 00-2.968.608l-1.488 1.904a2.4 2.4 0 01-1.6.888l-4.097.44a2.4 2.4 0 00-.672.168l-6.488 2.776a2.448 2.448 0 01-.92.184h-3.12a2.344 2.344 0 01-1.937-1.024l-.448-.656a2.344 2.344 0 00-2.608-.92l-7.273 2.2a2.352 2.352 0 01-1.52-.056l-3.376-1.296a2.304 2.304 0 00-.8-.16h-7.249a2.248 2.248 0 00-.912.192l-7.2 3.056a2.32 2.32 0 01-1.6.088l-3.56-1.064a2.352 2.352 0 00-2.057.352l-1.56 1.144a2.344 2.344 0 01-3.144-.344l-.232-.264a2.344 2.344 0 00-2.592-.648l-5.8 2.217a2.336 2.336 0 01-1.6 0l-2.545-.913a2.4 2.4 0 00-1.44-.04l-2.4.697a2.344 2.344 0 01-2.744-1.2l-.896-1.8a2.352 2.352 0 00-2.097-1.297h-2.08a2.32 2.32 0 01-.8-.128l-8.072-2.832a2.32 2.32 0 00-1.792.096l-5.897 2.832a2.4 2.4 0 01-1.016.232H181.2a2.448 2.448 0 00-.92.184l-1.52.656a2.352 2.352 0 01-2.769-.712 2.336 2.336 0 00-1.848-.904h-3.76a2.352 2.352 0 00-1.488.528l-2.185 1.792a2.328 2.328 0 01-3.144-.16l-.496-.496a2.344 2.344 0 00-2.504-.536l-2.176.84a2.4 2.4 0 01-1.832-.064l-7.657-3.552a1.896 1.896 0 00-.424-.144l-6.008-1.48a2.328 2.328 0 00-2.528 1.008l-3.777 5.888a2.4 2.4 0 00-.312.736l-1.144 5a2.4 2.4 0 01-.96 1.409l-2.496 1.712a2.32 2.32 0 01-2.104.272l-5.137-1.824a2.344 2.344 0 00-2.872 1.152l-2.704 5.056a2.4 2.4 0 00-.272 1.104v2.28a2.352 2.352 0 01-1.72 2.257l-4.496 1.248a2.304 2.304 0 01-1.449-.064l-3.92-1.48a2.304 2.304 0 00-1.04-.144l-6.76.616a2.32 2.32 0 01-1.945-.752l-.8-.888a2.272 2.272 0 00-1.272-.72l-3.08-.624a2.4 2.4 0 00-1.824.392l-4.056 2.888a2.4 2.4 0 01-1.232.432l-6.217.328a2.448 2.448 0 00-.688.144l-10.793 4a2.288 2.288 0 01-1.872-.112l-3.12-1.6a2.344 2.344 0 00-1.064-.256h-11.6a2.344 2.344 0 01-1.473-.52l-2.808-2.248a2.344 2.344 0 00-2.824-.08l-3.009 2.144a2.352 2.352 0 00-.984 1.912v22.49a2.344 2.344 0 002.344 2.344h410.102a2.344 2.344 0 002.344-2.344l-.112-87.823a2.344 2.344 0 00-3.64-1.984z" opacity=".391" fill="url(#m)"/><circle cx="450.81" cy="720.237" r="5.6" fill="#fff" opacity=".58"/><path d="M450.45 775.641l-7.609 2.536a1.992 1.992 0 00-.416.2l-4.176 2.76a1.776 1.776 0 01-1.024.289l-2.6-.064a1.776 1.776 0 01-1.28-.584l-1.6-1.76a1.784 1.784 0 00-2.545-.105l-2.696 2.529a1.76 1.76 0 01-1.216.488h-9.345a1.768 1.768 0 01-1.6-.992l-2.136-4.265a1.784 1.784 0 00-2.544-.712l-13.225 8.377a1.8 1.8 0 01-1.344.232l-9.057-2.04a1.736 1.736 0 00-1.008.064l-3.304 1.224a1.128 1.128 0 00-.248.112l-7.305 4.048a1.84 1.84 0 01-.92.224l-5.408-.176a1.6 1.6 0 00-.28 0l-5.2.664a1.816 1.816 0 01-1.28-.328l-1.057-.8a1.76 1.76 0 00-1.08-.344l-5.704.08a1.696 1.696 0 00-.664.136l-2.56 1.08a1.792 1.792 0 01-1.889-.328l-2.096-1.856a1.776 1.776 0 00-1.6-.408l-8.752 2.112-9.001 2.328a1.752 1.752 0 01-.736 0l-7.6-1.264a2.84 2.84 0 00-.369 0l-14.057.632a1.776 1.776 0 00-1.368.744l-2.12 2.92a1.776 1.776 0 01-1.92.68l-2.264-.624a1.808 1.808 0 00-1.432.224l-2.265 1.449a1.832 1.832 0 01-.864.272l-4.8.264a1.6 1.6 0 00-.272 0l-6.928 1.48a2 2 0 01-.376.04h-4.065a1.768 1.768 0 01-1.048-.344l-1.056-.8a1.752 1.752 0 00-1.312-.328l-8.649 1.296a1.888 1.888 0 01-.6 0l-4.064-.8a1.6 1.6 0 00-.336 0h-7.8a1.92 1.92 0 00-.369 0l-7.912 1.68a1.72 1.72 0 01-.64 0l-4.713-.712a1.832 1.832 0 00-.88.096l-3.024 1.104a1.752 1.752 0 01-1.496-.128l-1.432-.8a1.728 1.728 0 00-1.208-.208l-7.2 1.368a1.768 1.768 0 01-.649 0l-3.464-.616a1.936 1.936 0 00-.568 0l-3.824.552a1.76 1.76 0 01-1.512-.496l-1.264-1.208a1.824 1.824 0 00-1.264-.52h-3.033a1.872 1.872 0 01-.304 0l-8.848-1.552a1.72 1.72 0 00-.728 0l-6.689 1.6a1.792 1.792 0 01-.416.048h-8.056a1.848 1.848 0 00-.369 0l-2.728.584a1.824 1.824 0 01-1.368-.16l-.752-.488a1.792 1.792 0 00-.96-.28h-4.872a1.768 1.768 0 00-.672.136l-3.409 1.392a1.752 1.752 0 01-1.472-.056l-1.808-.912a1.8 1.8 0 00-1.136-.16l-3.568.688a1.76 1.76 0 01-.736 0l-8.273-1.92h-.184l-7.032-.872a1.808 1.808 0 00-1.312.368l-4 3.104a1.744 1.744 0 00-.52.656l-.897 1.992a1.8 1.8 0 01-1.04.944l-3.072 1.048a1.68 1.68 0 01-.888.072l-6.833-1.216a1.792 1.792 0 00-1.528.456l-2.712 2.536a1.776 1.776 0 00-.56 1.304 1.776 1.776 0 01-1.536 1.76l-5.128.713a1.744 1.744 0 01-.576 0l-4.64-.88a1.792 1.792 0 00-.417 0l-7.752.351a1.832 1.832 0 01-.936-.216l-1.36-.744a1.696 1.696 0 00-.68-.216l-4.073-.408a1.824 1.824 0 00-.8.096l-4.8 1.704a1.824 1.824 0 01-.552.104l-6.825.185a1.656 1.656 0 00-.28 0l-11.56 2.136a1.872 1.872 0 01-.76 0l-3.937-1.008a2.08 2.08 0 00-.448-.056H48.717a1.696 1.696 0 01-.664-.128l-3.888-1.553a1.768 1.768 0 00-1.264 0l-3.617 1.289a1.768 1.768 0 00-1.184 1.672v.8a1.776 1.776 0 001.776 1.784h411.23a1.776 1.776 0 001.776-1.784l-.104-33.819a1.784 1.784 0 00-2.328-1.768z" opacity=".391" fill="url(#n)"/><circle cx="142.788" cy="757.84" r="5.6" fill="#fff" opacity=".58"/><circle cx="411.607" cy="722.637" r="5.6" fill="#fff" opacity=".58"/><circle cx="272.397" cy="760.24" r="5.6" fill="#fff" opacity=".58"/><circle cx="345.202" cy="740.239" r="5.6" fill="#fff" opacity=".58"/><path opacity=".58" fill="#fff" d="M14.779 845.806h468.033v.08H14.779z"/><circle cx="86.784" cy="845.846" r="4" opacity=".58" fill="#fff"/><circle cx="145.188" cy="845.846" r="4" opacity=".58" fill="#fff"/><circle cx="203.592" cy="845.846" r="4" opacity=".58" fill="#fff"/><circle cx="261.996" cy="845.846" r="4" opacity=".58" fill="#fff"/><circle cx="320.4" cy="845.846" r="4" opacity=".58" fill="#fff"/><circle cx="378.805" cy="845.846" r="4" opacity=".58" fill="#fff"/><circle cx="437.209" cy="845.846" r="4" opacity=".58" fill="#fff"/><path fill="url(#o)" opacity=".58" d="M767.72 429.424h111.775v2H767.72z"/><rect x="132.347" y="19.013" width="25.095" height="24.149" rx="3.164" ry="3.044" opacity=".58" fill="#d5f6ff" fill-opacity=".144"/><rect x="1656.566" y="224.914" width="25.095" height="24.149" rx="3.164" ry="3.044" fill="#d5f6ff" fill-opacity=".144"/><rect x="1686.193" y="224.914" width="25.095" height="24.149" rx="3.164" ry="3.044" fill="#d5f6ff" fill-opacity=".144"/><rect x="1627.316" y="192.234" width="25.095" height="24.149" rx="3.164" ry="3.044" opacity=".7" fill="#d5f6ff" fill-opacity=".144"/><rect x="1656.566" y="192.234" width="25.095" height="24.149" rx="3.164" ry="3.044" opacity=".7" fill="#d5f6ff" fill-opacity=".144"/><rect x="1686.193" y="192.234" width="25.095" height="24.149" rx="3.164" ry="3.044" opacity=".7" fill="#d5f6ff" fill-opacity=".144"/><rect x="1715.276" y="192.285" width="25.095" height="24.149" rx="3.164" ry="3.044" opacity=".7" fill="#d5f6ff" fill-opacity=".144"/><rect x="1532.004" y="158.36" width="25.095" height="24.149" rx="3.164" ry="3.044" opacity=".5" fill="#d5f6ff" fill-opacity=".144"/><rect x="1744.588" y="158.309" width="25.095" height="24.149" rx="3.164" ry="3.044" opacity=".5" fill="#d5f6ff" fill-opacity=".144"/><rect x="1715.276" y="158.36" width="25.095" height="24.149" rx="3.164" ry="3.044" opacity=".5" fill="#d5f6ff" fill-opacity=".144"/><rect x="1627.316" y="158.309" width="25.095" height="24.149" rx="3.164" ry="3.044" opacity=".5" fill="#d5f6ff" fill-opacity=".144"/><rect x="1656.566" y="158.309" width="25.095" height="24.149" rx="3.164" ry="3.044" opacity=".5" fill="#d5f6ff" fill-opacity=".144"/><rect x="1686.193" y="158.309" width="25.095" height="24.149" rx="3.164" ry="3.044" opacity=".5" fill="#d5f6ff" fill-opacity=".144"/><rect x="1621.764" y="120.101" width="25.095" height="24.149" rx="3.164" ry="3.044" opacity=".4" fill="#d5f6ff" fill-opacity=".144"/><rect x="1654.035" y="120.101" width="25.095" height="24.149" rx="3.164" ry="3.044" opacity=".4" fill="#d5f6ff" fill-opacity=".144"/><rect x="1584.9" y="120.907" width="25.095" height="24.149" rx="3.164" ry="3.044" opacity=".4" fill="#d5f6ff" fill-opacity=".144"/><rect x="1760.182" y="120.101" width="25.095" height="24.149" rx="3.164" ry="3.044" opacity=".4" fill="#d5f6ff" fill-opacity=".144"/><rect x="1689.703" y="120.101" width="25.095" height="24.149" rx="3.164" ry="3.044" opacity=".4" fill="#d5f6ff" fill-opacity=".144"/><rect x="1724.073" y="120.152" width="25.095" height="24.149" rx="3.164" ry="3.044" opacity=".4" fill="#d5f6ff" fill-opacity=".144"/><rect x="1620.12" y="82.551" width="25.095" height="24.149" rx="3.164" ry="3.044" opacity=".3" fill="#d5f6ff" fill-opacity=".144"/><rect x="1649.37" y="82.551" width="25.095" height="24.149" rx="3.164" ry="3.044" opacity=".3" fill="#d5f6ff" fill-opacity=".144"/><rect x="1561.724" y="82.551" width="25.095" height="24.149" rx="3.164" ry="3.044" opacity=".3" fill="#d5f6ff" fill-opacity=".144"/><rect x="1590.808" y="82.602" width="25.095" height="24.149" rx="3.164" ry="3.044" opacity=".3" fill="#d5f6ff" fill-opacity=".144"/><rect x="1748.72" y="82.551" width="25.095" height="24.149" rx="3.164" ry="3.044" opacity=".3" fill="#d5f6ff" fill-opacity=".144"/><rect x="1780.236" y="82.551" width="25.095" height="24.149" rx="3.164" ry="3.044" opacity=".3" fill="#d5f6ff" fill-opacity=".144"/><rect x="1685.038" y="82.551" width="25.095" height="24.149" rx="3.164" ry="3.044" opacity=".3" fill="#d5f6ff" fill-opacity=".144"/><rect x="1717.142" y="82.602" width="25.095" height="24.149" rx="3.164" ry="3.044" opacity=".3" fill="#d5f6ff" fill-opacity=".144"/><rect x="1613.332" y="44.377" width="25.095" height="24.149" rx="3.164" ry="3.044" opacity=".2" fill="#d5f6ff" fill-opacity=".144"/><rect x="1649.67" y="44.377" width="25.095" height="24.149" rx="3.164" ry="3.044" opacity=".2" fill="#d5f6ff" fill-opacity=".144"/><rect x="1543.982" y="44.377" width="25.095" height="24.149" rx="3.164" ry="3.044" opacity=".2" fill="#d5f6ff" fill-opacity=".144"/><rect x="1576.287" y="44.428" width="25.095" height="24.149" rx="3.164" ry="3.044" opacity=".2" fill="#d5f6ff" fill-opacity=".144"/><rect x="1753.704" y="44.377" width="25.095" height="24.149" rx="3.164" ry="3.044" opacity=".2" fill="#d5f6ff" fill-opacity=".144"/><rect x="1794.594" y="44.377" width="25.095" height="24.149" rx="3.164" ry="3.044" opacity=".2" fill="#d5f6ff" fill-opacity=".144"/><rect x="1684.977" y="44.377" width="25.095" height="24.149" rx="3.164" ry="3.044" opacity=".2" fill="#d5f6ff" fill-opacity=".144"/><rect x="1717.403" y="44.377" width="25.095" height="24.149" rx="3.164" ry="3.044" opacity=".2" fill="#d5f6ff" fill-opacity=".144"/><rect x="1601.823" y="-.73" width="25.095" height="24.149" rx="3.164" ry="3.044" opacity=".1" fill="#d5f6ff" fill-opacity=".144"/><rect x="766.732" y="164.393" width="25.095" height="24.149" rx="3.164" ry="3.044" opacity=".58" fill="#d5f6ff" fill-opacity=".144"/><rect x="1568" y="-.679" width="25.095" height="24.149" rx="3.164" ry="3.044" opacity=".1" fill="#d5f6ff" fill-opacity=".144"/><rect x="1769.453" y="-.73" width="25.095" height="24.149" rx="3.164" ry="3.044" opacity=".1" fill="#d5f6ff" fill-opacity=".144"/><rect x="1818.382" y="-2.019" width="25.095" height="24.149" rx="3.164" ry="3.044" opacity=".1" fill="#d5f6ff" fill-opacity=".144"/><rect x="1691.725" y="-.73" width="25.095" height="24.149" rx="3.164" ry="3.044" opacity=".1" fill="#d5f6ff" fill-opacity=".144"/><rect x="1728.541" y="-.679" width="25.095" height="24.149" rx="3.164" ry="3.044" opacity=".1" fill="#d5f6ff" fill-opacity=".144"/><rect ry="3.044" rx="3.164" height="24.149" width="25.095" y="237.311" x="600.199" fill="#d5f6ff" fill-opacity=".144" transform="translate(1070.345 19.373)"/><rect x="321.678" y="84.124" width="25.095" height="24.149" rx="3.164" ry="3.044" opacity=".58" fill="#d5f6ff" fill-opacity=".144"/><rect x="224.196" y="62.24" width="25.095" height="24.149" rx="3.164" ry="3.044" opacity=".58" fill="#d5f6ff" fill-opacity=".144"/><path d="M923.5 154.006a18.974 18.974 0 1018.975 18.974 19.03 19.03 0 00-18.974-18.974zm0 5.692a5.692 5.692 0 11-5.691 5.693 5.711 5.711 0 015.692-5.693zm0 27.403a13.822 13.822 0 01-11.383-6.075c.09-3.795 7.59-5.884 11.384-5.884 3.795 0 11.293 2.089 11.384 5.884a13.845 13.845 0 01-11.384 6.075z" fill="#fff" stroke="#fff" stroke-width=".949" opacity=".58"/><path d="M869.648 722.198a15.876 15.876 0 10-15.876-15.873 15.876 15.876 0 0015.876 15.873m0 3.921a19.796 19.796 0 1119.796-19.794 19.817 19.817 0 01-19.796 19.794z" fill="#fff" opacity=".58"/><path fill="#fff" opacity=".58" d="M866.716 730.75h4.64v-4.885h-4.64zm12.918-1.98l3.977-2.39-2.516-4.187-3.977 2.39zm9.882-8l2.25-4.06-4.273-2.367-2.25 4.058zm2.399-24.821l-2.459-3.935-4.143 2.589 2.46 3.935zm-37.863 22.455l-2.25-4.058-4.272 2.368 2.25 4.058zm-2.526-19.864l2.46-3.935-4.143-2.589-2.46 3.935zm10.65 26.041l-3.977-2.39-2.516 4.188 3.977 2.39zm4.54-37.797h4.64v-4.885h-4.64zm10.401 1.282l3.977 2.39 2.516-4.188-3.977-2.39zm-17.454-4.185l-3.977 2.39 2.516 4.188 3.977-2.39zm-14.927 24.397h5.618v-4.151h-5.618zm49.823-4.151h-5.618v4.151h5.618zm11.969 46.648a15.876 15.876 0 10-15.875-15.874 15.876 15.876 0 0015.875 15.874m0 3.92a19.796 19.796 0 1119.797-19.794 19.817 19.817 0 01-19.797 19.794z"/><path fill="#fff" opacity=".58" d="M903.597 759.324h4.64v-4.885h-4.64zm12.92-1.976l3.977-2.39-2.516-4.187-3.977 2.39zm9.881-8.002l2.25-4.058-4.273-2.369-2.25 4.059zm2.398-24.822l-2.46-3.935-4.142 2.589 2.459 3.935zm-37.865 22.453l-2.25-4.058-4.272 2.368 2.25 4.059zm-2.525-19.863l2.46-3.935-4.144-2.589-2.458 3.935zm10.652 26.045l-3.978-2.39-2.516 4.187 3.978 2.39zm4.539-37.798h4.64v-4.885h-4.64zm10.401 1.281l3.977 2.39 2.516-4.188-3.977-2.39zm-17.456-4.184l-3.977 2.39 2.516 4.187 3.977-2.39zm-14.927 24.396h5.618v-4.151h-5.618zm49.827-4.151h-5.618v4.151h5.618zm-98.684 19.294h.56a15.876 15.876 0 00-.54-31.743h-.562a15.876 15.876 0 00.542 31.743m0 3.92a19.796 19.796 0 01-.678-39.58c.23 0 .46-.012.691-.012a19.796 19.796 0 01.676 39.581c-.23 0-.461.012-.692.012z"/><path fill="#fff" opacity=".58" d="M830.684 760.63l4.637-.162-.17-4.882-4.637.161zm12.836-2.426l3.893-2.527-2.66-4.097-3.892 2.526zm9.603-8.336l2.107-4.134-4.352-2.219-2.107 4.134zm1.539-24.883l-2.594-3.847-4.05 2.73 2.594 3.848zm-37.066 23.751l-2.389-3.978-4.187 2.515 2.389 3.978zm-3.538-20.129l2.32-4.037-4.249-2.442-2.32 4.037zm11.881 26.026l-4.058-2.25-2.37 4.272 4.059 2.25zm3.219-37.938l4.638-.161-.17-4.883-4.637.162zm10.444.917l4.058 2.25 2.369-4.272-4.058-2.25zm-17.589-3.574l-3.891 2.527 2.66 4.097 3.891-2.526zm-14.075 24.899l5.615-.195-.145-4.149-5.614.195zm49.654-5.873l-5.615.195.144 4.149 5.615-.195z"/><path opacity=".58" fill="url(#p)" d="M763.533 564.757h91.638v1.897h-91.638z"/><circle cx="871.025" cy="563.716" r="15.179" opacity=".58" fill="#fff"/><path d="M916.035 707.34c-4.544-22.397-24.021-39.27-47.716-39.27-18.828 0-35.059 10.71-43.176 26.285-19.477 1.948-34.732 18.502-34.732 38.637 0 21.422 17.526 38.954 38.954 38.954h84.4c17.852 0 32.461-14.609 32.461-32.461.071-17.033-13.187-31.15-30.19-32.145z" opacity=".58" fill="none" stroke="url(#q)" stroke-width="1.517"/><path d="M561.544 433.393c-22.73-1.789-37.292-3.717-52.762-6.986-43.883-9.273-75.284-26.298-80.983-43.908-1.084-3.35-1.147-5.244-1.178-35.179-.018-17.4.119-31.637.303-31.637s1.408.994 2.72 2.209c33.28 30.828 116.398 46.601 201.222 38.186 47.152-4.678 88.18-18.587 109.135-36.996 2.128-1.87 3.99-3.4 4.137-3.4.147 0 .267 14.409.267 32.018 0 37.161.257 35.315-6.01 43.302-15.21 19.387-57.315 34.968-110.667 40.954-10.096 1.133-57.089 2.153-66.184 1.437z" opacity=".58" fill="url(#r)" stroke="url(#s)" stroke-width=".666"/><path d="M561.544 527.536c-22.73-1.79-37.292-3.717-52.762-6.986-43.883-9.274-75.284-26.299-80.983-43.909-1.084-3.35-1.147-5.244-1.178-35.178-.018-17.401.119-31.638.303-31.638s1.408.994 2.72 2.21c33.28 30.827 116.398 46.6 201.222 38.185 47.152-4.678 88.18-18.586 109.135-36.996 2.128-1.87 3.99-3.399 4.137-3.399.147 0 .267 14.408.267 32.018 0 37.16.257 35.314-6.01 43.301-15.21 19.387-57.315 34.969-110.667 40.955-10.096 1.132-57.089 2.153-66.184 1.437z" opacity=".58" fill="url(#t)" stroke="url(#u)" stroke-width=".666"/><path d="M561.544 624.715c-22.73-1.79-37.292-3.717-52.762-6.986-43.883-9.273-75.284-26.299-80.983-43.908-1.084-3.35-1.147-5.244-1.178-35.18-.018-17.4.119-31.637.303-31.637s1.408.994 2.72 2.21c33.28 30.828 116.398 46.601 201.222 38.186 47.152-4.679 88.18-18.587 109.135-36.997 2.128-1.87 3.99-3.399 4.137-3.399.147 0 .267 14.408.267 32.018 0 37.16.257 35.315-6.01 43.302-15.21 19.386-57.315 34.968-110.667 40.954-10.096 1.132-57.089 2.153-66.184 1.437z" opacity=".58" fill="url(#v)" stroke="url(#w)" stroke-width=".666"/><rect x="889.571" y="389.311" width="25.095" height="24.149" rx="3.164" ry="3.044" opacity=".58" fill="#d5f6ff" fill-opacity=".144"/><rect x="889.571" y="419.46" width="25.095" height="24.149" rx="3.164" ry="3.044" opacity=".58" fill="#d5f6ff" fill-opacity=".144"/><rect x="889.571" y="449.609" width="25.095" height="24.149" rx="3.164" ry="3.044" opacity=".58" fill="#d5f6ff" fill-opacity=".144"/><rect x="920.666" y="389.311" width="25.095" height="24.149" rx="3.164" ry="3.044" opacity=".58" fill="#d5f6ff" fill-opacity=".144"/><rect x="920.666" y="419.46" width="25.095" height="24.149" rx="3.164" ry="3.044" opacity=".58" fill="#d5f6ff" fill-opacity=".144"/><rect x="920.666" y="449.609" width="25.095" height="24.149" rx="3.164" ry="3.044" opacity=".58" fill="#d5f6ff" fill-opacity=".144"/><rect x="951.761" y="389.311" width="25.095" height="24.149" rx="3.164" ry="3.044" opacity=".58" fill="#d5f6ff" fill-opacity=".144"/><rect x="951.761" y="419.46" width="25.095" height="24.149" rx="3.164" ry="3.044" opacity=".58" fill="#d5f6ff" fill-opacity=".144"/><rect x="951.761" y="449.609" width="25.095" height="24.149" rx="3.164" ry="3.044" opacity=".58" fill="#d5f6ff" fill-opacity=".144"/><rect x="982.856" y="389.311" width="25.095" height="24.149" rx="3.164" ry="3.044" opacity=".58" fill="#d5f6ff" fill-opacity=".144"/><rect x="982.856" y="419.46" width="25.095" height="24.149" rx="3.164" ry="3.044" opacity=".58" fill="#d5f6ff" fill-opacity=".144"/><rect x="982.856" y="449.609" width="25.095" height="24.149" rx="3.164" ry="3.044" opacity=".58" fill="#d5f6ff" fill-opacity=".144"/><rect x="1013.951" y="389.311" width="25.095" height="24.149" rx="3.164" ry="3.044" opacity=".58" fill="#d5f6ff" fill-opacity=".144"/><rect x="1013.951" y="419.46" width="25.095" height="24.149" rx="3.164" ry="3.044" opacity=".58" fill="#d5f6ff" fill-opacity=".144"/><rect x="1013.951" y="449.609" width="25.095" height="24.149" rx="3.164" ry="3.044" opacity=".58" fill="#d5f6ff" fill-opacity=".144"/><path opacity=".58" fill="url(#x)" d="M269.507 430.47h156.294v1.897H269.507z"/><path transform="rotate(90)" opacity=".58" fill="url(#y)" d="M330.253-253.11h86.802v1.897h-86.802z"/><path transform="rotate(90 -89.898 -13.51)" fill="url(#z)" d="M387.023-264.549h86.802v1.897h-86.802z" opacity=".58"/><path transform="rotate(90)" opacity=".58" fill="url(#A)" d="M198.524-924.047h73.871v1.897h-73.871z"/><path transform="rotate(-90)" opacity=".58" fill="url(#B)" d="M-652.462 869.594h73.871v1.897h-73.871z"/><rect x="831.149" y="113.68" width="25.095" height="24.149" rx="3.164" ry="3.044" opacity=".58" fill="#d5f6ff" fill-opacity=".144"/><rect x="949.602" y="75.96" width="25.095" height="24.149" rx="3.164" ry="3.044" opacity=".58" fill="#d5f6ff" fill-opacity=".144"/><rect x="898.329" y="97.816" width="25.095" height="24.149" rx="3.164" ry="3.044" opacity=".58" fill="#d5f6ff" fill-opacity=".144"/><rect x="848.452" y="59.59" width="25.095" height="24.149" rx="3.164" ry="3.044" opacity=".58" fill="#d5f6ff" fill-opacity=".144"/><rect x="898.589" y="59.59" width="25.095" height="24.149" rx="3.164" ry="3.044" opacity=".58" fill="#d5f6ff" fill-opacity=".144"/></svg>