<svg xmlns="http://www.w3.org/2000/svg" viewBox="0 0 512 512"><defs><marker orient="auto" refY="0" refX="0" id="a" overflow="visible"><path d="M0 0l5-5-17.5 5L5 5 0 0z" transform="matrix(.8 0 0 .8 10 0)" fill-rule="evenodd" stroke-width="1pt" fill="#00aad4"/></marker></defs><path d="M472.95 266.847c0 117.422-95.19 212.61-212.611 212.61-117.421 0-212.61-95.188-212.61-212.61 0-117.421 95.189-212.61 212.61-212.61 108.379 0 197.814 81.096 210.944 185.917a210.781 210.781 0 011.631 23.075c.027 1.206.035 2.413.035 3.618z" fill="#00aad4" marker-end="url(#a)"/><g fill="#f2f2f2"><path d="M472.914 263.229c-18.154 22.111-53.725 20.385-53.725 20.385-21.938 94.512-154.425 142.614-246.411 118.983C80.8 378.975 93.453 269.268 93.453 269.268h269.2c22.215 0 23.907-6.75 23.907-6.75-19.69-46.697 10.692-71.733 10.692-71.733 23.63 4.227 29.53 44.727 29.53 44.727 19.396-3.48 34.973.659 44.501 4.642a210.779 210.779 0 011.631 23.075z"/><path d="M122.142 226.512h37.697v34.317h-37.697zm47.373 0h37.697v34.317h-37.697zm142.102 0h37.697v34.317h-37.697zm-47.365 0h37.697v34.317h-37.697zm0-87.76h37.697v34.317h-37.697zm-47.372 87.76h37.696v34.317H216.88zm-47.365-43.884h37.697v34.317h-37.697zm94.737 0h37.697v34.317h-37.697zm-47.372 0h37.696v34.317H216.88z"/></g></svg>