<svg height="512" viewBox="0 0 60 60" width="512" xmlns="http://www.w3.org/2000/svg"><path d="M30 0C13.431 0 0 13.431 0 30s13.431 30 30 30 30-13.431 30-30C59.981 13.44 46.56.019 30 0zm0 58C14.536 58 2 45.464 2 30S14.536 2 30 2s28 12.536 28 28c-.018 15.457-12.543 27.982-28 28z"/><path d="M24 25a1 1 0 00-1-1h-4c-.544.02-.98.456-1 1v4a1 1 0 002 0v-1.408a13.612 13.612 0 005.03 2.708 4.977 4.977 0 009.937.027c3.421-.843 7.4-2.633 9.739-6.378l.324 1.295a1 1 0 001.941-.487l-1-4a1.012 1.012 0 00-1.213-.727l-4 1a1 1 0 10.486 1.94l2.025-.506c-1.916 3.421-5.476 5.065-8.577 5.862a4.972 4.972 0 00-9.372-.03A11.441 11.441 0 0121.214 26H23a1 1 0 001-1zm6 2a3 3 0 110 6 3 3 0 010-6zm-9.074 12.623a1 1 0 00-1.855.749C19.164 40.6 21.421 46 30 46a1 1 0 000-2c-7.148 0-8.994-4.186-9.074-4.377zM28 19v-4a1 1 0 00-2 0v4a1 1 0 002 0zm6 0v-4a1 1 0 00-2 0v4a1 1 0 002 0z"/><path d="M51.61 17.454a25.177 25.177 0 00-9.064-9.064c-.017-.012-.027-.03-.046-.041s-.04-.01-.059-.02A24.881 24.881 0 0017.6 8.317a.9.9 0 00-.1.032.9.9 0 00-.086.076 25.179 25.179 0 00-2.667 1.784 1 1 0 101.226 1.582c.544-.422 1.1-.813 1.678-1.181l.983 1.7a1 1 0 101.732-1l-.986-1.704A22.656 22.656 0 0129 7.04V9a1 1 0 002 0V7.025a22.823 22.823 0 019.618 2.583l-.984 1.705a1 1 0 101.732 1l.983-1.7a23.176 23.176 0 017.04 7.04l-1.7.983a1 1 0 101 1.732l1.705-.984A22.823 22.823 0 0152.975 29H51a1 1 0 000 2h1.975a22.823 22.823 0 01-2.583 9.618l-1.705-.984a1 1 0 10-1 1.732l1.7.983a23.176 23.176 0 01-7.04 7.04l-.983-1.7a1 1 0 10-1.732 1l.984 1.705A22.823 22.823 0 0131 52.975V51a1 1 0 00-2 0v1.975a22.823 22.823 0 01-9.618-2.583l.984-1.705a1 1 0 10-1.732-1l-.983 1.7a23.176 23.176 0 01-7.04-7.04l1.7-.983a1 1 0 10-1-1.732l-1.7.984A22.823 22.823 0 017.025 31H9a1 1 0 000-2H7.043a23.013 23.013 0 012.581-9.609l1.689.975a1 1 0 101-1.732l-1.689-.976c.44-.703.92-1.382 1.436-2.032a1 1 0 10-1.56-1.252 24.87 24.87 0 00-2.055 3.017.913.913 0 00-.1.109.96.96 0 00-.036.107 24.874 24.874 0 00.016 24.834c.01.019.009.04.02.059s.038.047.055.072a25.185 25.185 0 009.05 9.038c.017.012.027.03.046.041s.058.022.087.036a24.911 24.911 0 0024.826 0c.029-.014.059-.02.087-.036s.029-.029.046-.041a25.185 25.185 0 009.05-9.038c.017-.025.039-.045.055-.072s.01-.04.02-.059a24.911 24.911 0 000-24.882c-.01-.019-.009-.04-.02-.059s-.025-.029-.037-.046z"/></svg>