<svg xmlns="http://www.w3.org/2000/svg" viewBox="0 0 1000 1000"><path d="M617.7 771.7c13 0 23.6-10.6 23.6-23.6V307.4c0-13-10.6-23.6-23.6-23.6-13 0-23.6 10.6-23.6 23.6v440.8c0 13 10.5 23.5 23.6 23.5zm-234.3 0c13 0 23.6-10.6 23.6-23.6V307.4c0-13-10.6-23.6-23.6-23.6s-23.6 10.6-23.6 23.6v440.8c0 13 10.6 23.5 23.6 23.5z"/><path d="M966.4 86.9H643.1L593.2 37c-4.7-4.7-10.3-8.6-16.8-11.2-6.5-2.7-13.2-3.9-19.8-3.9h-112c-6.8 0-13.7 1.3-20.3 4.1-6.7 2.8-12.4 6.9-17.1 11.8l-46.9 49.1H33.6c-13 0-23.6 10.6-23.6 23.6 0 13 10.6 23.6 23.6 23.6H91l74.5 770c.3 19.7 8.1 38.1 22.1 52.1 14.2 14.2 33.2 22.1 53.3 22.1h518.2c20.1 0 39.1-7.8 53.3-22.1 13.9-14 21.8-32.4 22.1-52.1L909 134h57.4c13 0 23.6-10.6 23.6-23.6s-10.6-23.5-23.6-23.5zM787.5 900.5l-.1 1.1v1.1c0 7.5-2.9 14.6-8.3 20-5.3 5.3-12.4 8.3-20 8.3H240.9c-7.5 0-14.6-2.9-20-8.3-5.3-5.3-8.3-12.4-8.3-20v-1.1L138.3 134h723.3l-74.1 766.5z"/><path d="M521.186 437.125l411.2-411.2 24.4-24.4 54.4 54.4-24.4 24.4-411.2 411.2 411.2 411.2 24.4 24.4-54.4 54.4-24.4-24.4-411.2-411.2-411.2 411.2-24.4 24.4-54.4-54.4 24.4-24.4 411.2-411.2-411.2-411.2-24.4-24.4 54.4-54.4 24.4 24.4z"/></svg>