<svg xmlns="http://www.w3.org/2000/svg" height="512" viewBox="0 0 24 24" width="512"><path d="M11.951 2.966c-5.479 0-9.917 4.364-9.917 9.746 0 4.306 2.841 7.958 6.781 9.246.496.092.678-.21.678-.468 0-.232-.009-.845-.013-1.658-2.758.588-3.34-1.307-3.34-1.307-.452-1.125-1.104-1.426-1.104-1.426-.898-.604.07-.591.07-.591.996.067 1.519 1.004 1.519 1.004.884 1.49 2.321 1.06 2.888.81.09-.63.345-1.059.628-1.303-2.202-.244-4.517-1.082-4.517-4.816 0-1.063.384-1.933 1.02-2.614-.11-.247-.446-1.238.087-2.58 0 0 .831-.261 2.728 1a9.682 9.682 0 012.48-.33 9.682 9.682 0 012.479.33c1.884-1.261 2.714-1 2.714-1 .534 1.342.199 2.333.1 2.58a3.738 3.738 0 011.016 2.614c0 3.744-2.318 4.568-4.525 4.808.347.292.67.89.67 1.803 0 1.304-.013 2.352-.013 2.669 0 .255.174.56.682.463 3.968-1.28 6.807-4.934 6.807-9.234 0-5.382-4.44-9.746-9.918-9.746z" fill="#08a"/></svg>