<svg xmlns="http://www.w3.org/2000/svg" viewBox="0 0 1000 1000"><path d="M754.2 949.2c-130.2 0-235.7-68.4-235.7-134.4v-68.1c0-4.9 3.2-10.1 9.2-.3 28.4 46.5 119.1 80.4 226.5 80.4 107.5 0 198.1-33.9 226.6-80.4 5.9-9.8 9.2-4.5 9.2.3v68.1c0 66-105.5 134.4-235.8 134.4zm0-188.1c-130.2 0-235.7-48.6-235.7-108.6v-80.2c0-3.9 3-8.5 8.9 0 27.9 41 118.9 71.1 226.9 71.1s199-30.1 226.9-71.1c5.7-8.5 8.9-3.9 8.9 0v80.2c-.1 60-105.6 108.6-235.9 108.6zm0-183.4c-130.2 0-235.7-42.6-235.7-95v-42.9c0-49.5 105.5-89.6 235.7-89.6S990 390.3 990 439.8v42.8c0 52.6-105.5 95.1-235.8 95.1zm-508.4 72.1C115.6 649.8 10 581.3 10 515.3v-68.1c0-4.9 3.2-10.1 9.2-.3 28.4 46.4 119.1 80.4 226.5 80.4 107.5 0 198.1-33.9 226.6-80.4 6-9.9 9.2-4.5 9.2.3v68.1c0 66-105.5 134.5-235.7 134.5zm0-188.2C115.6 461.6 10 413 10 353v-80.2c0-3.8 3.1-8.4 8.9 0 27.9 41 119 71.1 226.9 71.1s199-30.1 226.9-71.1c5.8-8.5 8.9-3.9 8.9 0V353c-.1 60-105.6 108.6-235.8 108.6zm0-183.4c-130.2 0-235.8-42.5-235.8-95v-42.9c0-49.4 105.6-89.6 235.8-89.6 130.2 0 235.8 40.1 235.8 89.6v42.8c-.1 52.6-105.6 95.1-235.8 95.1z"/></svg>