<svg xmlns="http://www.w3.org/2000/svg" data-name="Layer 1" width="1800" height="700" viewBox="0 0 1800 700"><path fill="#44b700" fill-opacity=".749" d="M179.716 563.657h7.755v7.755h-7.755z"/><path opacity=".2" fill="#44b700" fill-opacity=".749" d="M139.166 565.941h7.755v7.755h-7.755zm68.79 8.22h7.755v7.755h-7.755zm52.71-8.677h7.755v7.755h-7.755z"/><path opacity=".7" fill="#44b700" fill-opacity=".749" d="M60.766 586.724h7.755v7.755h-7.755z"/><path fill="#44b700" fill-opacity=".749" d="M102.534 566.629h7.755v7.755h-7.755z"/><path opacity=".4" fill="#44b700" fill-opacity=".749" d="M183.922 602.708h7.755v7.755h-7.755zm-5.844-16.898h7.755v7.755h-7.755zm57.28 3.654h7.755v7.755h-7.755zM75.151 623.259h7.755v7.755h-7.755z"/><path fill="#44b700" fill-opacity=".749" d="M160.534 594.722h7.755v7.755h-7.755z"/><path opacity=".2" fill="#44b700" fill-opacity=".749" d="M203.56 599.289h7.755v7.755h-7.755zm-65.574 7.764h7.755v7.755h-7.755z"/><path opacity=".4" fill="#44b700" fill-opacity=".749" d="M102.63 607.284h7.755v7.755h-7.755zm-63.387-5.024h7.755v7.755h-7.755z"/><path opacity=".2" fill="#44b700" fill-opacity=".749" d="M113.781 586.286h7.755v7.755h-7.755z"/><path opacity=".4" fill="#44b700" fill-opacity=".749" d="M42.001 551.952h7.755v7.755h-7.755z"/><path opacity=".2" fill="#44b700" fill-opacity=".749" d="M39.52 629.9h7.755v7.755H39.52z"/><path fill="#44b700" fill-opacity=".749" d="M46.007 644.058h7.755v7.755h-7.755z"/><path opacity=".2" fill="#44b700" fill-opacity=".749" d="M67.208 644.058h7.755v7.755h-7.755z"/><path opacity=".4" fill="#44b700" fill-opacity=".749" d="M140.447 640.67h7.755v7.755h-7.755z"/><path opacity=".2" fill="#44b700" fill-opacity=".749" d="M111.065 657.373h7.755v7.755h-7.755zm-20.179-24.852h7.755v7.755h-7.755z"/><path fill="#44b700" fill-opacity=".749" d="M1603.429 567.18h7.755v7.755h-7.755z"/><path opacity=".2" fill="#44b700" fill-opacity=".749" d="M1699.053 560.31h7.755v7.755h-7.755zm-43.88 1.215h7.755v7.755h-7.755z"/><path opacity=".4" fill="#44b700" fill-opacity=".749" d="M1590.041 588.598h7.755v7.755h-7.755zm82.251 15.405h7.755v7.755h-7.755z"/><path opacity=".2" fill="#44b700" fill-opacity=".749" d="M1720.347 599.139h7.755v7.755h-7.755zm-70.595 29.674h7.755v7.755h-7.755z"/><path opacity=".4" fill="#44b700" fill-opacity=".749" d="M1660.449 657.816h7.755v7.755h-7.755z"/><path opacity=".2" fill="#44b700" fill-opacity=".749" d="M1706.618 643.127h7.755v7.755h-7.755z"/><path fill="#44b700" fill-opacity=".749" d="M83.667 279.601h7.755v7.755h-7.755z"/><path opacity=".2" fill="#44b700" fill-opacity=".749" d="M43.117 281.884h7.755v7.755h-7.755zm9.015 153.362h7.755v7.755h-7.755zm59.776-145.141h7.755v7.755h-7.755zm52.709-8.677h7.755v7.755h-7.755z"/><path fill="#44b700" fill-opacity=".749" d="M171.104 295.585h7.755v7.755h-7.755z"/><path opacity=".2" fill="#44b700" fill-opacity=".749" d="M192.305 295.585h7.755v7.755h-7.755z"/><path fill="#44b700" fill-opacity=".749" d="M6.485 282.573h7.755v7.755H6.485z"/><path opacity=".4" fill="#44b700" fill-opacity=".749" d="M87.873 318.652h7.755v7.755h-7.755zm-5.843-16.898h7.755v7.755H82.03zm57.279 3.653h7.755v7.755h-7.755z"/><path opacity=".2" fill="#44b700" fill-opacity=".749" d="M160.507 305.407h7.755v7.755h-7.755zm55.09-.913h7.755v7.755h-7.755z"/><path fill="#44b700" fill-opacity=".749" d="M64.486 310.666h7.755v7.755h-7.755z"/><path opacity=".2" fill="#44b700" fill-opacity=".749" d="M107.511 315.233h7.755v7.755h-7.755zm-65.574 7.763h7.755v7.755h-7.755zm107.97-7.763h7.755v7.755h-7.755z"/><path opacity=".7" fill="#44b700" fill-opacity=".749" d="M182.885 327.107h7.755v7.755h-7.755z"/><path opacity=".4" fill="#44b700" fill-opacity=".749" d="M6.582 323.228h7.755v7.755H6.582z"/><path opacity=".2" fill="#44b700" fill-opacity=".749" d="M17.732 302.229h7.755v7.755h-7.755zm198.251-18.181h7.755v7.755h-7.755zm-217.2 140.141h7.755v7.755h-7.755z"/><path opacity=".4" fill="#44b700" fill-opacity=".749" d="M9.48 453.192h7.755v7.755H9.48z"/><path fill="#44b700" fill-opacity=".749" d="M237.352 312.829h7.755v7.755h-7.755z"/><path opacity=".2" fill="#44b700" fill-opacity=".749" d="M214.803 325.16h7.755v7.755h-7.755z"/><path fill="#44b700" fill-opacity=".749" d="M213.595 352.831h7.755v7.755h-7.755z"/><path opacity=".2" fill="#44b700" fill-opacity=".749" d="M173.046 355.114h7.755v7.755h-7.755zm68.79 8.221h7.755v7.755h-7.755z"/><path opacity=".7" fill="#44b700" fill-opacity=".749" d="M94.646 375.897h7.755v7.755h-7.755z"/><path fill="#44b700" fill-opacity=".749" d="M136.414 355.803h7.755v7.755h-7.755z"/><path opacity=".4" fill="#44b700" fill-opacity=".749" d="M211.958 374.984h7.755v7.755h-7.755zm-167.56-18.371h7.755v7.755h-7.755z"/><path opacity=".2" fill="#44b700" fill-opacity=".749" d="M15.016 373.317h7.755v7.755h-7.755z"/><path fill="#44b700" fill-opacity=".749" d="M194.414 383.896h7.755v7.755h-7.755z"/><path opacity=".2" fill="#44b700" fill-opacity=".749" d="M70.413 499.248h7.755v7.755h-7.755z"/><path opacity=".4" fill="#44b700" fill-opacity=".749" d="M35.058 499.48h7.755v7.755h-7.755zm24.11-116.125h7.755v7.755h-7.755z"/><path opacity=".2" fill="#44b700" fill-opacity=".749" d="M147.661 375.459h7.755v7.755h-7.755z"/><path opacity=".4" fill="#44b700" fill-opacity=".749" d="M75.881 341.126h7.755v7.755h-7.755z"/><path fill="#44b700" fill-opacity=".749" d="M110.207 426.435h7.755v7.755h-7.755z"/><path opacity=".2" fill="#44b700" fill-opacity=".749" d="M205.831 419.566h7.755v7.755h-7.755zm-43.881 1.215h7.755v7.755h-7.755z"/><path opacity=".4" fill="#44b700" fill-opacity=".749" d="M103.396 483.847h7.755v7.755h-7.755zm-6.578-35.994h7.755v7.755h-7.755zm82.252 15.405h7.755v7.755h-7.755z"/><path fill="#44b700" fill-opacity=".749" d="M55.037 469.985h7.755v7.755h-7.755z"/><path opacity=".2" fill="#44b700" fill-opacity=".749" d="M104.673 520.089h7.755v7.755h-7.755zm122.451-61.695h7.755v7.755h-7.755zm-70.594 29.674h7.755v7.755h-7.755z"/><path opacity=".4" fill="#44b700" fill-opacity=".749" d="M167.226 517.072h7.755v7.755h-7.755z"/><path opacity=".2" fill="#44b700" fill-opacity=".749" d="M213.396 502.382h7.755v7.755h-7.755z"/><path fill="#44b700" fill-opacity=".749" d="M405.917 429.656h7.755v7.755h-7.755z"/><path opacity=".2" fill="#44b700" fill-opacity=".749" d="M365.367 431.94h7.755v7.755h-7.755zm68.791 8.22h7.755v7.755h-7.755z"/><path opacity=".7" fill="#44b700" fill-opacity=".749" d="M286.967 452.723h7.755v7.755h-7.755z"/><path fill="#44b700" fill-opacity=".749" d="M328.735 432.628h7.755v7.755h-7.755z"/><path opacity=".4" fill="#44b700" fill-opacity=".749" d="M410.123 468.707h7.755v7.755h-7.755zm-5.843-16.898h7.755v7.755h-7.755zm-102.928 37.449h7.755v7.755h-7.755z"/><path fill="#44b700" fill-opacity=".749" d="M386.736 460.721h7.755v7.755h-7.755z"/><path opacity=".2" fill="#44b700" fill-opacity=".749" d="M429.761 465.288h7.755v7.755h-7.755zm-65.574 7.764h7.755v7.755h-7.755z"/><path opacity=".4" fill="#44b700" fill-opacity=".749" d="M328.832 473.283h7.755v7.755h-7.755zm-63.388-5.023h7.755v7.755h-7.755z"/><path opacity=".2" fill="#44b700" fill-opacity=".749" d="M339.982 452.285h7.755v7.755h-7.755z"/><path opacity=".4" fill="#44b700" fill-opacity=".749" d="M268.202 417.951h7.755v7.755h-7.755z"/><path opacity=".2" fill="#44b700" fill-opacity=".749" d="M265.722 495.899h7.755v7.755h-7.755z"/><path fill="#44b700" fill-opacity=".749" d="M272.209 510.057h7.755v7.755h-7.755z"/><path opacity=".2" fill="#44b700" fill-opacity=".749" d="M293.409 510.057h7.755v7.755h-7.755z"/><path opacity=".4" fill="#44b700" fill-opacity=".749" d="M366.648 506.669h7.755v7.755h-7.755z"/><path opacity=".2" fill="#44b700" fill-opacity=".749" d="M337.266 523.372h7.755v7.755h-7.755z"/><path opacity=".4" fill="#44b700" fill-opacity=".749" d="M398.131 491.181h7.755v7.755h-7.755z"/><path fill="#44b700" fill-opacity=".749" d="M1405.362 261.67h7.755v7.755h-7.755z"/><path opacity=".2" fill="#44b700" fill-opacity=".749" d="M317.088 498.52h7.755v7.755h-7.755zm1183.898-243.719h7.755v7.755h-7.755zm-43.88 1.215h7.755v7.755h-7.755z"/><path opacity=".4" fill="#44b700" fill-opacity=".749" d="M1474.225 298.494h7.755v7.755h-7.755z"/><path opacity=".2" fill="#44b700" fill-opacity=".749" d="M1451.685 323.304h7.755v7.755h-7.755zm56.866 14.314h7.755v7.755h-7.755zm-88.217 77.638h7.755v7.755h-7.755zm-43.88 1.215h7.755v7.755h-7.755zm65.174 37.614h7.755v7.755h-7.755zm-13.729 43.988h7.755v7.755h-7.755z"/><path fill="#44b700" fill-opacity=".749" d="M412.542 286.146h7.755v7.755h-7.755z"/><path opacity=".2" fill="#44b700" fill-opacity=".749" d="M371.992 288.429h7.755v7.755h-7.755zm68.79 8.221h7.755v7.755h-7.755zm52.71-8.677h7.755v7.755h-7.755z"/><path fill="#44b700" fill-opacity=".749" d="M499.979 302.13h7.755v7.755h-7.755z"/><path opacity=".2" fill="#44b700" fill-opacity=".749" d="M521.18 302.13h7.755v7.755h-7.755z"/><path opacity=".7" fill="#44b700" fill-opacity=".749" d="M293.592 309.212h7.755v7.755h-7.755z"/><path fill="#44b700" fill-opacity=".749" d="M335.36 289.117h7.755v7.755h-7.755z"/><path opacity=".4" fill="#44b700" fill-opacity=".749" d="M416.748 325.196h7.755v7.755h-7.755zm-5.844-16.897h7.755v7.755h-7.755zm57.28 3.653h7.755v7.755h-7.755zm-160.207 33.796h7.755v7.755h-7.755z"/><path opacity=".2" fill="#44b700" fill-opacity=".749" d="M489.382 311.952h7.755v7.755h-7.755z"/><path fill="#44b700" fill-opacity=".749" d="M393.36 317.21h7.755v7.755h-7.755z"/><path opacity=".2" fill="#44b700" fill-opacity=".749" d="M436.386 321.777h7.755v7.755h-7.755zm-65.574 7.764h7.755v7.755h-7.755zm107.969-7.764h7.755v7.755h-7.755z"/><path opacity=".7" fill="#44b700" fill-opacity=".749" d="M511.76 333.651h7.755v7.755h-7.755z"/><path opacity=".4" fill="#44b700" fill-opacity=".749" d="M335.456 329.773h7.755v7.755h-7.755zm-63.387-5.024h7.755v7.755h-7.755z"/><path opacity=".2" fill="#44b700" fill-opacity=".749" d="M346.607 308.774h7.755v7.755h-7.755z"/><path opacity=".4" fill="#44b700" fill-opacity=".749" d="M274.827 274.441h7.755v7.755h-7.755z"/><path opacity=".2" fill="#44b700" fill-opacity=".749" d="M501.921 361.659h7.755v7.755h-7.755zm-229.575-9.27h7.755v7.755h-7.755z"/><path fill="#44b700" fill-opacity=".749" d="M278.833 366.546h7.755v7.755h-7.755z"/><path opacity=".2" fill="#44b700" fill-opacity=".749" d="M300.034 366.546h7.755v7.755h-7.755z"/><path opacity=".7" fill="#44b700" fill-opacity=".749" d="M423.521 382.442h7.755v7.755h-7.755z"/><path fill="#44b700" fill-opacity=".749" d="M465.289 362.347h7.755v7.755h-7.755z"/><path opacity=".4" fill="#44b700" fill-opacity=".749" d="M373.273 363.158h7.755v7.755h-7.755z"/><path opacity=".2" fill="#44b700" fill-opacity=".749" d="M343.891 379.862h7.755v7.755h-7.755z"/><path fill="#44b700" fill-opacity=".749" d="M523.289 390.44h7.755v7.755h-7.755z"/><path opacity=".4" fill="#44b700" fill-opacity=".749" d="M388.043 389.9h7.755v7.755h-7.755z"/><path opacity=".2" fill="#44b700" fill-opacity=".749" d="M476.535 382.004h7.755v7.755h-7.755z"/><path opacity=".4" fill="#44b700" fill-opacity=".749" d="M404.755 347.671h7.755v7.755h-7.755z"/><path opacity=".2" fill="#44b700" fill-opacity=".749" d="M323.712 355.009h7.755v7.755h-7.755zm983.221-76.644h7.755v7.755h-7.755zm-43.88 1.215h7.755v7.755h-7.755z"/><path opacity=".4" fill="#44b700" fill-opacity=".749" d="M1280.172 322.057h7.755v7.755h-7.755z"/><path opacity=".2" fill="#44b700" fill-opacity=".749" d="M1328.227 317.193h7.755v7.755h-7.755zm-70.595 29.674h7.755v7.755h-7.755z"/><path opacity=".4" fill="#44b700" fill-opacity=".749" d="M1268.329 375.871h7.755v7.755h-7.755z"/><path opacity=".2" fill="#44b700" fill-opacity=".749" d="M1314.498 361.181h7.755v7.755h-7.755z"/><path fill="#44b700" fill-opacity=".749" d="M1507.02 288.455h7.755v7.755h-7.755z"/><path opacity=".2" fill="#44b700" fill-opacity=".749" d="M1466.47 290.739h7.755v7.755h-7.755zm68.791 8.22h7.755v7.755h-7.755zm52.709-8.677h7.755v7.755h-7.755z"/><path fill="#44b700" fill-opacity=".749" d="M1594.457 304.44h7.755v7.755h-7.755z"/><path opacity=".2" fill="#44b700" fill-opacity=".749" d="M1615.658 304.44h7.755v7.755h-7.755z"/><path opacity=".7" fill="#44b700" fill-opacity=".749" d="M1388.07 311.522h7.755v7.755h-7.755z"/><path fill="#44b700" fill-opacity=".749" d="M1429.838 291.427h7.755v7.755h-7.755z"/><path opacity=".4" fill="#44b700" fill-opacity=".749" d="M1511.226 327.506h7.755v7.755h-7.755zm-5.843-16.898h7.755v7.755h-7.755zm57.279 3.654h7.755v7.755h-7.755zm-160.207 33.795h7.755v7.755h-7.755z"/><path opacity=".2" fill="#44b700" fill-opacity=".749" d="M1583.86 314.262h7.755v7.755h-7.755zm55.089-.914h7.755v7.755h-7.755z"/><path fill="#44b700" fill-opacity=".749" d="M1487.838 319.52h7.755v7.755h-7.755z"/><path opacity=".2" fill="#44b700" fill-opacity=".749" d="M1530.864 324.087h7.755v7.755h-7.755zm-65.574 7.764h7.755v7.755h-7.755zm107.969-7.764h7.755v7.755h-7.755z"/><path opacity=".7" fill="#44b700" fill-opacity=".749" d="M1606.238 335.961h7.755v7.755h-7.755z"/><path opacity=".4" fill="#44b700" fill-opacity=".749" d="M1429.934 332.082h7.755v7.755h-7.755zm-63.387-5.023h7.755v7.755h-7.755z"/><path opacity=".2" fill="#44b700" fill-opacity=".749" d="M1441.085 311.084h7.755v7.755h-7.755z"/><path opacity=".4" fill="#44b700" fill-opacity=".749" d="M1369.305 276.75h7.755v7.755h-7.755z"/><path fill="#44b700" fill-opacity=".749" d="M1679.886 290.619h7.755v7.755h-7.755z"/><path opacity=".2" fill="#44b700" fill-opacity=".749" d="M1639.336 292.903h7.755v7.755h-7.755zm85.496-5.481h7.755v7.755h-7.755zm-16.705 13.701h7.755v7.755h-7.755z"/><path opacity=".4" fill="#44b700" fill-opacity=".749" d="M1684.092 329.67h7.755v7.755h-7.755zm-5.843-16.898h7.755v7.755h-7.755zm57.279 3.654h7.755v7.755h-7.755z"/><path fill="#44b700" fill-opacity=".749" d="M1660.705 321.684h7.755v7.755h-7.755z"/><path opacity=".2" fill="#44b700" fill-opacity=".749" d="M1703.73 326.251h7.755v7.755h-7.755zm-65.574 7.764h7.755v7.755h-7.755zm85.936 23.083h7.755v7.755h-7.755z"/><path fill="#44b700" fill-opacity=".749" d="M1636.948 361.685h7.755v7.755h-7.755z"/><path opacity=".2" fill="#44b700" fill-opacity=".749" d="M1596.399 363.969h7.755v7.755h-7.755zm85.495-5.481h7.755v7.755h-7.755zm-16.705 13.701h7.755v7.755h-7.755zm-298.365-17.49h7.755v7.755h-7.755z"/><path fill="#44b700" fill-opacity=".749" d="M1373.312 368.856h7.755v7.755h-7.755z"/><path opacity=".2" fill="#44b700" fill-opacity=".749" d="M1394.512 368.856h7.755v7.755h-7.755z"/><path opacity=".7" fill="#44b700" fill-opacity=".749" d="M1517.999 384.752h7.755v7.755h-7.755z"/><path fill="#44b700" fill-opacity=".749" d="M1559.767 364.657h7.755v7.755h-7.755z"/><path opacity=".4" fill="#44b700" fill-opacity=".749" d="M1635.311 383.838h7.755v7.755h-7.755zm57.28 3.654h7.755v7.755h-7.755zm-224.84-22.024h7.755v7.755h-7.755z"/><path opacity=".2" fill="#44b700" fill-opacity=".749" d="M1713.789 387.492h7.755v7.755h-7.755zm-275.42-5.32h7.755v7.755h-7.755z"/><path fill="#44b700" fill-opacity=".749" d="M1617.767 392.75h7.755v7.755h-7.755z"/><path opacity=".4" fill="#44b700" fill-opacity=".749" d="M1761.106 362.713h7.755v7.755h-7.755zm-278.585 29.497h7.755v7.755h-7.755z"/><path opacity=".2" fill="#44b700" fill-opacity=".749" d="M1571.013 384.314h7.755v7.755h-7.755z"/><path opacity=".4" fill="#44b700" fill-opacity=".749" d="M1499.234 349.98h7.755v7.755h-7.755z"/><path opacity=".2" fill="#44b700" fill-opacity=".749" d="M1418.191 357.319h7.755v7.755h-7.755zm330.731 51.045h7.755v7.755h-7.755zm-5.42 67.288h7.755v7.755h-7.755z"/><path opacity=".4" fill="#44b700" fill-opacity=".749" d="M1754.198 504.656h7.755v7.755h-7.755z"/><path fill="#44b700" fill-opacity=".749" d="M50.943 150.342h7.755v7.755h-7.755z"/><path opacity=".2" fill="#44b700" fill-opacity=".749" d="M10.393 152.625h7.755v7.755h-7.755zm311.711 7.74h7.755v7.755h-7.755zm-242.92.481h7.755v7.755h-7.755zm52.709-8.677h7.755v7.755h-7.755z"/><path fill="#44b700" fill-opacity=".749" d="M138.381 166.326h7.755v7.755h-7.755z"/><path opacity=".2" fill="#44b700" fill-opacity=".749" d="M159.581 166.326h7.755v7.755h-7.755z"/><path opacity=".4" fill="#44b700" fill-opacity=".749" d="M55.15 189.392h7.755v7.755H55.15zm-5.844-16.897h7.755v7.755h-7.755zm57.28 3.653h7.755v7.755h-7.755z"/><path opacity=".2" fill="#44b700" fill-opacity=".749" d="M127.783 176.148h7.755v7.755h-7.755zm55.09-.913h7.755v7.755h-7.755z"/><path fill="#44b700" fill-opacity=".749" d="M31.762 181.406h7.755v7.755h-7.755z"/><path opacity=".2" fill="#44b700" fill-opacity=".749" d="M74.788 185.973h7.755v7.755h-7.755zm-65.575 7.764h7.755v7.755H9.213zm107.97-7.764h7.755v7.755h-7.755z"/><path opacity=".7" fill="#44b700" fill-opacity=".749" d="M150.161 197.847h7.755v7.755h-7.755z"/><path fill="#44b700" fill-opacity=".749" d="M223.809 152.505h7.755v7.755h-7.755z"/><path opacity=".2" fill="#44b700" fill-opacity=".749" d="M183.26 154.789h7.755v7.755h-7.755zm85.495-5.48h7.755v7.755h-7.755zm-16.705 13.7h7.755v7.755h-7.755z"/><path opacity=".4" fill="#44b700" fill-opacity=".749" d="M228.016 191.556h7.755v7.755h-7.755zm-5.844-16.898h7.755v7.755h-7.755zm57.28 3.654h7.755v7.755h-7.755z"/><path fill="#44b700" fill-opacity=".749" d="M204.628 183.57h7.755v7.755h-7.755z"/><path opacity=".2" fill="#44b700" fill-opacity=".749" d="M247.654 188.137h7.755v7.755h-7.755zm-65.575 7.764h7.755v7.755h-7.755zm85.936 23.084h7.755v7.755h-7.755z"/><path fill="#44b700" fill-opacity=".749" d="M180.872 223.572h7.755v7.755h-7.755z"/><path opacity=".2" fill="#44b700" fill-opacity=".749" d="M140.322 225.855h7.755v7.755h-7.755zm85.495-5.48h7.755v7.755h-7.755zm-16.705 13.701h7.755v7.755h-7.755z"/><path opacity=".7" fill="#44b700" fill-opacity=".749" d="M61.922 246.638h7.755v7.755h-7.755z"/><path fill="#44b700" fill-opacity=".749" d="M103.69 226.543h7.755v7.755h-7.755z"/><path opacity=".4" fill="#44b700" fill-opacity=".749" d="M179.234 245.725h7.755v7.755h-7.755zm57.28 3.653h7.755v7.755h-7.755zm-224.84-22.024h7.755v7.755h-7.755z"/><path opacity=".2" fill="#44b700" fill-opacity=".749" d="M257.712 249.378h7.755v7.755h-7.755z"/><path fill="#44b700" fill-opacity=".749" d="M161.69 254.636h7.755v7.755h-7.755z"/><path opacity=".2" fill="#44b700" fill-opacity=".749" d="M340.385 224.368h7.755v7.755h-7.755z"/><path opacity=".4" fill="#44b700" fill-opacity=".749" d="M305.03 224.6h7.755v7.755h-7.755zM26.444 254.096h7.755v7.755h-7.755z"/><path opacity=".2" fill="#44b700" fill-opacity=".749" d="M114.937 246.2h7.755v7.755h-7.755z"/><path opacity=".4" fill="#44b700" fill-opacity=".749" d="M43.157 211.867h7.755v7.755h-7.755z"/><path opacity=".2" fill="#44b700" fill-opacity=".749" d="M374.644 245.209h7.755v7.755h-7.755zm1195.637-98.214h7.755v7.755h-7.755zm-43.881 1.215h7.755v7.755h-7.755z"/><path opacity=".4" fill="#44b700" fill-opacity=".749" d="M1467.846 211.276h7.755v7.755h-7.755zm75.674-20.588h7.755v7.755h-7.755z"/><path opacity=".2" fill="#44b700" fill-opacity=".749" d="M1469.123 247.518h7.755v7.755h-7.755zm122.451-61.695h7.755v7.755h-7.755zm-70.595 29.675h7.755v7.755h-7.755z"/><path opacity=".4" fill="#44b700" fill-opacity=".749" d="M1531.676 244.501h7.755v7.755h-7.755z"/><path opacity=".2" fill="#44b700" fill-opacity=".749" d="M1577.846 229.812h7.755v7.755h-7.755zm112.46-89.436h7.755v7.755h-7.755zm-43.88 1.215h7.755v7.755h-7.755z"/><path opacity=".4" fill="#44b700" fill-opacity=".749" d="M1663.545 184.069h7.755v7.755h-7.755z"/><path opacity=".2" fill="#44b700" fill-opacity=".749" d="M1711.6 179.205h7.755v7.755h-7.755z"/><path opacity=".4" fill="#44b700" fill-opacity=".749" d="M1651.701 237.882h7.755v7.755h-7.755z"/><path opacity=".2" fill="#44b700" fill-opacity=".749" d="M1697.871 223.193h7.755v7.755h-7.755zm-59.574-173.878h7.755v7.755h-7.755zm-31.798 9.823h7.755v7.755h-7.755zm55.09-.914h7.755v7.755h-7.755zm-65.69 10.739h7.755v7.755h-7.755z"/><path opacity=".7" fill="#44b700" fill-opacity=".749" d="M1628.878 80.837h7.755v7.755h-7.755z"/><path fill="#44b700" fill-opacity=".749" d="M1702.525 35.495h7.755v7.755h-7.755z"/><path opacity=".2" fill="#44b700" fill-opacity=".749" d="M1661.976 37.778h7.755v7.755h-7.755zm85.495-5.48h7.755v7.755h-7.755zm-16.705 13.701h7.755v7.755h-7.755z"/><path opacity=".4" fill="#44b700" fill-opacity=".749" d="M1706.732 74.545h7.755V82.3h-7.755zm-5.844-16.897h7.755v7.755h-7.755zm57.28 3.653h7.755v7.755h-7.755z"/><path fill="#44b700" fill-opacity=".749" d="M1683.344 66.56h7.755v7.755h-7.755z"/><path opacity=".2" fill="#44b700" fill-opacity=".749" d="M1726.37 71.127h7.755v7.755h-7.755zm-65.575 7.763h7.755v7.755h-7.755zm85.936 23.084h7.755v7.755h-7.755z"/><path fill="#44b700" fill-opacity=".749" d="M1659.588 106.561h7.755v7.755h-7.755z"/><path opacity=".2" fill="#44b700" fill-opacity=".749" d="M1619.038 108.845h7.755v7.755h-7.755zm85.496-5.481h7.755v7.755h-7.755zm-16.705 13.701h7.755v7.755h-7.755z"/><path opacity=".7" fill="#44b700" fill-opacity=".749" d="M1540.638 129.627h7.755v7.755h-7.755z"/><path opacity=".4" fill="#44b700" fill-opacity=".749" d="M1657.951 128.714h7.755v7.755h-7.755zm57.279 3.654h7.755v7.755h-7.755z"/><path opacity=".2" fill="#44b700" fill-opacity=".749" d="M1736.428 132.368h7.755v7.755h-7.755z"/><path fill="#44b700" fill-opacity=".749" d="M1640.407 137.626h7.755v7.755h-7.755z"/><path opacity=".2" fill="#44b700" fill-opacity=".749" d="M1593.653 129.189h7.755v7.755h-7.755zM100.652 38.232h7.755v7.755h-7.755z"/><path fill="#44b700" fill-opacity=".749" d="M2.357 30.372h7.755v7.755H2.357z"/><path opacity=".2" fill="#44b700" fill-opacity=".749" d="M47.303 27.175h7.755v7.755h-7.755zM30.597 40.876h7.755v7.755h-7.755z"/><path opacity=".4" fill="#44b700" fill-opacity=".749" d="M6.563 69.423h7.755v7.755H6.563zM.72 52.525h7.755v7.755H.72zm57.279 3.653h7.755v7.755h-7.755z"/><path opacity=".2" fill="#44b700" fill-opacity=".749" d="M26.201 66.004h7.755v7.755h-7.755zm20.362 30.847h7.755v7.755h-7.755zm-42.198 1.39h7.755v7.755H4.365z"/><path opacity=".4" fill="#44b700" fill-opacity=".749" d="M15.062 127.245h7.755V135h-7.755z"/><path opacity=".2" fill="#44b700" fill-opacity=".749" d="M36.259 127.245h7.755V135h-7.755zm82.674-25.01h7.755v7.755h-7.755z"/><path opacity=".4" fill="#44b700" fill-opacity=".749" d="M83.577 102.466h7.755v7.755h-7.755z"/><path fill="#44b700" fill-opacity=".749" d="M158.726 29.421h7.755v7.755h-7.755z"/><path opacity=".4" fill="#44b700" fill-opacity=".749" d="M151.916 86.833h7.755v7.755h-7.755zm-6.579-35.994h7.755v7.755h-7.755z"/><path fill="#44b700" fill-opacity=".749" d="M103.556 72.972h7.755v7.755h-7.755z"/><path opacity=".2" fill="#44b700" fill-opacity=".749" d="M153.192 123.075h7.755v7.755h-7.755zm51.857-32.02h7.755v7.755h-7.755z"/><path opacity=".4" fill="#44b700" fill-opacity=".749" d="M215.746 120.058h7.755v7.755h-7.755z"/><path opacity=".2" fill="#44b700" fill-opacity=".749" d="M261.915 105.369h7.755v7.755h-7.755z"/><path fill="#44b700" fill-opacity=".749" d="M1558.111 422.735h7.755v7.755h-7.755z"/><path opacity=".2" fill="#44b700" fill-opacity=".749" d="M1517.561 425.018h7.755v7.755h-7.755zm68.79 8.221h7.755v7.755h-7.755zm52.71-8.678h7.755v7.755h-7.755z"/><path fill="#44b700" fill-opacity=".749" d="M1645.548 438.719h7.755v7.755h-7.755z"/><path opacity=".2" fill="#44b700" fill-opacity=".749" d="M1666.749 438.719h7.755v7.755h-7.755z"/><path fill="#44b700" fill-opacity=".749" d="M1480.929 425.706h7.755v7.755h-7.755z"/><path opacity=".4" fill="#44b700" fill-opacity=".749" d="M1562.317 461.785h7.755v7.755h-7.755zm-5.844-16.898h7.755v7.755h-7.755zm57.28 3.654h7.755v7.755h-7.755zm-160.207 33.795h7.755v7.755h-7.755z"/><path opacity=".2" fill="#44b700" fill-opacity=".749" d="M1634.951 448.541h7.755v7.755h-7.755z"/><path fill="#44b700" fill-opacity=".749" d="M1538.929 453.799h7.755v7.755h-7.755z"/><path opacity=".2" fill="#44b700" fill-opacity=".749" d="M1581.955 458.366h7.755v7.755h-7.755zm-65.575 7.764h7.755v7.755h-7.755zm107.97-7.764h7.755v7.755h-7.755z"/><path opacity=".7" fill="#44b700" fill-opacity=".749" d="M1657.329 470.24h7.755v7.755h-7.755z"/><path opacity=".4" fill="#44b700" fill-opacity=".749" d="M1481.025 466.362h7.755v7.755h-7.755z"/><path opacity=".2" fill="#44b700" fill-opacity=".749" d="M1492.175 445.363h7.755v7.755h-7.755zm155.314 52.885h7.755v7.755h-7.755z"/><path opacity=".7" fill="#44b700" fill-opacity=".749" d="M1569.09 519.031h7.755v7.755h-7.755z"/><path fill="#44b700" fill-opacity=".749" d="M1610.857 498.936h7.755v7.755h-7.755z"/><path opacity=".4" fill="#44b700" fill-opacity=".749" d="M1518.842 499.747h7.755v7.755h-7.755z"/><path opacity=".2" fill="#44b700" fill-opacity=".749" d="M1489.459 516.451h7.755v7.755h-7.755z"/><path fill="#44b700" fill-opacity=".749" d="M1668.858 527.029h7.755v7.755h-7.755z"/><path opacity=".4" fill="#44b700" fill-opacity=".749" d="M1533.612 526.489h7.755v7.755h-7.755z"/><path opacity=".2" fill="#44b700" fill-opacity=".749" d="M1622.104 518.593h7.755v7.755h-7.755z"/><path opacity=".4" fill="#44b700" fill-opacity=".749" d="M1550.324 484.26h7.755v7.755h-7.755z"/><path opacity=".2" fill="#44b700" fill-opacity=".749" d="M1469.281 491.598h7.755v7.755h-7.755zm-1.808-129.256h7.755v7.755h-7.755z"/><path opacity=".4" fill="#44b700" fill-opacity=".749" d="M1418.243 387.096h7.755v7.755h-7.755zm27.479-15.975h7.755v7.755h-7.755zm-63.387-5.024h7.755v7.755h-7.755z"/><path opacity=".2" fill="#44b700" fill-opacity=".749" d="M1382.612 393.737h7.755v7.755h-7.755z"/><path fill="#44b700" fill-opacity=".749" d="M1389.099 407.895h7.755v7.755h-7.755z"/><path opacity=".2" fill="#44b700" fill-opacity=".749" d="M1410.3 407.895h7.755v7.755h-7.755zm43.856 13.315h7.755v7.755h-7.755zm-20.178-24.853h7.755v7.755h-7.755z"/></svg>