<svg xmlns="http://www.w3.org/2000/svg" data-name="Layer 1" width="1000" height="700" viewBox="0 0 1000 700"><g transform="translate(-305.537 -216.034) scale(1.27466)" opacity=".8"><path stroke-miterlimit="10" fill="none" stroke="#3f3d56" stroke-width="3" d="M330.04 290.49H955.1m-569.53-.01s29.89 4.15 14.41-27.92 42-26 42-26m142.66 53.92s29.89-4.14 14.41 27.93 42 26 42 26m230.22-53.93s-29.9-4.14-14.41 27.93c15.49 32.07-42 26-42 26m0-.01H649.93"/><circle cx="330.04" cy="290.49" r="18.25" fill="#009688"/><circle cx="442.29" cy="236.3" r="18.25" fill="#3acc6c"/><circle cx="442.29" cy="290.49" r="18.25" fill="#009688"/><circle cx="514.73" cy="290.49" r="18.25" fill="#009688"/><circle cx="641.35" cy="344.13" r="18.25" fill="#ff6584"/><circle cx="737.03" cy="344.13" r="18.25" fill="#ff6584"/><circle cx="732.04" cy="290.49" r="18.25" fill="#009688"/><circle cx="950.48" cy="290.49" r="18.25" fill="#009688"/><circle cx="861.12" cy="290.49" r="18.25" fill="#009688"/><path fill="#009688" d="M299.38 122.66h61.23v42.2h-61.23z"/><path fill="#3acc6c" d="M411.9 122.66h61.23v42.2H411.9z"/><path fill="#ff6584" d="M610.48 122.66h61.23v42.2h-61.23z"/></g><path opacity=".2" fill="#009688" d="M38.754 383.033h31.56v31.56h-31.56zm43.127 0h31.56v31.56h-31.56z"/><path fill="#009688" d="M260.957 647.844l126.525-148.752-188.078-230.824L71.17 423.86z"/><path opacity=".2" fill="#009688" d="M125.021 383.033h31.56v31.56h-31.56z"/><path opacity=".1" d="M199.404 268.268L71.17 423.86l189.788 223.985 126.525-148.752z"/><path opacity=".2" fill="#009688" d="M168.148 383.033h31.56v31.56h-31.56z"/><path d="M76.298 425.57a64.451 64.451 0 0110.456-13.96l117.78-119.405s41.035-6.84 49.584 13.679L103.655 428.989z" fill="#f2f2f2"/><path opacity=".2" fill="#009688" d="M211.287 383.033h31.56v31.56h-31.56z"/><path d="M70.314 423.005l174.4 266.73s17.098 11.968 34.196 5.129l178.674-120.541-189.788-287.247L96.816 420.44z" fill="#009688"/><path fill="#009688" d="M254.427 383.033h31.56v31.56h-31.56z"/><path fill="#3f3d56" d="M137.038 407.34l109.437-78.639 1.617 2.25-109.437 78.64z"/><path opacity=".2" fill="#009688" d="M297.554 383.033h31.56v31.56h-31.56z"/><path fill="#3f3d56" d="M133.276 438.303l2.312-1.53L279.21 653.92l-2.31 1.528z"/><path opacity=".2" fill="#009688" d="M340.693 383.033h31.56v31.56h-31.56z"/><path fill="#3f3d56" d="M294.345 660.424l116.24-85.525 1.643 2.233-116.24 85.525z"/><path opacity=".2" fill="#009688" d="M383.821 383.033h31.56v31.56h-31.56z"/><path fill="#3f3d56" d="M264.95 334.032l2.273-1.583 148.753 213.725-2.274 1.582z"/><path fill="#009688" d="M426.96 383.033h31.56v31.56h-31.56z"/><path fill="#3f3d56" d="M85.979 414.681l135.296-124.17 1.156 1.258L87.135 415.94z"/><path opacity=".2" fill="#009688" d="M470.099 383.033h31.56v31.56h-31.56z"/><path fill="#3f3d56" d="M91.144 416.406l141.402-124.832 1.133 1.283L92.276 417.688z"/><path opacity=".2" fill="#009688" d="M513.226 383.033h31.56v31.56h-31.56z"/><path fill="#3f3d56" d="M94.603 416.417l146.79-122.355 1.095 1.315-146.79 122.355z"/><path opacity=".2" fill="#009688" d="M556.366 383.033h31.56v31.56h-31.56zm43.139 0h31.56v31.56h-31.56zm43.127 0h31.56v31.56h-31.56zm43.14 0h31.56v31.56h-31.56z"/><path fill="#009688" d="M728.899 383.033h31.56v31.56h-31.56zm43.139 0h31.56v31.56h-31.56z"/><path opacity=".2" fill="#009688" d="M815.178 383.033h31.56v31.56h-31.56zm43.127 0h31.56v31.56h-31.56z"/><path fill="#009688" d="M901.445 383.033h31.56v31.56h-31.56zm43.127 0h31.56v31.56h-31.56zM38.754 423.005h31.56v31.56h-31.56z"/><path opacity=".2" fill="#009688" d="M81.881 423.005h31.56v31.56h-31.56z"/><path opacity=".7" fill="#009688" d="M125.021 423.005h31.56v31.56h-31.56z"/><path opacity=".2" fill="#009688" d="M168.148 423.005h31.56v31.56h-31.56z"/><path opacity=".4" fill="#009688" d="M211.287 423.005h31.56v31.56h-31.56z"/><path fill="#009688" d="M254.427 423.005h31.56v31.56h-31.56z"/><path opacity=".4" fill="#009688" d="M297.554 423.005h31.56v31.56h-31.56z"/><path opacity=".2" fill="#009688" d="M340.693 423.005h31.56v31.56h-31.56z"/><path opacity=".4" fill="#009688" d="M383.821 423.005h31.56v31.56h-31.56z"/><path fill="#009688" d="M426.96 423.005h31.56v31.56h-31.56z"/><path opacity=".4" fill="#009688" d="M470.099 423.005h31.56v31.56h-31.56zm43.127 0h31.56v31.56h-31.56z"/><path opacity=".2" fill="#009688" d="M556.366 423.005h31.56v31.56h-31.56z"/><path opacity=".4" fill="#009688" d="M599.505 423.005h31.56v31.56h-31.56zm43.127 0h31.56v31.56h-31.56z"/><path opacity=".2" fill="#009688" d="M685.772 423.005h31.56v31.56h-31.56zm43.127 0h31.56v31.56h-31.56z"/><path opacity=".4" fill="#009688" d="M772.038 423.005h31.56v31.56h-31.56z"/><path opacity=".2" fill="#009688" d="M815.178 423.005h31.56v31.56h-31.56z"/><path fill="#009688" d="M858.305 423.005h31.56v31.56h-31.56zm43.14 0h31.56v31.56h-31.56zm43.127 0h31.56v31.56h-31.56zM38.754 462.99h31.56v31.56h-31.56z"/><path opacity=".7" fill="#009688" d="M81.881 462.99h31.56v31.56h-31.56zm43.14 0h31.56v31.56h-31.56z"/><path opacity=".2" fill="#009688" d="M168.148 462.99h31.56v31.56h-31.56z"/><path opacity=".4" fill="#009688" d="M211.287 462.99h31.56v31.56h-31.56zm43.14 0h31.56v31.56h-31.56z"/><path fill="#009688" d="M297.554 462.99h31.56v31.56h-31.56z"/><path opacity=".2" fill="#009688" d="M340.693 462.99h31.56v31.56h-31.56z"/><path opacity=".4" fill="#009688" d="M383.821 462.99h31.56v31.56h-31.56z"/><path fill="#009688" d="M426.96 462.99h31.56v31.56h-31.56z"/><path opacity=".2" fill="#009688" d="M470.099 462.99h31.56v31.56h-31.56z"/><path opacity=".4" fill="#009688" d="M513.226 462.99h31.56v31.56h-31.56z"/><path opacity=".2" fill="#009688" d="M556.366 462.99h31.56v31.56h-31.56z"/><path fill="#009688" d="M599.505 462.99h31.56v31.56h-31.56z"/><path opacity=".2" fill="#009688" d="M642.632 462.99h31.56v31.56h-31.56z"/><path opacity=".7" fill="#009688" d="M685.772 462.99h31.56v31.56h-31.56zm43.127 0h31.56v31.56h-31.56z"/><path opacity=".4" fill="#009688" d="M772.038 462.99h31.56v31.56h-31.56z"/><path opacity=".2" fill="#009688" d="M815.178 462.99h31.56v31.56h-31.56z"/><path fill="#009688" d="M858.305 462.99h31.56v31.56h-31.56zm43.14 0h31.56v31.56h-31.56zm43.127 0h31.56v31.56h-31.56zM38.754 502.962h31.56v31.56h-31.56z"/><path opacity=".7" fill="#009688" d="M81.881 502.962h31.56v31.56h-31.56zm43.14 0h31.56v31.56h-31.56z"/><path opacity=".2" fill="#009688" d="M168.148 502.962h31.56v31.56h-31.56zm43.139 0h31.56v31.56h-31.56z"/><path opacity=".4" fill="#009688" d="M254.427 502.962h31.56v31.56h-31.56zm43.127 0h31.56v31.56h-31.56z"/><path fill="#009688" d="M340.693 502.962h31.56v31.56h-31.56z"/><path opacity=".2" fill="#009688" d="M383.821 502.962h31.56v31.56h-31.56z"/><path opacity=".4" fill="#009688" d="M426.96 502.962h31.56v31.56h-31.56zm43.139 0h31.56v31.56h-31.56zm43.127 0h31.56v31.56h-31.56zm43.14 0h31.56v31.56h-31.56z"/><path opacity=".2" fill="#009688" d="M599.505 502.962h31.56v31.56h-31.56zm43.127 0h31.56v31.56h-31.56zm43.14 0h31.56v31.56h-31.56zm43.127 0h31.56v31.56h-31.56z"/><path opacity=".7" fill="#009688" d="M772.038 502.962h31.56v31.56h-31.56zm43.14 0h31.56v31.56h-31.56z"/><path opacity=".4" fill="#009688" d="M858.305 502.962h31.56v31.56h-31.56z"/><path opacity=".2" fill="#009688" d="M901.445 502.962h31.56v31.56h-31.56z"/><path fill="#009688" d="M944.572 502.962h31.56v31.56h-31.56z"/><path opacity=".2" fill="#009688" d="M38.754 542.947h31.56v31.56h-31.56z"/><path opacity=".7" fill="#009688" d="M81.881 542.947h31.56v31.56h-31.56zm43.14 0h31.56v31.56h-31.56z"/><path opacity=".2" fill="#009688" d="M168.148 542.947h31.56v31.56h-31.56zm43.139 0h31.56v31.56h-31.56z"/><path opacity=".4" fill="#009688" d="M254.427 542.947h31.56v31.56h-31.56z"/><path fill="#009688" d="M297.554 542.947h31.56v31.56h-31.56z"/><path opacity=".2" fill="#009688" d="M340.693 542.947h31.56v31.56h-31.56z"/><path fill="#009688" d="M383.821 542.947h31.56v31.56h-31.56zm43.139 0h31.56v31.56h-31.56zm43.139 0h31.56v31.56h-31.56z"/><path opacity=".2" fill="#009688" d="M513.226 542.947h31.56v31.56h-31.56z"/><path fill="#009688" d="M556.366 542.947h31.56v31.56h-31.56z"/><path opacity=".2" fill="#009688" d="M599.505 542.947h31.56v31.56h-31.56zm43.127 0h31.56v31.56h-31.56zm43.14 0h31.56v31.56h-31.56zm43.127 0h31.56v31.56h-31.56zm43.139 0h31.56v31.56h-31.56z"/><path opacity=".7" fill="#009688" d="M815.178 542.947h31.56v31.56h-31.56z"/><path opacity=".2" fill="#009688" d="M858.305 542.947h31.56v31.56h-31.56zm43.14 0h31.56v31.56h-31.56z"/><path fill="#009688" d="M944.572 542.947h31.56v31.56h-31.56z"/><path opacity=".2" fill="#009688" d="M38.754 582.919h31.56v31.56h-31.56zm43.127 0h31.56v31.56h-31.56z"/><path opacity=".7" fill="#009688" d="M125.021 582.919h31.56v31.56h-31.56z"/><path opacity=".2" fill="#009688" d="M168.148 582.919h31.56v31.56h-31.56zm43.139 0h31.56v31.56h-31.56zm43.14 0h31.56v31.56h-31.56z"/><path fill="#009688" d="M297.554 582.919h31.56v31.56h-31.56z"/><path opacity=".2" fill="#009688" d="M340.693 582.919h31.56v31.56h-31.56z"/><path fill="#009688" d="M383.821 582.919h31.56v31.56h-31.56zm43.139 0h31.56v31.56h-31.56z"/><path opacity=".2" fill="#009688" d="M470.099 582.919h31.56v31.56h-31.56zm43.127 0h31.56v31.56h-31.56zm43.14 0h31.56v31.56h-31.56zm43.139 0h31.56v31.56h-31.56zm43.127 0h31.56v31.56h-31.56zm43.14 0h31.56v31.56h-31.56zm43.127 0h31.56v31.56h-31.56zm43.139 0h31.56v31.56h-31.56zm43.14 0h31.56v31.56h-31.56zm43.127 0h31.56v31.56h-31.56z"/><path opacity=".4" fill="#009688" d="M901.445 582.919h31.56v31.56h-31.56z"/><path fill="#009688" d="M944.572 582.919h31.56v31.56h-31.56z"/><path opacity=".7" fill="#009688" d="M38.754 622.904h31.56v31.56h-31.56z"/><path opacity=".2" fill="#009688" d="M81.881 622.904h31.56v31.56h-31.56zm43.14 0h31.56v31.56h-31.56zm43.127 0h31.56v31.56h-31.56zm43.139 0h31.56v31.56h-31.56zm43.14 0h31.56v31.56h-31.56zm43.127 0h31.56v31.56h-31.56z"/><path fill="#009688" d="M340.693 622.904h31.56v31.56h-31.56z"/><path opacity=".2" fill="#009688" d="M383.821 622.904h31.56v31.56h-31.56zm43.139 0h31.56v31.56h-31.56zm43.139 0h31.56v31.56h-31.56z"/><path fill="#009688" d="M513.226 622.904h31.56v31.56h-31.56z"/><path opacity=".2" fill="#009688" d="M556.366 622.904h31.56v31.56h-31.56zm43.139 0h31.56v31.56h-31.56zm43.127 0h31.56v31.56h-31.56zm43.14 0h31.56v31.56h-31.56zm43.127 0h31.56v31.56h-31.56zm43.139 0h31.56v31.56h-31.56zm43.14 0h31.56v31.56h-31.56zm43.127 0h31.56v31.56h-31.56zm43.14 0h31.56v31.56h-31.56z"/><path fill="#009688" d="M944.572 622.904h31.56v31.56h-31.56z"/></svg>