<svg xmlns="http://www.w3.org/2000/svg" viewBox="0 0 512 512"><path d="M256 8.14c-141.152 0-256 114.848-256 256 0 105.312 65.984 201.216 164.224 238.656 4.128 1.6 8.704 1.376 12.672-.544 3.968-1.952 6.976-5.408 8.288-9.632l48-153.28c2.304-7.264-.864-15.136-7.52-18.784C204.896 309.068 192 287.468 192 264.14c0-35.296 28.704-64 64-64s64 28.704 64 64c0 23.328-12.896 44.928-33.696 56.384-6.656 3.68-9.76 11.52-7.52 18.784l48 153.28c1.344 4.224 4.352 7.68 8.32 9.632a16.126 16.126 0 006.976 1.6c1.952 0 3.872-.352 5.696-1.056C446.016 465.356 512 369.452 512 264.14c0-141.152-114.848-256-256-256zm96.096 458.048l-39.104-124.832C337.344 323.244 352 294.668 352 264.14c0-52.928-43.072-96-96-96s-96 43.072-96 96c0 30.56 14.656 59.104 39.008 77.216l-39.072 124.832C82.752 429.708 32 350.54 32 264.14c0-123.52 100.48-224 224-224 123.488 0 224 100.48 224 224 0 86.4-50.752 165.568-127.904 202.048z"/></svg>