<svg xmlns="http://www.w3.org/2000/svg" data-name="Layer 1" width="1000" height="700" viewBox="0 0 1000 700"><path opacity=".2" fill="#44b700" fill-opacity=".749" d="M400.731 368.046h30.576v30.576h-30.576z"/><path fill="#009688" d="M238.892 113.385h30.576v30.576h-30.576z"/><path opacity=".2" fill="#009688" d="M508.833 64.401h30.576v30.576h-30.576z"/><path opacity=".4" fill="#009688" d="M326.503 74.377h30.576v30.576h-30.576z"/><path opacity=".2" fill="#009688" d="M410.082 74.377h30.576v30.576h-30.576zm217.206-3.602h30.576v30.576h-30.576zm-224.926 125.4h30.576v30.576h-30.576z"/><path opacity=".7" fill="#009688" d="M500.443 204.657h30.576v30.576h-30.576z"/><path opacity=".2" fill="#009688" d="M841.786 81.74h30.576v30.576h-30.576z"/><path fill="#009688" d="M713.064 103.64h30.576v30.576h-30.576z"/><path opacity=".2" fill="#009688" d="M624.159 152.258h30.576v30.576h-30.576z"/><path opacity=".2" fill="#44b700" fill-opacity=".749" d="M484.297 335.698h41.736v41.736h-41.736z"/><path opacity=".4" fill="#009688" d="M132.29 68.56h41.736v41.736H132.29z"/><path fill="#009688" d="M755.313 249.945h41.736v41.736h-41.736zM470.411 359.007v209.032l-209.778-10.982-11.011-162.122zm55.074-224.562h41.736v41.736h-41.736z"/><path opacity=".05" d="M470.411 359.007v209.032l-209.778-10.982-11.011-162.122z"/><path fill="#009688" d="M735.186 378.82l-14.653 181.907-250.122 7.312V359.007z"/><path opacity=".1" d="M735.186 378.82l-14.653 181.907-250.122 7.312V359.007z"/><path fill="#009688" d="M463.51 377.434h62.522v55.068H463.51zm314.945-63.904l-226.639-18.323-81.405 63.8 264.775 19.813zm-528.833 81.405l-79.943-69.678 198.768-24.2 101.964 57.95z"/><path opacity=".2" fill="#009688" d="M413.597 326.662h41.736v41.736h-41.736z"/><path fill="#009688" d="M815.051 194.618h41.736v41.736h-41.736z"/><path opacity=".2" fill="#009688" d="M745.926 209.617h20.257v20.257h-20.257zm-536.783-9.674h41.736v41.736h-41.736z"/><path fill="#009688" d="M311.181 132.918h62.522v55.068h-62.522z"/><path opacity=".2" fill="#009688" d="M456.557 270.839h41.736v41.736h-41.736z"/><path opacity=".4" fill="#009688" d="M303.551 238.216h41.736v41.736h-41.736z"/><path d="M629.178 571.05c-28.674 41.032-131.756 19.298-131.756 19.298l-79.886-74.753-10.752-10.122 18.036-38.308s5.734 1.577 15.57 4.387c51.641 14.996 212.99 65.003 188.788 99.498z" fill="#efb7b9"/><path opacity=".4" fill="#44b700" fill-opacity=".749" d="M724.788 403.55h41.736v41.736h-41.736z"/><path fill="#009688" d="M249.622 394.935l220.76 15.025 48.43 3.326V699.08l-103.426-10.61-44.99-4.587-13.706-1.434-44.96-4.616-62.108-6.366zM735.186 657.53l-82.897 15.915-40.315 7.742-93.161 17.892V413.286l216.373-34.466z"/><path opacity=".05" d="M735.186 657.53l-82.897 15.915-40.315 7.742-93.161 17.892V413.286l216.373-34.466z"/><path fill="#009688" d="M249.622 394.935l269.19 18.351-39.627 66.753-309.506-24.946zm269.191 18.351l70.423 63.083 231.77-38.882-85.82-58.667zm15.114-63.197h41.736v41.736h-41.736z"/><path opacity=".1" fill="#fff" d="M518.813 413.286l70.423 63.083 231.77-38.882-85.82-58.667zm-269.191-18.351l269.19 18.351-39.627 66.753-309.506-24.946z"/></svg>