<svg xmlns="http://www.w3.org/2000/svg" viewBox="0 0 1000 1000"><path d="M515 67.8l357 178.7c6.4 3.1 10.9 8.1 14.3 13.8l99.4 177.5c9 16.2 3.3 36.4-12.8 45.7-1.4.2-2.4 1-3.3 1.4l-79 39.3v199.6c0 13.8-8.6 26.6-20.9 30.9L515 932c-9.8 5-21.2 4.5-30 0L127.9 753.4c-11.9-5.7-18.6-17.6-18.6-29.7h-.2V524.1l-80.9-40.4c-16.4-8.3-23.1-28.5-14.5-44.7l.5-1.2 99.2-177.5c4-6.7 9.8-11.9 16.4-14.7L485 67.8c9.7-4.8 20.7-4.3 30 0zm-35.3 786.9V531.9l-54.9 99c-5.2 9.5-17.6 12.8-27.1 7.4h-.5l-221-110.1V703l303.5 151.7zm0-432.2V145.6L202.6 283.8l277.1 138.7zm40.2-276.9v276.7l277.4-138.4-277.4-138.3zm0 386.8v322.3l304-151.8V527.6L602.7 638.2h-.5c-9.5 5.5-21.9 2.1-27.1-7.4l-55.2-98.4zM836.8 309L527.6 463.4l73 131.1 310-155.1L836.8 309zM160.5 474.8l238.6 119.7 73.3-131.1L163.1 309 89.9 439.6l64.9 32.6c2.1.7 4 1.9 5.7 2.6z"/></svg>