<svg xmlns="http://www.w3.org/2000/svg" viewBox="0 0 512.006 512.006"><path d="M439.707 366.589l-41.128-27.421-36.562-24.37c-7.055-4.694-16.538-3.155-21.747 3.531l-22.623 29.084a16.113 16.113 0 01-20.571 4.266c-15.351-8.54-33.504-16.579-73.557-56.684-40.053-40.104-48.144-58.206-56.684-73.556a16.111 16.111 0 014.267-20.57l29.084-22.624c6.685-5.208 8.225-14.69 3.53-21.747l-23.62-35.436-28.17-42.254c-4.795-7.192-14.392-9.351-21.805-4.906l-32.487 19.49a39.692 39.692 0 00-18.025 23.326c-8.884 32.391-10.675 103.844 103.837 218.356s185.959 112.715 218.35 103.83a39.686 39.686 0 0023.326-18.024l19.49-32.487c4.446-7.413 2.287-17.01-4.905-21.804zM287.009 129.16c60.025.066 108.67 48.71 108.736 108.736a6.397 6.397 0 0012.793 0c-.074-67.088-54.44-121.455-121.529-121.529a6.397 6.397 0 000 12.792z"/><path d="M287.009 167.537c38.84.045 70.312 31.52 70.358 70.358a6.397 6.397 0 0012.793 0c-.053-45.901-37.25-83.099-83.151-83.151a6.397 6.397 0 000 12.793z"/><path d="M287.009 205.915c17.654.02 31.96 14.327 31.98 31.98a6.397 6.397 0 0012.794 0c-.028-24.715-20.058-44.745-44.774-44.773a6.397 6.397 0 000 12.793z"/></svg>