<svg xmlns="http://www.w3.org/2000/svg" height="512pt" viewBox="0 0 512 512" width="512pt"><path d="M104.466 330.163a11.834 11.834 0 002.205 13.667l2.89 2.89c8.353-9.897 18.088-20.639 29.894-32.442.835-.835 1.694-1.238 2.531-2.008l-18.598-18.6c-10.812 19.555-17.117 32.916-18.922 36.493zm101.864 50.989c-11.834 11.834-22.548 21.588-32.39 29.946l3.915 3.916a11.816 11.816 0 0013.765 2.155c6.123-3.155 15.754-7.687 36.196-19.072l-19.476-19.476c-.77.84-1.173 1.697-2.01 2.531zm-6.302-60.557c-8.543-8.543-32.57-.884-43.856 10.4-37.756 37.756-54.809 64.525-62.465 80.331a11.816 11.816 0 002.278 13.51 11.83 11.83 0 0013.527 2.277c15.452-7.502 41.895-24.475 80.1-62.678 12.41-12.416 18.534-35.718 10.425-43.83zM82.46 228.993L49.023 262.43a11.82 11.82 0 00-1.878 14.27c2.614 4.574 8.088 6.905 13.297 5.51 18.071-4.845 33.973-6.893 44.68-4.147 15.233-27.082 31.603-52.013 48.938-74.66-10.027-6.428-43.162-2.848-71.6 25.59zM245.663 473.85a11.8 11.8 0 0013.672-2.195l33.44-33.437c25.889-25.895 30.445-59.304 24.571-69.898-25.257 19.036-50.844 35.11-74.716 48.566 1.647 9.3.551 18.324-3.343 44.677a11.797 11.797 0 006.376 12.287zm34.604-283.667c-13.826 13.83-13.826 36.325 0 50.155 13.83 13.829 36.328 13.829 50.157 0 13.83-13.83 13.83-36.325 0-50.155-13.83-13.83-36.328-13.83-50.157 0zM448.389 83.126c-.425-5.846-5.08-10.467-10.908-10.904-29.034-2.186-57.955 1.385-86.304 10.054 2.134 19.476 12.207 40.552 29.405 57.75 17.403 17.4 39.052 27.47 58.876 29.355 7.635-26.757 11.255-55.413 8.931-86.255zm0 0" fill="#08a"/><path d="M363.865 156.746c-19.673-19.673-31.686-43.267-35.54-66.24-70.991 29.115-138.95 92.695-192.65 182.013l26.68 26.68c18.228-7.402 40.357-9.357 54.393 4.676 14.054 14.057 12.062 36.177 4.664 54.381l27.557 27.557c68.722-41.417 148.73-106.669 182.752-193.484-23.533-3.556-47.864-15.59-67.856-35.583zM347.14 257.058c-23.043 23.043-60.544 23.043-83.591 0-23.047-23.047-23.047-60.551 0-83.595 23.047-23.044 60.548-23.044 83.591 0 23.047 23.047 23.047 60.548 0 83.595zm0 0" fill="#08a"/></svg>