<svg xmlns="http://www.w3.org/2000/svg" height="512" viewBox="0 0 24 24" width="512"><path d="M2.773 11.68c.202.59.776.975 1.365 1 .277.04.488-.066 2.345-.683l1.231 3.657-1.845.614c-.772.252-1.182 1.093-.934 1.866.203.589.776.975 1.365 1 .277.04.488-.066 2.346-.684l.637 1.91a1.51 1.51 0 001.87.93c.775-.253 1.182-1.09.934-1.866l-.638-1.91 3.803-1.272.638 1.91a1.51 1.51 0 001.869.93c.776-.253 1.182-1.09.934-1.866l-.638-1.91 1.845-.614c.772-.243 1.182-1.085.93-1.856l-.001-.001a1.478 1.478 0 00-1.869-.93l-1.845.614-1.23-3.658 1.844-.613c.776-.253 1.183-1.09.935-1.866-.253-.772-1.093-1.183-1.87-.93l-1.845.614-.638-1.91c-.252-.772-1.093-1.182-1.869-.93-.775.253-1.182 1.09-.934 1.866l.638 1.91L8.35 8.27l-.637-1.91c-.253-.773-1.093-1.183-1.87-.93-.775.252-1.182 1.088-.934 1.865l.638 1.91-1.84.609c-.776.252-1.182 1.089-.934 1.866zM13.07 9.818l1.231 3.665-3.799 1.272-1.231-3.665z" fill="#08a"/></svg>