<svg xmlns="http://www.w3.org/2000/svg" viewBox="0 0 1000 1000"><path d="M457.49 121.05C229.29 141.18 46.17 315.51 13.85 543.14c-6.52 45.93-4.54 121.33 4.25 163.28 7.94 37.7 25.23 88.73 39.69 117.93 15.31 30.61 30.9 56.41 34.02 56.41 2.55 0 98.93-55.56 102.62-59.24 1.7-1.42-22.11-47.63-27.78-53.86-.85-.85-14.17 6.23-37.42 20.13l-9.07 5.67-5.95-13.89c-15.32-35.73-27.79-81.65-32.33-120.77l-1.98-16.16h51.6v-65.2h-25.51c-29.48 0-27.78 2.83-21.26-35.72 7.36-41.38 26.07-100.63 35.14-109.7 1.7-1.7 9.92 1.42 23.25 9.07 11.34 6.8 21.83 12.19 22.96 12.47 1.13.29 9.07-11.62 17.57-26.36l15.59-26.93-22.39-12.76c-12.47-7.09-22.68-14.17-22.68-15.87 0-1.7 9.92-15.02 22.11-29.76 22.11-26.36 49.89-52.73 73.99-70.3l12.47-8.79 13.04 22.68c6.8 12.47 13.61 22.68 14.74 22.68 1.7 0 50.74-27.5 53.01-29.76.57-.57-5.1-11.34-12.47-23.81-7.37-12.76-12.76-23.53-12.19-24.1 2.83-2.55 37.14-15.88 58.68-22.68 25.51-7.94 66.05-15.88 81.64-15.88h9.64v53.86h62.36v-53.86h9.64c15.59 0 56.13 7.94 81.64 15.88 21.26 6.52 55.84 20.13 58.68 22.68.56.28-5.1 11.34-12.47 23.81-7.09 12.76-12.76 23.53-12.19 24.1 2.27 2.27 51.31 29.76 53.01 29.76 1.13 0 7.94-10.2 15.02-22.68l12.76-22.96 18.14 13.32c30.05 22.11 90.71 87.02 90.43 96.66 0 1.13-10.2 7.94-22.68 15.02l-22.4 12.76 15.6 26.93c8.5 14.74 16.44 26.65 17.58 26.36 1.13-.28 11.62-5.67 22.96-12.47 13.32-7.65 21.54-10.77 23.24-9.07 9.07 9.07 27.78 68.32 35.15 109.71 6.52 38.84 8.5 35.72-22.68 35.72h-26.93v65.2h54.42l-1.98 16.16c-4.53 39.12-17.01 85.04-32.32 120.76l-5.95 13.89-9.07-5.67c-23.25-13.89-36.57-20.98-37.42-20.13-5.67 6.23-29.48 52.44-27.78 53.86 3.68 3.68 100.07 59.24 102.62 59.24 6.8 0 44.79-75.4 57.54-114.81 19.56-59.25 26.08-108 23.81-173.77-4.54-127.85-53.01-238.97-143.44-329.4-102.04-101.76-246.04-154.2-388.63-141.73z"/><path d="M474.5 559.3c-44.51 19.28-47.34 82.21-4.82 106.02 15.02 8.79 37.99 9.35 54.14 1.42 11.34-5.38 11.62-5.38 132.67 5.39 66.9 6.24 121.89 10.49 122.46 9.92.56-.57-50.18-22.11-112.54-47.62-107.16-43.66-114.53-47.06-121.33-56.99-14.46-20.12-46.77-28.63-70.58-18.14z"/></svg>