<svg xmlns="http://www.w3.org/2000/svg" viewBox="0 0 1000 1000"><path d="M360.1 600.3c0 40.9-16.9 74.4-50.7 100.6-33.8 26.2-80 39.3-138.6 39.3-33.1 0-63.5-4-91.2-11.9-27.6-7.8-50.9-16.5-69.6-25.8v-84.6h4c23.7 17.9 50.2 32.2 79.4 42.7 29.2 10.5 57.1 15.8 83.8 15.8 33.1 0 59.1-5.4 77.9-16.1 18.7-10.7 28-27.5 28-50.5 0-17.6-5-31.1-15.2-40.1s-29.7-16.8-58.6-23.2c-10.7-2.4-24.6-5.2-41.9-8.4s-32.9-6.6-47.1-10.5c-39.3-10.5-67.2-25.8-83.6-45.9C20.2 461.6 12 436.8 12 407.4c0-18.4 3.9-35.8 11.4-52.1 7.7-16.3 19.2-30.9 34.7-43.7 14.9-12.5 34-22.5 57.2-29.9 23.1-7.3 49-11 77.6-11 26.7 0 53.8 3.3 81.2 9.9 27.4 6.5 50.2 14.5 68.3 23.8V385h-4c-19.3-14.2-42.6-26.1-70.2-35.9-27.5-9.7-54.5-14.6-81-14.6-27.5 0-50.8 5.3-69.8 15.8s-28.5 26.2-28.5 47c0 18.4 5.7 32.3 17.2 41.7 11.2 9.3 29.4 17 54.5 22.8 14 3.2 29.5 6.4 46.7 9.6 17.2 3.2 31.6 6.2 43.1 8.8 35.1 8 62.1 21.8 81.1 41.3 19.1 19.9 28.6 46.1 28.6 78.8zm438.3 294.3H723V678.8c-23.2 20.1-46.4 34.9-69.4 44.7-22.9 9.8-47.8 14.6-74.5 14.6-53.2 0-95.6-20.5-127.3-61.5-31.7-41.1-47.6-97.6-47.6-169.8 0-38.5 5.5-72.5 16.6-102.1 11-29.6 25.8-54.3 43.9-74.4 17.6-19.4 38.4-34.6 62.1-45.2 23.7-10.7 48.9-16.1 75.4-16.1 24 0 45.3 2.7 63.9 8s37.5 13.2 56.7 23.7l4.8-19.3h70.5l.3 613.2zM723 615.5V362c-20.8-9.3-39.2-15.9-55.2-19.6-16-3.7-33.4-5.6-52.2-5.6-43.5 0-76.7 14.8-99.4 44.3-22.7 29.6-34 70.3-34 122.1 0 52.4 9.2 92.7 27.5 120.9 18.3 28.2 47.1 42.3 86.4 42.3 21.9 0 43.8-4.7 65.8-14.3 21.7-9.4 42.1-21.6 61.1-36.6zm267 113.8h-75.4V105.4H990v623.9z"/></svg>