<svg xmlns="http://www.w3.org/2000/svg" data-name="Layer 1" width="1000" height="700" viewBox="0 0 1000 700"><rect x="346.584" y="621.286" width="66.457" height="63.951" rx="8.378" ry="8.062" fill="#009688"/><rect x="424.044" y="621.286" width="66.457" height="63.951" rx="8.378" ry="8.062" fill="#009688"/><rect x="268.958" y="621.422" width="66.457" height="63.951" rx="8.378" ry="8.062" fill="#009688"/><rect x="657.147" y="621.286" width="66.457" height="63.951" rx="8.378" ry="8.062" fill="#009688"/><rect x="502.501" y="621.286" width="66.457" height="63.951" rx="8.378" ry="8.062" fill="#009688"/><rect x="579.521" y="621.422" width="66.457" height="63.951" rx="8.378" ry="8.062" fill="#009688"/><rect x="346.584" y="545.334" width="66.457" height="63.951" rx="8.378" ry="8.062" fill="#009688" opacity=".7"/><rect x="424.044" y="545.334" width="66.457" height="63.951" rx="8.378" ry="8.062" fill="#009688" opacity=".7"/><rect x="268.958" y="545.47" width="66.457" height="63.951" rx="8.378" ry="8.062" fill="#009688" opacity=".7"/><rect x="657.147" y="545.334" width="66.457" height="63.951" rx="8.378" ry="8.062" fill="#009688" opacity=".7"/><rect x="502.501" y="545.334" width="66.457" height="63.951" rx="8.378" ry="8.062" fill="#009688" opacity=".7"/><rect x="579.521" y="545.47" width="66.457" height="63.951" rx="8.378" ry="8.062" fill="#009688" opacity=".7"/><rect x="268.958" y="471.519" width="66.457" height="63.951" rx="8.378" ry="8.062" fill="#009688" opacity=".5"/><rect x="657.147" y="471.383" width="66.457" height="63.951" rx="8.378" ry="8.062" fill="#009688" opacity=".5"/><rect x="579.521" y="471.519" width="66.457" height="63.951" rx="8.378" ry="8.062" fill="#009688" opacity=".5"/><rect x="346.584" y="471.383" width="66.457" height="63.951" rx="8.378" ry="8.062" fill="#009688" opacity=".5"/><rect x="424.044" y="471.383" width="66.457" height="63.951" rx="8.378" ry="8.062" fill="#009688" opacity=".5"/><rect x="502.501" y="471.383" width="66.457" height="63.951" rx="8.378" ry="8.062" fill="#009688" opacity=".5"/><rect x="331.881" y="370.198" width="66.457" height="63.951" rx="8.378" ry="8.062" fill="#009688" opacity=".4"/><rect x="417.341" y="370.198" width="66.457" height="63.951" rx="8.378" ry="8.062" fill="#009688" opacity=".4"/><rect x="234.255" y="372.334" width="66.457" height="63.951" rx="8.378" ry="8.062" fill="#009688" opacity=".4"/><rect x="698.444" y="370.198" width="66.457" height="63.951" rx="8.378" ry="8.062" fill="#009688" opacity=".4"/><rect x="511.798" y="370.198" width="66.457" height="63.951" rx="8.378" ry="8.062" fill="#009688" opacity=".4"/><rect x="602.818" y="370.334" width="66.457" height="63.951" rx="8.378" ry="8.062" fill="#009688" opacity=".4"/><rect x="327.526" y="270.758" width="66.457" height="63.951" rx="8.378" ry="8.062" fill="#009688" opacity=".3"/><rect x="404.986" y="270.758" width="66.457" height="63.951" rx="8.378" ry="8.062" fill="#009688" opacity=".3"/><rect x="172.88" y="270.758" width="66.457" height="63.951" rx="8.378" ry="8.062" fill="#009688" opacity=".3"/><rect x="249.9" y="270.893" width="66.457" height="63.951" rx="8.378" ry="8.062" fill="#009688" opacity=".3"/><rect x="668.09" y="270.758" width="66.457" height="63.951" rx="8.378" ry="8.062" fill="#009688" opacity=".3"/><rect x="751.55" y="270.758" width="66.457" height="63.951" rx="8.378" ry="8.062" fill="#009688" opacity=".3"/><rect x="499.444" y="270.758" width="66.457" height="63.951" rx="8.378" ry="8.062" fill="#009688" opacity=".3"/><rect x="584.464" y="270.893" width="66.457" height="63.951" rx="8.378" ry="8.062" fill="#009688" opacity=".3"/><rect x="309.55" y="169.663" width="66.457" height="63.951" rx="8.378" ry="8.062" fill="#009688" opacity=".2"/><rect x="405.781" y="169.663" width="66.457" height="63.951" rx="8.378" ry="8.062" fill="#009688" opacity=".2"/><rect x="125.894" y="169.663" width="66.457" height="63.951" rx="8.378" ry="8.062" fill="#009688" opacity=".2"/><rect x="211.446" y="169.799" width="66.457" height="63.951" rx="8.378" ry="8.062" fill="#009688" opacity=".2"/><rect x="681.287" y="169.663" width="66.457" height="63.951" rx="8.378" ry="8.062" fill="#009688" opacity=".2"/><rect x="789.573" y="169.663" width="66.457" height="63.951" rx="8.378" ry="8.062" fill="#009688" opacity=".2"/><rect x="499.283" y="169.663" width="66.457" height="63.951" rx="8.378" ry="8.062" fill="#009688" opacity=".2"/><rect x="585.153" y="169.663" width="66.457" height="63.951" rx="8.378" ry="8.062" fill="#009688" opacity=".2"/><rect x="279.072" y="50.21" width="66.457" height="63.951" rx="8.378" ry="8.062" fill="#009688" opacity=".1"/><rect x="380.423" y="50.21" width="66.457" height="63.951" rx="8.378" ry="8.062" fill="#009688" opacity=".1"/><rect x="88.59" y="50.21" width="66.457" height="63.951" rx="8.378" ry="8.062" fill="#009688" opacity=".1"/><rect x="189.501" y="50.345" width="66.457" height="63.951" rx="8.378" ry="8.062" fill="#009688" opacity=".1"/><rect x="722.993" y="50.21" width="66.457" height="63.951" rx="8.378" ry="8.062" fill="#009688" opacity=".1"/><rect x="852.57" y="46.797" width="66.457" height="63.951" rx="8.378" ry="8.062" fill="#009688" opacity=".1"/><rect x="517.153" y="50.21" width="66.457" height="63.951" rx="8.378" ry="8.062" fill="#009688" opacity=".1"/><rect x="614.651" y="50.345" width="66.457" height="63.951" rx="8.378" ry="8.062" fill="#009688" opacity=".1"/><rect x="438.747" y="524.616" width="66.457" height="63.951" rx="8.378" ry="8.062" fill="#44b700" fill-opacity=".514"/><rect x="517.205" y="524.616" width="66.457" height="63.951" rx="8.378" ry="8.062" fill="#44b700" fill-opacity=".514"/><rect x="440.044" y="423.432" width="66.457" height="63.951" rx="8.378" ry="8.062" fill="#44b700" fill-opacity=".514"/><path d="M602.291 450.676c-5.039-18.935-42.541-37.56-108.144-37.56-65.603 0-103.11 18.625-108.144 37.56-.366.649-.636 1.36-.636 2.163v163.309c0 .715.187 1.39.51 1.99 5.138 21.606 51.113 37.734 108.27 37.734 57.026 0 102.927-16.062 108.235-37.588.349-.631.544-1.36.544-2.136V452.839c0-.803-.27-1.514-.635-2.163zm-8.41 112.44a10.94 10.94 0 01-.505 1.603c-.174.437-.388.874-.623 1.31a15.023 15.023 0 01-1.005 1.63c-.287.41-.613.816-.953 1.222a23.783 23.783 0 01-1.58 1.73c-.352.349-.739.693-1.13 1.042a35.988 35.988 0 01-2.29 1.88c-.356.27-.739.53-1.117.795a50.128 50.128 0 01-3.138 2.043c-.296.181-.613.353-.922.53a71.55 71.55 0 01-4.112 2.193c-.187.093-.383.181-.574.27a93.19 93.19 0 01-5.16 2.29c-.053.023-.106.04-.157.063-9.882 4.003-22.522 7.37-37.25 9.578a5.01 5.01 0 00-.223.03c-2.863.428-5.8.808-8.815 1.143-.492.054-1.01.089-1.506.142a256.45 256.45 0 01-8.036.737c-1.253.093-2.567.137-3.842.216-2.063.124-4.103.26-6.218.336-3.455.11-6.98.18-10.578.18-3.598 0-7.123-.07-10.582-.194-2.115-.074-4.155-.216-6.218-.335-1.275-.075-2.589-.123-3.842-.216a256.525 256.525 0 01-8.036-.737c-.496-.054-1.014-.089-1.506-.142-3.015-.335-5.952-.72-8.815-1.143a5.01 5.01 0 01-.222-.03c-14.729-2.207-27.37-5.575-37.25-9.578a91.845 91.845 0 01-5.317-2.353c-.188-.093-.388-.181-.575-.27a68.9 68.9 0 01-4.112-2.193c-.305-.177-.627-.35-.922-.53a50.142 50.142 0 01-3.138-2.044c-.374-.264-.761-.525-1.118-.794a35.96 35.96 0 01-2.289-1.88c-.387-.345-.778-.689-1.131-1.042a22.913 22.913 0 01-1.58-1.73 18.159 18.159 0 01-.952-1.223 16.474 16.474 0 01-1.005-1.629 13.748 13.748 0 01-.623-1.31 10.812 10.812 0 01-.504-1.603c-.161-.701-.34-1.416-.34-2.127 0-.499.057-.998.135-1.492a4.446 4.446 0 00-.135-1.964v-32.768c.122.114.274.225.4.34.949.847 1.915 1.69 3.003 2.503 16.39 12.574 49.168 22.346 96.674 22.346 47.306 0 80.001-9.692 96.462-22.192a44.422 44.422 0 003.611-2.992l.004-.005v32.768a4.462 4.462 0 00-.135 1.964c.083.494.135.993.135 1.492 0 .71-.178 1.426-.343 2.14zm.343-91.329v32.768a4.462 4.462 0 00-.135 1.964c.083.494.135.993.135 1.492 0 .71-.178 1.426-.344 2.14a10.94 10.94 0 01-.504 1.603c-.174.437-.388.874-.623 1.31a15.024 15.024 0 01-1.005 1.63c-.287.41-.613.816-.953 1.222a23.783 23.783 0 01-1.58 1.73c-.352.349-.739.693-1.13 1.042a35.983 35.983 0 01-2.29 1.88c-.356.27-.739.53-1.117.795a50.121 50.121 0 01-3.138 2.043c-.296.181-.613.353-.922.53a71.456 71.456 0 01-4.112 2.193c-.187.093-.383.181-.574.27a93.19 93.19 0 01-5.16 2.29c-.053.023-.106.04-.157.063-9.882 4.003-22.522 7.37-37.25 9.578a5.01 5.01 0 00-.223.03c-2.863.428-5.8.808-8.815 1.143-.492.054-1.01.089-1.506.142a256.45 256.45 0 01-8.036.737c-1.253.093-2.567.137-3.842.216-2.063.123-4.103.26-6.218.336-3.455.11-6.98.18-10.578.18-3.598 0-7.123-.07-10.582-.194-2.115-.074-4.155-.216-6.218-.335-1.275-.075-2.589-.123-3.842-.216a256.067 256.067 0 01-8.036-.738c-.496-.053-1.014-.088-1.506-.141-3.015-.336-5.952-.72-8.815-1.143a5.032 5.032 0 01-.222-.03c-14.729-2.208-27.37-5.575-37.25-9.579a91.746 91.746 0 01-5.317-2.353c-.188-.092-.388-.18-.575-.269a68.987 68.987 0 01-4.112-2.194c-.305-.176-.627-.348-.922-.53a50.149 50.149 0 01-3.138-2.043c-.374-.265-.761-.525-1.118-.794a35.954 35.954 0 01-2.289-1.88c-.387-.345-.778-.69-1.131-1.042a22.913 22.913 0 01-1.58-1.73 18.159 18.159 0 01-.952-1.223 16.474 16.474 0 01-1.005-1.629 13.748 13.748 0 01-.623-1.31 10.812 10.812 0 01-.504-1.603c-.161-.701-.34-1.416-.34-2.127 0-.499.057-.998.135-1.492a4.446 4.446 0 00-.135-1.964v-32.768c.522.481 1.119.953 1.684 1.43.313.265.605.53.936.795a56.36 56.36 0 004.242 3.072c.318.207.674.41 1.005.617a74.175 74.175 0 004.055 2.375c.527.287 1.053.57 1.597.852a89.221 89.221 0 005.008 2.392c.288.128.549.26.84.384 2.04.878 4.208 1.717 6.462 2.53.622.224 1.275.436 1.914.657 1.793.614 3.647 1.2 5.565 1.77.692.203 1.371.415 2.08.609 2.546.715 5.174 1.395 7.932 2.021.379.089.788.16 1.17.243a196.401 196.401 0 0010.218 1.964c2.467.41 5.008.786 7.614 1.13.67.089 1.31.19 1.989.274 3.237.397 6.587.737 10.029 1.028.849.07 1.732.124 2.593.186 2.755.203 5.57.37 8.45.503 1.049.049 2.093.097 3.164.137 3.75.128 7.57.22 11.53.22 3.96 0 7.78-.092 11.53-.22 1.067-.04 2.111-.088 3.164-.137 2.88-.132 5.696-.3 8.45-.503.862-.067 1.74-.114 2.593-.186a259.73 259.73 0 0010.03-1.028c.679-.084 1.318-.185 1.988-.274a231.64 231.64 0 007.615-1.13 195.82 195.82 0 0010.217-1.964c.382-.083.791-.159 1.17-.243a165.16 165.16 0 007.932-2.021c.71-.199 1.388-.406 2.08-.61a139.693 139.693 0 005.565-1.769c.64-.22 1.293-.433 1.915-.658 2.254-.812 4.425-1.65 6.461-2.529.292-.123.553-.256.84-.384a92.45 92.45 0 005.008-2.392 77.589 77.589 0 001.597-.852 68.938 68.938 0 004.055-2.375c.331-.207.688-.41 1.006-.617a55.116 55.116 0 004.242-3.072c.326-.265.618-.53.935-.795.566-.477 1.162-.949 1.684-1.43zm-100.077-49.844c58.98 0 100.077 17.443 100.077 33.103s-41.097 33.103-100.077 33.103-100.077-17.443-100.077-33.103 41.097-33.103 100.077-33.103zm100.077 192.894a4.416 4.416 0 00-.14.596c-2.467 15.267-43.215 31.611-99.937 31.611-56.722 0-97.471-16.344-99.938-31.611a4.725 4.725 0 00-.14-.578v-37.138c.122.114.275.225.4.34.95.848 1.915 1.69 3.003 2.503 16.39 12.575 49.168 22.347 96.674 22.347 47.306 0 80.001-9.693 96.462-22.193a44.425 44.425 0 003.611-2.992l.005-.005z"/><path d="M475.576 646.322c-40.039-2.792-73.076-13.86-82.867-27.762-1.001-1.421-2.02-3.454-2.266-4.52-.316-1.368-.448-7.705-.448-21.578v-19.64l2.144 1.848c21.38 18.426 71.703 28.172 125.016 24.213 33.128-2.46 60.999-10.701 76.362-22.578 1.994-1.542 3.75-2.875 3.905-2.964.154-.09.28 8.792.28 19.735 0 22.437.091 21.612-2.868 25.723-2.405 3.34-5.299 5.82-10.709 9.176-14.199 8.807-37.094 15.028-65.852 17.891-6.745.671-35.239.976-42.697.456z" fill="#a29fbc"/><path d="M477.431 599.34c-32.096-2.141-58.202-8.842-74.12-19.025-7.013-4.487-10.526-9.35-12.07-14.042-.615-1.865 3.027-9.099 3-27.487-.019-11.081.03-20.148.107-20.148.075 0 1.695 1.262 3.598 2.803 11.585 9.383 31.508 17.073 53.53 20.661 2.632.43 5.448.891 6.258 1.027 5.015.841 16.024 1.79 26.72 2.303 22.727 1.09 47.064-.767 66.6-5.084 20.132-4.448 37.035-11.865 46.276-20.304.846-.773 1.633-1.406 1.749-1.406.115 0 .21 9.132.21 20.293 0 22.882.09 22.036-2.832 26.263-9.002 13.023-36.455 23.35-72.824 27.394-6.569.73-27.435 4.544-41.969.926z" fill="#7a779f"/><path d="M478.331 545.277c-14.97-1.179-24.56-2.448-34.748-4.601-28.9-6.107-49.58-17.32-53.333-28.917-.714-2.207-.756-3.454-.776-23.168-.011-11.46.078-20.836.2-20.836.121 0 .927.655 1.79 1.455 21.918 20.303 76.658 30.69 132.52 25.148 31.054-3.08 58.075-12.24 71.875-24.364 1.401-1.232 2.627-2.239 2.724-2.239.097 0 .176 9.489.176 21.086 0 24.473.17 23.258-3.958 28.518-10.016 12.767-37.746 23.03-72.883 26.971-6.649.746-37.597 1.418-43.587.947z" fill="#545173"/><path d="M476.321 488.56c-39.492-2.603-72.337-12.833-82.862-25.808-4.372-5.389-4.544-9.732-.598-15.055 9.383-12.653 37.947-22.371 76.934-26.174 8.24-.804 39.865-.804 48.105 0 24.631 2.402 42.563 6.402 57.427 12.808 14.355 6.186 22.334 13.527 22.366 20.576.017 3.435-2.297 7.387-6.394 10.924-12.549 10.835-37.998 18.706-71.535 22.123-4.853.494-38.102.959-43.443.607z" fill="#3f3d56"/><path d="M479.767 655.294c-48.502-2.358-85.944-16.519-93.061-35.197l-1.086-2.848V451.931l1.302-3.209c5.739-14.146 27.666-25.78 59.25-31.435 27.988-5.011 63.568-5.272 92.086-.676 33.546 5.406 56.832 17.213 63.003 31.946l1.344 3.21v165.611l-1.02 2.695c-6.291 16.642-36.587 29.796-78.6 34.125-14.01 1.444-28.495 1.811-43.218 1.096zm37.479-8.945c39.403-3.512 70.963-15.271 76.182-28.386l.928-2.334v-19.001c0-10.451-.075-19.002-.168-19.002-.092 0-1.262.884-2.6 1.965-11.651 9.413-31.85 16.709-56.05 20.247-30.518 4.461-68.291 3.562-95.393-2.27-18.617-4.006-34.182-10.417-43.374-17.864-1.411-1.143-2.64-2.078-2.733-2.078-.093 0-.161 8.44-.153 18.753.018 20.244.04 20.504 1.974 23.682 3.721 6.11 15.424 13.02 30.058 17.749 15.285 4.94 30.798 7.538 54.747 9.17 4.59.312 31.13-.145 36.582-.631zm2.496-53.205c27.055-2.716 48.294-8.473 62.24-16.87 6.566-3.953 11.092-8.83 12.001-12.93.343-1.544.568-38.72.235-38.72-.076 0-1.085.79-2.242 1.754-4.72 3.934-13.156 8.6-20.819 11.517-19.297 7.343-41.172 10.973-70.588 11.715-44.976 1.133-85.012-7.734-103.931-23.02-1.338-1.081-2.512-1.965-2.61-1.965-.38 0-.115 37.304.277 38.747 3.822 14.092 36.368 26.696 77.392 29.97 3.255.26 6.967.545 8.249.633 5.8.398 33.262-.175 39.796-.831zm.373-52.988c7.85-.811 11.642-1.329 18.65-2.546 29.445-5.113 51.109-15.47 54.918-26.257.639-1.808.675-3.094.587-20.768l-.093-18.84-3.766 2.842c-12.97 9.79-34.652 16.934-61.15 20.15-31.036 3.766-68.72 2.053-94.505-4.295-5.139-1.265-14.407-4.186-18.6-5.863-7.27-2.908-15.627-7.632-19.846-11.22-1.124-.955-2.136-1.736-2.25-1.736-.431 0-.164 37.242.278 38.827 2.579 9.244 17.847 18.253 40.773 24.057 13.16 3.332 26.332 5.263 44.118 6.469 5.893.4 34.674-.178 40.886-.82zm-1.614-52.773c22.634-2.298 41.395-6.566 54.82-12.47 4.406-1.938 11.713-6.226 14.096-8.273 4.364-3.747 6.928-8.058 6.936-11.66.017-8.244-11.795-17.22-30.978-23.538-26.626-8.77-65.136-11.895-99.389-8.066-42.062 4.703-72.097 18.943-69.965 33.172.593 3.959 4.703 8.908 10.625 12.793 14.514 9.52 40.008 16.185 70.516 18.434 6.821.502 37.238.227 43.34-.392z" fill="#2b2b2b"/></svg>