<svg xmlns="http://www.w3.org/2000/svg" viewBox="0 0 1000 1000"><path d="M990 810.3V189.6c0-18-14.6-32.7-32.7-32.7H42.7c-18 0-32.7 14.6-32.7 32.7v620.7c0 18 14.6 32.7 32.7 32.7h914.7c34.3 0 32.6-32.7 32.6-32.7zm-718.7 0H42.7V679.6h228.7v130.7h-.1zm0-163.3H42.7V516.3h228.7V647zm0-163.3H42.7V353h228.7v130.7zm0-163.4H42.7V189.6h228.7v130.7zm227.7 490H304V679.6h196l-1 130.7zm0-163.3H304V516.3h196L499 647zM304 483.7V353h195l1 130.7H304zm196-163.4H304V189.6h196v130.7zm228.7 490h-195l-2-130.7h197v130.7zm0-163.3h-195l-2-130.7h197V647zm0-163.3h-196l-1-130.7h197v130.7zm0-163.4h-196l-1-130.7h197v130.7zm228.6 490h-196l-1-130.7h197v130.7zm0-163.3h-196l-1-130.7h197V647zm0-163.3h-197V353h197v130.7zm0-163.4h-196l-1-130.7h197v130.7zM238.7 549H75.3v65.3h163.3V549zm0 163.3H75.3v65.3h163.3v-65.3zm0-326.6H75.3V451h163.3v-65.3zm228.6-163.4H336.7v65.3h130.7v-65.3zm228.7 0H565.3v65.3H696v-65.3zm-457.3 0H75.3v65.3h163.3v-65.3zm686 0H794v65.3h130.7v-65.3z"/></svg>