<svg xmlns="http://www.w3.org/2000/svg" xmlns:xlink="http://www.w3.org/1999/xlink" data-name="Layer 1" width="1500" height="779.709" viewBox="0 0 1500 779.709"><defs><linearGradient id="a" x1="585.6" y1="663" x2="585.6" y2="249" gradientUnits="userSpaceOnUse"><stop offset="0" stop-color="gray" stop-opacity=".25"/><stop offset=".54" stop-color="gray" stop-opacity=".12"/><stop offset="1" stop-color="gray" stop-opacity=".1"/></linearGradient><linearGradient gradientTransform="matrix(1.10701 0 0 1.13415 253.303 -74.357)" id="b" x1="266.19" y1="487.11" x2="266.19" y2="486.89" xlink:href="#a"/></defs><path fill="#a0616a" d="M1399.645 721.738h-20.194v29.697h17.819zm21.977 1.782l7.126 16.63 11.879 4.752 2.376-33.262-9.504-4.75z"/><path d="M1437.063 737.774s-1.007-7.498-11.194-4.343l1.691 22.162s-8.315 24.945 3.564 22.57c11.879-2.377 19.006-24.946 19.006-24.946l8.315-38.012-20.08-5.883z" fill="#7c6f91"/><path d="M1362.227 485.944s-16.63 125.915-10.691 140.17c5.94 14.254 68.303 106.315 68.303 106.315l27.321-35.637-61.176-76.618 57.019-78.4 4.751-47.515z" fill="#2f2e41"/><path fill="#2f2e41" d="M1404.397 734.805l-29.698-5.94 19.6-136.013 33.261-61.77 15.682 8.3-.24 2.392z"/><path d="M1377.67 742.526l-7.128 10.69s-15.442 26.134 1.188 26.134 23.758 0 24.945-5.94a78.274 78.274 0 013.564-11.878l-1.188-15.443z" fill="#7c6f91"/><circle cx="1423.997" cy="323.204" r="26.133" fill="#a0616a"/><path d="M1402.615 331.52s3.564 20.193-7.127 23.757c-10.691 3.563 13.066 51.079 13.066 51.079l27.322-45.14s-7.128-15.442-2.376-22.57z" fill="#a0616a"/><path d="M1408.554 386.162l-6.448-38.71-12.558 7.825-33.26 19.006 13.066 55.83-4.751 34.449s-5.94 10.69-4.752 15.442c1.188 4.752-1.188 7.127 0 8.315 1.188 1.188 60.582 10.691 78.4 17.819 17.818 7.127 20.194 9.503 19.006 3.563-1.188-5.94-14.254-34.448-14.254-34.448l10.69-47.516 14.255-41.575-34.605-31.937z" fill="#575a89"/><path d="M1459.633 438.428l8.315 22.57-21.382 39.2-6.977 5.427a7.126 7.126 0 00-2.516 7.438l4.742 18.02 12.429-18.458s33.898-40.936 32.71-51.627c-1.188-10.69-4.751-27.321-4.751-27.321zm-117.6-19.006l-5.94 29.697-22.57 55.83s-24.945 23.758-13.066 28.51c11.88 4.751 26.134-23.758 26.134-23.758l28.509-53.454 10.69-32.073z" fill="#a0616a"/><path d="M1454.882 383.786l9.562-.859 3.504 3.235s20.194 45.14 17.818 49.89c-2.375 4.752-26.133 7.128-26.133 7.128l-9.503-28.51zm-90.279-8.316l-5.894-2.571-2.422 1.384s-23.757 47.515-17.818 49.89c5.94 2.377 34.449 5.94 34.449 5.94z" fill="#575a89"/><path opacity=".2" d="M1389.548 625.825l-7.241 50.25-6.74-10.354z"/><path d="M1440.983 307.727s2.632 6.928-9.584 3.376c0 0-4.84 2.36-4.558-1.667 0 0-6.671 6.278-7.94 2.143-1.27-4.135-4.745 1.017-4.745 1.017l-2.632-6.928-3.383 3.81-10.853-.759s-1.225-27.06 35.8-21.775c37.023 5.285 15.744 46.537 15.744 46.537s.234-7.655-3.148-3.846c-3.382 3.81-4.7-21.908-4.7-21.908z" fill="#2f2e41"/><path d="M819.113 592.592l-18.078 17.75c-4.14 18.146-14.314 21.22-14.314 21.22-27.487 5.012-15.066-21.55-15.066-21.55l17.435-30.225 2.148-3.73s12.432-3.857 20.712-1.543a7.085 7.259 0 012.823 1.565c5.192 4.616 4.34 16.513 4.34 16.513zm111.464 15.821c-12.808 3.856-21.84-10.026-21.033-13.507.808-3.482-11.7-30.826-11.7-30.826l.973-7.214.908-6.68 21.033 1.543 1.982 4.264 12.332 26.596s8.314 21.968-4.495 25.824z" fill="#504416"/><path d="M814.972 579.096c-1.981 3.481-18.044 1.724-25.87.635l2.147-3.732s12.432-3.856 20.712-1.542a7.085 7.259 0 012.823 1.565c.11 1.883.188 3.074.188 3.074zm107.79-23.126c-10.771 7.35-22.24 1.792-23.967.874l.908-6.68 21.033 1.542z" opacity=".1"/><path d="M925.685 517.364c-3.764 6.17 0 34.728 0 34.728-12.432 11.58-27.111 3.084-27.111 3.084l-2.214-69.829s-24.476-57.49-41.801-55.947c-17.325 1.542-45.94 63.66-45.94 63.66s7.903 53.236 6.398 57.84c-1.506 4.605 0 27.005 0 27.005-2.635 4.627-30.122 0-30.122 0l-7.904-100.316 10.494-22.388c6.033-21.911 16.284-45.365 22.417-58.522 3.044-6.544 5.081-10.536 5.081-10.536l20.037-4.276 65.037-13.813 23.37 87.147c4.516 8.484 7.15 27.776 7.15 27.776s-1.129 28.217-4.892 34.387z" fill="#565387"/><path d="M745.076 267.171s-21.465 1.134-18.454 24.305l6.022.771 9.033-10.026 4.517-8.483v-1.928z" fill="#ced2df"/><path d="M745.076 267.171s-21.465 1.134-18.454 24.305l6.022.771 9.033-10.026 4.517-8.483v-1.928z" opacity=".1"/><path d="M983.869 275.655s17.712 9.64 13.185 20.834l-5.646 2.268-7.528-4.242-1.107-10.025.753-6.941z" fill="#ced2df"/><path d="M983.869 275.655s17.712 9.64 13.185 20.834l-5.646 2.268-7.528-4.242-1.107-10.025.753-6.941z" opacity=".1"/><rect x="831.732" y="176.111" width="61.76" height="47.838" rx="23.347" ry="23.919" fill="#88455e"/><path d="M744.932 270.449l-13.185 21.549-1.107-3.834-17.911-59.792a8.978 9.198 0 01.277-6.204c4.527-11.273 20.49-48.768 26.28-31.245 6.775 20.414-11.679 42.44-11.679 42.44 2.103 17.873 11.9 30.825 15.753 35.317.974 1.168 1.572 1.769 1.572 1.769zm236.114 9.255s20.712-20.064 19.926-28.161c0 0-19.583-32.403-9.786-39.695 7.75-5.807 19.517 23.454 24.078 35.895a11.845 12.135 0 01-.786 10.208l-24.753 44.9zm-134.07-55.937s3.764 24.69-7.151 33.957c-10.915 9.266 31.262 9.209 31.262 9.209l15.066-14.279s-17.325-16.592-12.055-28.932z" fill="#ec8c9c"/><path d="M846.223 251.928s16.196 12.351 32.38-1.542l26.358 55.947-1.505 68.287s-54.61 28.932-77.203 11.194c-22.594-17.738-3.764-27.004-3.764-27.004l-5.27-52.465 5.646-33.957s10.163-16.207 10.927-16.207c.763 0 12.431-4.253 12.431-4.253z" opacity=".1"/><path d="M846.223 251.157s16.196 12.374 32.391-1.542l26.358 55.947-1.505 68.287s-54.61 28.932-77.203 11.194c-22.594-17.738-3.764-27.004-3.764-27.004l-5.27-52.466 5.646-33.956s10.163-16.207 10.927-16.207c.763 0 12.42-4.253 12.42-4.253z" fill="#f55"/><path d="M846.223 245.384s-15.354 8.96-32.026 8.518a11.8 12.09 0 00-8.513 3.334c-4.749 4.673-13.062 12.067-18.21 12.067-1.107 0-33.144 6.556-33.144 6.556l-8.468-8.676s-12.62 25.268-18.642 24.112l10.926 14.664s20.712 9.255 47.823-1.928h15.819l8.28 26.233s-4.14 35.499-7.527 43.21c-3.388 7.713 1.107 22.763 1.107 22.763l29.745-1.134s1.506-15.05 3.764-17.012c2.258-1.962-7.904-68.287-7.904-68.287s-6.775-37.427 18.077-50.923z" opacity=".1"/><path d="M835.01 381.913a98.314 100.724 0 00-2.337 13.916l-22.77.884c3.043-6.544 5.08-10.536 5.08-10.536zm-90.078-111.464l-13.185 21.549-1.107-3.834c4.838-4.922 10.506-15.209 12.764-19.496.93 1.18 1.528 1.78 1.528 1.78z" opacity=".1"/><path d="M846.223 245.384s-16.118 8.96-32.778 8.518a11.8 12.09 0 00-8.513 3.334c-4.75 4.673-13.063 12.067-18.21 12.067-1.108 0-33.145 6.556-33.145 6.556l-8.501-8.688s-12.62 25.269-18.642 24.112l10.926 14.665s20.712 9.254 47.823-1.928h15.819l8.28 26.221s-4.14 35.499-7.527 43.211c-3.388 7.712 1.107 22.762 1.107 22.762l29.745-1.134s1.506-15.05 3.764-17.012c2.258-1.962-7.904-68.287-7.904-68.287s-6.775-37.427 18.077-50.923z" fill="#fc0"/><path d="M878.614 243.048s15.366 12 35.879 13.383a10.904 11.171 0 016.144 2.438 59.469 60.926 0 0112.963 15.878c8.28 13.894 28.616 12.351 28.616 12.351s19.771-6.362 20.9-11.341c0 0 .565 27.22 12.997 20.641l-16.351 19.303a11.535 11.818 0 01-8.247 4.072c-6.144.25-16.816.329-25.827-1.463-13.56-2.7-23.347-9.255-30.498-3.47 0 0-9.41 30.088-3.011 40.897 6.398 10.808 17.712 28.932 12.432 33.57-5.28 4.64-11.68 4.242-22.218-6.94-10.539-11.183-11.679-30.09-11.679-30.09l2.635-48.609s-10.163-36.656-19.926-43.982z" opacity=".1"/><path d="M997.607 295.91l-16.395 19.383a11.524 11.806 0 01-3.952 3.017 11.48 11.761 0 01-4.273 1.032c-6.144.26-16.815.34-25.826-1.463-12.687-2.53-22.074-8.427-29.093-4.446a10.295 10.548 0 00-1.417.964s-9.41 30.089-3.01 40.897c6.398 10.809 17.711 28.933 12.431 33.571a12.177 12.476 0 01-2.945 1.962c-4.738 2.19-10.616.295-19.273-8.903-10.539-11.194-11.679-30.089-11.679-30.089l2.635-48.61s-10.162-36.655-19.926-43.981l4.306-15.822c2.967 2.064 17.779 11.761 36.089 12.997a10.904 11.171 0 016.144 2.439 59.513 60.972 0 0112.963 15.878c8.28 13.893 28.616 12.35 28.616 12.35a109.893 112.587 0 0014.247-5.806c2.89-1.452 5.436-3.04 6.642-4.537a3.321 3.402 0 00.72-1.36s.575 27.083 12.996 20.527z" opacity=".1"/><path d="M996.854 296.296l-16.384 19.405a11.524 11.806 0 01-3.188 2.632 11.49 11.772 0 01-5.026 1.417c-6.143.261-16.815.34-25.826-1.463-12.233-2.438-21.41-8.018-28.329-4.831a10.24 10.49 0 00-2.214 1.35s-9.41 30.088-3.01 40.897c6.398 10.808 17.712 28.932 12.431 33.57a13.063 13.383 0 01-2.214 1.577c-4.87 2.756-10.893 1.134-20.026-8.518-10.538-11.194-11.679-30.088-11.679-30.088l2.635-48.61s-10.162-36.656-19.926-43.982l4.516-16.593.543.386c2.967 2.064 17.778 11.761 36.088 12.997a10.904 11.171 0 016.144 2.439 59.513 60.972 0 0112.963 15.878c8.28 13.893 28.617 12.35 28.617 12.35a109.893 112.587 0 0014.247-5.806c3.42-1.792 6.21-3.754 6.642-5.546v.975c.332 4.684 1.993 25.36 12.996 19.564z" fill="#fc0"/><path d="M874.43 224.346h-27.675a67.727 69.387 0 01.52 13.61 28.45 29.148 0 0029.247 2.154c-2.657-5.035-4.273-10.751-2.092-15.764z" opacity=".1"/><ellipse cx="863.548" cy="214.501" rx="27.487" ry="28.161" fill="#ec8c9c"/><path d="M857.836 209.488c3.066-.374 6.133-1.485 9.155-.861 2.745.567 5.081 2.506 7.826 3.096 5.292 1.134 10.207-2.858 14.203-6.578l8.635-8.053c1.915-1.78 3.886-3.652 4.87-6.101.986-2.45.643-5.671-1.46-7.214-3.155-2.268-8.59 0-10.871-3.22-1.03-1.452-.875-3.403-1.406-5.138-1.107-3.47-4.915-5.365-8.48-5.41-3.564-.046-6.974 1.293-10.384 2.268a59.779 61.244 0 01-22.14 2.166 14.148 14.494 0 00-6.055.216 8.469 8.676 0 00-4.915 5.977c-1.705 6.17 1.206 16.116 4.129 21.64 2.922 5.523 11.059 7.95 16.893 7.213z" opacity=".1"/><path d="M857.836 208.717c3.066-.374 6.133-1.485 9.155-.862 2.745.567 5.081 2.507 7.826 3.097 5.292 1.134 10.207-2.859 14.203-6.579l8.635-8.052c1.915-1.78 3.886-3.652 4.87-6.102.986-2.45.643-5.67-1.46-7.213-3.155-2.268-8.59 0-10.871-3.22-1.03-1.453-.875-3.403-1.406-5.139-1.107-3.47-4.915-5.364-8.48-5.41-3.564-.045-6.974 1.294-10.384 2.269a59.779 61.244 0 01-22.14 2.166 14.148 14.494 0 00-6.055.216 8.469 8.676 0 00-4.915 5.977c-1.705 6.17 1.206 16.116 4.129 21.64 2.922 5.522 11.059 7.893 16.893 7.212z" fill="#88455e"/><path d="M809.891 330.445s6.022.771 9.033 4.628c3.011 3.856 8.28 5.013 8.28 5.013m-71.545-60.576s4.915 11.24 1.882 12.374c-3.034 1.134-1.882 9.255-1.882 9.255" opacity=".1"/><path d="M547.48 477.847a.852.873 0 001.008.136 3.432 3.516 0 01-1.008-.136z" fill="url(#b)"/><path d="M585.55 493.079l-.996 5.546-.764 4.242-1.395 7.757-13.527 9.697s-1.218-1.066-3.233-2.756c-5.535-4.673-17.192-14.154-25.749-19.28a28.782 29.488 0 00-7.074-3.346z" fill="#ffbdc6"/><path d="M585.55 493.079l-.996 5.546a42.066 43.098 0 01-8.922-.465l-31.561.465a96.843 96.843 0 01-4.196-.352 28.782 29.488 0 00-7.074-3.345z" opacity=".1"/><path d="M575.632 497.253s15.786 2.767 16.682-4.163c.897-6.93-8.114-10.581-15.764-11.103-7.65-.522-53.668 2.79-53.668 2.79s-8.114 11.08 21.189 12.93z" fill="#7679b4"/><path d="M585.55 493.079l-.996 5.546-.764 4.242-1.395 7.757-13.527 9.697s-1.218-1.066-3.233-2.756c-5.535-4.673-17.192-14.154-25.749-19.28a28.782 29.488 0 00-7.074-3.346z" opacity=".1"/><path d="M585.55 493.079l-.996 5.546a42.066 43.098 0 01-8.922-.465l-31.561.465a96.843 96.843 0 01-4.196-.352 28.782 29.488 0 00-7.074-3.345z" opacity=".1"/><path d="M575.632 497.253s15.786 2.767 16.682-4.163c.897-6.93-8.114-10.581-15.764-11.103-7.65-.522-53.668 2.79-53.668 2.79s-8.114 11.08 21.189 12.93z" opacity=".1"/><path fill="#a66477" d="M527.609 269.505h82.506v100.236h-82.506z"/><path opacity=".1" d="M527.609 269.505h82.506v100.236h-82.506z"/><path d="M430.9 441.112c-1.36.352-3.088 1.69-5.025 3.64-8.336 8.439-20.225 28.23-20.225 28.23-15.232-18.577 1.627-33.265 8.856-38.312 1.75-1.225 2.923-1.882 2.923-1.882zm153.754-139.965s4.062 29.102 18.033 36.032c13.97 6.93-18.033 19.859-18.033 19.859l-43.738-16.627s24.797-8.313 19.837-32.8zm-46.849 175.067l-.996 5.546-.764 4.242-1.395 7.757-13.528 9.697s-1.217-1.066-3.232-2.756c-5.535-4.672-17.192-14.154-25.75-19.28a28.782 29.488 0 00-7.073-3.346z" fill="#ffbdc6"/><path d="M537.805 476.214l-.996 5.546a42.066 43.098 0 01-8.923-.465l-31.56.465a96.843 96.843 0 01-4.196-.351 28.782 29.488 0 00-7.074-3.346z" opacity=".1"/><path d="M527.842 480.376s15.786 2.768 16.683-4.162c.896-6.93-8.115-10.627-15.786-11.08-7.672-.454-53.657 2.767-53.657 2.767s-8.115 11.08 21.188 12.93z" fill="#7679b4"/><path d="M536 486.013l-1.394 7.758-13.528 9.697s-1.218-1.066-3.232-2.756l17.889-15.028z" opacity=".1"/><path d="M625.259 591.761q-.93-.465-1.882-.987l-1.65-2.155-21.785-28.353v.499c-.144 4.707-1.716 42.247-13.96 45.706-13.074 3.697-28.86 4.616-36.066-20.324-7.207-24.94-20.292-79.447-33.82-82.68l20.06-16.864s13.284 15.878 18.708 31.166c-.2-.975-9.376-44.878-1.804-52.635h65.822s10.14 29.646 17.137 44.345c5.424 11.41 13.56 38.38 18.82 56.628 5.202 18.055-12.975 33.933-29.58 25.654z" fill="#7679b4"/><path d="M623.421 473.436c-10.151 6.158-54.786 3.651-69.332 2.653l-3.952-.294c-.432 0 .066-.25.066-.25l.41-4.196 10.816-28.173 57.94-34.387c-1.173 3.618-1.571 9.164-1.472 15.527.288 20.392 5.524 49.12 5.524 49.12z" opacity=".1"/><path d="M623.421 472.063c-10.151 6.159-54.786 3.652-69.332 2.654l-3.952-.295h-.653l.72-.193 3.564-.964 7.66-31.415 57.942-34.41c-1.174 3.617-1.572 9.163-1.473 15.526.288 20.358 5.524 49.097 5.524 49.097z" fill="#5df"/><path d="M617.897 422.92c-11.778 2.78-37.705 10.956-47.668 30.623-6.642 13.133-12.177 18.77-16.129 21.129l-3.952-.295.067-.25 3.564-.964 7.66-31.416 57.942-34.41c-1.196 3.72-1.583 9.221-1.484 15.584zm-200.524 9.879l13.528 8.313c-1.362.352-3.089 1.69-5.026 3.64-1.107-3.401-8.214-8.074-11.424-10.07 1.749-1.225 2.922-1.883 2.922-1.883zm130.395 42.156a.808.828 0 01-.952-.124 3.255 3.334 0 00.952.124z" opacity=".1"/><path d="M578.333 335.33s-12.177 1.384-20.746-7.848c0 0-36.066 10.627-48.243 34.648-12.177 24.022-95.137 71.134-95.137 71.134s14.391 8.313 13.074 12.476l54.553-32.335s19.384-14.324 24.798-17.556c5.413-3.233 35.17-23.092 41.48 30.95 6.31 54.042 0 47.635 0 47.635s9.021 3.232 22.14-22.683c13.118-25.916 53.656-31.87 53.656-31.87l2.214-27.22s8.048-18.055 1.882-25.586a15.609 15.991 0 01-3.609-7.814c-1.03-6.918 0-18.453 14.392-28.036 22.14-14.744 30.664-26.789 30.664-26.789s.454-8.778-13.074-12.929-68.535-26.789-68.535-26.789l-1.805 7.849 43.285 31.416s-21.642 18.01-38.746 17.556c-.066-.08 3.089 13.326-12.243 13.791z" fill="#0cf"/><path d="M586.69 313.816a88.56 90.732 0 01-2.49-11.342l-23.9 6.51a26.347 26.993 0 01-.543 14.12 25.705 26.335 0 0026.934-9.3z" opacity=".1"/><ellipse cx="566.842" cy="296.293" rx="25.705" ry="26.335" fill="#ffbdc6"/><path d="M580.502 236.399c7.13.828 13.916 3.97 20.934 5.67a10.34 10.593 0 005.413.216c2.724-.862 4.938-3.788 7.75-3.697 1.737 0 3.32 1.27 4.715 2.438a56.58 57.966 0 016.498 5.909c4.838 5.387 7.85 12.646 12.266 18.498 4.417 5.852 11.38 10.411 17.657 7.724-4.262 17.012-18.255 30.02-33.377 31.075-6.033.42-12.177-.862-18.055.953a15.808 16.196 0 01-4.56 1.134c-3.322 0-6.067-3.164-8.17-6.238-4.916-7.236-8.857-15.447-14.392-22.036-1.826-2.178-3.985-4.253-6.564-4.65-2.58-.397-4.96.862-7.262 2.087-3.797 2.018-7.683 4.105-10.628 7.553-2.944 3.448-4.804 8.608-3.586 13.28.653 2.519 2.158 4.787 2.214 7.43 0 4.196-3.565 7.27-4.284 11.34a42.73 43.778 0 00-.177 5.173c-.321 5.602-3.886 10.207-7.628 13.711-1.45 1.373-3.066 2.836-3.487 4.957-.288 1.44 0 2.971-.188 4.434-.542 3.64-4.085 5.478-7.218 5.954A20.923 21.435 0 01517.547 348c4.428-2.121 7.073-8.166 6.055-13.61-1.395-7.497-8.745-12.872-8.125-20.517a23.17 23.738 0 012.036-6.748 60.277 61.754 0 003.476-12.793 21.155 21.674 0 00-.21-10.207c-.94-2.938-2.856-5.274-4.494-7.758a42.974 44.028 0 01-5.203-10.922 7.472 7.655 0 01-.498-3.606 7.295 7.474 0 012.214-3.743c4.03-4.321 8.346-8.824 13.704-10.071a30.73 31.484 0 017.75-.306 91.04 93.272 0 0013.516-.59c3.698-.442 9.963-.386 13.085-2.858 2.911-2.269 4.56-5.16 8.159-6.612a23.878 24.464 0 0111.49-1.26zm14.292 271.923s14.878 30.02 10.373 39.264" opacity=".1"/><path d="M580.502 235.503c7.13.828 13.916 3.97 20.934 5.67a10.34 10.593 0 005.413.216c2.724-.862 4.938-3.788 7.75-3.697 1.737 0 3.32 1.27 4.715 2.438a56.58 57.966 0 016.498 5.91c4.838 5.386 7.85 12.645 12.266 18.497 4.417 5.852 11.38 10.411 17.657 7.724-4.262 17.012-18.255 30.02-33.377 31.075-6.033.42-12.177-.862-18.055.953a15.808 16.196 0 01-4.56 1.134c-3.322 0-6.067-3.164-8.17-6.238-4.916-7.236-8.857-15.447-14.392-22.036-1.826-2.178-3.985-4.253-6.564-4.65-2.58-.397-4.96.862-7.262 2.087-3.797 2.018-7.683 4.105-10.628 7.553-2.944 3.448-4.804 8.608-3.586 13.28.653 2.519 2.158 4.787 2.214 7.43 0 4.196-3.565 7.27-4.284 11.34a42.73 43.778 0 00-.177 5.173c-.321 5.602-3.886 10.207-7.628 13.711-1.45 1.373-3.066 2.836-3.487 4.957-.288 1.44 0 2.971-.188 4.434-.542 3.64-4.085 5.478-7.218 5.954a20.923 21.435 0 01-10.826-1.315c4.428-2.121 7.073-8.166 6.055-13.61-1.395-7.497-8.745-12.872-8.125-20.517a23.17 23.738 0 012.036-6.748 60.277 61.754 0 003.476-12.793 21.155 21.674 0 00-.21-10.207c-.94-2.938-2.856-5.274-4.494-7.758a42.974 44.028 0 01-5.203-10.922 7.472 7.655 0 01-.498-3.606 7.295 7.474 0 012.214-3.743c4.03-4.321 8.346-8.824 13.704-10.071a30.73 31.484 0 017.75-.306 91.04 93.272 0 0013.516-.59c3.698-.442 9.963-.386 13.085-2.858 2.911-2.268 4.56-5.16 8.159-6.612a23.878 24.464 0 0111.49-1.26z" fill="#a66477"/><path d="M1078.328 545.157s-6.31-10.207-15.786-.918c-9.476 9.288-16.23 40.183-16.23 40.183s-3.608 24.95 8.57 18.475c0 0 14.39-20.789 18.486-21.708 4.096-.918 8.568-12.475 8.568-12.475zm67.627 24.94s-8.568-4.162-11.27-.918c-2.7 3.243-11.723 35.567-11.723 35.567s-2.7 21.253 6.31 20.323c9.011-.93 24.797-34.205 24.797-34.205z" fill="#493545"/><path d="M1145.955 570.097s-8.568-4.162-11.27-.918c-2.7 3.243-11.723 35.567-11.723 35.567s-2.7 21.253 6.31 20.323c9.011-.93 24.797-34.205 24.797-34.205z" opacity=".05"/><path d="M1175.711 507.277l19.384 30.95s-1.35 6.93-13.074 5.547l-40.129 25.87s-3.487 31.495 7.66 28.637c1.805-.465 14.392-13.86 23.447-12.93l53.214-21.253s12.62-7.395 5.856-31.87c-6.764-24.475-29.125-81.227-29.125-81.227l-35.347 20.255z" fill="#3e3d77"/><path d="M1175.711 507.277l19.384 30.95s-1.35 6.93-13.074 5.547l-40.129 25.87s-3.487 31.495 7.66 28.637c1.805-.465 14.392-13.86 23.447-12.93l53.214-21.253s12.62-7.395 5.856-31.87c-6.764-24.475-29.125-81.227-29.125-81.227l-35.347 20.255z" opacity=".05"/><path d="M1187.889 553.006c2.7 17.556-12.62 18.94-12.62 18.94s-68.99 1.384-77.104-.465c-8.114-1.849-18.94 3.232-18.94 3.232-13.982-8.778-2.702-30.486-2.702-30.486s28.86-.918 35.624-2.268c6.764-1.35 41.026-3.266 41.026-3.266s-2.701-17.092-20.746-60.507c-12.254-29.488-3.32-46.84 3.73-54.927a29.69 30.418 0 016.19-5.58l55.46 2.768a71.956 73.72 0 00.31 8.585 89.247 91.435 0 007.362 28.354c-3.155 0-23.447 19.405-23.447 19.405s3.144 58.67 5.857 76.215z" fill="#3e3d77"/><path fill="#493545" d="M1135.128 248.136h27.952v72.517h-27.952z"/><path opacity=".1" d="M1135.128 248.136h27.952v72.517h-27.952z"/><path d="M1179.066 237.497c.963.273 2.048.307 2.7 1.668a9.963 10.207 0 01.654 3.402l1.76 22.41a12.177 12.476 0 00.82 4.288c.74 1.52 1.97 1.701 2.933 2.676 1.937 1.974 2.502 6.919 1.97 10.945-.531 4.026-1.87 7.474-2.922 11.115-1.506 5.217-2.502 11.08-4.617 15.48-2.114 4.401-5.955 6.806-8.435 3.108-2.48-3.697-2.148-11.16-2.612-17.273-.775-10.207-4.661-19.008-4.927-29.283-.221-8.314 1.96-16.071 3.321-23.954.975-5.41 1.03-11.976 2.447-16.842 1.184 5.784 3.443 11.285 6.908 12.26z" fill="#493545"/><path d="M1179.066 237.497c.963.273 2.048.307 2.7 1.668a9.963 10.207 0 01.654 3.402l1.76 22.41a12.177 12.476 0 00.82 4.288c.74 1.52 1.97 1.701 2.933 2.676 1.937 1.974 2.502 6.919 1.97 10.945-.531 4.026-1.87 7.474-2.922 11.115-1.506 5.217-2.502 11.08-4.617 15.48-2.114 4.401-5.955 6.806-8.435 3.108-2.48-3.697-2.148-11.16-2.612-17.273-.775-10.207-4.661-19.008-4.927-29.283-.221-8.314 1.96-16.071 3.321-23.954.975-5.41 1.03-11.976 2.447-16.842 1.184 5.784 3.443 11.285 6.908 12.26z" opacity=".1"/><path d="M1060.737 205.64l-10.815 9.243s-1.284-1.543-3.2-4.038c-7.516-9.833-24.797-34.5-12.586-38.913 12.21-4.411 21.863 19.644 25.273 29.579a98.027 98.027 0 011.328 4.128zm195.233-3.233c-4.506 6.93-10.816 0-10.816 0s-.808-1.236-1.948-3.232c-3.709-6.431-10.982-20.687-6.166-26.335 5.535-6.454 19.25 15.572 19.671 25.904a6 6.147 0 01-.741 3.663zm-110.923 74.831s9.022 29.567 6.31 38.334c-2.712 8.767 19.395 18.974 19.395 18.974h25.25s9.023-18.94 6.765-24.486c-2.259-5.546-21.642-9.697-21.642-9.697s-11.27 0-10.816-30.95z" fill="#c77485"/><path d="M1060.737 205.64l-10.815 9.243s-1.284-1.543-3.2-4.038c3.93-.715 10.03-6.59 12.698-9.334a106.451 106.451 0 011.317 4.128zm195.233-3.233c-4.506 6.93-10.816 0-10.816 0s-.808-1.236-1.948-3.232l.144-.465c2.922 2.143 12.01.317 13.361 0a6 6.147 0 01-.741 3.697zm-57.875 226.613c-13.948 6.522-59.27-5.091-61.993-5.783a29.69 30.418 0 016.189-5.58l55.461 2.767a71.956 73.72 0 00.343 8.597z" opacity=".1"/><path d="M1150.914 302.643s-10.815 3.697-26.147-10.627c0 0-34.318-34.648-36.532-42.962l-26.568-47.634s-11.27 12.476-15.786 10.627l29.756 53.124s5.414 10.207 10.373 12.929c0 0 36.974 48.507 37.417 58.204.443 9.697 16.66 35.67 16.66 35.67s5.414 42.03-4.062 49.425c0 0 52.75 13.86 64.018 4.616 0 0-4.959-52.17 0-57.74 0 0 15.333-18.474 4.96-38.798 0 0-2.214-11.08 3.609-16.627 5.823-5.546 32.015-46.659 32.015-46.659s6.31-9.243 6.31-15.243c0 0 11.723-40.647 9.963-51.274 0 0-10.373 2.268-13.528 0 0 0-15.332 47.634-17.137 49.426-1.804 1.792-14.39 39.264-31.107 43.426-16.716 4.163-19.383 6-19.383 6s32.457 20.789 16.682 30.02c-15.775 9.233-41.513-25.903-41.513-25.903z" fill="#37c837"/><path d="M1171.405 284.349a86.159 88.27 0 01-.653-13.122l-25.25 7.848a34.052 34.886 0 011.582 5.308c2.89 1.304 6.786 4.39 10.14 4.39a22.993 23.556 0 0014.181-4.424z" opacity=".1"/><ellipse cx="1156.77" cy="263.379" rx="23.446" ry="24.021" fill="#c77485"/><path d="M1128.874 226.371c-5.159.409-10.915 4.06-10.628 9.357.155 2.915 2.104 5.376 2.956 8.166 2.048 6.748-2.513 13.52-6.52 19.28-4.007 5.762-7.75 13.395-4.317 19.497a46.926 48.076 0 003.166 4.23c4.24 5.863 4.184 13.78 6.066 20.823a35.657 36.53 0 0041.89 26.085 22.295 22.842 0 01-4.706-15.447c.255-4.037 1.528-8.256 0-11.988-1.97-4.797-7.749-6.691-10.726-10.888-2.978-4.196-2.779-10.014-1.34-15.016 1.44-5.001 3.93-9.64 5.125-14.744a43.35 44.413 0 011.108-4.411c2.08-6.057 8.302-9.573 14.39-11.081 6.09-1.509 12.488-1.6 18.432-3.584 5.945-1.985 11.724-6.635 12.41-13.02-5.004 2.053-9.642-3.3-14.469-5.761-7.948-4.038-17.014-.239-25.206.691-9.332 1.066-18.188-2.892-27.631-2.189z" opacity=".1"/><path d="M1128.42 225.453c-5.159.408-10.915 4.06-10.627 9.356.155 2.915 2.103 5.376 2.955 8.166 2.048 6.749-2.513 13.52-6.52 19.28-4.007 5.762-7.75 13.395-4.317 19.497a46.926 48.076 0 003.166 4.23c4.24 5.864 4.184 13.78 6.066 20.823a35.657 36.53 0 0041.89 26.086 22.295 22.842 0 01-4.705-15.448c.254-4.037 1.527-8.256 0-11.987-1.97-4.798-7.75-6.692-10.727-10.888-2.978-4.197-2.779-10.015-1.34-15.016 1.44-5.002 3.93-9.64 5.126-14.744a43.35 44.413 0 011.107-4.412c2.08-6.056 8.302-9.572 14.39-11.08 6.09-1.51 12.488-1.6 18.433-3.585 5.944-1.984 11.723-6.634 12.41-13.02-5.005 2.053-9.643-3.3-14.47-5.761-7.948-4.038-17.014-.238-25.206.692-9.31 1.054-18.133-2.95-27.631-2.19z" fill="#493545"/><path d="M1179.995 316.74s9.388 8.586 11.237 12.374m9.078 38.901s-11.724 0-17.137 1.384c-5.414 1.383-18.487 0-18.487 0" opacity=".1"/><path d="M329.676 715.29c.775 5.785 13.522 21.167 13.522 21.167s8.226-18.197 7.45-23.989a10.583 10.583 0 00-20.933 2.823z" fill="#6c63ff"/><path d="M329.676 715.29c.775 5.785 13.522 21.167 13.522 21.167s8.226-18.197 7.45-23.989a10.583 10.583 0 00-20.933 2.823z" opacity=".25"/><path d="M314.263 717.547c3.1 4.977 20.933 13.878 20.933 13.878s.148-19.972-2.915-24.95a10.575 10.575 0 10-18.018 11.072z" fill="#6c63ff"/><path fill="#d38884" d="M136.868 438.597l30.599 10.322-6.119 18.138-30.598-10.32z"/><path d="M346.415 519.334s4.652 8.529-4.132 19.639c0 0-3.101 10.04-1.031 12.777 2.07 2.737-.714 33.223-.714 33.223s7.172 17.577 3.56 23.524c0 0-1.551 6.528 1.03 9.854 2.582 3.326 7.63 45.706 2.52 62.251-5.11 16.546.062 28.943.062 28.943s-.643 5.684-2.52 6.978c-1.876 1.295 4.653 6.978 4.653 6.978a9.017 9.017 0 01-10.413 3.102c-6.715-2.326-26.098-.776-26.098-.776s-3.101-3.651 0-6.605c3.102-2.954 8.529-2.699 5.94-5.8-2.59-3.101-4.653-5.947-3.358-12.925 1.295-6.978.775-26.617.775-26.617s-2.325-19.127-.775-21.19c1.55-2.062 2.326-7.241-1.55-11.118-3.877-3.876-6.459-19.933-5.172-27.408l-14.468-48.31-28.431-46.52 41.767-6.024z" fill="#4c4981"/><path d="M319.535 338.938v29.463h-39.542l-1.031-2.892s3.876-10.793 9.048-16.732c2.566-2.954 1.372-8.397-.489-13.126a59.499 59.499 0 00-4.427-8.847s35.665-22.484 33.859-8.784a46.683 46.683 0 00-.364 8.83c.434 7.94 2.946 12.088 2.946 12.088z" fill="#febfba"/><path d="M316.953 318.004a46.683 46.683 0 00-.364 8.831 27.718 27.718 0 01-29.068 8.8 59.499 59.499 0 00-4.427-8.846s35.665-22.485 33.859-8.785z" opacity=".1"/><path d="M323.008 308.336a27.656 27.656 0 11-27.648-27.625 27.61 27.61 0 0127.648 27.625z" fill="#febfba"/><path d="M284.909 345.327l-12.15 19.383-6.978 52.156v42.76l1.55 15.243 28.804 2.07 12.809-43.039 9.823-44.054 10.591-9.048-25.066-28.431s-4.838 6.784-10.304 10.73a4.652 4.652 0 01-7.079-5.427c1.55-4.063 2.954-8.575 1.876-9.653a11.196 11.196 0 00-5.171-2.66" opacity=".1"/><path d="M284.133 346.102l-12.15 19.383-6.977 52.157v42.76l1.55 15.242 28.804 2.07 12.808-43.038 9.824-44.054 10.59-9.048-25.065-28.432s-4.839 6.784-10.305 10.73a4.652 4.652 0 01-7.078-5.427c1.55-4.062 2.954-8.575 1.876-9.652a11.196 11.196 0 00-5.172-2.66" fill="#e6e8ec"/><path opacity=".1" d="M347.454 510.286l-.52-7.102-12.14 7.621-9.049 15.763h25.067z"/><path fill="#e6e8ec" d="M347.454 508.735l-.52-7.102-12.14 7.622-9.049 15.762h25.067z"/><path d="M290.08 339.303s-22.748 12.56-23.523 16.437c-.776 3.876-6.203 30.493-6.203 30.493v24.035l22.484-8.241-1.287-32.867 8.01-19.623s1.884-6.459.519-10.234z" opacity=".1"/><path d="M289.305 338.527s-22.748 12.56-23.524 16.437a24140.57 24140.57 0 01-6.202 30.494v24.035l22.484-8.242-1.287-32.866 8.01-19.623s1.883-6.459.519-10.235z" fill="#ff718d"/><path d="M351.843 515.713c.256 10.335-2.846 20.523-2.846 20.523-3.876-3.667-7.148-14.537-8.319-19.91-1.954 6.621-17.522 18.515-17.522 18.515v3.613c-.776 10.079-33.34 3.1-33.34 3.1l2.07-129.735s2.582-24.555-.775-31.967c-3.357-7.412-2.326-20.755-2.326-20.755s3.102-5.428 6.459-7.234c3.357-1.807 22.135-19.593 22.725-20.159a16.158 16.158 0 000 2.218c.48 6.505 5.163 6.923 5.163 6.923 4.133 1.66 17.833 22.904 17.833 22.904 6.458 2.86 11.63 11.63 14.212 16.096 2.582 4.465 1.814 12.064 1.814 12.064s4.388 5.427 4.388 9.048c0 3.62 1.55 10.854 1.55 10.854l-12.916 29.936.775 43.17s.799 20.461 1.055 30.796z" opacity=".1"/><path d="M353.393 513.387c.256 10.335-2.845 20.523-2.845 20.523-3.877-3.667-7.149-14.537-8.32-19.91-1.953 6.621-17.522 18.515-17.522 18.515v3.613c-.775 10.079-33.339 3.1-33.339 3.1l.17-10.582v-1l1.885-118.122s2.582-24.555-.776-31.967c-3.357-7.412-2.326-20.755-2.326-20.755s3.102-5.428 6.459-7.234c3.357-1.807 22.136-19.593 22.725-20.159a16.158 16.158 0 000 2.218c.48 6.505 5.163 6.923 5.163 6.923 4.133 1.66 17.833 22.904 17.833 22.904 6.459 2.86 11.63 11.63 14.212 16.096 2.582 4.465 1.814 12.064 1.814 12.064s4.388 5.427 4.388 9.048c0 3.62 1.551 10.854 1.551 10.854L353.03 436.08l-1.45 3.35.775 43.17s.784 20.453 1.04 30.788z" fill="#ff718d"/><path d="M347.834 748.444s-9.947 6.07-17.057 8.272c-7.11 2.202-23.128 1.675-29.075 0-3.977-1.124-1.876-4.97.845-8.048a26.749 26.749 0 013.807-3.582c2.977-2.201 6.335-11.118 8.405-12.924 2.07-1.807-.651-8.141-.651-8.141s4.783-5.683 7.11-6.459c2.325-.775 13.823 5.815 13.823 5.815l8.405 1.42c-.907 1.162 2.97 10.854 3.745 12.273.364.674.527 3.24.597 5.768.085 2.83.046 5.606.046 5.606z" opacity=".1"/><path d="M347.834 749.219s-9.947 6.07-17.057 8.273c-7.11 2.202-23.128 1.674-29.075 0-3.977-1.124-1.876-4.97.845-8.048a26.749 26.749 0 013.807-3.582c2.977-2.202 6.335-11.118 8.405-12.925 2.07-1.806-.651-8.14-.651-8.14s4.783-5.684 7.11-6.46c2.325-.775 13.823 5.816 13.823 5.816l8.405 1.418c-.907 1.163 2.97 10.855 3.745 12.274.364.674.527 3.24.597 5.768.085 2.83.046 5.606.046 5.606z" fill="#626696"/><path d="M347.834 749.219s-9.947 6.07-17.057 8.273c-7.11 2.202-23.128 1.674-29.075 0-3.977-1.124-1.876-4.97.845-8.048 7.017 1.28 31.463.163 31.463.163l13.778-6.025c.085 2.861.046 5.637.046 5.637zm-18.732-4.784s-11.498-6.202-17.189-3.489c-5.69 2.714 17.19 3.49 17.19 3.49z" opacity=".1"/><path d="M242.266 604.876v68.81a17.747 17.747 0 01-1.551 7.289l-5.032 11.188a15.98 15.98 0 00-.132 12.692c.775 1.961 1.28 3.698.527 3.915-1.806.52-6.202 3.179-6.202 3.179s25.066 30.16 34.37 22.663c9.304-7.498 4.916-57.375 4.916-57.375s.52-43.93 1.03-44.705c.513-.775 1.296-24.81 1.296-24.81z" fill="#4c4981"/><path d="M324.706 339.303l-24.035 18.243h-10.335s3.101-5.427 6.458-7.234c3.358-1.806 22.136-19.592 22.725-20.158a5.094 5.094 0 000 2.217c.838 3.706 5.187 6.932 5.187 6.932z" opacity=".1"/><path d="M324.706 338.527l-24.035 18.244h-10.335s3.101-5.428 6.458-7.234c3.358-1.807 22.136-19.593 22.725-20.159a5.094 5.094 0 000 2.218c.838 3.706 5.187 6.931 5.187 6.931z" fill="#ff718d"/><path d="M266.968 293.116a9.816 9.816 0 01-.24-5.598c.821-3.985 3.201-7.893 6.977-9.404 1.876-.776 3.931-.877 5.885-1.38 4.652-1.21 8.474-4.575 13.018-6.157 4.543-1.581 9.497-1.302 14.056.101a44.295 44.295 0 0112.584 6.63c3.791 2.705 7.412 5.799 9.885 9.737 2.474 3.94 3.683 8.878 2.388 13.344-.837 2.884-2.62 5.373-3.954 8.055-2.326 4.753-3.256 10.08-3.644 15.375-.116 1.613-6.753 8.986-7.986 7.544-.93-1.077-.845-2.667-.775-4.086.256-4.365-.535.047.775-4.52.372-1.287-.55-2.698-1.45-3.69-.899-.993-2.574-1.396-3.582-.528-1.008.869-.945 2.582-1.922 3.505-1.225 1.163-3.42.333-4.25-1.14-.829-1.473-.72-3.264-.666-4.954.055-1.69 0-3.536-1.132-4.823-1.132-1.287-2.698-1.682-3.505-3-1.209-1.97.132-4.652-.69-6.808-.775-1.97-3.1-2.876-5.233-2.775-4.931.248-9.808 3.582-14.809 1.589-1.97-.775-3.372-2.799-5.295-3.512-2.675-1.031-5.048-.101-6.435-3.505z" fill="#36123a"/><path d="M262.548 739.489l-64.22-1.652c-3.877-2.14-4.87-4.38-4.49-6.396.706-3.722 6.04-6.645 6.04-6.645l17.058-2.326 16.444-13.568c2.629 1.55 3.326 6.203 3.326 6.203s21.066 14.211 23.904 14.73c1.426.257 1.907 2.676 2.031 5.025a34.192 34.192 0 01-.092 4.629z" opacity=".1"/><path d="M261.773 740.264l-64.22-1.652c-3.877-2.14-4.87-4.38-4.49-6.396.706-3.722 6.04-6.645 6.04-6.645l17.057-2.326 16.445-13.568c2.628 1.55 3.326 6.203 3.326 6.203s21.066 14.212 23.903 14.731c1.427.256 1.908 2.675 2.032 5.024a34.192 34.192 0 01-.093 4.629z" fill="#626696"/><path d="M261.773 740.264l-64.22-1.652c-3.877-2.14-4.87-4.38-4.49-6.396l68.803 3.42a34.192 34.192 0 01-.093 4.628zm54.211-417.561a14.134 14.134 0 00.775-2.326c.372-1.287-.55-2.698-1.45-3.69-.9-.993-2.574-1.396-3.582-.528-1.008.868-.946 2.582-1.923 3.504-1.225 1.163-3.419.334-4.248-1.14-.83-1.472-.721-3.263-.667-4.954.054-1.69 0-3.535-1.132-4.822s-2.698-1.683-3.505-3c-1.21-1.97.132-4.653-.69-6.808-.775-1.97-3.101-2.877-5.233-2.776-4.931.248-9.808 3.582-14.809 1.59-1.97-.776-3.373-2.8-5.295-3.513-2.722-1.015-5.094-.085-6.474-3.504a9.816 9.816 0 01-.24-5.598c.046-.225.1-.45.154-.667a15.731 15.731 0 00-.93 2.993 9.816 9.816 0 00.232 5.652c1.38 3.42 3.753 2.489 6.474 3.505 1.923.713 3.327 2.729 5.296 3.512 5 1.993 9.878-1.341 14.809-1.59 2.109-.1 4.481.776 5.233 2.776.822 2.163-.52 4.838.69 6.808.776 1.318 2.505 1.822 3.505 3 1 1.179 1.178 3.101 1.132 4.823-.047 1.72-.163 3.48.667 4.954.83 1.473 3.023 2.326 4.248 1.14.977-.923.9-2.62 1.923-3.505 1.024-.884 2.683-.457 3.582.527.9.985 1.807 2.365 1.458 3.637zm.736 6.319c-.93-1.078-.845-2.667-.775-4.086a8.335 8.335 0 000-2.163c-1.31 4.504-.527.14-.775 4.489-.086 1.419-.17 3.008.775 4.086 1.233 1.442 7.87-5.932 7.986-7.544 0-.287.054-.582.077-.869-1.76 2.652-6.287 7.25-7.288 6.087zm11.63-22.919a29.982 29.982 0 00-1.915 5.016 28.253 28.253 0 011.14-2.69c1.334-2.683 3.101-5.171 3.954-8.056.062-.209.116-.426.163-.643-.923 2.202-2.28 4.24-3.342 6.373zm-84.123 376.825s1.636 5.164 6.435 5.815c4.8.652-6.435-5.815-6.435-5.815zm-5.427 25.974s4.652.132 9.242 0c4.59-.132-9.242 0-9.242 0zm80.758-56.862s5.815.263 9.304-2.195c3.489-2.458-9.304 2.194-9.304 2.194zm22.361-31.79s-9.18 4.653-7.366 6.591c1.814 1.938 7.366-6.59 7.366-6.59zm-5.428 14.344c.644-.387 5.428-2.97 6.59-5.551 1.164-2.582-6.59 5.551-6.59 5.551z" opacity=".1"/><path d="M175.734 738.233l-5.814 2.326-8.723 1.938-7.645-2.714-2.046-6.202s3.41-10.894 3.535-18.53c0-.706 0-1.38-.046-2.017a35.084 35.084 0 01.465-8.714 31.416 31.416 0 011.28-5.048h12.21l1.326 6.885 1.551 8.234a18.934 18.934 0 01.992 5.009 4.365 4.365 0 01-.217 1.488 1.357 1.357 0 00-.078.357 18.205 18.205 0 00.373 4.055v.054c.899 5.21 2.837 12.879 2.837 12.879zm36.247 8.528l-20.158-2.52s1.077-3.946 1.961-9.304c.334-2.008.636-4.217.845-6.49a21.446 21.446 0 013.156-9.59 13.243 13.243 0 012.179-2.721l12.017 2.713s.094 2.326.132 5.21c.055 4.32 0 9.956-.713 11.173l-.047.093c-1.07 2.202.628 11.436.628 11.436z" fill="#b15885"/><path d="M172.556 721.245l-.047-2.706.341.86a4.365 4.365 0 01-.217 1.49 1.357 1.357 0 00-.078.356zm3.178 16.988l-5.814 2.326-8.723 1.938-7.645-2.714-2.046-6.202s3.41-10.894 3.535-18.53c.271-.9.419-1.42.419-1.42l-1.551 18.608a4.218 4.218 0 004.257 4.56l11.296-.164a4.21 4.21 0 004.133-4.652l-.683-6.644c.884 5.226 2.823 12.894 2.823 12.894z" opacity=".1"/><path d="M155.46 714.407a136.52 136.52 0 01-6.575 18.01c-2.962 6.358 5.04 13.801 8.986 16.957a7.055 7.055 0 004.42 1.55h5.062a7.071 7.071 0 005.66-2.821c2.156-2.87 4.993-7.39 4.753-11.033-.388-5.815-5.257-17.755-5.257-17.755l.055 3.194 1.047 10.273a4.218 4.218 0 01-4.125 4.652l-11.297.155a4.21 4.21 0 01-4.256-4.551z" fill="#626696"/><path d="M168.95 699.272l1.326 6.885c-3.272 5.931-11.164.938-14.816-1.837a31.416 31.416 0 011.279-5.048zm43.163 24.788c-3.985 1.868-12.157-3.652-14.328-5.203a13.243 13.243 0 012.179-2.721l12.017 2.713s.094 2.31.132 5.21z" opacity=".1"/><path d="M237.373 577.546c-1.744 3.682-5.427 43.03-4.846 52.916.582 9.885-1.163 25.392-1.163 25.392s-6.784 35.665-12.211 45.744a53.97 53.97 0 00-6.009 20.159c-3.876 4.264-15.894-4.846-15.894-4.846 3.101-1.744 3.489-21.515 4.264-23.066.776-1.55.97-8.335.97-8.335l2.132-40.705s.969-11.63-1.939-15.7c-2.907-4.07 0-16.282 0-16.282l-1.333-34.89-1.551-20.158s-3.489 21.515-6.396 28.88c-2.908 7.366-2.908 25.78-2.908 25.78-.581 12.018-7.947 26.75-7.947 26.75 0 14.537-10.08 50.202-11.824 52.722-1.744 2.52 0 11.823 0 11.823-3.877 9.498-17.142-2.52-17.142-2.52s2.217-6.59 1.248-8.14c-.97-1.551-1.248-10.855-1.248-10.855s3.186 4.07.666-17.445a103.344 103.344 0 012.97-38.96s3.427-13.568 1.613-27.137c-1.815-13.568-1.613-38.378-1.613-38.378V529.8l3.233-5.947s73.075-11.436 78.502-4.458a10.754 10.754 0 011.55 4.404c2.59 13.847-1.596 50.528-3.124 53.746z" fill="#e6e8ec"/><path d="M230.194 621.25s-6.785 2.04-7.071 3.397c0 0 6.396-2.016 7.07-3.396zm-.869 8.53s-16.382 7.466-23.554-.97a34.324 34.324 0 0023.554.97zm-21.283 5.721s16.864 3.683 19.864 0zm-42.976-19.677s-4.722 2.442-6.334.977zm.488 5.426s-7.575.776-7.753 1.699c-.178.923 7.753-1.698 7.753-1.698zm-5.582-87.611s34.014-.295 39.829 1.938c5.815 2.233 9.986-2.613 9.986-2.613l-9.304 20.446s-3.977-23.547-38.867-14.732z" opacity=".1"/><path d="M157.134 345.063c-.775 1.24-1.55 2.853-.775 4.078a12.925 12.925 0 001.047 1.117 5.094 5.094 0 01.907 2.109c.923 3.721 1.116 7.916-.962 11.134-.969 1.496-2.372 2.69-3.163 4.287-1.116 2.233-.853 4.892-.45 7.358a27.734 27.734 0 002.629 8.839 12.056 12.056 0 006.753 5.993c1.721.527 3.799.682 4.807 2.171 1.117 1.628.473 4.31 2.148 5.358 1.147.72 2.636.14 3.876-.45 1.722-.822 3.606-1.838 4.187-3.652.364-1.147.155-2.497.845-3.481.558-.776 1.55-1.179 2.117-2a4.195 4.195 0 00.504-1.768l1.039-7.878a8.164 8.164 0 00.092-2.17c-.232-1.807-1.597-3.226-2.845-4.552-1.985-2.109-3.923-4.442-4.652-7.25-1.109-4.364.907-8.853 1.24-13.342a6.978 6.978 0 00-.209-2.652 8.722 8.722 0 00-2.055-2.993 15.584 15.584 0 00-3.1-2.799c-2.637-1.628-5.475-1.28-8.405-1.256-2.931.023-4.017 1.334-5.575 3.8z" fill="#1e1637"/><path d="M155.42 409.493l-3.1 5.815-.776.775c-3.489 3.272-17.36 16.197-19.22 16.538-2.132.388-12.995-16.902-12.995-16.902l16.344-13.793.652-.55zm61.407-15.894l-26.361 10.467s-25.974 3.101-17.833-11.242a26.857 26.857 0 002.582-6.288c3.373-12.406-2.582-24.338-2.582-24.338s30.626-27.136 26.75-6.978c-1.932 10.08 2.403 19.631 7.233 26.702a65.383 65.383 0 0010.211 11.677z" fill="#b15885"/><circle cx="182.774" cy="344.753" r="25.586" opacity=".1"/><circle cx="182.774" cy="343.978" r="25.586" fill="#b15885"/><path d="M216.827 393.599l-26.361 10.467s-25.974 3.101-17.833-11.242a26.857 26.857 0 002.582-6.288c5.893 7.551 14.863 8.614 14.863 8.614 10.475 1.093 12.475-6.847 16.538-13.228a65.383 65.383 0 0010.211 11.677zm-61.407 15.894l-3.1 5.815-.776.775-4.272-3.721-11.723-10.235.124-.224.652-.55zM240.498 523.8c-7.265 3.101-19.128 4.008-23.671 4.187-6.59.263-13.824.52-27.524 6.978-13.7 6.458-32.114-3.613-32.114-3.613V529.8l3.233-5.947s73.075-11.436 78.502-4.458a10.754 10.754 0 011.574 4.404z" opacity=".1"/><path d="M246.414 516.62c-1.04 7.754-23.005 9.56-29.595 9.816-6.59.256-13.824.52-27.524 6.978-13.7 6.458-32.114-3.613-32.114-3.613v-1.055c0-3.023.039-11.924 0-18.119v-5.125c0-2.814 0-6.776-.194-10.645a47.52 47.52 0 00-1.031-8.738c-1.233-4.931-.109-7.753 1.062-10.467l.163-.388c1.225-2.837-.194-7.234-1.225-11.366a36.75 36.75 0 01-.775-7.133c-.07-2.38 0-4.241 0-4.241 2.326-5.683 1.876-11.235.969-16.173-.9-4.947-2.264-9.304-1.745-12.507a12.808 12.808 0 00-.078-5.07 5.838 5.838 0 00-1.992-3.458l-4.296-3.745-11.723-10.219s2.365-4.256 5.032-10.374a119.3 119.3 0 004.474-11.785c.202-.62.388-1.248.574-1.876 3.613-12.405 22.996-5.171 22.996-5.171.264 22.228 19.903 24.554 19.903 24.554 12.405 1.295 12.924-10.08 19.057-16.538 6.133-6.458 28.238 10.08 28.238 10.08s.17 5.993-.117 14.01a169.324 169.324 0 01-1.984 21.368c-.923 5.427-2.241 10.451-4.102 13.956a28.928 28.928 0 00-1.55 3.535 34.114 34.114 0 00-2.094 12.15c0 .775 0 1.55.078 2.271a41.441 41.441 0 001.225 7.754 27.206 27.206 0 00.822 2.69s.69 1.512 1.799 4.016c1.55 3.497 3.876 8.917 6.342 14.832a392.854 392.854 0 014.04 10.204c1.876 4.946 3.504 9.676 4.48 13.366.69 2.784 1.055 4.955.885 6.226z" fill="#ffcde5"/><path d="M236.474 404.252a169.324 169.324 0 01-1.985 21.368 32.905 32.905 0 01-6.427.9c-3.28.085-6.529-.582-9.808-.667-3.52-.093-7.025.48-10.545.69-7.024.426-14.049-.574-21.02-1.551l-6.558-.954a50.334 50.334 0 01-5.373-.977c-1.481-.372-2.916-.891-4.373-1.341a80.231 80.231 0 00-16.042-2.954 5.838 5.838 0 00-1.992-3.458l-4.296-3.745q-2.97-9.025-5.915-18.05a41.53 41.53 0 01-.776-2.535 119.3 119.3 0 004.474-11.785 62.15 62.15 0 003.559 8.979 24.702 24.702 0 003.147 5.093c3.055 3.637 7.583 5.668 12.08 7.18 11.63 3.877 23.927 5.133 36.115 6.327a100.878 100.878 0 0011.94.69c3.101-.078 6.203-.442 9.304-.776a104.491 104.491 0 0014.49-2.434zm-7.668 38.883a34.114 34.114 0 00-2.094 12.149h-.085c-2.628 1.093-5.132 2.52-7.87 3.31a35.812 35.812 0 01-8.962 1.016q-6.753.194-13.522.357c-13.793.333-27.865.55-41.092-3.233-.07-2.38 0-4.241 0-4.241 2.326-5.683 1.876-11.235.969-16.174 1.341.66 2.783 1.683 3.396 1.97a56.49 56.49 0 007.614 2.923c6.822 2.054 13.955 2.768 21.104 3.101a277.568 277.568 0 0034.82-.535 42.72 42.72 0 005.722-.643zm8.172 43.744a178.63 178.63 0 00-3.543.697 85 85 0 00-9.622 2.373c-2.869.954-5.621 2.21-8.529 3.179-6.83 2.326-14.119 2.923-21.337 3.194a240.786 240.786 0 01-36.999-1.465 47.52 47.52 0 00-1.03-8.738c-1.234-4.931-.11-7.753 1.061-10.467 3.272.233 6.885 1.248 8.754 1.55 5.939.946 11.886 2.07 17.925 2.156a104.747 104.747 0 0010.91-.62l8.947-.822a71.803 71.803 0 008.257-1.086c2.644-.558 5.218-1.41 7.83-2.124 3.606-.977 7.359-1.698 10.995-2.652a486.274 486.274 0 016.38 14.825zm8.521 23.57a68.787 68.787 0 00-12.615 5.35c-3.101 1.767-6.079 3.876-9.358 5.365a51.21 51.21 0 01-11.211 3.186q-10.995 2.14-22.105 3.792c-10.956 1.55-22.26 2.729-33.045.604 0-3.023.04-11.924 0-18.119 3.94-.876 9.304-.21 12.638-.07 7.754.31 15.406 1.877 23.113 1.396a87.798 87.798 0 0011.676-1.799l21.903-4.388a10.63 10.63 0 003.427-1.101 15.134 15.134 0 002.636-2.326c2.388-2.326 5.428-3.823 8.42-5.234 1.954 4.924 3.544 9.653 4.52 13.344z" fill="#ff90c9"/><path d="M225.681 488.251c2.543-.31 5.086 1 7.63.651-.884 1.357-2.737 1.551-4.335 1.784a44.194 44.194 0 00-5.101 1.17c-.675.179-4.544 1.628-5.024 1.148-1.14-1.155 5.791-4.629 6.83-4.753zm1.535 8.436a20.763 20.763 0 00-3.21 2.574 15.91 15.91 0 01-6.086 3.148 6.56 6.56 0 007.405-.566 7.443 7.443 0 011.969-1.497c.597-.232 1.271-.21 1.868-.457.776-.334 2.42-2.272 1.985-3.218-.558-1.194-3.155-.419-3.93.016zm-12.901-30.161c.698.776 1.892.776 2.876 1.156a13.398 13.398 0 011.861.992 9.7 9.7 0 007.924.643c-.985-1.48-2.124-3.023-3.815-3.566-1.403-.457-2.923-.116-4.38.14a7.792 7.792 0 01-3.412.062c-.938-.264-2.442-.962-1.054.573z" opacity=".1"/><path d="M161.135 315.771c-3.667 4.079-4.846 10.328-9.482 13.258-1.303.822-2.807 1.319-4.094 2.171-3.784 2.505-4.923 7.444-5.76 11.902-.528 2.814-.435 6.683 2.325 7.389.892.224 1.838 0 2.737.178 2.326.419 3.497 3.101 3.295 5.474-.201 2.372-1.34 4.458-1.984 6.706a4.016 4.016 0 00.038 3.016 3.45 3.45 0 002.466 1.551c3.101.558 6.257-1.272 8.118-3.815 1.86-2.543 2.675-5.69 3.326-8.769a128.519 128.519 0 002.326-15.452c.388-4.458.581-9.11 2.729-13.04 2.148-3.932 6.978-6.832 11.126-5.172 2.946 1.17 5.078 4.372 8.25 4.504.938.04 1.953-.201 2.775.264a3.636 3.636 0 011.295 1.66c3.365 6.729 6.365 14.064 5.559 21.545-.504 4.652-2.489 9.227-2.078 13.918.295 3.38 1.83 6.598 1.807 9.994-.023 3.396-1.505 6.404-2.458 9.575a30.339 30.339 0 00-.837 13.8 9.118 9.118 0 001.635 4.28 3.877 3.877 0 004.11 1.45l1.194 8.188a3.52 3.52 0 00.55 1.682c1.435 1.846 4.311-.519 6.637-.255.86 3.1 4.125 4.954 7.28 5.582 3.156.628 6.451.395 9.599 1.062 2.97.628 5.745 2.04 8.761 2.396 7.242.853 14.43-5.792 14.15-13.088-.194-5.07-3.342-9.49-5.001-14.297-4.652-13.537 2.76-29.113-2.186-42.565-1.551-4.296-4.335-8.064-6.203-12.25-2.962-6.668-3.698-14.5-8.39-20.097a31.4 31.4 0 00-6.86-5.714c-2.397-1.605-4.885-3.171-7.677-3.877-4.706-1.194-9.63.186-14.46.713-5.109.551-10.032-.775-15.072-.488a48.07 48.07 0 00-12.932 2.326 16.197 16.197 0 00-6.614 4.295z" fill="#1e1637"/><path d="M155.235 373.75c.636 2.11 2.59 3.52 3.877 5.32a9.436 9.436 0 011.55 7.163c-.775 4.024-4.14 7.754-3.031 11.692a10.855 10.855 0 002.28 3.745c3.162 3.877 6.837 7.947 11.776 8.8a4.652 4.652 0 002.326-.093 4.776 4.776 0 002.008-1.636 11.808 11.808 0 002.272-9.405 41.573 41.573 0 01-1.039-4.528c-.279-3.31 1.628-6.35 3.202-9.304 1.574-2.954 2.9-6.481 1.473-9.482-1.007-2.132-3.178-3.442-5.295-4.489a52.846 52.846 0 00-14.731-4.69c-2.326-.388-3.427-.722-5.094 1.186-1.334 1.581-2.194 3.706-1.574 5.721z" fill="#1e1637"/><path d="M228.015 465.34a6.978 6.978 0 01-1.946-.775 16.088 16.088 0 01-3.256-2.683 42.201 42.201 0 01-4.8-5.427c-1.55-2.171-3.985-6.056-3.76-8.823.775-.117 2.326.837 3.024 1.24a10.932 10.932 0 012.737 2.799 20.43 20.43 0 003.876 3.675 27.043 27.043 0 012.784 2.078l.085.085a41.441 41.441 0 001.256 7.831zm-16.034 281.421l-20.158-2.52s1.077-3.946 1.961-9.304l-.287 4.652a2.132 2.132 0 001.97 2.264l13.025 1.032a2.148 2.148 0 002.326-1.97v-3.667l.38-2.326c.055.108.101.233.155.357-1.07 2.248.628 11.482.628 11.482z" opacity=".1"/><path d="M193.862 734.449s-7.18 14.56-2.877 18.515c3.102 2.907 13.886 2.078 19.43 1.419a3.582 3.582 0 003.156-3.807c-.303-4.42-1-11.964-2.326-14.84l-.38 2.326v3.667a2.14 2.14 0 01-2.326 1.962l-13.026-1.024a2.148 2.148 0 01-1.97-2.264z" fill="#626696"/><path d="M195.234 340.055c-.357 3.287 1.287 6.412 2.225 9.583a23.213 23.213 0 01-1.473 16.809c-1.016 2.031-2.326 3.93-3.047 6.094-1.915 5.87 1.853 12.956 7.792 14.654 1.636.473 3.404.581 4.892 1.418 3.04 1.698 3.877 5.7 3.8 9.18-.078 3.482-.535 7.188 1.077 10.273 1.357 2.598 4.016 4.288 6.761 5.32a22.919 22.919 0 0015.266.24 12.095 12.095 0 004.552-2.567c2.132-2.047 3.008-5.086 3.302-8.032a26.943 26.943 0 00-3.287-15.716c-2.217-3.962-5.427-7.288-7.893-11.08a37.216 37.216 0 01-6.024-18.297c-.186-3.319.078-6.684-.59-9.94a17.895 17.895 0 00-7.753-11.343c-1.93-1.24-4.093-2.086-5.977-3.388-1.884-1.303-2.807-3.466-4.932-3.102-3.86.566-8.288 6.296-8.69 9.894z" fill="#985c7e"/><path d="M197.56 362.12a23.26 23.26 0 00.675-15.01c-.939-3.171-2.582-6.296-2.226-9.583 0-.108.047-.233.062-.349a8.94 8.94 0 00-.837 2.675c-.357 3.287 1.287 6.412 2.225 9.583a23.198 23.198 0 01.101 12.685zm40.294 46.427a12.095 12.095 0 01-4.551 2.567 22.919 22.919 0 01-15.267-.24c-2.744-1.032-5.427-2.722-6.76-5.32-1.613-3.1-1.117-6.784-1.078-10.273.039-3.489-.775-7.482-3.8-9.187-1.488-.83-3.256-.946-4.892-1.411-5.59-1.598-9.25-7.963-8.07-13.6-.179.411-.35.838-.497 1.264-1.915 5.877 1.853 12.964 7.792 14.662 1.636.465 3.404.581 4.892 1.41 3.04 1.706 3.877 5.707 3.8 9.188-.078 3.482-.535 7.188 1.077 10.273 1.357 2.598 4.016 4.288 6.761 5.32a22.919 22.919 0 0015.266.24 12.095 12.095 0 004.552-2.567 10.808 10.808 0 002.853-5.388 9.482 9.482 0 01-2.078 3.062z" opacity=".1"/><path fill="#ffd2c6" d="M276.093 734.604l1.396 6.25 1.643 7.365-6.823 2.52-16.956-5.28 2.745-6.451 2.388-5.613zm29.641 12.933l-8.722 4.357-9.987-2.326-2.225-7.436-1.419-4.651s18.321-8.242 15.313-4.753c-1.202 1.395-.302 4.055 1.194 6.737a55.645 55.645 0 005.846 8.072z"/><path d="M277.489 740.845l-19.383-1.442s0-.147-.047-.403l2.388-5.613 15.608 1.217z" opacity=".1"/><path d="M305.362 575.995l-1.954 1.109-25.586 14.398 1.938 79.858s.396 22.128-1.108 34.503a32.564 32.564 0 01-1.218 6.202c-2.907 8.335 1.357 28.106 1.357 28.106l-20.662-1.55s-.853-6.793-.078-11.274c.775-4.481-4.458-32.928-4.458-32.928s-4.265-40.511-6.203-41.674c-1.938-1.163-4.652-14.731-4.652-19.197 0-4.466-7.172-34.89-7.203-35.464-.031-.574-3.876-24.423-3.876-28.3 0-3.876-2.474-28.873-1.132-35.075a665.252 665.252 0 011.977-8.7 1831.08 1831.08 0 012.116-8.939s67.648 4.458 73.269 13.56a11.258 11.258 0 011.295 3.505c2.752 12.514-3.823 41.86-3.823 41.86z" fill="#9393ac"/><path d="M302.982 560l.83 15.995-.42 1.109-25.585 14.398 1.938 79.858s.395 22.128-1.109 34.503c-1.295-4.792-3.876-11.367-3.737-12.018.194-.97-11.436-28.687-16.282-33.92-4.846-5.234-7.683-17.833-7.683-17.833s.705-25.974 3.419-29.463c2.714-3.489 7.45-46.892 7.45-46.892zm-3.117 179.442a3.644 3.644 0 00-2.257 1.504c-.899 1.667-8.078 1.489-12.831 1.186l-1.419-4.651s18.32-8.242 15.313-4.753c-1.202 1.372-.303 4.031 1.194 6.714z" opacity=".1"/><path d="M261.936 564.365s-3.295 44.775-6.01 48.264c-2.713 3.49-3.41 29.463-3.41 29.463s2.83 12.599 7.675 17.832c4.846 5.234 16.476 32.952 16.282 33.921-.194.97 5.621 15.119 4.264 16.863-1.356 1.745-.17 11.63.21 12.212.38.581 2.892 3.807 1.147 6.652-1.744 2.846-1.55 11.428-1.55 11.428s15.7 1.69 17.057-.83c1.357-2.519 8.14-1.968 8.14-1.968s-5.814-21.485-4.07-26.137c1.745-4.652-7.365-49.62-11.824-59.894-4.458-10.273 1.551-38.96 1.551-38.96l13.956-37.216.388-17.057z" fill="#9393ac"/><path fill="#4c4981" d="M230.713 513.193l.504-40.418-2.55-26.516 15.762 10.971 2.326 24.95v21.841l-2.063 10.204z"/><path opacity=".1" d="M230.713 513.193l.504-40.418-2.55-26.516 15.762 10.971 2.326 24.95v21.841l-2.063 10.204z"/><path d="M218.804 376.402s22.174 18.685 20.934 41.682c-1.24 22.996 22.012-10.591 22.012-10.591l6.202-16.546s-27.54-13.405-24.57-30.75c2.97-17.343-24.578 16.205-24.578 16.205z" fill="#ffd2c6"/><circle cx="227.542" cy="357.422" r="23.795" fill="#ffd2c6"/><path d="M237.552 402.112s-6.978 7.435-9.235 7.435c-2.256 0 1.93 29.695-2.093 35.417-4.024 5.722 2.093 16.701 2.093 16.701l1.636 29.3s-4.326 32.447-3.73 33.858c.598 1.411 6.204 0 6.204 0l2.45-32.672s-.776-22.376.256-27.548c1.03-5.171-.698-23.112 1.201-27.322 1.9-4.21 1.644-12.731 1.644-12.731z" opacity=".1"/><path d="M236.776 401.337s-6.978 7.435-9.234 7.435c-2.256 0 1.93 29.695-2.093 35.417-4.024 5.722 2.093 16.7 2.093 16.7l1.636 29.3s-4.326 32.448-3.73 33.859c.598 1.411 6.203 0 6.203 0l2.45-32.672s-.775-22.376.256-27.548c1.031-5.171-.698-23.112 1.202-27.322 1.9-4.21 1.644-12.731 1.644-12.731z" fill="#bc5fd3"/><path d="M309.176 534.135c-9.552.775-39.223 2.977-44.845-.264-6.303-3.636-26.57-5.807-31.835-7.861 1.101-4.707 2.117-8.94 2.117-8.94s67.648 4.458 73.269 13.56a11.258 11.258 0 011.294 3.505z" opacity=".1"/><path d="M312.146 532.32s-41.093 3.877-47.815 0c-6.722-3.876-29.338-6.086-32.68-8.272-3.341-2.186 1.644-22.012 3.606-26.245 1.961-4.233 4.264-7.094 3.961-8.877-.302-1.784.822-5.195 1.551-6.978.729-1.784 2.605-6.467 2.605-6.467s-2.047-1.806 0-7.032.28-1.233-5.66-8.986c-5.939-7.753-2.163-28.687-2.163-28.687l1.233-29.424 5.505 5.931 6.536 7.04 10.08 10.762 13.7 3.877 13.436 15.25 13.7 28.579s1.326 6.916 3.48 15.01c1.001 3.76 2.187 7.754 3.498 11.46 4.132 11.606 5.427 33.06 5.427 33.06z" fill="#caf"/><path d="M303.222 487.778c-9.304 3.582-21.608 13.475-26.23 17.794-5.939 5.559-16.793 5.295-16.018 0 .776-5.296-14.995-43.132-14.995-43.132a162.997 162.997 0 00-7.536-24.384c-4.652-11.668 2.272-27.462 3.877-30.796l6.536 7.04 10.08 10.762 13.7 3.876 13.436 15.251 13.7 28.579s1.31 6.916 3.45 15.01z" opacity=".1"/><path d="M249.08 390.676l-5.706 14.398s-9.374 18.32-4.156 31.432a162.997 162.997 0 017.537 24.384s15.762 37.836 14.987 43.131c-.776 5.296 10.079 5.56 16.026 0 5.947-5.559 24.624-20.352 33.246-19.026 8.622 1.325 13.708-2.559 13.708-2.559s-15.685-20.298-14.91-28.896c.776-8.599-6.202-29.254-6.202-29.254s-3.102-22.585-5.311-28.09c-2.21-5.505-9.622-16.18-14.949-14.98-5.326 1.203-21.608-.092-21.608-.092z" fill="#bc5fd3"/><path d="M283.839 642.96s-7.754 3.49-10.56 4.264c-2.807.776 9.59.388 10.56-4.264zm3.008 1.652s-20.066 7.171-19.29 8.916c.775 1.744 19.29-8.916 19.29-8.916zm-3.008 3.876s-8.141 9.886-5.908 10.467c2.233.582 5.908-10.467 5.908-10.467zM249.05 515.326s-11.343.674 1.938 4.163c13.281 3.489 21.22-1.163 21.22-1.163z" opacity=".1"/><circle cx="243.374" cy="432.823" r="1.822" fill="#fff"/><circle cx="260.842" cy="425.55" r="1.822" fill="#fff"/><circle cx="250.701" cy="457.23" r="1.822" fill="#fff"/><circle cx="259.927" cy="481.397" r="1.822" fill="#fff"/><path fill="#fff" d="M248.181 432.171h13.569l13.048-7.753.644 2.954-12.778 7.265H248.88z"/><path fill="#4c4981" d="M243.374 406.33l13.98 2.45.085-24.4-8.358 6.296z"/><path d="M219.804 340.59a10.405 10.405 0 014.427-.055 12.94 12.94 0 014.567 2.605c3.412 2.621 7.063 5.63 7.846 9.855.783 4.225-1.643 9.087.24 13.072 1.342 2.86 4.754 4.83 4.8 7.986 0 1.302-.566 2.527-.97 3.76-2.17 6.598.776 13.67 3.63 19.996a7.024 7.024 0 005.907 5.008l3.931 1.078a4.652 4.652 0 002.171.248c1.799-.38 2.458-2.566 2.698-4.388a41.03 41.03 0 011.264-7.412c.776-2.388 2.24-4.652 4.49-5.8 4.496-2.225 9.737.93 14.73 1.032a5.551 5.551 0 003.257-.776c2.326-1.55 1.915-5.35 0-7.443s-4.652-3.047-7.187-4.303a25.198 25.198 0 01-6.691-4.737 12.01 12.01 0 01-2.877-4.234c-.837-2.326-.59-4.884-.442-7.35.427-7.016-.07-14.227-2.807-20.701-2.736-6.474-7.947-12.134-14.66-14.196-3.785-1.163-7.824-1.148-11.7-1.946-3.04-.628-5.955-1.753-8.995-2.373-3.039-.62-6.326-.72-9.11.651-3.923 1.939-6.055 6.335-9.746 8.692-2.124 1.357-4.93 2.217-5.807 4.582-1.046 2.814 1.357 6.04.35 8.862-.334.923-1.001 1.69-1.404 2.582-.403.892-.489 2.07.232 2.73a2.481 2.481 0 001.256.542c3.296.62 5.583-1.233 7.475-3.606 2.054-2.512 6.094-3.41 9.125-3.961z" opacity=".1"/><path d="M283.001 386.094a6.815 6.815 0 00-5.644 4.652c-1.357 3.923-3.427 11.366-2.225 17.6a1628.532 1628.532 0 013.272 17.452v15.12s.395 14.537 2.721 18.22c2.326 3.682-9.11 35.486-9.11 35.486l-10.475 29.618s-15.894 36.246-1.357 37.41c14.538 1.162 12.693-33.472 12.693-33.472l16.972-29.602 9.11-19.305a138.737 138.737 0 002.326-28.106c-.202-16.476-.977-30.354-.977-30.354s-4.07-25.663-8.723-30.315c-3.093-3.102-5.714-4.691-8.583-4.404z" opacity=".1"/><path d="M281.45 385.318a6.815 6.815 0 00-5.644 4.652c-1.357 3.923-3.427 11.367-2.225 17.6a1631.25 1631.25 0 013.272 17.453v15.119s.395 14.537 2.721 18.22c2.326 3.683-9.11 35.487-9.11 35.487l-10.475 29.617s-15.894 36.247-1.356 37.41c14.537 1.163 12.692-33.47 12.692-33.47l16.972-29.603 9.11-19.306a138.737 138.737 0 002.326-28.105c-.202-16.476-.977-30.354-.977-30.354s-4.07-25.664-8.722-30.316c-3.094-3.101-5.715-4.69-8.583-4.404z" fill="#ffd2c6"/><path d="M220.58 339.814a10.405 10.405 0 014.427-.054 12.94 12.94 0 014.566 2.605c3.412 2.62 7.064 5.629 7.847 9.855.783 4.225-1.644 9.086.24 13.072 1.341 2.86 4.753 4.83 4.8 7.985 0 1.303-.567 2.528-.97 3.76-2.17 6.599.776 13.67 3.629 19.997a7.024 7.024 0 005.908 5.008l3.93 1.078a4.652 4.652 0 002.172.248c1.798-.38 2.457-2.566 2.698-4.388a41.03 41.03 0 011.264-7.413c.775-2.388 2.24-4.652 4.489-5.799 4.497-2.225 9.738.93 14.73 1.031a5.551 5.551 0 003.257-.775c2.326-1.55 1.915-5.35 0-7.443-1.915-2.094-4.652-3.047-7.187-4.303a25.198 25.198 0 01-6.691-4.738 12.01 12.01 0 01-2.877-4.233c-.837-2.326-.589-4.884-.442-7.35.427-7.017-.069-14.227-2.806-20.701s-7.947-12.134-14.662-14.197c-3.783-1.163-7.823-1.147-11.7-1.946-3.039-.628-5.954-1.752-8.993-2.372-3.04-.62-6.327-.721-9.11.651-3.924 1.938-6.056 6.335-9.746 8.692-2.125 1.356-4.931 2.217-5.807 4.582-1.047 2.814 1.356 6.04.349 8.862-.334.922-1 1.69-1.404 2.582-.403.891-.488 2.07.233 2.729a2.481 2.481 0 001.256.542c3.295.62 5.582-1.232 7.474-3.605 2.055-2.512 6.094-3.411 9.126-3.962z" fill="#985c7e"/><path d="M281.947 384.706c-5.017-.101-10.258-3.264-14.731-1.031a8.66 8.66 0 00-3.815 4.031 7.42 7.42 0 012.24-1.736c4.498-2.233 9.739.93 14.732 1.03a5.513 5.513 0 003.256-.775 3.582 3.582 0 001.473-2.279 5.621 5.621 0 01-3.155.76zm-23.206 16.561a4.652 4.652 0 01-2.17-.24l-3.94-1.086a9.444 9.444 0 01-3.783-1.682 9.304 9.304 0 01-2.124-3.327c-2.87-6.319-5.792-13.397-3.629-19.995a11.73 11.73 0 00.977-3.753c-.047-3.163-3.458-5.133-4.807-7.994-1.876-3.985.566-8.73-.233-13.064-.798-4.334-4.442-7.234-7.854-9.862a13.18 13.18 0 00-4.559-2.605 10.692 10.692 0 00-4.435.054c-3.031.55-7.063 1.45-9.07 3.97-1.885 2.372-4.18 4.225-7.467 3.605a2.535 2.535 0 01-1.264-.535c-.721-.659-.636-1.845-.233-2.737.404-.891.869-3.101-.147-.256-.326.923-.992 1.69-1.403 2.582-.411.892-.489 2.078.232 2.737a2.535 2.535 0 001.264.535c3.287.62 5.582-1.233 7.466-3.605 2.009-2.52 6.04-3.42 9.072-3.97a10.692 10.692 0 014.435-.054 13.18 13.18 0 014.559 2.605c3.411 2.628 7.07 5.629 7.854 9.862.783 4.233-1.644 9.08.232 13.064 1.35 2.861 4.76 4.83 4.807 7.994a11.73 11.73 0 01-.977 3.753c-2.163 6.598.776 13.676 3.629 19.995a9.304 9.304 0 002.124 3.327 9.444 9.444 0 003.784 1.682l3.939 1.085a4.652 4.652 0 002.17.24c1.241-.263 1.931-1.387 2.327-2.65a2.326 2.326 0 01-.776.325z" opacity=".1"/><path d="M269.24 745.459s-10.266-6.312-11.25-8.32c-.986-2.008-15.438 11.754-15.438 11.754s-7.56 6.59-11.335 8.04c-3.776 1.45-6.272 7.273-1.1 7.754 5.17.48 25.228.775 25.228.775l17.251-2.225 10.762-1.9-2.04-15.878s-11.172 2.194-12.079 0z" fill="#cc8294"/><path d="M294.554 747.63s-9.095-8.53-12.824-6.513c-3.73 2.016-12.49 10.777-12.49 10.777s-8.274 6.885-10.499 8.435c-2.225 1.551-4.846 6.785 0 7.653 4.846.868 49.04-5.621 49.04-5.621s-.55-16.12-2.04-16.36c-1.488-.24-7.946 3.373-11.187 1.629z" fill="#cc8294"/><path d="M351.587 439.429l.775 43.17-19.647 25.36-4.597 6.46s-14.018 28.687-31.983 19.902c-3.1-1.496-4.435-3.458-4.597-5.675a6.203 6.203 0 010-1c.915-10.785 26.95-26.633 26.95-26.633s18.864-32.82 20.159-33.393c1.294-.574 7.234-18.035 7.234-18.035l2.589-12.521a34.277 34.277 0 014.551-.954z" opacity=".1"/><path d="M340.703 417.182l-2.738 13.283s-6.309 18.522-7.682 19.13c-1.374.609-21.384 35.423-21.384 35.423s-42.767 26.048-23.728 35.366c19.04 9.318 33.935-21.112 33.935-21.112l4.877-6.851 33.17-42.85s15.898-16.12 9.047-27.084c-6.852-10.963-25.497-5.305-25.497-5.305z" fill="#febfba"/><path d="M135.844 324.067a37.146 37.146 0 00-5.38 11.041c-4.575 14.731-1.792 31.215-1.792 31.215L105.8 355.856s-18.608-16.282-8.141-23.842a22.074 22.074 0 007.893-9.676 15.724 15.724 0 001.217-7.38s40.705-6.785 29.075 9.11z" fill="#d38884"/><path d="M159.298 304.878a29.462 29.462 0 01-57.824 8.017 29.462 29.462 0 1157.824-8.017z" fill="#d38884"/><path d="M134.875 296.093c.45 1.024.775 2.233 1.798 2.73 1.024.496 2.078.062 3.14.07 2.125 0 3.823 1.697 5.265 3.248l7.164 7.7c1.55 1.666 3.163 3.38 5.234 4.356 2.07.977 4.721 1.063 6.474-.403 1.752-1.465 2.124-3.876 1.698-6.078-.427-2.202-1.551-4.125-2.513-6.11-.96-1.985-1.83-4.132-1.643-6.327.163-2.023 1.178-3.876 2.047-5.683 2.008-4.24 3.302-9.25 1.488-13.576-1.279-3.031-3.876-5.272-6.582-7.164-1.815-1.271-3.877-2.489-6.079-2.442-2.62.054-4.908 1.845-7.505 2.217a11.289 11.289 0 01-4.954-.62c-3.613-1.147-6.978-3.101-10.576-4.194a26.183 26.183 0 00-10.761-1.032c-1.551.171-3.102.52-4.18 1.59-1.077 1.07-1.465 2.744-2.054 4.202a12.258 12.258 0 01-4.412 5.474c-2.163 1.473-4.745 2.21-6.978 3.528-2.233 1.318-4.334 3.527-4.256 6.148a31.975 31.975 0 00.573 3.148 10.08 10.08 0 01-1.86 6.722c-1.42 2.186-3.435 4.512-2.8 7.04.45 1.791 2.086 2.962 3.304 4.35 1.465 1.674 2.364 3.783 3.783 5.504 1.42 1.722 3.714 3.102 5.83 2.326 1.94-.635 3.001-2.752 3.35-4.76.349-2.008.202-4.094.706-6.071a1.923 1.923 0 01.527-1.008c.504-.41 1.24-.248 1.884-.155a8.73 8.73 0 006.978-2.543c1.69-1.55 2.535-3.52 3.706-5.427.884-1.466 2.388-1.753 4.11-1.745a8.947 8.947 0 018.094 4.986z" fill="#1e1637"/><path d="M80.346 741.388l-.907 19.252s28.043-.388 32.82 2.07c4.775 2.457 33.858 2.326 33.858 2.326s13.436-5.04 5.947-10.211c-7.49-5.172-20.934-5.684-20.934-5.684s-11.118-15.25-13.18-15.894c-2.063-.643-5.816-4.264-8.142.644-2.326 4.908-8.76 9.823-8.76 9.823z" fill="#4c4981"/><path d="M143.79 553.759c-3.356 14.211-18.351 76.238-18.351 76.238s-5.164 4.915-5.164 10.598c0 5.684-3.365 11.63-3.365 11.63s1.815 55.824-2.582 70.3c-4.233 13.955-.317 13.258 0 13.18l-12.622 10.327-23.26.256s1.031-17.832 1.807-19.383c.775-1.55 6.202-9.816 2.845-15.243-3.357-5.427 1.031-59.964 4.652-66.942 3.621-6.978 0-24.81 0-24.81a65.298 65.298 0 00-3.876 13.444c-1.04 6.714-9.568 17.057-9.568 18.344 0 17.67-21.71 59.445-21.71 59.445s-7.752 26.36-5.682 31.269c2.07 4.907-2.07 10.079-4.908 8.792-2.838-1.287-25.586 0-25.586 0s-.52-15.507 0-16.802c.52-1.294 5.939-6.722 5.939-6.722-1.807-14.211 10.855-70.555 18.352-78.564 7.497-8.009 9.01-24.547 9.01-24.547s6.977 1.04 4.535-2.326c-2.442-3.365 5.544-20.67 5.544-20.67s-2.59-24.299 0-30.757a31.238 31.238 0 002.062-13.437c0-1.814.264-14.995 1.682-18.096 1.42-3.101-.131-11.366 0-15.762.101-3.388.047-10.777 0-13.956v-1.55l1.939-12.15 8.784-22.74 32.052 7.497 24.036 4.652s13.692 14.212 17.568 24.547a21.314 21.314 0 011.024 3.993c1.775 10.83-2.155 27.407-5.156 39.945z" fill="#0a0"/><path d="M32.144 744.877s-15.763-1.426-17.577 5.683c-1.814 7.11-4 20.29-4 20.29s-2.459 7.366 13.436 8.01c15.894.643 15.638-2.07 15.638-2.07s-.264-12.677.512-14.933c.775-2.256.775-10.917.775-10.917s-2.683-8.777-8.784-6.063z" fill="#4c4981"/><path d="M148.443 523.52s-11.134.195-10.901-29.656c0 0-2.473 22.679-5.187 23.26-2.714.582-3.877-3.489-13.18-2.907-9.305.581-21.128-4.07-22.485-8.723-1.357-4.652-17.833-17.445-20.353-16.863-2.52.581-3.1 10.08-3.1 10.08s-7.754 5.62-9.693 9.303c-1.938 3.683-1.356-6.784 0-13.568 1.357-6.784.776-20.546 0-26.555-.775-6.009-3.876-21.322-1.248-31.982 2.629-10.661-1.023-34.115-1.023-34.115s.248-15.313 0-24.81c-.248-9.498-10.91-13.181-5.482-23.26 5.427-10.08 19.577-22.097 19.577-22.097s9.886 1.163 14.15-2.52a8.924 8.924 0 011.396-.977c4.768-2.737 13.18-2.853 13.18-2.853l14.328 14.646s7.048 14.964 7.56 18.608a2.101 2.101 0 010 .473l2.457-14.398s10.312 3.876 10.312 9.505v9.11s2.326 9.886 4.652 14.538c2.326 4.652-1.163 50.202-1.163 50.202s1.357 14.15.194 19.965c-1.163 5.815 1.768 18.027 1.768 18.027s2.69 22.096 4.241 26.36c1.55 4.265 0 31.208 0 31.208z" fill="#ffd765"/><path d="M117.817 552.851s-3.62 20.802-10.079 30.106c-6.458 9.304-16.538 30.114-16.538 30.114" opacity=".1"/><path d="M82.928 369.036s-15.251 4.652-20.547 1.163c-5.295-3.489-15.312-18.607-15.312-18.607s2.892-21.283 5.427-22.059c2.535-.775 1.24 20.159 1.24 20.159s3.621 8.079 4.978 8.079c1.357 0 10.66-1.163 11.824-3.49 1.163-2.325 3.101-16.669 3.101-16.669l1.55-6.978 7.754 4.846 6.009 14.894z" fill="#ffd765"/><path d="M62.692 358.585c-6.536.48-11.933-5.102-11.63-11.63.34-7.304.969-17.336 1.814-18.794 1.357-2.326 14.15-19.383 14.15-19.383s40.51-21.516 36.246-4.652c-4.264 16.863-20.934 18.995-20.934 18.995l-7.559-3.876-.194 24.423s-1.698 14.18-11.893 14.917z" fill="#d38884"/><path d="M66.258 602.604s-2.326 5.164 6.203 6.715c8.528 1.55-6.203-6.715-6.203-6.715zm-10.079 21.19s.775 10.08 5.171 12.15c4.396 2.07-5.171-12.15-5.171-12.15zM91.2 648.085s-1.682 5.172 2.45 8.017c4.133 2.845-2.45-8.017-2.45-8.017zm0-6.458s-.65 5.946 6.59 7.753m-9.567 21.71s4.768 6.202 6.265 5.682c1.496-.52-6.265-5.683-6.265-5.683zm37.735 78.307s-15.762-.775-11.885 3.102c3.876 3.876 11.885-1.551 11.885-1.551zM17.932 761.655s19.895-3.504 18.608 0c-1.287 3.505-18.608 0-18.608 0zM64.707 378.79s12.87 1.807 18.066-1.806c5.194-3.613 6.745 2.326 3.1 5.163-3.643 2.838-21.166-3.357-21.166-3.357zm1.807 15.507c4.14.52 3.225 5.427 10.66 1.03 7.436-4.395-10.66-1.03-10.66-1.03zm1.489 19.383s17.506 2.845 20.933-5.683m37.022-48.691v.62l-35.044-31.013c4.768-2.737 13.18-2.853 13.18-2.853l14.328 14.646s7.025 14.956 7.536 18.6z" opacity=".1"/><path d="M125.958 358.53v.621l-35.044-31.013c4.768-2.737 13.18-2.853 13.18-2.853l14.328 14.646s7.025 14.956 7.536 18.6z" fill="#ffd765"/><path d="M62.637 369.23s20.678-1.775 20.934-18.724c0-.016 3.52 18.98-20.934 18.724z" opacity=".1"/><circle cx="126.346" cy="359.151" r="1.651" fill="#fff"/><path d="M351.124 384.128l7.402 5.486s6.3 3.808 4.655 10.692c-1.645 6.884 2.468 9.047 2.468 9.047a22.75 22.75 0 002.467 7.83c2.196 4.235 4.112 9.046 0 11.16-4.112 2.114-30.151 2.122-30.151 2.122s1.916-1.744-4.113-9.096c-6.028-7.353-12.887-15.89-13.439-21.08-.55-5.19-7.944-19.171-7.122-23.029.823-3.857-.263-17.946-.066-21.573.198-3.627 3.899-13.652 7.188-12.764 3.29.888 15.084-5.848 22.758 9.047 7.673 14.895 7.953 32.158 7.953 32.158z" fill="#ff718d"/></svg>