<svg xmlns="http://www.w3.org/2000/svg" width="36.289" height="36.289" viewBox="0 0 36.289 36.289"><path d="M32.854 17.724c-1.304-1.255-3.146-1.399-4.419-1.399-.654 0-1.287.045-1.884.089a.864.864 0 01-.214-.053c-.125-.038-.275-.084-.445-.093-.606-.131-1.078-.258-1.52-.607-.902-.803-1.693-1.804-2.459-2.771l-.55-.688c-1.002-1.211-2.23-2.817-2.843-4.544-.323-.863-.455-1.777-.409-2.882.006-.211.02-.414.03-.612.046-.803.09-1.561-.172-2.341C17.599.664 16.687 0 15.466 0c-.822 0-1.685.312-2.341.833-1.645 1.144-2.702 3.312-2.832 5.806-.067 1.398.359 2.6.771 3.761.359 1.013.699 1.967.695 3-.004 1.566-1.357 2.002-3.271 2.446-.209.049-.416.097-.578.139-.219.04-.442.077-.668.115-1.436.238-3.062.511-4.24 1.633-.889.883-1.312 2.34-1.077 3.713.169.99.657 1.805 1.362 2.289-.444 1.684.381 3.646 1.981 4.693-.153.762-.01 1.623.414 2.428.476.9 1.229 1.604 2.071 1.939.002 1.543 1.055 2.887 2.713 3.355.461.094.961.139 1.529.139.84 0 1.68-.098 2.492-.189l.854-.096c.479-.098.979-.16 1.482-.225 1.037-.133 2.106-.27 3.075-.688.785-.35 1.479-.855 2.146-1.342.218-.158.432-.314.652-.469.216-.154.435-.357.657-.568.386-.363.783-.738 1.168-.812.343-.066.669-.102.985-.135.354-.039.695-.076 1.031-.146h.166c.354 0 .743.021 1.147.047.459.027.937.057 1.41.057 1.165 0 2.625-.148 3.566-1.307 1.387-1.646 1.586-4.154 1.596-6.617v-.107c.023-1.807.038-4.54-1.568-5.968zm-5.277 9.893c-.36 1.303-1.062 1.84-2.548 1.977-.461 0-1.028 0-1.562.328-.566.156-1.021.586-1.428.967-.158.15-.314.299-.459.412-.197.143-.397.295-.603.449-.615.467-1.254.949-1.824 1.229-.347.088-.738.174-1.132.264l-.76.172c-1.593.287-3.244.438-4.798.576-.522 0-1.062 0-1.604-.145-.306-.039-.531-.178-.673-.414-.196-.324-.214-.807-.056-1.229a.898.898 0 00-.064-.865c-.256-.396-.771-.568-1.166-.568h-.052l-.051.01a.545.545 0 01-.137.016c-.323 0-.655-.27-.889-.717-.294-.568-.334-1.256-.121-1.561.246-.289.286-.709.107-1.096-.158-.34-.445-.562-.766-.604-.754-.256-1.242-.729-1.451-1.395-.154-.562-.113-1.205.146-1.514.247-.41.304-.889.153-1.271-.125-.314-.383-.543-.77-.652-.718-.131-.933-.713-.988-1.186-.117-.867.548-1.527 1.174-1.84.959-.537 2.133-.729 3.27-.915.609-.1 1.238-.201 1.834-.355 2.037-.529 3.5-2.122 3.641-3.964.099-1.354-.329-2.599-.741-3.798-.351-1.018-.681-1.978-.709-2.99-.029-.977.254-2.055.797-3.085.52-.812 1.395-1.686 2.09-1.686.035 0 .071.003.1.008.429.062.416.877.369 1.636l-.011.188c-.063 1.247-.09 2.297.193 3.513.399 1.65 1.338 2.989 2.243 4.284.197.282.396.565.596.86.852 1.227 1.936 2.562 3.115 3.842.222.269.467.566.764.771.08.146.187.222.29.259.733.563 1.517.89 2.512 1.052.721.137 1.341.251 1.654.778.627 1.111.646 2.641.659 3.863l.003.291c.021 1.299.009 2.795-.347 4.105zm4.6-4.301l-.002.48c.009 1.885-.109 3.809-1.029 5.143-.309.473-.927.508-1.768.508h-.09c.475-.965.659-2.088.773-3.107.197-1.855.177-3.67-.062-5.395-.103-.756-.261-1.582-.621-2.315.682.075 1.382.263 1.916.718.912.759.894 2.691.883 3.968z"/></svg>