<svg xmlns="http://www.w3.org/2000/svg" data-name="Layer 1" width="1000" height="700" viewBox="0 0 1000 700"><path fill="#3f3d56" d="M353.45 598.519h208.66v2.738H353.45z"/><path fill="#009688" d="M383.319 246.544h136.888v95.821H383.319z"/><path d="M519.51 343.828H388.098a5.481 5.481 0 01-5.476-5.475v-90.346a5.481 5.481 0 015.476-5.476H519.51a5.481 5.481 0 015.475 5.476v90.346a5.481 5.481 0 01-5.475 5.475zm-131.412-95.821v90.346h131.416l-.004-90.346z" fill="#3f3d56"/><path d="M504.452 244.585h-5.475a45.173 45.173 0 10-90.346 0h-5.476a50.648 50.648 0 11101.297 0zm-36.959 37.644a13.69 13.69 0 10-20.936 11.598v14.692a7.247 7.247 0 007.247 7.247 7.247 7.247 0 007.247-7.247v-14.692a13.666 13.666 0 006.442-11.598z" fill="#3f3d56"/><circle cx="474.967" cy="517.15" r="60.588" fill="#009688"/><path d="M474.223 582.092a63.954 63.954 0 1163.954-63.954 64.027 64.027 0 01-63.954 63.954zm0-121.177a57.222 57.222 0 1057.222 57.223 57.286 57.286 0 00-57.222-57.223z" fill="#3f3d56"/><path fill="#3f3d56" d="M452.053 499.915l21.27 21.266 59.35-84.339 11.01 7.752-68.562 97.43-32.587-32.59zM294.312 358.82h279.326v2.738H294.312z"/><circle cx="294.312" cy="358.82" r="19.164" fill="#3f3d56"/><circle cx="583.016" cy="362.789" r="15.058" fill="#3f3d56"/><circle cx="571.487" cy="602.489" r="15.058" fill="#3f3d56"/><circle cx="357.557" cy="601.257" r="15.058" fill="#3f3d56"/><path d="M965.716 336.027c-7.683-28.846-64.87-57.222-164.906-57.222s-157.23 28.376-164.907 57.222c-.557.988-.969 2.07-.969 3.294V588.11c0 1.09.285 2.118.776 3.032 7.836 32.914 77.942 57.484 165.1 57.484 86.958 0 156.95-24.469 165.045-57.262.531-.961.83-2.07.83-3.254V339.32c0-1.223-.412-2.306-.97-3.294zM952.891 507.32a16.71 16.71 0 01-.77 2.44c-.265.667-.59 1.332-.949 1.998a22.882 22.882 0 01-1.532 2.481 27.816 27.816 0 01-1.453 1.863c-.737.88-1.52 1.761-2.409 2.635-.537.532-1.128 1.056-1.725 1.587a54.866 54.866 0 01-3.49 2.865c-.544.41-1.128.807-1.705 1.21a76.447 76.447 0 01-4.784 3.113c-.451.276-.936.538-1.407.807a109.14 109.14 0 01-6.27 3.342c-.285.141-.584.276-.876.41a142.173 142.173 0 01-7.869 3.49c-.08.035-.16.06-.238.095-15.069 6.099-34.343 11.23-56.803 14.591a7.646 7.646 0 00-.338.046c-4.366.653-8.845 1.23-13.443 1.742-.75.081-1.539.134-2.295.216-4.015.423-8.075.813-12.255 1.123-1.911.14-3.915.208-5.859.33-3.145.187-6.257.396-9.481.51a499.4 499.4 0 01-16.13.276c-5.487 0-10.862-.107-16.136-.296-3.225-.114-6.337-.33-9.482-.511-1.944-.114-3.948-.188-5.859-.33-4.18-.31-8.24-.699-12.254-1.123-.757-.08-1.546-.134-2.296-.215a375.357 375.357 0 01-13.443-1.742 7.646 7.646 0 01-.338-.046c-22.46-3.362-41.734-8.492-56.802-14.591a140.12 140.12 0 01-8.108-3.585c-.285-.141-.59-.276-.876-.41a105.097 105.097 0 01-6.27-3.342c-.464-.269-.956-.531-1.407-.807a76.468 76.468 0 01-4.783-3.113c-.571-.404-1.162-.8-1.706-1.21a54.823 54.823 0 01-3.49-2.865c-.59-.524-1.187-1.049-1.725-1.587a34.917 34.917 0 01-2.408-2.636 27.742 27.742 0 01-1.453-1.862 25.093 25.093 0 01-1.533-2.481 20.935 20.935 0 01-.949-1.997 16.46 16.46 0 01-.77-2.441c-.245-1.07-.517-2.158-.517-3.241 0-.76.087-1.52.206-2.273.167-1.015.073-2.03-.206-2.992v-49.919c.185.174.418.343.61.518 1.447 1.29 2.92 2.575 4.579 3.812 24.994 19.157 74.975 34.044 147.416 34.044 72.136 0 121.992-14.766 147.092-33.808a67.724 67.724 0 005.507-4.56l.006-.006v49.919c-.278.961-.371 1.977-.205 2.992a13.9 13.9 0 01.205 2.273c0 1.083-.271 2.172-.524 3.261zm.524-139.133v49.92c-.279.96-.372 1.976-.206 2.991.126.753.206 1.513.206 2.273 0 1.083-.272 2.172-.524 3.261a16.76 16.76 0 01-.77 2.441c-.265.666-.59 1.331-.949 1.997a22.884 22.884 0 01-1.532 2.481 27.816 27.816 0 01-1.453 1.863 36.57 36.57 0 01-2.409 2.636c-.537.53-1.128 1.055-1.725 1.587a54.858 54.858 0 01-3.49 2.864c-.544.41-1.128.807-1.705 1.21a76.436 76.436 0 01-4.784 3.114c-.451.275-.936.538-1.407.806a108.996 108.996 0 01-6.27 3.342c-.285.142-.584.276-.876.41a142.173 142.173 0 01-7.869 3.49c-.08.035-.16.06-.238.095-15.069 6.099-34.343 11.23-56.803 14.591a7.646 7.646 0 00-.338.047c-4.366.652-8.845 1.23-13.443 1.741-.75.081-1.539.135-2.295.216-4.015.424-8.075.813-12.255 1.123-1.911.141-3.915.208-5.859.33-3.145.187-6.257.396-9.481.51a499.4 499.4 0 01-16.13.276c-5.487 0-10.862-.107-16.136-.296-3.225-.114-6.337-.33-9.482-.511-1.944-.114-3.948-.188-5.859-.33a389.24 389.24 0 01-12.254-1.123c-.757-.08-1.546-.134-2.296-.215a375.357 375.357 0 01-13.443-1.742 7.68 7.68 0 01-.338-.046c-22.46-3.362-41.734-8.492-56.802-14.591a139.97 139.97 0 01-8.108-3.585c-.285-.141-.59-.275-.876-.41a105.231 105.231 0 01-6.27-3.342c-.464-.269-.956-.531-1.407-.807a76.478 76.478 0 01-4.783-3.113c-.571-.403-1.162-.8-1.706-1.21a54.815 54.815 0 01-3.49-2.865c-.59-.524-1.187-1.049-1.725-1.586a34.917 34.917 0 01-2.408-2.636 27.742 27.742 0 01-1.453-1.863 25.093 25.093 0 01-1.533-2.481 20.935 20.935 0 01-.949-1.997 16.46 16.46 0 01-.77-2.44c-.245-1.07-.517-2.16-.517-3.242 0-.76.087-1.52.206-2.273.167-1.015.073-2.03-.206-2.992v-49.919c.796.733 1.705 1.453 2.568 2.179.477.403.922.807 1.426 1.21a85.938 85.938 0 006.47 4.68c.484.316 1.028.625 1.532.941a113.46 113.46 0 006.184 3.618c.803.437 1.606.867 2.435 1.298a136.11 136.11 0 007.637 3.644c.438.195.836.397 1.28.585 3.112 1.338 6.416 2.616 9.853 3.853.95.343 1.944.665 2.92 1.002 2.733.935 5.56 1.829 8.486 2.696 1.055.31 2.09.632 3.171.928a246.622 246.622 0 0012.096 3.08c.577.134 1.2.241 1.785.37a299.742 299.742 0 0015.579 2.992 350.57 350.57 0 0011.611 1.721c1.022.135 1.997.29 3.032.417a409.244 409.244 0 0015.294 1.567c1.294.106 2.64.187 3.954.282 4.2.31 8.493.565 12.886.767 1.599.074 3.191.148 4.823.208 5.72.195 11.545.336 17.583.336 6.038 0 11.864-.141 17.583-.336 1.626-.06 3.218-.134 4.824-.208 4.392-.202 8.685-.458 12.885-.767 1.313-.102 2.654-.174 3.954-.282a396.426 396.426 0 0015.294-1.567c1.035-.127 2.01-.282 3.032-.417a353.54 353.54 0 0011.611-1.721c1.367-.23 2.727-.458 4.068-.7a298.855 298.855 0 0011.511-2.293c.584-.127 1.208-.242 1.785-.37a254.605 254.605 0 0012.096-3.08c1.081-.302 2.116-.618 3.171-.927a215.955 215.955 0 008.487-2.696c.975-.336 1.97-.66 2.919-1.002 3.437-1.237 6.748-2.515 9.853-3.853.445-.188.843-.39 1.28-.585a141.035 141.035 0 007.637-3.644c.83-.43 1.64-.861 2.435-1.298 2.17-1.177 4.234-2.38 6.184-3.618.505-.316 1.049-.625 1.533-.94a84.043 84.043 0 006.469-4.68c.498-.404.942-.808 1.426-1.211.863-.726 1.772-1.446 2.568-2.179zM800.81 292.253c89.937 0 152.605 26.574 152.605 50.43 0 23.857-62.668 50.43-152.605 50.43-89.938 0-152.606-26.573-152.606-50.43 0-23.856 62.668-50.43 152.606-50.43zm152.605 293.859c-.094.295-.16.598-.213.907-3.762 23.259-65.899 48.158-152.393 48.158s-148.63-24.9-152.393-48.158a7.193 7.193 0 00-.212-.88v-56.576c.185.174.418.343.61.518 1.446 1.29 2.92 2.575 4.578 3.812 24.994 19.157 74.976 34.044 147.417 34.044 72.136 0 121.991-14.766 147.091-33.808a67.729 67.729 0 005.508-4.56l.006-.006z"/><path d="M772.491 634.076c-61.054-4.253-111.432-21.114-126.362-42.293-1.527-2.165-3.08-5.261-3.456-6.885-.482-2.085-.682-11.739-.682-32.872v-29.921l3.27 2.815c32.6 28.07 109.337 42.919 190.632 36.887 50.517-3.749 93.017-16.302 116.443-34.396 3.04-2.348 5.72-4.38 5.955-4.515.234-.135.426 13.394.426 30.064 0 34.181.14 32.925-4.373 39.188-3.666 5.088-8.079 8.866-16.329 13.978-21.652 13.418-56.564 22.894-100.416 27.256-10.286 1.023-53.735 1.486-65.108.694z" fill="#a29fbc"/><path d="M775.32 562.503c-48.943-3.262-88.751-13.47-113.025-28.983-10.693-6.834-16.05-14.245-18.405-21.39-.937-2.843 4.617-13.863 4.574-41.876-.028-16.881.049-30.693.164-30.693s2.584 1.922 5.487 4.27c17.665 14.294 48.045 26.009 81.625 31.476 4.014.653 8.31 1.357 9.544 1.564 7.648 1.28 24.434 2.726 40.746 3.508 34.654 1.661 71.766-1.169 101.556-7.745 30.698-6.777 56.473-18.075 70.565-30.932 1.29-1.177 2.49-2.14 2.666-2.14.176 0 .32 13.91.32 30.913 0 34.859.14 33.57-4.317 40.01-13.727 19.839-55.59 35.571-111.047 41.732-10.018 1.113-41.837 6.922-63.999 1.411z" fill="#7a779f"/><path d="M776.692 480.142c-22.826-1.795-37.45-3.73-52.986-7.009-44.07-9.303-75.604-26.385-81.326-44.052-1.09-3.362-1.153-5.261-1.183-35.295-.017-17.458.119-31.741.304-31.741s1.414.997 2.73 2.216c33.422 30.93 116.894 46.755 202.078 38.312 47.352-4.694 88.555-18.648 109.599-37.118 2.137-1.876 4.006-3.41 4.154-3.41.148 0 .269 14.455.269 32.123 0 37.283.257 35.43-6.036 43.444-15.274 19.45-57.558 35.083-111.138 41.088-10.138 1.137-57.33 2.16-66.465 1.442z" fill="#545173"/><path d="M773.627 393.74c-60.22-3.965-110.305-19.55-126.354-39.317-6.666-8.21-6.93-14.826-.911-22.934 14.306-19.277 57.863-34.081 117.314-39.875 12.565-1.225 60.79-1.225 73.354 0 37.56 3.66 64.904 9.753 87.57 19.512 21.888 9.424 34.055 20.607 34.105 31.345.024 5.233-3.503 11.255-9.75 16.643-19.136 16.506-57.943 28.496-109.082 33.702-7.4.753-58.101 1.46-66.246.924z" fill="#3f3d56"/><path d="M778.881 647.744c-73.958-3.592-131.052-25.165-141.906-53.618l-1.655-4.34V337.938l1.985-4.888c8.75-21.551 42.187-39.274 90.35-47.89 42.677-7.633 96.931-8.031 140.418-1.03 51.153 8.237 86.662 26.224 96.072 48.668l2.05 4.89v252.294l-1.554 4.106c-9.595 25.353-55.793 45.391-119.858 51.988-21.363 2.2-43.45 2.758-65.902 1.668zm57.152-13.627c60.085-5.35 108.21-23.264 116.167-43.243l1.416-3.556v-28.947c0-15.92-.115-28.947-.256-28.947-.14 0-1.925 1.347-3.965 2.994-17.767 14.339-48.567 25.454-85.47 30.843-46.535 6.797-104.135 5.428-145.462-3.457-28.388-6.103-52.124-15.87-66.14-27.214-2.152-1.741-4.027-3.166-4.168-3.166-.14 0-.245 12.856-.232 28.569.026 30.84.058 31.236 3.01 36.076 5.674 9.308 23.519 19.835 45.834 27.04 23.307 7.525 46.963 11.483 83.482 13.969 7 .476 47.47-.22 55.784-.961zm3.806-81.053c41.256-4.138 73.642-12.907 94.91-25.7 10.01-6.022 16.912-13.45 18.299-19.697.522-2.353.865-58.986.357-58.986-.116 0-1.654 1.201-3.418 2.67-7.198 5.994-20.062 13.103-31.747 17.546-29.426 11.186-62.782 16.717-107.638 17.846-68.583 1.728-129.633-11.782-158.482-35.069-2.04-1.646-3.83-2.993-3.978-2.993-.582 0-.177 56.83.42 59.028 5.83 21.468 55.458 40.669 118.014 45.657 4.963.396 10.624.83 12.579.964 8.843.607 50.72-.267 60.684-1.266zm.569-80.722c11.97-1.236 17.753-2.025 28.439-3.879 44.9-7.79 77.934-23.568 83.743-40 .974-2.754 1.03-4.714.896-31.639l-.143-28.702-5.743 4.33c-19.777 14.915-52.84 25.799-93.246 30.697-47.325 5.737-104.789 3.128-144.109-6.542-7.836-1.927-21.968-6.378-28.361-8.933-11.088-4.43-23.83-11.626-30.264-17.091-1.713-1.455-3.257-2.646-3.431-2.646-.657 0-.25 56.735.424 59.15 3.932 14.083 27.215 27.807 62.174 36.649 20.067 5.075 40.153 8.017 67.274 9.854 8.987.609 52.874-.27 62.347-1.248zm-2.461-80.396c34.514-3.5 63.122-10.002 83.593-18.997 6.719-2.953 17.86-9.485 21.495-12.602 6.654-5.708 10.564-12.276 10.576-17.764.027-12.558-17.986-26.232-47.238-35.858-40.6-13.36-99.323-18.121-151.555-12.287-64.14 7.164-109.939 28.857-106.689 50.533.905 6.032 7.172 13.57 16.203 19.49 22.131 14.504 61.007 24.657 107.527 28.082 10.402.766 56.783.347 66.088-.597z" fill="#2b2b2b"/><path fill="#009688" d="M9.51 270.643h237.033v164.718H9.51z"/><path d="M128.026 302.783a50.219 50.219 0 1050.22 50.219 50.366 50.366 0 00-50.22-50.22zm0 15.065a15.066 15.066 0 11-15.065 15.066 15.116 15.116 0 0115.065-15.066zm0 72.528a36.584 36.584 0 01-30.13-16.08c.24-10.043 20.087-15.572 30.13-15.572 10.044 0 29.89 5.529 30.132 15.572a36.645 36.645 0 01-30.132 16.08z" fill="#fff"/><path fill="#e6e6e6" d="M54.959 517.639h237.033v164.718H54.959z"/><path d="M173.475 549.779a50.219 50.219 0 1050.219 50.219 50.366 50.366 0 00-50.219-50.22zm0 15.066a15.066 15.066 0 11-15.066 15.065 15.116 15.116 0 0115.066-15.065zm0 72.527a36.584 36.584 0 01-30.131-16.08c.241-10.043 20.087-15.572 30.131-15.572s29.89 5.529 30.131 15.572a36.645 36.645 0 01-30.13 16.08z" fill="#fff"/></svg>