<svg xmlns="http://www.w3.org/2000/svg" viewBox="0 0 1000 1000"><path d="M279 176.5c0-69.4 56.2-125.6 125.6-125.6 69.4 0 125.6 56.2 125.6 125.6 0 69.4-56.2 125.6-125.6 125.6-69.4 0-125.6-56.2-125.6-125.6zm186 211.2c1.3-27.4 10.7-52.7 25.8-73.6-10.6-2.2-21.6-3.4-32.9-3.4H351.3c-11.2 0-22.2 1.2-32.8 3.4 16.1 22.4 25.8 49.7 25.9 79.2 19.6-10.8 42.1-16.9 66-16.9 19.4 0 37.8 4 54.6 11.3zm21.2 11.3c36.5 22.9 62.1 61.6 66.8 106.5 14.9 6.9 31.4 11 48.9 11 63.9 0 115.7-51.8 115.7-115.7 0-63.9-51.8-115.7-115.7-115.7-63.3-.1-114.7 50.8-115.7 113.9zm-75.8 237c63.9 0 115.7-51.8 115.7-115.7 0-63.9-51.8-115.7-115.7-115.7-63.9 0-115.8 51.8-115.8 115.7 0 63.8 51.9 115.7 115.8 115.7zm49.1 7.8h-98.2c-81.7 0-148.2 66.5-148.2 148.2v120.1l.3 1.9 8.3 2.6c78 24.4 145.7 32.5 201.5 32.5 108.9 0 172.1-31.1 175.9-33l7.7-3.9h.8V792c.1-81.7-66.4-148.2-148.1-148.2zM651 524.4h-97.5c-1.1 39-17.7 74.1-44 99.4 72.6 21.6 125.8 89 125.8 168.5v37c96.2-3.5 151.7-30.8 155.3-32.6l7.7-3.9h.8V672.5c.1-81.7-66.4-148.1-148.1-148.1zm26.1-241.9c36.5 22.9 62.1 61.6 66.7 106.5 14.9 6.9 31.4 11 48.9 11 63.9 0 115.8-51.8 115.8-115.7 0-63.9-51.8-115.7-115.8-115.7-63.3-.1-114.7 50.8-115.6 113.9zm164.7 125.4h-97.4c-1.1 39-17.7 74.1-44 99.4 72.6 21.6 125.8 89 125.8 168.5v37c96.2-3.5 151.7-30.8 155.3-32.6l7.7-3.9h.8V556.1c0-81.7-66.5-148.2-148.2-148.2zM207.3 516.5c22.6 0 43.7-6.6 61.6-17.9 5.7-37 25.5-69.3 53.8-91.4.1-2.2.3-4.3.3-6.5 0-63.9-51.8-115.7-115.7-115.7-63.9 0-115.8 51.8-115.8 115.7s51.9 115.8 115.8 115.8zm104 107.2c-26.2-25.1-42.8-60-44-98.8-3.6-.3-7.2-.5-10.9-.5h-98.2C76.5 524.4 10 590.8 10 672.6v120.1l.3 1.9 8.3 2.6c62.5 19.6 118.4 28.5 166.9 31.4v-36.3c0-79.6 53.1-147 125.8-168.6z"/></svg>